<?xml version="1.0" standalone="no"?>
<!DOCTYPE svg PUBLIC "-//W3C//DTD SVG 20010904//EN"
 "http://www.w3.org/TR/2001/REC-SVG-20010904/DTD/svg10.dtd">
<svg version="1.0" xmlns="http://www.w3.org/2000/svg"
 width="700.000000pt" height="700.000000pt" viewBox="0 0 700.000000 700.000000"
 preserveAspectRatio="xMidYMid meet">
<metadata>
Created by potrace 1.11, written by Peter Selinger 2001-2013
</metadata>
<g transform="translate(0.000000,700.000000) scale(0.100000,-0.100000)"
fill="#000000" stroke="none">
<path d="M3014 5758 c-82 -62 -975 -884 -980 -902 -3 -12 18 -120 46 -241 54
-236 63 -255 120 -255 16 0 75 11 132 24 56 14 106 22 109 18 4 -4 18 -55 31
-115 l25 -107 -21 -5 c-22 -6 -970 -223 -1918 -441 l-558 -128 0 -108 c0 -70
4 -108 11 -108 6 0 572 128 1259 285 686 157 1255 285 1263 285 8 0 17 -10 20
-22 76 -332 78 -338 140 -338 17 0 57 7 87 15 30 8 60 15 65 15 7 0 9 -103 7
-295 l-3 -295 -83 0 c-68 0 -88 -4 -107 -19 -23 -19 -24 -24 -27 -195 l-3
-176 -1315 0 -1314 0 0 -110 0 -110 1314 0 1315 0 3 -176 c4 -216 2 -214 134
-214 l84 0 0 -345 0 -345 -1425 0 -1425 0 0 -80 0 -80 3500 0 3500 0 0 80 0
80 -1420 0 -1420 0 0 345 0 345 81 0 c44 0 89 4 99 10 31 17 40 67 40 226 l0
154 1310 0 1310 0 0 110 0 110 -1310 0 -1310 0 0 154 c0 159 -9 209 -40 226
-10 6 -55 10 -99 10 l-80 0 -3 295 c-3 291 -3 295 -26 317 l-23 23 -514 5
-515 5 592 135 c633 144 640 147 641 206 1 16 -14 95 -33 176 -19 81 -32 149
-29 152 2 3 54 16 114 30 388 88 2603 598 2618 602 15 5 17 19 17 116 l0 111
-27 -6 c-16 -3 -646 -148 -1402 -322 -756 -173 -1375 -314 -1376 -313 -2 2
-13 48 -25 103 -13 55 -25 105 -27 112 -3 7 43 22 134 43 150 35 180 48 189
83 7 31 -91 455 -111 477 -9 10 -48 27 -88 38 -40 12 -326 96 -636 187 -310
91 -569 165 -576 165 -6 0 -25 -10 -41 -22z m504 -273 c235 -69 435 -129 445
-133 11 -4 -122 -39 -370 -96 -908 -209 -1198 -275 -1199 -273 -3 3 686 627
692 627 2 0 197 -56 432 -125z m726 -262 c15 -52 49 -223 45 -226 -7 -6 -2022
-467 -2026 -463 -6 6 -57 236 -52 240 5 5 1987 463 2011 465 9 0 19 -7 22 -16z
m-175 -811 c40 -173 70 -316 67 -319 -6 -6 -1379 -323 -1383 -320 -3 4 -53
223 -55 247 -3 18 81 67 642 378 509 283 646 355 651 343 3 -9 39 -157 78
-329z m-69 -1132 l0 -240 -495 0 -495 0 0 240 0 240 495 0 495 0 0 -240z m220
-740 l0 -350 -715 0 -715 0 0 350 0 350 715 0 715 0 0 -350z m-220 -850 l0
-340 -495 0 -495 0 2 222 3 223 470 116 c259 64 480 117 493 118 l22 1 0 -340z"/>
</g>
</svg>
