<?xml version="1.0" encoding="utf-8"?>
<!-- Generator: Adobe Illustrator 16.0.0, SVG Export Plug-In . SVG Version: 6.00 Build 0)  -->
<!DOCTYPE svg PUBLIC "-//W3C//DTD SVG 1.1//EN" "http://www.w3.org/Graphics/SVG/1.1/DTD/svg11.dtd">
<svg version="1.1" id="Capa_1" xmlns="http://www.w3.org/2000/svg" xmlns:xlink="http://www.w3.org/1999/xlink" x="0px" y="0px"
	 width="42.902px" height="47px" viewBox="0 0 42.902 47" enable-background="new 0 0 42.902 47" xml:space="preserve">
<g>
	<g>
		<path fill="#C62F33" d="M4.308,38.387c11.844-8.882,23.697-17.755,36-26c0.854-0.573,0.052-1.964-0.812-1.386
			c-12.301,8.245-24.155,17.118-36,26C2.68,37.614,3.479,39.009,4.308,38.387L4.308,38.387z"/>
	</g>
</g>
<g>
	<g>
		<path fill="#C62F33" d="M9.129,9.908c3.526,12.687,13.64,21.787,21.08,32.191c0.598,0.834,1.99,0.033,1.388-0.811
			C24.239,31.005,14.159,22.01,10.676,9.481C10.399,8.485,8.851,8.909,9.129,9.908L9.129,9.908z"/>
	</g>
</g>
<g>
	<g>
		<path fill="#C62F33" d="M6.308,39.387c10.015-5.66,19.658-12.75,26.288-22.288c0.532-0.767-0.627-1.596-1.262-0.973
			c-4.88,4.796-10.12,9.203-15,14c-0.738,0.728,0.396,1.86,1.136,1.135c4.88-4.796,10.119-9.203,15-14
			c-0.421-0.324-0.841-0.648-1.262-0.973C24.738,25.6,15.269,32.479,5.497,38C4.597,38.511,5.405,39.896,6.308,39.387L6.308,39.387z
			"/>
	</g>
</g>
<g>
	<g>
		<path fill="#C62F33" d="M11.209,13.1c5.98,8.444,11.476,17.253,17,26c0.553,0.873,1.941,0.067,1.388-0.811
			c-5.526-8.746-11.021-17.555-17-26C12.002,11.452,10.609,12.252,11.209,13.1L11.209,13.1z"/>
	</g>
</g>
</svg>
