<?xml version="1.0" encoding="utf-8"?>
<!-- Generator: Adobe Illustrator 16.0.0, SVG Export Plug-In . SVG Version: 6.00 Build 0)  -->
<!DOCTYPE svg PUBLIC "-//W3C//DTD SVG 1.1//EN" "http://www.w3.org/Graphics/SVG/1.1/DTD/svg11.dtd">
<svg version="1.1" id="Capa_1" xmlns="http://www.w3.org/2000/svg" xmlns:xlink="http://www.w3.org/1999/xlink" x="0px" y="0px"
	 width="329.667px" height="224px" viewBox="0 0 329.667 224" enable-background="new 0 0 329.667 224" xml:space="preserve">
<g>
	<g>
		<path fill-rule="evenodd" clip-rule="evenodd" d="M1.994,38.16L3,63.189c0,0,5.884,7.836,4.464,10.371
			c-1.42,2.536-5.471,24.311-5.471,24.311l14.747,8.85L76.015,93.94l15.733-1.43l6.826,13.23l15.343-2.145l3.799,2.796l10.145-5.964
			c0,0,4.569,6.338,14.125,5.076c9.556-1.262,16.628-2.634,16.628-2.634l4.926-3.926l15.813,1.484l11.442,6.292l22.286-15.977
			l31.349-8.605l0.813-12.872l9.735-1.25l-5.176-54.25l-26.411-2.071l-3.403,4.473l-29.192,10.053l-9.356,1.489h-6.02l-33.433-9.576
			l-44.875,3.933l-12.515,7.509c0,0-2.541,9.757-4.292,10.726c-1.75,0.968-16.269-12.592-16.269-12.592l-14.54,5.801L1.994,38.16z"
			/>
	</g>
	<g>
		<g>
			<polygon fill-rule="evenodd" clip-rule="evenodd" fill="#CCCBCB" points="257.337,85.972 249.332,84.007 244.685,41.468 
				235.452,39.328 233.98,27.126 244.88,17.708 241.011,7.584 278.206,3.012 290.558,10.081 296.933,7.036 307.7,18.673 
				319.654,16.488 326.616,43.52 319.306,52.253 318.576,69.56 283.173,82.914 278.382,92.183 264.515,99.045 			"/>
		</g>
		<g>
			<path d="M277.908,4.491l12.591,7.205l6.1-2.914l10.585,11.441l11.418-2.087l6.445,25.029l-7.149,8.542l-0.711,16.847
				l-35.032,13.215l-4.827,9.339l-12.217,6.046l-6.821-12.422l-7.644-1.876l-4.647-42.553l-9.245-2.143l-1.261-10.449l11.084-9.576
				l-3.574-9.354L277.908,4.491 M278.503,1.534l-0.945,0.116l-34.906,4.291l-3.63,0.446l1.306,3.417l2.858,7.478l-9.565,8.263
				l-1.152,0.996l0.182,1.512l1.261,10.45l0.24,1.992l1.955,0.454l7.267,1.684l4.428,40.534l0.217,1.991l1.946,0.478l6.423,1.576
				l6.215,11.32l1.32,2.404l2.458-1.217l12.217-6.046l0.842-0.417l0.431-0.834l4.324-8.364l34.003-12.827l1.771-0.667l0.079-1.89
				l0.671-15.876l6.525-7.797l0.943-1.127l-0.367-1.423l-6.445-25.03l-0.664-2.581l-2.623,0.479l-9.869,1.804l-9.518-10.286
				l-1.432-1.547l-1.902,0.909l-4.746,2.267l-11.289-6.46L278.503,1.534L278.503,1.534z"/>
		</g>
	</g>
	<g>
		<g>
			<path fill-rule="evenodd" clip-rule="evenodd" fill="#CCCBCB" d="M14.221,201.067l-4.78-20.426l3.12-12.155l-4.703-9.19
				l2.28-3.558l-1.95-3.606l8.276-11.976l40.98-14.011l23.6-2.439l7.591,7.369l11.045-0.977l10.082-8.259l23.817-0.363l12.092-3.611
				l29.154,4.447l9.099-4.574l17.659,8.237l7.677-3.521l13.32-4.017l13.627-10.143l21.602-2.401l54.025,3.68l1.877,13.219
				l-3.982,3.654l-1.156,12.345l-26.256,37.43l-15.22,10.616l-0.617-0.141c-10.778-2.451-32.183-7.119-36.041-7.244l-0.092-0.002
				c-3.403,0-7.693,5.81-8.929,7.844l-0.619,1.021l-1.115-0.427c-3.314-1.269-8.346-3.009-10.236-3.32
				c-0.525,0.62-1.498,1.304-3.038,2.271c-1.575,0.99-3.778,2.265-6.547,3.791c-4.692,2.586-9.47,5.041-9.517,5.064l-0.322,0.166
				l-49.374-1.084H88.406l-72.97,24.473L14.221,201.067z"/>
		</g>
		<g>
			<path d="M257.84,107.33l52.741,3.592l1.608,11.325l-3.833,3.518l-1.174,12.516l-25.893,36.912l-14.492,10.107
				c0,0-31.296-7.115-36.313-7.277c-0.046-0.002-0.092-0.003-0.138-0.003c-4.976,0-10.151,8.532-10.151,8.532
				s-9.046-3.463-11.225-3.463c-0.318,0-0.49,0.073-0.465,0.244c0.194,1.331-18.814,11.088-18.814,11.088l-49.011-1.076h-52.51
				L16.74,217.302l-1.099-16.446l-4.727-20.199l3.168-12.34l-4.576-8.941l2.292-3.576l-1.933-3.576l7.509-10.865l40.38-13.806
				l22.773-2.354l7.582,7.36l12.138-1.073l10.037-8.223l23.516-0.357l11.974-3.577l29.288,4.468l8.887-4.468l17.631,8.225
				l8.189-3.757l13.467-4.061l13.517-10.061L257.84,107.33 M257.779,104.457l-0.255,0.028l-21.088,2.344l-0.771,0.086l-0.622,0.462
				l-13.114,9.762l-12.986,3.916l-0.188,0.057l-0.179,0.082l-6.986,3.205l-16.431-7.665l-1.257-0.587l-1.238,0.623l-8.072,4.059
				l-28.385-4.33l-0.635-0.098l-0.615,0.185l-11.595,3.463l-23.12,0.353l-0.998,0.015l-0.772,0.633l-9.354,7.663l-9.954,0.881
				l-6.642-6.448l-0.958-0.931l-1.33,0.137l-22.773,2.355l-0.323,0.033l-0.309,0.105l-40.38,13.805l-0.893,0.305l-0.536,0.776
				L7.51,150.596l-0.998,1.443l0.835,1.545l1.13,2.092l-1.381,2.155l-0.887,1.384l0.749,1.465l4.083,7.975l-2.898,11.291
				l-0.174,0.68l0.16,0.684l4.673,19.971l1.083,16.213l0.247,3.703l3.519-1.18l70.989-23.81h52.011l48.979,1.076l0.725,0.017
				l0.646-0.332c0.048-0.024,4.845-2.488,9.554-5.084c2.793-1.539,5.02-2.829,6.617-3.833c1.003-0.63,1.98-1.244,2.741-1.925
				c1.958,0.477,5.963,1.836,9.261,3.1l2.23,0.854l1.24-2.043c1.828-2.998,5.523-7.154,7.704-7.154l0.047,0.001
				c3.478,0.112,23.296,4.372,35.769,7.209l1.234,0.28l1.038-0.725l14.492-10.107l0.415-0.29l0.291-0.415l25.893-36.911l0.436-0.622
				l0.071-0.755l1.069-11.419l3.021-2.771l1.111-1.02l-0.212-1.492l-1.608-11.325l-0.326-2.296l-2.313-0.158l-52.742-3.592
				L257.779,104.457L257.779,104.457z"/>
		</g>
	</g>
	<g>
		<g>
			<polygon fill-rule="evenodd" clip-rule="evenodd" fill="#59585C" points="25.391,113.406 12.585,98.817 12.585,84.822 
				7.197,42.41 12.085,39.533 10.815,26.542 31.535,22.719 35.87,18.697 51.468,22.769 49.936,48.599 54.313,103.91 47.985,115.432 
							"/>
		</g>
		<g>
			<path d="M36.268,20.28l13.702,3.576l-1.469,24.757l4.352,54.983l-5.671,10.326l-21.092-1.891L14.017,98.278V84.732L8.735,43.165
				l4.863-2.861l-1.23-12.592l19.836-3.661L36.268,20.28 M35.472,17.114l-1.151,1.067l-3.454,3.205l-19.019,3.509l-2.585,0.477
				l0.256,2.616l1.053,10.774l-3.288,1.935l-1.625,0.957l0.238,1.871l5.258,41.387v13.366v1.078l0.711,0.811l12.072,13.753
				l0.755,0.859l1.14,0.103l21.092,1.892l1.864,0.167l0.9-1.64l5.671-10.328l0.412-0.75l-0.068-0.854L51.37,48.585l1.457-24.559
				l0.139-2.346l-2.273-0.593l-13.702-3.576L35.472,17.114L35.472,17.114z"/>
		</g>
	</g>
	<g>
		<g>
			<polygon fill-rule="evenodd" clip-rule="evenodd" fill="#FFFFFF" points="53.86,87.056 54.875,77.558 50.144,53.399 
				58.43,45.496 93.18,45.861 93.18,53.754 96.599,71.103 103.17,73.643 103.623,95.128 66.146,101.988 			"/>
		</g>
		<g>
			<path d="M58.997,46.933l32.752,0.345v6.616l3.599,18.26l6.412,2.479l0.407,19.308l-35.45,6.489l-11.37-13.818l0.975-9.116
				l-4.623-23.602L58.997,46.933 M57.863,44.059l-0.842,0.803l-7.298,6.96l-1.135,1.082l0.302,1.539l4.539,23.177L52.5,86.307
				l-0.127,1.195l0.764,0.928l11.37,13.817l1.07,1.3l1.656-0.303l35.45-6.489l2.397-0.439l-0.051-2.437l-0.408-19.309l-0.04-1.917
				l-1.789-0.692l-4.94-1.91l-3.24-16.438v-6.336v-2.833l-2.832-0.03l-32.752-0.344L57.863,44.059L57.863,44.059z"/>
		</g>
	</g>
	<g>
		<g>
			<path fill="#FFFFFF" d="M201.791,92.341L191.765,38.46l6.43-7.47l8.992-2.898l11.41,2.749l5.643-6.64l0.49-0.097
				c0.096-0.019,2.363-0.461,4.864-0.461c5.313,0,6.897,2.037,7.292,3.746c0.944,4.092,0.158,23.667,0.041,26.448l5.063,41.159
				l-21.751-1.03l-5.522,4.516L201.791,92.341z"/>
		</g>
		<g>
			<path d="M229.594,25.074c2.591,0,5.407,0.511,5.897,2.637c0.943,4.087,0,26.183,0,26.183l4.871,39.592l-20.604-0.976l-5.246,4.29
				l-11.449-5.438l-9.766-52.488l5.719-6.644l8.227-2.652l11.873,2.861l5.891-6.931C225.007,25.508,227.205,25.074,229.594,25.074
				 M229.595,22.212L229.595,22.212c-2.641,0-5.042,0.469-5.143,0.488l-0.979,0.194l-0.646,0.761l-4.751,5.589l-10.162-2.449
				l-0.782-0.188l-0.767,0.247l-8.226,2.651l-0.767,0.247l-0.525,0.61l-5.718,6.644l-0.896,1.041l0.25,1.35l9.766,52.488
				l0.268,1.436l1.318,0.626l11.449,5.438l1.637,0.777l1.403-1.147l4.396-3.594l19.507,0.923l3.391,0.161l-0.415-3.369
				l-4.842-39.357c0.179-4.252,0.881-22.545-0.081-26.712c-0.256-1.111-1.114-3.13-3.979-4.164
				C233.033,22.444,231.449,22.212,229.595,22.212L229.595,22.212z"/>
		</g>
	</g>
	<g>
		<polygon fill-rule="evenodd" clip-rule="evenodd" points="17.374,179.937 20.77,210.151 36.268,221.936 66.716,218.167 
			72.975,200.938 74.584,150.436 78.094,142.569 70.354,132.558 59.925,129.699 59.925,123.262 39.644,122.247 24.465,131.485 
			28.638,143.036 24.167,147.379 32.765,172.604 		"/>
	</g>
	<g>
		<g>
			<path fill-rule="evenodd" clip-rule="evenodd" fill="#FFFFFF" d="M76.912,211.159c-0.679,0-1.287-0.266-1.712-0.748
				c-0.771-0.873-0.714-2.135-0.605-3.009c0.397-3.177-2.096-10.712-3.917-16.212c-2.34-7.068-2.86-8.99-2.188-10.172
				c0.11-0.193,0.25-0.359,0.415-0.492c0.196-1.902-1.457-9.423-3.208-15.701l-0.091-0.324l1.646-8.585l25.928-7.374v1.275
				l3.185-4.564h5.573l9.286-3.042l-2.012,8.851l4.152,0.693l0.356,24.637l8.959,0.92l5.811,10.656l0.044,0.177
				c0.268,1.063,2.537,10.497-0.244,14.196c-0.664,0.884-2.428,3.229-21.08,3.229c-0.001,0,0,0-0.001,0
				c-2.63,0-4.476-0.054-4.494-0.055l-0.134-0.004l-4.414-0.969l-13.264,0.93C83.037,207.467,79.264,211.159,76.912,211.159z"/>
		</g>
		<g>
			<path d="M109.269,144.357l-1.788,7.866l4.47,0.746l0.357,24.715l9.476,0.974l5.363,9.836c0,0,2.451,9.728,0,12.987
				c-1.747,2.323-13.39,2.657-19.937,2.657c-2.639,0-4.451-0.054-4.451-0.054l-4.485-0.984l-14.035,0.984
				c0,0-5.155,5.643-7.327,5.643c-0.702,0-1.092-0.589-0.897-2.147c0.799-6.382-7.956-25.579-6.112-25.987
				c1.843-0.405-2.829-17.152-2.829-17.152l1.417-7.389l23.257-6.615v3.934l5.363-7.686h5.055L109.269,144.357 M113.18,140.064
				l-4.803,1.573l-6.668,2.184h-4.598h-1.493l-0.854,1.225l-1.355,1.943l-2.443,0.695l-23.257,6.613l-1.696,0.482l-0.332,1.732
				l-1.417,7.389l-0.127,0.66l0.181,0.647c1.56,5.592,3.09,12.429,3.161,14.749c-0.085,0.111-0.163,0.23-0.233,0.354
				c-1.014,1.783-0.358,3.98,2.074,11.328c1.678,5.068,4.213,12.729,3.856,15.586c-0.083,0.66-0.335,2.675,0.952,4.133
				c0.701,0.795,1.69,1.232,2.785,1.232c1.724,0,3.638-1.065,6.398-3.562c0.885-0.8,1.683-1.595,2.239-2.167l12.514-0.878
				l4.083,0.896l0.261,0.058l0.267,0.008c0.076,0.003,1.885,0.056,4.537,0.056c3.228,0,7.937-0.082,12.039-0.471
				c5.876-0.556,8.827-1.521,10.187-3.329c1.487-1.979,1.971-5.165,1.477-9.743c-0.324-3.003-0.962-5.557-0.989-5.663l-0.089-0.353
				l-0.174-0.318l-5.362-9.836l-0.722-1.323l-1.499-0.153l-6.943-0.714l-0.32-22.169l-0.035-2.389l-2.356-0.394l-1.479-0.247
				l1.116-4.907L113.18,140.064L113.18,140.064z"/>
		</g>
	</g>
	<g>
		<path fill-rule="evenodd" clip-rule="evenodd" d="M114.99,146.145l5.048,16.171c0,0,8.274,12.056,8.44,16.824
			c0.167,4.769,4.083,5.519,4.749,11.345c0.665,5.826,9.077,21.633,9.077,21.633h7.728l13.508-10.637c0,0-5.491-6.811-2.065-8.137
			s3.934-4.648,3.934-4.648l-1.869-10.038c0,0,2.846-16.627,5.442-19.999c2.596-3.371-1.22-28.96-1.22-28.96l-21.988-1.729v5.304
			l-25.063,5.007l2.861,2.244L114.99,146.145z"/>
	</g>
	<g>
		<path fill-rule="evenodd" clip-rule="evenodd" d="M239.067,107.889v11.658l1.966,5.65l-1.249,5.572c0,0,7.373,11.955,4.646,19.666
			c-2.726,7.713,5.565,3.257,3.089,8.348c-2.477,5.09-1.525,9.89-1.525,9.89l2.479,17.878l6.506,5.005l9.103-1.071l2.718-15.732
			l2.484-11.801c0,0-0.568-15.85,0-19.152c0.566-3.302-3.404-20.537-3.404-20.537l-1.798-17.521l-18.838-2.451L239.067,107.889z"/>
	</g>
	<g>
		<polyline fill-rule="evenodd" clip-rule="evenodd" fill="#FFFFFF" points="296.598,98.99 284.829,100.429 270.31,109.023 
			271.347,114.5 269.006,116.825 272.378,127.106 273.695,136.133 274.167,144.357 277.327,144.357 274.824,155.799 
			278.578,159.701 277.327,171.889 281.291,179.341 287.978,178.658 292.345,174.752 296.598,174.036 299.855,170.043 
			308.455,170.868 318.242,174.036 319.597,164.44 322.739,159.375 316.662,148.292 322.739,144.357 311.296,143.036 
			313.085,140.066 311.902,135.776 305.218,138.28 303.099,135.059 298.24,133.273 302.391,127.969 299.483,123.262 
			304.502,113.248 296.598,100.429 		"/>
		<path d="M281.291,180.772c-0.525,0-1.013-0.289-1.264-0.759l-3.964-7.451c-0.134-0.251-0.188-0.536-0.16-0.819l1.185-11.527
			l-3.295-3.424c-0.332-0.344-0.469-0.831-0.367-1.298l2.123-9.705h-1.382c-0.759,0-1.386-0.593-1.429-1.35l-0.469-8.161
			l-1.289-8.843l-3.334-10.165c-0.168-0.514-0.032-1.079,0.352-1.461l1.803-1.789l-0.896-4.73c-0.111-0.592,0.158-1.191,0.678-1.498
			l14.518-8.595c0.171-0.101,0.359-0.166,0.557-0.189l11.769-1.438c0.782-0.094,1.499,0.462,1.595,1.247
			c0.039,0.322-0.032,0.632-0.184,0.893l7.885,12.788c0.261,0.422,0.283,0.949,0.062,1.392l-4.661,9.301l2.488,4.027
			c0.314,0.51,0.278,1.162-0.092,1.635l-2.939,3.756l3.015,1.108c0.288,0.105,0.533,0.3,0.702,0.556l1.491,2.267l5.614-2.103
			c0.377-0.141,0.795-0.117,1.152,0.065c0.358,0.183,0.623,0.507,0.73,0.895l1.182,4.29c0.104,0.377,0.049,0.781-0.153,1.117
			l-0.642,1.066l9.234,1.066c0.6,0.068,1.092,0.508,1.229,1.096c0.138,0.588-0.108,1.199-0.615,1.527l-4.961,3.211l5.438,9.918
			c0.248,0.453,0.233,1.004-0.039,1.442l-2.982,4.808l-1.313,9.299c-0.06,0.418-0.3,0.789-0.659,1.013
			c-0.357,0.224-0.797,0.278-1.199,0.147l-9.638-3.12l-7.682-0.735l-2.774,3.399c-0.219,0.269-0.528,0.448-0.871,0.507l-3.845,0.647
			l-4.058,3.629c-0.226,0.202-0.508,0.327-0.809,0.357l-6.688,0.683C281.388,180.77,281.339,180.772,281.291,180.772z
			 M278.794,171.602l3.309,6.218l5.268-0.538l4.021-3.596c0.201-0.18,0.45-0.3,0.716-0.345l3.723-0.627l2.917-3.575
			c0.302-0.371,0.771-0.565,1.245-0.52l8.6,0.822c0.104,0.01,0.205,0.031,0.305,0.063l8.166,2.645l1.118-7.911
			c0.027-0.195,0.097-0.385,0.2-0.554l2.702-4.354l-5.676-10.351c-0.36-0.657-0.152-1.481,0.478-1.89l2.731-1.769l-7.483-0.864
			c-0.483-0.057-0.905-0.354-1.12-0.791c-0.214-0.436-0.192-0.952,0.059-1.369l1.472-2.443l-0.604-2.188l-5.219,1.954
			c-0.625,0.234-1.33,0.004-1.697-0.553l-1.86-2.826l-4.417-1.624c-0.43-0.158-0.758-0.512-0.883-0.952
			c-0.125-0.439-0.032-0.913,0.25-1.273l3.536-4.518l-2.384-3.859c-0.261-0.422-0.284-0.949-0.062-1.393l4.661-9.301l-7.484-12.141
			c-0.111-0.181-0.178-0.376-0.203-0.574l-9.877,1.207l-13.396,7.931l0.85,4.489c0.089,0.467-0.061,0.947-0.397,1.282l-1.715,1.702
			l3.097,9.443c0.025,0.078,0.045,0.158,0.057,0.239l1.316,9.026c0.006,0.041,0.01,0.083,0.012,0.125l0.395,6.875h1.81
			c0.433,0,0.843,0.195,1.114,0.533s0.377,0.78,0.283,1.203l-2.339,10.695l3.224,3.351c0.293,0.304,0.436,0.72,0.393,1.138
			L278.794,171.602z"/>
	</g>
	<g>
		<g>
			<polygon fill="#FFFFFF" points="30.796,104.798 25.788,53.746 34.333,52.877 41.915,55.395 43.838,106.142 			"/>
		</g>
		<g>
			<path d="M34.182,54.242l6.426,2.134l1.83,48.272l-10.413-1.073l-4.771-48.628L34.182,54.242 M34.483,51.512l-0.572,0.058
				l-6.928,0.705l-2.662,0.271l0.262,2.663l4.771,48.628l0.215,2.184l2.183,0.225l10.412,1.073l3.076,0.317l-0.117-3.089
				l-1.83-48.272l-0.071-1.86l-1.766-0.586l-6.426-2.135L34.483,51.512L34.483,51.512z"/>
		</g>
	</g>
	<g>
		<polygon fill-rule="evenodd" clip-rule="evenodd" points="58.518,54.915 67.075,94.592 74.071,92.313 65.644,55.032 		"/>
	</g>
	<g>
		<polygon fill-rule="evenodd" clip-rule="evenodd" points="66.294,63.258 82.371,55.75 87.618,79.352 97.657,79.352 97.657,88.465 
			81.976,85.057 76.933,65.67 68.555,67.907 		"/>
	</g>
	<g>
		<polygon fill-rule="evenodd" clip-rule="evenodd" fill="#FFFFFF" points="105.746,34.299 111.47,92.76 119.58,90.436 
			114.99,33.86 		"/>
	</g>
	<g>
		<polygon fill-rule="evenodd" clip-rule="evenodd" fill="#FFFFFF" points="105.746,34.299 142.438,30.006 142.438,39.305 
			106.55,45.383 		"/>
	</g>
	<g>
		<polygon fill-rule="evenodd" clip-rule="evenodd" fill="#FFFFFF" points="112.663,60.756 135.799,55.75 135.799,63.31 
			114.99,69.339 		"/>
	</g>
	<g>
		<g>
			<path fill="#FFFFFF" d="M148.954,90.503c4.128-16.676,8.257-33.353,12.385-50.029c0.577-2.331,1.154-4.661,1.731-6.992
				c-1.49,0.327-2.979,0.654-4.469,0.98c7.598,15.172,15.196,30.344,22.794,45.516c2.741,5.475,5.483,10.95,8.226,16.424
				c0.591,1.181,4.904-0.388,4.494-1.205c-7.598-15.172-15.195-30.344-22.794-45.516c-2.741-5.475-5.483-10.949-8.225-16.424
				c-0.521-1.04-4.22-0.024-4.469,0.981c-4.128,16.676-8.257,33.353-12.385,50.029c-0.577,2.331-1.154,4.662-1.731,6.992
				C144.24,92.354,148.662,91.68,148.954,90.503L148.954,90.503z"/>
		</g>
	</g>
	<g>
		<g>
			<path fill="#FFFFFF" d="M131.434,75.294c16.287-5.433,32.573-10.865,48.86-16.298c3.409-1.138,6.818-2.275,10.229-3.412
				c0.928-0.31,2.114-1.102,1.803-2.264c-0.29-1.081-1.765-1.37-2.693-1.06c-16.286,5.433-32.573,10.866-48.86,16.298
				c-3.41,1.137-6.819,2.275-10.229,3.412c-0.927,0.31-2.114,1.102-1.802,2.264C129.031,75.315,130.505,75.604,131.434,75.294
				L131.434,75.294z"/>
		</g>
	</g>
	<g>
		<g>
			<path fill="#FFFFFF" d="M185.296,63.232c-0.076,7.605-3.846,14.879-10.511,18.754c-6.667,3.877-14.959,3.42-21.407-0.67
				c-6.546-4.153-10.308-11.695-10.075-19.385c0.23-7.575,4.587-14.672,11.283-18.226c6.516-3.458,14.46-2.804,20.615,1.101
				C181.447,48.768,185.222,55.88,185.296,63.232c0.024,2.368,4.575,1.683,4.555-0.341c-0.078-7.779-3.574-14.871-9.719-19.652
				c-6.259-4.87-14.716-6.164-22.297-4.214c-7.456,1.918-13.774,7.327-16.967,14.298c-3.264,7.127-2.66,15.437,1.111,22.221
				c5.596,10.067,17.888,14.353,28.767,11.553c10.939-2.814,18.991-12.91,19.105-24.206
				C189.875,60.527,185.317,61.202,185.296,63.232z"/>
		</g>
	</g>
	<g>
		<g>
			<path d="M212.812,82.95c-2.227-14.065-4.453-28.131-6.68-42.196c-1.729,0.463-3.457,0.926-5.187,1.39
				c8.818,14.166,17.637,28.332,26.456,42.498c0.382,0.614,0.764,1.228,1.146,1.842c0.709,1.139,5.297,0.005,5.187-1.39
				c-1.341-16.842-2.683-33.685-4.024-50.527c-0.09-1.127-0.179-2.254-0.269-3.381c-0.085-1.059-5.306-0.096-5.187,1.39
				c1.341,16.842,2.682,33.685,4.023,50.527c0.09,1.127,0.18,2.254,0.27,3.381c1.729-0.463,3.457-0.927,5.187-1.39
				c-8.819-14.166-17.638-28.331-26.456-42.497c-0.382-0.614-0.764-1.228-1.146-1.842c-0.699-1.123-5.402,0.028-5.187,1.39
				c2.226,14.065,4.452,28.131,6.679,42.196C207.807,85.493,213.033,84.347,212.812,82.95L212.812,82.95z"/>
		</g>
	</g>
	<g>
		<polygon fill-rule="evenodd" clip-rule="evenodd" points="246.473,25.075 247.912,34.65 284.486,25.075 283.132,16.09 		"/>
	</g>
	<g>
		<polygon fill-rule="evenodd" clip-rule="evenodd" points="260.187,31.436 266.986,86.855 276.527,82.052 270.769,26.372 		"/>
	</g>
	<g>
		<path fill-rule="evenodd" clip-rule="evenodd" d="M295.873,26.786c0,0-16.154,4.468-15.603,15.2
			c-0.909,4.828-4.044,15.596,4.931,20.32c4.466,4.464,21.284,8.214,26.989-1.909C313.679,56.614,320.976,28.632,295.873,26.786z
			 M304.773,53.967c-3.006,5.333-11.862,3.358-14.213,1.005c-4.729-2.487-2.598-9.57-2.598-10.699
			c-0.289-5.651,8.217-8.006,8.217-8.006C309.398,37.241,304.773,51.431,304.773,53.967z"/>
	</g>
	<g>
		<g>
			<path fill="#FFFFFF" d="M31.006,48.345c-3.111,0-5.256-2.924-6.172-4.172c-0.099-0.135-0.22-0.299-0.276-0.369
				c-3.658-3.324-0.349-9.422-0.206-9.681l0.113-0.204l0.175-0.154c1.828-1.61,3.72-2.426,5.622-2.426
				c4.238,0,7.129,3.92,8.682,6.026c0.257,0.348,0.548,0.743,0.661,0.854l0.251,0.247l0.098,0.338
				c0.531,1.832,0.129,3.719-1.163,5.455c-1.531,2.059-4.354,3.761-6.404,3.892C31.93,48.28,31.467,48.345,31.006,48.345
				L31.006,48.345z"/>
		</g>
		<g>
			<path d="M30.261,32.682c4.432,0,7.438,5.549,8.402,6.496c1.199,4.137-4.159,7.616-6.501,7.639
				c-0.399,0.128-0.785,0.186-1.156,0.186c-2.96,0-5-3.657-5.504-4.154c-2.984-2.638,0.024-8.076,0.024-8.076
				C27.241,33.263,28.825,32.682,30.261,32.682 M30.261,29.997c-2.238,0-4.429,0.929-6.509,2.761l-0.35,0.308l-0.225,0.408
				c-1.482,2.679-3.036,8.017,0.388,11.242c0.051,0.068,0.126,0.171,0.186,0.251c1.036,1.413,3.463,4.721,7.255,4.721
				c0.538,0,1.077-0.07,1.608-0.208c2.45-0.217,5.491-2.051,7.252-4.419c1.53-2.056,2.018-4.411,1.375-6.63l-0.196-0.675
				l-0.482-0.474c-0.097-0.11-0.343-0.443-0.542-0.713C38.45,34.435,35.177,29.997,30.261,29.997L30.261,29.997z"/>
		</g>
	</g>
	<g>
		<path fill-rule="evenodd" clip-rule="evenodd" fill="#FFFFFF" d="M24.182,183.94c0,0,1.308,27.826,8.281,29.639
			s24.585,1.604,28.659-4.017s-2.604-58.003-2.604-58.003l10.495-4.137l-3.816-9.313l-33.394,10.494l3.817,8.587l10.494-3.339
			c0,0,8.587,46.272,5.725,46.272c-2.862,0-16.695,3.815-17.649-0.954c-0.955-4.771-0.955-19.081-0.955-19.081L24.182,183.94z"/>
	</g>
	<g>
		<path fill-rule="evenodd" clip-rule="evenodd" fill="#FFFFFF" d="M40.506,129.252c0,0-2.125,3.842-0.017,5.707
			c0.402,0.396,2.177,3.619,4.708,2.807c1.654-0.017,5.441-2.476,4.594-5.4C48.89,131.479,45.458,124.891,40.506,129.252z"/>
	</g>
	<g>
		<path fill-rule="evenodd" clip-rule="evenodd" d="M76.646,162.916c0,0,1.908,32.438,7.633,32.438s18.127,0,20.99-2.861
			c2.862-2.861-0.954-37.209-0.954-37.209l-7.156,1.907c0,0,4.293,29.577,1.432,29.577c-2.862,0-10.495,0-10.495,0
			s-4.771-25.282-2.863-25.282L76.646,162.916z"/>
	</g>
	<g>
		<path fill-rule="evenodd" clip-rule="evenodd" d="M103.36,189.153c0,0,7.633,5.247,17.174,5.247c0.953,0-1.91-7.632-1.91-7.632
			s-13.356,0.955-13.356-8.586C105.269,168.639,103.36,189.153,103.36,189.153z"/>
	</g>
	<g>
		<polygon fill-rule="evenodd" clip-rule="evenodd" fill="#CCCBCB" points="151.064,136.678 159.651,138.586 150.11,198.217 
			144.863,201.079 122.918,148.604 131.506,144.311 142.955,178.182 		"/>
	</g>
	<g>
		<polygon fill-rule="evenodd" clip-rule="evenodd" fill="#FFFFFF" points="249.812,125.706 254.583,145.266 254.583,166.254 
			253.629,181.521 258.876,181.997 260.308,148.127 255.537,125.348 		"/>
	</g>
	<g>
		<path fill-rule="evenodd" clip-rule="evenodd" fill="#FFFFFF" d="M256.519,114.43c0,0-1.418-4.905-4.684-4.699
			c-0.656,0.007-4.767-1.178-6.172,1.575c-1.346,1.374-2.428,6.509,0.675,8.212C247.806,119.5,256.046,122.083,256.519,114.43z"/>
	</g>
	<g>
		<path fill-rule="evenodd" clip-rule="evenodd" d="M278.912,115.211c0,0,5.725,48.658,4.771,50.567l26.716-2.862
			c-1.908-14.789-1.908-14.789-1.908-14.789s-13.358,3.816-16.221,4.77l-0.953-41.026L278.912,115.211z"/>
	</g>
	<g>
		<g>
			<path d="M205.601,134.799c0.879,4.56,2.533,8.763,4,13.143c2.568,7.67,3.511,15.846,4.352,23.85
				c0.141,1.338,2.146,1.689,3.154,1.615c1.459-0.109,3.685-1.075,3.808-2.803c0.341-4.762-1.125-9.813-1.835-14.49
				c-0.834-5.482-1.69-11.435-0.197-16.88c-0.114,0.417,0.172-0.449,0.16-0.417c0.094-0.258,0.206-0.509,0.318-0.759
				c0.109-0.243,0.238-0.478,0.366-0.711c0.408-0.742-0.333,0.435,0.153-0.242c0.148-0.206,0.316-0.397,0.484-0.589
				c0.553-0.627-0.506,0.407,0.13-0.135c0.193-0.164,0.404-0.307,0.614-0.448c-0.754,0.509,0.205-0.06,0.395-0.142
				c-0.875,0.377-0.04,0.04,0.153-0.012c0.925-0.25-0.739,0.078,0.177-0.045c0.257-0.035,0.517-0.045,0.775-0.055
				c-0.885,0.031-0.147,0.012,0.061,0.035c0.762,0.089-0.653-0.201,0.058,0.006c0.202,0.06,0.394,0.145,0.586,0.229
				c-0.862-0.38,0.854,0.814,0.317,0.273c2.729,2.758,2.893,8.738,3.377,12.887c0.706,6.042,1.354,14.541,8.099,16.934
				c1.635,0.58,3.765,0.01,4.891-1.311c1.054-1.234,0.628-2.822-0.902-3.365c-0.226-0.08-0.445-0.168-0.664-0.266
				c0.63,0.281-0.03-0.05-0.139-0.12c-0.194-0.125-0.372-0.271-0.552-0.417c-0.58-0.473,0.351,0.382-0.164-0.172
				c-0.723-0.776-1.242-1.779-1.494-2.383c-0.957-2.279-1.363-4.787-1.713-7.22c-0.701-4.868-0.683-10.187-2.668-14.764
				c-2.401-5.536-8.002-6.376-13.266-4.333c-5.41,2.101-7.095,8.119-7.303,13.361c-0.2,5.025,0.57,10.096,1.364,15.043
				c0.36,2.244,0.754,4.482,1.082,6.73c0.126,0.861,0.235,1.725,0.315,2.592c0.025,0.305,0.027,0.307,0.007,0.009
				c0.015,0.208,0.021,0.415,0.028,0.622c0.012,0.359,0.004,0.717-0.022,1.074c2.321-0.396,4.642-0.791,6.962-1.188
				c-0.834-7.938-1.789-16.005-4.277-23.625c-1.46-4.467-3.18-8.727-4.075-13.367C211.894,129.722,204.965,131.504,205.601,134.799
				L205.601,134.799z"/>
		</g>
	</g>
	<g>
		<g>
			<path d="M177.875,165.645c6.001,0.352,12.48-0.918,17.094-5.005c3.217-2.851,4.824-6.947,4.813-11.192
				c-0.008-3.564-1.218-7.276-3.768-9.844c-3.346-3.367-8.258-3.207-12.439-1.711c-5.153,1.846-9.299,6.518-10.883,11.683
				c-1.585,5.165-0.619,10.975,1.518,15.826c2.17,4.925,5.754,9.308,10.535,11.872c5.516,2.96,12,2.188,17.385-0.626
				c3.088-1.613,5.637-4.2,7.76-6.917c1.035-1.325-0.873-1.98-1.865-1.999c-1.617-0.031-3.541,0.564-4.568,1.879
				c-0.994,1.272-2.064,2.426-3.295,3.476c-1.095,0.934-1.996,1.433-3.005,1.85c-0.962,0.397,0.7-0.199-0.274,0.102
				c-0.291,0.089-0.586,0.158-0.881,0.226c1.123-0.26-1.489,0.083-0.521,0.048c-0.287,0.01-0.574,0-0.862-0.01
				c-0.923-0.031,0.548,0.09-0.366-0.025c-0.662-0.084-1.312-0.242-1.952-0.425c-4.351-1.244-8.281-5.714-10.457-9.824
				c-2.472-4.669-3.665-10.226-2.478-15.433c0.536-2.354,1.687-4.652,3.347-6.358c0.442-0.454,0.925-0.869,1.413-1.272
				c0.559-0.461,0.232-0.224,0.973-0.689c0.218-0.138,0.443-0.262,0.67-0.387c-0.768,0.422-0.063,0.043,0.098-0.027
				c0.21-0.093,0.99-0.354-0.047-0.012c0.248-0.082,1.271-0.303,0.106-0.074c0.261-0.052,1.422-0.105,0.329-0.072
				c0.129-0.002,0.259,0,0.389,0.004c0.679,0.018-0.68-0.098-0.016-0.007c0.308,0.042,0.609,0.118,0.907,0.202
				c-0.688-0.194,0.237,0.124,0.396,0.198c0.945,0.44,1.804,1.215,2.674,2.376c1.488,1.984,2.328,5.214,2.258,7.789
				c-0.041,1.516-0.348,3.016-0.863,4.438c-0.434,1.196-1.537,2.831-2.207,3.502c-0.291,0.291-0.605,0.558-0.924,0.817
				c-0.271,0.207-0.264,0.207,0.021,0.002c-0.209,0.15-0.429,0.288-0.647,0.426c-0.149,0.093-0.302,0.182-0.454,0.268
				c-0.779,0.449,0.644-0.293-0.186,0.1c-0.254,0.121-1.803,0.676-0.967,0.408c-0.486,0.156-0.984,0.275-1.482,0.386
				c0.771-0.172-0.784,0.101-1.006,0.127c-0.898,0.106-2.237,0.106-3.567,0.028c-1.522-0.09-3.655,0.573-4.567,1.879
				C175.045,165.026,176.826,165.583,177.875,165.645L177.875,165.645z"/>
		</g>
	</g>
</g>
</svg>
