<?xml version="1.0" encoding="utf-8"?>
<!-- Generator: Adobe Illustrator 16.0.0, SVG Export Plug-In . SVG Version: 6.00 Build 0)  -->
<!DOCTYPE svg PUBLIC "-//W3C//DTD SVG 1.1//EN" "http://www.w3.org/Graphics/SVG/1.1/DTD/svg11.dtd">
<svg version="1.1" id="Capa_1" xmlns="http://www.w3.org/2000/svg" xmlns:xlink="http://www.w3.org/1999/xlink" x="0px" y="0px"
	 width="353px" height="50px" viewBox="0 0 353 50" enable-background="new 0 0 353 50" xml:space="preserve">
<g>
	<g>
		<path d="M10.217,9.381c-0.947,4.721-1.88,9.452-3.932,13.84c0.408,0.172,0.816,0.344,1.225,0.517
			c0.606-2.19,1.391-4.273,2.354-6.335c0.854-1.832,1.477-4.38,3.74-3.186c4.063,2.144,7.984,4.56,11.921,6.921
			c0.744,0.446,1.411-0.706,0.677-1.157c-5.124-3.149-9.876-6.851-15-10c-0.739-0.454-1.412,0.706-0.677,1.157
			c5.124,3.149,9.876,6.851,15,10c0.226-0.386,0.451-0.771,0.677-1.157c-4.609-2.765-9.209-5.557-14-8
			c-0.336-0.171-0.711-0.08-0.917,0.24c-2.243,3.491-3.959,7.161-5.068,11.16c-0.198,0.716,0.897,1.218,1.225,0.517
			c2.104-4.5,3.096-9.316,4.068-14.16C11.679,8.894,10.387,8.534,10.217,9.381L10.217,9.381z"/>
	</g>
	<g>
		<path d="M29.995,39.615c0.169-0.143,0.345-0.238,0.527-0.286c0.183-0.047,0.376-0.089,0.58-0.125l0.992-6.027
			c-0.016,0.001-0.06,0.003-0.131,0.007c-0.072,0.004-0.152,0.004-0.241,0.001s-0.176-0.013-0.264-0.029s-0.154-0.044-0.201-0.084
			c-0.021-0.026-0.048-0.06-0.081-0.102c-0.033-0.042-0.065-0.089-0.097-0.14c-0.031-0.05-0.059-0.102-0.083-0.155
			c-0.023-0.053-0.037-0.106-0.042-0.161c-0.007-0.09,0.025-0.167,0.097-0.234c0.071-0.067,0.16-0.123,0.269-0.168
			s0.226-0.082,0.353-0.107s0.244-0.042,0.349-0.051c0.491-0.039,0.947-0.061,1.367-0.064c0.421-0.004,0.817,0.028,1.189,0.097
			s0.726,0.18,1.061,0.333c0.336,0.154,0.661,0.369,0.978,0.646c0.117,0.104,0.232,0.222,0.343,0.354
			c0.109,0.132,0.21,0.278,0.299,0.438c0.089,0.159,0.165,0.332,0.226,0.517c0.063,0.185,0.102,0.383,0.118,0.593
			c0.009,0.113,0.013,0.232,0.011,0.358s-0.009,0.234-0.021,0.325c-0.077,0.46-0.204,0.873-0.381,1.238s-0.39,0.693-0.639,0.985
			s-0.528,0.55-0.835,0.774c-0.308,0.224-0.629,0.424-0.964,0.599s-0.678,0.333-1.026,0.47c-0.35,0.137-0.691,0.262-1.023,0.375
			h0.006c-0.147,0.059-0.308,0.112-0.48,0.161c-0.172,0.049-0.347,0.092-0.524,0.13c-0.178,0.037-0.354,0.07-0.53,0.098
			s-0.342,0.048-0.497,0.06c-0.172,0.014-0.316,0.014-0.436,0.002c-0.118-0.012-0.215-0.034-0.29-0.065s-0.13-0.069-0.165-0.113
			c-0.035-0.044-0.055-0.094-0.059-0.148c-0.006-0.078,0.01-0.161,0.048-0.248C29.833,39.782,29.899,39.697,29.995,39.615z
			 M32.433,37.735c-0.031,0.202-0.063,0.41-0.098,0.625c-0.034,0.214-0.065,0.424-0.097,0.631l0.132-0.04
			c0.085-0.026,0.198-0.065,0.341-0.115s0.308-0.112,0.494-0.186c0.186-0.073,0.381-0.16,0.585-0.258
			c0.203-0.099,0.418-0.214,0.646-0.348c0.226-0.134,0.448-0.283,0.666-0.447c0.219-0.164,0.426-0.34,0.623-0.528
			c0.196-0.188,0.366-0.387,0.511-0.596c0.145-0.209,0.255-0.426,0.334-0.649c0.078-0.224,0.107-0.453,0.09-0.686
			c-0.02-0.238-0.084-0.458-0.194-0.664c-0.11-0.205-0.251-0.392-0.423-0.56c-0.173-0.169-0.368-0.316-0.588-0.441
			s-0.446-0.23-0.68-0.314c-0.234-0.083-0.469-0.142-0.705-0.176c-0.235-0.034-0.457-0.043-0.663-0.027
			c-0.232,0.779-0.421,1.566-0.565,2.361C32.696,36.111,32.56,36.918,32.433,37.735z"/>
		<path d="M43.901,39.459c-0.081,0.006-0.154-0.003-0.22-0.03c-0.064-0.026-0.119-0.063-0.164-0.11
			c-0.045-0.047-0.081-0.103-0.107-0.168c-0.026-0.064-0.043-0.129-0.048-0.196c-0.005-0.058,0.004-0.141,0.027-0.246
			c0.023-0.106,0.054-0.225,0.092-0.357c0.039-0.132,0.082-0.271,0.129-0.416c0.048-0.146,0.093-0.284,0.138-0.417
			s0.081-0.255,0.112-0.368c0.03-0.112,0.051-0.199,0.062-0.263c0.01-0.071,0.022-0.157,0.038-0.255
			c0.016-0.1,0.033-0.208,0.054-0.325c0.02-0.118,0.039-0.241,0.059-0.369c0.02-0.129,0.04-0.259,0.061-0.39
			c-0.054,0.016-0.12,0.032-0.199,0.048s-0.163,0.031-0.252,0.046c-0.128,0.022-0.253,0.049-0.375,0.083
			c-0.123,0.033-0.248,0.069-0.377,0.109c-0.128,0.04-0.261,0.082-0.398,0.125c-0.138,0.044-0.284,0.09-0.441,0.138
			c-0.229,0.069-0.459,0.144-0.688,0.225s-0.47,0.131-0.723,0.151c-0.078,0.006-0.151-0.008-0.222-0.044
			c-0.069-0.036-0.146-0.06-0.229-0.073c-0.068,0.131-0.132,0.27-0.19,0.418c-0.059,0.147-0.111,0.298-0.158,0.453
			c-0.046,0.155-0.087,0.307-0.123,0.457c-0.034,0.149-0.064,0.29-0.09,0.421c-0.014,0.072-0.022,0.164-0.027,0.276
			c-0.005,0.112-0.009,0.226-0.012,0.342c-0.002,0.116-0.005,0.227-0.009,0.332c-0.003,0.106-0.009,0.191-0.016,0.254
			c-0.007,0.059-0.025,0.119-0.056,0.178c-0.03,0.059-0.069,0.114-0.116,0.165c-0.047,0.05-0.101,0.093-0.16,0.127
			c-0.061,0.034-0.122,0.054-0.184,0.059c-0.109,0.009-0.2-0.017-0.273-0.076c-0.073-0.059-0.135-0.134-0.183-0.226
			c-0.049-0.092-0.085-0.194-0.109-0.306c-0.024-0.112-0.041-0.215-0.048-0.308c-0.02-0.238-0.01-0.486,0.029-0.746
			c0.037-0.26,0.096-0.525,0.175-0.795c0.078-0.271,0.174-0.545,0.287-0.822c0.113-0.278,0.237-0.555,0.372-0.832
			c0.109-0.248,0.247-0.535,0.414-0.862c0.166-0.326,0.354-0.664,0.563-1.011c0.209-0.348,0.438-0.69,0.688-1.027
			c0.249-0.337,0.513-0.641,0.789-0.912c0.276-0.271,0.564-0.494,0.863-0.671c0.3-0.177,0.604-0.277,0.911-0.302
			c0.323-0.025,0.597,0.012,0.823,0.111c0.225,0.1,0.409,0.244,0.554,0.432c0.144,0.188,0.253,0.413,0.327,0.674
			c0.073,0.26,0.121,0.539,0.145,0.834c0.021,0.261,0.025,0.531,0.015,0.81c-0.011,0.279-0.03,0.553-0.059,0.822
			c-0.027,0.269-0.06,0.528-0.097,0.778c-0.037,0.25-0.071,0.476-0.103,0.678l-0.142,0.811c-0.005,0.023-0.016,0.072-0.032,0.144
			c-0.016,0.072-0.036,0.159-0.062,0.26c-0.025,0.102-0.054,0.212-0.086,0.33c-0.031,0.118-0.063,0.234-0.096,0.349
			s-0.063,0.219-0.092,0.316c-0.03,0.096-0.057,0.175-0.079,0.235l0.006-0.006c-0.02,0.104-0.041,0.209-0.063,0.316
			c-0.022,0.108-0.058,0.206-0.105,0.294c-0.048,0.088-0.113,0.162-0.194,0.221C44.146,39.414,44.038,39.449,43.901,39.459z
			 M43.62,32.123c-0.176,0.014-0.347,0.063-0.515,0.149c-0.167,0.085-0.33,0.193-0.488,0.324c-0.158,0.13-0.31,0.279-0.455,0.447
			c-0.146,0.168-0.282,0.34-0.412,0.515c-0.129,0.175-0.25,0.35-0.361,0.525c-0.111,0.175-0.212,0.337-0.302,0.485
			c-0.014,0.024-0.032,0.056-0.055,0.096c-0.022,0.039-0.044,0.082-0.066,0.128c-0.021,0.047-0.042,0.095-0.062,0.146
			c-0.02,0.05-0.035,0.096-0.048,0.136l0.602-0.047c0.218-0.018,0.466-0.053,0.744-0.106s0.553-0.112,0.823-0.177
			c0.271-0.064,0.521-0.128,0.746-0.191c0.227-0.063,0.397-0.11,0.512-0.143c0.012-0.052,0.021-0.122,0.028-0.208
			c0.007-0.086,0.012-0.183,0.015-0.289s0.003-0.219,0-0.338c-0.004-0.119-0.011-0.241-0.021-0.366
			c-0.008-0.101-0.021-0.216-0.039-0.346c-0.019-0.13-0.051-0.252-0.1-0.365c-0.048-0.114-0.115-0.208-0.201-0.281
			C43.879,32.142,43.765,32.111,43.62,32.123z"/>
		<path d="M47.438,36.082c0.132-0.551,0.259-1.081,0.38-1.587c0.12-0.507,0.225-0.976,0.314-1.406
			c0.089-0.43,0.156-0.81,0.203-1.139c0.046-0.329,0.066-0.589,0.059-0.78c0.032-0.187,0.104-0.339,0.214-0.458
			c0.11-0.119,0.243-0.184,0.398-0.196c0.094-0.007,0.175,0.008,0.245,0.045c0.069,0.037,0.128,0.09,0.174,0.157
			c0.046,0.066,0.083,0.143,0.109,0.229c0.026,0.086,0.043,0.174,0.051,0.263c0.005,0.066,0.006,0.127,0.002,0.182
			c-0.003,0.056-0.009,0.109-0.017,0.16c-0.062,0.366-0.139,0.744-0.233,1.135c-0.095,0.392-0.191,0.788-0.291,1.19
			s-0.197,0.804-0.295,1.208c-0.098,0.404-0.182,0.798-0.253,1.184l-0.073,0.405c-0.039,0.207-0.07,0.404-0.095,0.59
			c-0.024,0.186-0.032,0.335-0.023,0.449c0.005,0.062,0.021,0.111,0.047,0.146c0.026,0.035,0.072,0.05,0.139,0.044
			c0.16-0.013,0.345-0.053,0.555-0.123s0.427-0.151,0.65-0.246c0.224-0.094,0.446-0.196,0.667-0.305
			c0.22-0.11,0.423-0.213,0.607-0.31c0.098-0.051,0.181-0.095,0.251-0.131c0.069-0.037,0.155-0.082,0.259-0.135
			c0.104-0.053,0.242-0.125,0.416-0.212c0.173-0.088,0.412-0.211,0.717-0.368c0.053-0.024,0.1-0.044,0.14-0.061
			c0.04-0.017,0.077-0.027,0.112-0.03c0.063-0.005,0.116,0.003,0.163,0.022c0.047,0.02,0.084,0.048,0.112,0.085
			c0.028,0.037,0.051,0.08,0.066,0.13c0.016,0.049,0.025,0.1,0.029,0.15c0.007,0.085,0.006,0.162-0.002,0.227
			c-0.009,0.065-0.02,0.12-0.031,0.164c-0.041,0.078-0.096,0.149-0.165,0.216s-0.143,0.125-0.222,0.176
			c-0.078,0.051-0.155,0.095-0.23,0.133c-0.075,0.037-0.138,0.066-0.187,0.085c-0.062,0.028-0.141,0.066-0.241,0.113
			c-0.101,0.047-0.209,0.099-0.325,0.155c-0.118,0.057-0.238,0.114-0.363,0.173c-0.124,0.059-0.241,0.114-0.352,0.166
			c-0.109,0.052-0.206,0.098-0.291,0.138s-0.145,0.067-0.179,0.082c-0.163,0.076-0.343,0.161-0.541,0.254
			c-0.199,0.095-0.396,0.185-0.593,0.271c-0.197,0.085-0.385,0.161-0.562,0.223c-0.178,0.063-0.326,0.1-0.447,0.109
			c-0.148,0.012-0.265,0.009-0.35-0.007c-0.086-0.017-0.163-0.043-0.233-0.079c-0.069-0.036-0.14-0.08-0.213-0.133
			c-0.073-0.053-0.169-0.11-0.287-0.171c-0.105-0.055-0.185-0.134-0.236-0.24c-0.052-0.106-0.082-0.221-0.092-0.345
			c-0.005-0.063-0.006-0.135-0.003-0.218c0.004-0.082,0.01-0.169,0.018-0.26c0.009-0.091,0.02-0.18,0.032-0.267
			c0.013-0.088,0.028-0.165,0.046-0.233L47.438,36.082z"/>
		<path d="M54.201,38.144c-0.011-0.136-0.003-0.282,0.024-0.437c0.09-0.54,0.204-1.071,0.341-1.593
			c0.137-0.522,0.257-1.041,0.361-1.554s0.191-0.947,0.259-1.299c0.068-0.352,0.13-0.655,0.184-0.908
			c0.055-0.253,0.105-0.472,0.154-0.656c0.048-0.184,0.102-0.366,0.162-0.547c0.038-0.109,0.081-0.222,0.129-0.339
			c0.047-0.118,0.101-0.227,0.159-0.327c0.059-0.101,0.122-0.184,0.188-0.25c0.067-0.065,0.14-0.102,0.218-0.108
			c0.16-0.013,0.284,0.004,0.371,0.049c0.089,0.046,0.144,0.09,0.166,0.131l0.072,0.236c0.058-0.009,0.133-0.025,0.226-0.05
			c0.092-0.025,0.185-0.051,0.278-0.078c0.094-0.027,0.182-0.054,0.261-0.08c0.081-0.026,0.142-0.049,0.184-0.068
			c0.251-0.09,0.484-0.169,0.698-0.237s0.418-0.126,0.611-0.175c0.194-0.049,0.381-0.087,0.559-0.118
			c0.178-0.03,0.358-0.052,0.541-0.066c0.18-0.014,0.326-0.016,0.44-0.005c0.115,0.01,0.206,0.029,0.275,0.058
			c0.068,0.028,0.117,0.063,0.146,0.105c0.028,0.043,0.045,0.09,0.049,0.14c0.004,0.047-0.005,0.098-0.025,0.152
			c-0.021,0.055-0.06,0.108-0.114,0.16c-0.055,0.051-0.127,0.098-0.218,0.141c-0.091,0.042-0.206,0.075-0.346,0.098
			c-0.034,0.01-0.113,0.031-0.238,0.063c-0.125,0.031-0.261,0.066-0.406,0.103c-0.146,0.037-0.285,0.072-0.415,0.106
			c-0.131,0.034-0.221,0.059-0.271,0.074l0.006,0c-0.023,0.006-0.077,0.025-0.163,0.057c-0.085,0.033-0.189,0.07-0.312,0.113
			c-0.121,0.043-0.254,0.091-0.396,0.146s-0.283,0.108-0.423,0.16c-0.139,0.052-0.267,0.102-0.385,0.148
			c-0.117,0.046-0.213,0.084-0.284,0.113c-0.23,0.112-0.406,0.251-0.529,0.416c-0.122,0.165-0.214,0.345-0.277,0.542
			c-0.013,0.036-0.031,0.098-0.056,0.184c-0.024,0.086-0.051,0.185-0.079,0.294c-0.029,0.11-0.06,0.227-0.094,0.351
			c-0.032,0.124-0.064,0.243-0.095,0.354s-0.057,0.214-0.078,0.306c-0.022,0.092-0.038,0.16-0.046,0.203
			c-0.009,0.04-0.014,0.076-0.016,0.107c-0.001,0.032-0.001,0.055,0,0.071c0.002,0.023,0.009,0.034,0.021,0.033
			c0.059-0.004,0.178-0.04,0.358-0.107c0.182-0.067,0.392-0.149,0.633-0.247c0.241-0.097,0.5-0.202,0.775-0.314
			c0.274-0.112,0.539-0.217,0.791-0.316c0.253-0.098,0.479-0.182,0.677-0.25c0.199-0.069,0.343-0.106,0.432-0.114
			c0.137-0.011,0.23,0.004,0.28,0.045c0.051,0.041,0.078,0.089,0.082,0.144c0.011,0.14-0.029,0.267-0.12,0.379
			c-0.091,0.113-0.207,0.214-0.349,0.304c-0.045,0.027-0.129,0.068-0.252,0.123c-0.123,0.055-0.256,0.111-0.397,0.169
			c-0.143,0.059-0.278,0.114-0.408,0.167c-0.129,0.053-0.222,0.092-0.278,0.116c-0.369,0.178-0.671,0.324-0.902,0.438
			c-0.232,0.115-0.42,0.208-0.563,0.28c-0.144,0.072-0.254,0.126-0.331,0.164s-0.149,0.07-0.216,0.096
			c-0.066,0.027-0.14,0.053-0.22,0.08c-0.081,0.026-0.191,0.062-0.333,0.108c-0.028,0.084-0.06,0.211-0.093,0.38
			c-0.034,0.169-0.065,0.344-0.094,0.525c-0.029,0.181-0.052,0.348-0.069,0.502c-0.017,0.154-0.023,0.26-0.019,0.319
			c0.006,0.07,0.02,0.121,0.042,0.152c0.021,0.032,0.047,0.052,0.075,0.062c0.028,0.009,0.056,0.013,0.083,0.011
			c0.027-0.002,0.049-0.004,0.064-0.005c0.187-0.015,0.409-0.06,0.668-0.135c0.259-0.076,0.513-0.168,0.763-0.278
			c0.238-0.105,0.445-0.216,0.62-0.331c0.176-0.116,0.34-0.224,0.494-0.324c0.155-0.101,0.307-0.187,0.456-0.26
			c0.148-0.072,0.314-0.118,0.497-0.136c0.039-0.003,0.086-0.003,0.139,0.001c0.053,0.003,0.104,0.014,0.152,0.032
			c0.049,0.018,0.089,0.043,0.121,0.076c0.031,0.033,0.046,0.077,0.042,0.132c-0.007,0.114-0.054,0.23-0.143,0.346
			c-0.089,0.117-0.203,0.231-0.343,0.345c-0.141,0.113-0.298,0.224-0.474,0.332s-0.355,0.211-0.54,0.31
			c-0.184,0.099-0.365,0.189-0.543,0.272c-0.178,0.082-0.336,0.155-0.477,0.217c-0.348,0.153-0.689,0.272-1.023,0.357
			s-0.636,0.138-0.904,0.16c-0.296,0.023-0.527-0.014-0.693-0.113C54.314,38.579,54.222,38.401,54.201,38.144z"/>
		<path d="M72.424,37.2c-0.082,0.006-0.155-0.003-0.22-0.03s-0.12-0.063-0.164-0.11c-0.046-0.047-0.081-0.103-0.108-0.167
			c-0.026-0.065-0.042-0.13-0.048-0.196c-0.004-0.058,0.005-0.141,0.028-0.246c0.022-0.106,0.054-0.225,0.092-0.357
			s0.082-0.271,0.129-0.416c0.047-0.146,0.093-0.284,0.138-0.417c0.044-0.133,0.081-0.255,0.111-0.368
			c0.03-0.112,0.051-0.199,0.062-0.263c0.011-0.071,0.023-0.156,0.038-0.255c0.016-0.1,0.034-0.208,0.055-0.325
			c0.02-0.118,0.039-0.241,0.059-0.369c0.019-0.129,0.039-0.259,0.061-0.39c-0.054,0.016-0.12,0.032-0.199,0.048
			s-0.163,0.032-0.252,0.046c-0.128,0.022-0.253,0.049-0.376,0.083c-0.122,0.033-0.248,0.069-0.376,0.109
			c-0.129,0.04-0.262,0.082-0.398,0.125c-0.138,0.044-0.285,0.09-0.442,0.138c-0.229,0.069-0.458,0.144-0.687,0.225
			c-0.229,0.081-0.47,0.131-0.724,0.151c-0.077,0.006-0.151-0.008-0.221-0.044s-0.146-0.06-0.229-0.073
			c-0.068,0.131-0.131,0.27-0.19,0.418c-0.059,0.147-0.111,0.299-0.157,0.453c-0.047,0.155-0.088,0.307-0.123,0.457
			c-0.035,0.149-0.065,0.29-0.09,0.421c-0.014,0.072-0.023,0.164-0.028,0.276c-0.005,0.112-0.009,0.226-0.011,0.342
			c-0.003,0.116-0.006,0.227-0.009,0.332c-0.004,0.106-0.009,0.191-0.016,0.254c-0.007,0.059-0.025,0.119-0.057,0.178
			c-0.03,0.059-0.069,0.114-0.116,0.165s-0.101,0.093-0.16,0.127s-0.121,0.054-0.184,0.059c-0.108,0.009-0.2-0.017-0.273-0.076
			c-0.073-0.059-0.134-0.134-0.182-0.226c-0.049-0.092-0.086-0.194-0.11-0.306c-0.024-0.112-0.04-0.215-0.048-0.308
			c-0.019-0.238-0.009-0.486,0.029-0.746s0.097-0.525,0.175-0.795c0.079-0.271,0.175-0.545,0.288-0.822
			c0.113-0.278,0.236-0.555,0.371-0.832c0.11-0.248,0.248-0.535,0.414-0.861s0.354-0.664,0.563-1.012
			c0.21-0.348,0.439-0.69,0.688-1.027c0.25-0.337,0.513-0.641,0.789-0.912c0.276-0.271,0.564-0.494,0.864-0.671
			c0.299-0.177,0.603-0.277,0.91-0.302c0.323-0.025,0.598,0.012,0.823,0.111c0.225,0.1,0.41,0.244,0.554,0.432
			c0.146,0.188,0.254,0.413,0.327,0.674c0.073,0.26,0.122,0.539,0.146,0.834c0.021,0.261,0.025,0.531,0.015,0.81
			c-0.012,0.279-0.031,0.553-0.059,0.822c-0.027,0.269-0.061,0.528-0.098,0.778c-0.036,0.25-0.07,0.476-0.102,0.678l-0.142,0.811
			c-0.006,0.023-0.017,0.072-0.032,0.144c-0.017,0.072-0.037,0.159-0.063,0.261c-0.024,0.102-0.053,0.212-0.085,0.33
			c-0.032,0.118-0.063,0.234-0.096,0.348s-0.063,0.219-0.093,0.316c-0.029,0.096-0.056,0.175-0.078,0.235l0.005-0.006
			c-0.02,0.104-0.04,0.209-0.063,0.316c-0.023,0.108-0.059,0.206-0.106,0.294c-0.048,0.088-0.112,0.162-0.194,0.221
			C72.669,37.154,72.56,37.189,72.424,37.2z M72.142,29.863c-0.175,0.014-0.347,0.063-0.514,0.149
			c-0.167,0.085-0.33,0.193-0.488,0.324c-0.158,0.13-0.311,0.279-0.456,0.447c-0.145,0.168-0.282,0.34-0.411,0.515
			s-0.25,0.35-0.361,0.525s-0.212,0.337-0.302,0.485c-0.015,0.024-0.032,0.056-0.055,0.096c-0.022,0.039-0.045,0.082-0.066,0.128
			s-0.042,0.095-0.062,0.146s-0.036,0.096-0.049,0.136l0.602-0.047c0.219-0.018,0.467-0.053,0.745-0.106
			c0.277-0.053,0.552-0.112,0.823-0.177c0.271-0.064,0.52-0.128,0.746-0.191c0.226-0.063,0.396-0.111,0.512-0.144
			c0.012-0.052,0.021-0.122,0.027-0.208s0.012-0.183,0.016-0.289c0.003-0.106,0.003-0.219-0.001-0.338s-0.01-0.241-0.021-0.366
			c-0.008-0.101-0.021-0.216-0.038-0.346c-0.019-0.13-0.052-0.252-0.1-0.365c-0.049-0.114-0.115-0.208-0.202-0.281
			C72.401,29.882,72.286,29.852,72.142,29.863z"/>
		<path d="M75.959,33.822c0.133-0.551,0.26-1.081,0.38-1.587s0.226-0.976,0.314-1.406c0.09-0.43,0.157-0.81,0.204-1.139
			c0.046-0.329,0.065-0.589,0.059-0.781c0.032-0.187,0.104-0.339,0.214-0.458c0.109-0.118,0.242-0.184,0.398-0.196
			c0.094-0.007,0.175,0.008,0.244,0.045c0.069,0.037,0.128,0.09,0.175,0.157c0.046,0.066,0.082,0.144,0.108,0.229
			c0.027,0.086,0.044,0.174,0.051,0.264c0.005,0.066,0.006,0.127,0.003,0.182c-0.004,0.055-0.01,0.108-0.018,0.16
			c-0.061,0.366-0.139,0.744-0.233,1.135c-0.094,0.392-0.19,0.788-0.29,1.19s-0.198,0.805-0.295,1.208
			c-0.098,0.404-0.182,0.798-0.254,1.184l-0.073,0.405c-0.038,0.207-0.069,0.404-0.094,0.59c-0.025,0.186-0.033,0.335-0.023,0.449
			c0.005,0.062,0.021,0.111,0.047,0.146c0.026,0.035,0.072,0.05,0.139,0.044c0.159-0.013,0.344-0.053,0.555-0.123
			c0.209-0.07,0.427-0.151,0.65-0.246c0.224-0.094,0.445-0.196,0.666-0.305c0.221-0.11,0.423-0.213,0.607-0.31
			c0.098-0.05,0.182-0.095,0.251-0.131c0.07-0.037,0.156-0.082,0.26-0.135s0.242-0.125,0.415-0.212
			c0.174-0.088,0.413-0.211,0.718-0.368c0.053-0.024,0.099-0.044,0.139-0.061s0.078-0.027,0.112-0.03
			c0.063-0.005,0.117,0.003,0.163,0.022c0.047,0.02,0.085,0.048,0.113,0.085c0.028,0.037,0.05,0.08,0.065,0.13
			c0.017,0.049,0.026,0.1,0.03,0.15c0.007,0.085,0.006,0.162-0.003,0.227c-0.009,0.065-0.019,0.12-0.03,0.164
			c-0.041,0.078-0.097,0.149-0.166,0.216s-0.143,0.125-0.221,0.176s-0.155,0.095-0.23,0.133c-0.076,0.038-0.138,0.066-0.188,0.085
			c-0.061,0.028-0.141,0.066-0.24,0.113c-0.101,0.047-0.209,0.1-0.326,0.155c-0.117,0.057-0.238,0.114-0.362,0.173
			c-0.125,0.059-0.242,0.114-0.352,0.166s-0.207,0.098-0.292,0.138s-0.145,0.067-0.178,0.082c-0.163,0.076-0.344,0.161-0.542,0.255
			s-0.396,0.184-0.593,0.271c-0.197,0.085-0.384,0.161-0.561,0.223c-0.178,0.063-0.327,0.1-0.447,0.109
			c-0.147,0.012-0.265,0.009-0.351-0.008s-0.163-0.042-0.232-0.079c-0.069-0.036-0.141-0.08-0.213-0.133
			c-0.073-0.053-0.169-0.11-0.287-0.171c-0.106-0.054-0.186-0.134-0.236-0.24c-0.052-0.106-0.083-0.221-0.093-0.345
			c-0.005-0.063-0.006-0.135-0.002-0.218c0.003-0.082,0.009-0.169,0.018-0.26c0.009-0.09,0.02-0.18,0.031-0.267
			c0.013-0.088,0.028-0.165,0.047-0.233L75.959,33.822z"/>
		<path d="M88.472,35.587c0.01-0.072,0.027-0.139,0.052-0.204c0.024-0.064,0.05-0.137,0.079-0.217
			c0.029-0.081,0.059-0.176,0.089-0.287c0.03-0.11,0.06-0.246,0.086-0.409l0.153-0.952c0.037-0.23,0.074-0.465,0.114-0.706
			c0.04-0.24,0.087-0.511,0.142-0.813c0.043-0.242,0.099-0.496,0.166-0.763c0.067-0.266,0.137-0.541,0.211-0.825
			c0.073-0.284,0.146-0.576,0.222-0.875c0.074-0.3,0.138-0.608,0.19-0.926c0.003-0.012,0.004-0.028,0.002-0.047
			c-0.002-0.031-0.014-0.05-0.033-0.056c-0.021-0.006-0.046-0.008-0.077-0.006c-0.098,0.008-0.179,0-0.246-0.024
			c-0.066-0.024-0.12-0.059-0.16-0.103c-0.041-0.043-0.071-0.095-0.092-0.154c-0.021-0.059-0.033-0.122-0.038-0.188
			c-0.014-0.171-0.004-0.31,0.028-0.417c0.032-0.106,0.079-0.19,0.139-0.252s0.127-0.108,0.2-0.139
			c0.074-0.031,0.146-0.058,0.218-0.079c0.07-0.021,0.133-0.043,0.186-0.065c0.053-0.021,0.09-0.057,0.109-0.105
			c0.032-0.085,0.062-0.174,0.087-0.268c0.026-0.094,0.062-0.182,0.105-0.264c0.045-0.082,0.102-0.151,0.172-0.208
			c0.07-0.056,0.166-0.089,0.286-0.099c0.086-0.007,0.163,0.011,0.233,0.052c0.07,0.042,0.132,0.096,0.187,0.162
			c0.054,0.066,0.102,0.138,0.144,0.215c0.041,0.077,0.078,0.147,0.11,0.212c0.402-0.021,0.751-0.025,1.048-0.013
			c0.297,0.012,0.521,0.026,0.671,0.041c0.296,0.031,0.596,0.09,0.898,0.176s0.578,0.206,0.828,0.36
			c0.249,0.155,0.458,0.344,0.627,0.567c0.168,0.224,0.265,0.488,0.288,0.792c0.013,0.156,0.008,0.319-0.014,0.489l-0.024,0.208
			c-0.019,0.166-0.071,0.323-0.16,0.471c-0.088,0.148-0.189,0.283-0.306,0.406c-0.321,0.347-0.68,0.645-1.075,0.894
			c-0.396,0.249-0.812,0.465-1.247,0.649c-0.437,0.183-0.884,0.344-1.344,0.482c-0.459,0.139-0.913,0.271-1.361,0.396l-0.162,0.036
			c-0.089,0.019-0.138,0.057-0.149,0.112c-0.057,0.275-0.1,0.515-0.128,0.721c-0.029,0.206-0.056,0.403-0.08,0.591
			c-0.023,0.188-0.049,0.376-0.072,0.564c-0.024,0.188-0.057,0.397-0.098,0.628c-0.014,0.075-0.041,0.166-0.084,0.271
			c-0.043,0.105-0.096,0.206-0.158,0.3c-0.063,0.096-0.138,0.179-0.225,0.25c-0.087,0.071-0.18,0.111-0.281,0.119
			c-0.07,0.005-0.133-0.009-0.186-0.044c-0.054-0.035-0.1-0.082-0.138-0.139s-0.068-0.121-0.092-0.189
			c-0.022-0.069-0.037-0.134-0.042-0.197c-0.002-0.023-0.003-0.046-0.005-0.067C88.463,35.628,88.465,35.607,88.472,35.587z
			 M90.448,31.087c-0.006,0.027-0.014,0.063-0.024,0.104c-0.01,0.042-0.019,0.085-0.027,0.131c-0.008,0.046-0.015,0.088-0.02,0.125
			c-0.005,0.038-0.007,0.064-0.005,0.08c0.001,0.02,0.006,0.036,0.013,0.048c0.007,0.013,0.02,0.019,0.039,0.018
			c0.012-0.001,0.048-0.009,0.11-0.023c0.062-0.014,0.135-0.033,0.222-0.055c0.086-0.022,0.179-0.048,0.279-0.075
			c0.1-0.028,0.195-0.055,0.287-0.082c0.249-0.074,0.514-0.165,0.796-0.271c0.281-0.107,0.561-0.224,0.839-0.352
			c0.277-0.128,0.543-0.263,0.794-0.404c0.251-0.142,0.473-0.289,0.664-0.441c0.203-0.161,0.363-0.319,0.48-0.473
			c0.116-0.154,0.169-0.313,0.156-0.477c-0.008-0.097-0.027-0.183-0.06-0.257c-0.031-0.074-0.064-0.141-0.101-0.201
			c-0.132-0.182-0.29-0.32-0.474-0.415c-0.184-0.095-0.381-0.162-0.592-0.2c-0.211-0.038-0.43-0.056-0.657-0.054
			c-0.227,0.002-0.449,0.012-0.667,0.029c-0.059,0.005-0.147,0.016-0.266,0.033c-0.118,0.018-0.241,0.037-0.371,0.059
			s-0.249,0.046-0.358,0.073s-0.184,0.052-0.221,0.079c-0.018,0.013-0.033,0.034-0.045,0.063c-0.011,0.029-0.02,0.053-0.026,0.073
			c-0.025,0.081-0.06,0.192-0.103,0.334c-0.044,0.143-0.09,0.302-0.139,0.479s-0.1,0.363-0.152,0.559s-0.104,0.387-0.152,0.573
			c-0.047,0.187-0.092,0.36-0.131,0.522C90.497,30.851,90.468,30.983,90.448,31.087z"/>
		<path d="M96.876,32.165c0.133-0.551,0.26-1.081,0.38-1.587s0.226-0.976,0.314-1.406c0.089-0.43,0.157-0.81,0.204-1.139
			c0.046-0.329,0.065-0.589,0.059-0.781c0.032-0.187,0.103-0.339,0.214-0.458c0.109-0.118,0.242-0.184,0.398-0.196
			c0.093-0.007,0.175,0.008,0.245,0.045c0.068,0.037,0.127,0.09,0.174,0.157c0.046,0.066,0.082,0.144,0.108,0.229
			c0.026,0.086,0.044,0.174,0.051,0.264c0.005,0.066,0.006,0.127,0.003,0.182c-0.004,0.055-0.01,0.108-0.018,0.16
			C98.948,28,98.87,28.378,98.776,28.77c-0.095,0.392-0.191,0.788-0.291,1.19c-0.1,0.401-0.198,0.804-0.295,1.207
			c-0.098,0.404-0.182,0.798-0.254,1.185l-0.073,0.405c-0.038,0.207-0.069,0.403-0.095,0.589c-0.024,0.186-0.032,0.335-0.022,0.449
			c0.005,0.062,0.021,0.111,0.047,0.146c0.026,0.035,0.072,0.05,0.139,0.044c0.159-0.013,0.345-0.053,0.554-0.123
			c0.21-0.069,0.428-0.151,0.651-0.246c0.224-0.094,0.445-0.196,0.666-0.305c0.221-0.11,0.423-0.213,0.607-0.31
			c0.098-0.05,0.182-0.094,0.251-0.131c0.07-0.037,0.156-0.082,0.26-0.135c0.104-0.053,0.242-0.124,0.415-0.212
			c0.173-0.088,0.413-0.211,0.718-0.368c0.053-0.024,0.099-0.044,0.139-0.061s0.077-0.027,0.112-0.03
			c0.063-0.005,0.117,0.003,0.163,0.022c0.047,0.02,0.085,0.049,0.113,0.085s0.05,0.08,0.065,0.13c0.017,0.049,0.026,0.1,0.03,0.151
			c0.007,0.085,0.006,0.161-0.003,0.226c-0.009,0.065-0.019,0.12-0.031,0.164c-0.04,0.078-0.096,0.149-0.165,0.216
			s-0.143,0.125-0.221,0.176c-0.078,0.052-0.155,0.095-0.23,0.133c-0.076,0.038-0.138,0.066-0.188,0.085
			c-0.061,0.029-0.141,0.066-0.24,0.113c-0.101,0.047-0.209,0.099-0.326,0.155c-0.117,0.057-0.238,0.114-0.362,0.173
			c-0.125,0.059-0.242,0.114-0.352,0.166s-0.207,0.098-0.292,0.138c-0.085,0.041-0.145,0.067-0.179,0.082
			c-0.162,0.076-0.343,0.161-0.541,0.255s-0.396,0.184-0.593,0.271c-0.197,0.086-0.384,0.161-0.561,0.223
			c-0.178,0.063-0.326,0.1-0.447,0.109c-0.148,0.012-0.265,0.009-0.351-0.008s-0.163-0.042-0.232-0.078
			c-0.069-0.036-0.141-0.081-0.213-0.133c-0.073-0.053-0.169-0.11-0.287-0.171c-0.106-0.054-0.186-0.134-0.236-0.24
			c-0.052-0.106-0.083-0.221-0.093-0.345c-0.005-0.063-0.006-0.135-0.002-0.218c0.003-0.082,0.009-0.169,0.018-0.26
			c0.009-0.09,0.02-0.18,0.031-0.267c0.013-0.088,0.028-0.165,0.047-0.233L96.876,32.165z"/>
		<path d="M108.813,34.317c-0.082,0.006-0.154-0.003-0.22-0.03c-0.064-0.026-0.119-0.063-0.164-0.11
			c-0.045-0.048-0.081-0.103-0.107-0.168c-0.026-0.064-0.043-0.13-0.048-0.196c-0.005-0.058,0.004-0.14,0.027-0.246
			c0.023-0.106,0.054-0.225,0.092-0.357c0.039-0.132,0.082-0.271,0.129-0.416c0.048-0.145,0.093-0.284,0.138-0.417
			s0.081-0.255,0.112-0.368c0.03-0.112,0.051-0.2,0.061-0.263c0.011-0.071,0.023-0.157,0.039-0.256s0.033-0.208,0.054-0.325
			c0.02-0.117,0.039-0.24,0.059-0.369s0.04-0.258,0.061-0.39c-0.054,0.016-0.12,0.032-0.199,0.048s-0.163,0.032-0.252,0.047
			c-0.128,0.021-0.253,0.049-0.375,0.083c-0.123,0.033-0.249,0.07-0.377,0.109c-0.128,0.04-0.261,0.082-0.398,0.126
			s-0.284,0.09-0.441,0.138c-0.229,0.069-0.459,0.144-0.688,0.225s-0.47,0.131-0.723,0.151c-0.078,0.006-0.151-0.008-0.222-0.044
			c-0.069-0.036-0.146-0.06-0.229-0.073c-0.068,0.131-0.132,0.271-0.19,0.418c-0.059,0.148-0.111,0.299-0.158,0.454
			c-0.046,0.154-0.087,0.307-0.123,0.456c-0.034,0.15-0.064,0.29-0.09,0.421c-0.014,0.072-0.023,0.164-0.027,0.276
			c-0.005,0.112-0.009,0.226-0.012,0.342c-0.002,0.116-0.005,0.227-0.009,0.333c-0.003,0.106-0.009,0.191-0.016,0.254
			c-0.007,0.059-0.025,0.118-0.056,0.178c-0.03,0.059-0.069,0.114-0.116,0.165c-0.047,0.05-0.101,0.093-0.16,0.127
			c-0.061,0.035-0.122,0.054-0.184,0.059c-0.109,0.008-0.2-0.017-0.273-0.076c-0.073-0.059-0.135-0.134-0.183-0.227
			c-0.049-0.092-0.085-0.194-0.109-0.306c-0.024-0.111-0.041-0.214-0.048-0.308c-0.02-0.238-0.01-0.486,0.029-0.746
			c0.037-0.26,0.096-0.525,0.175-0.796c0.078-0.271,0.174-0.545,0.287-0.822s0.237-0.555,0.372-0.832
			c0.109-0.248,0.247-0.535,0.414-0.862c0.166-0.327,0.354-0.664,0.563-1.012c0.209-0.348,0.438-0.69,0.688-1.027
			c0.249-0.337,0.512-0.641,0.789-0.912c0.276-0.271,0.564-0.494,0.863-0.67c0.3-0.177,0.604-0.277,0.911-0.302
			c0.323-0.026,0.597,0.012,0.823,0.111c0.225,0.099,0.409,0.243,0.554,0.432c0.144,0.188,0.253,0.413,0.327,0.673
			c0.073,0.261,0.121,0.539,0.145,0.835c0.021,0.261,0.025,0.531,0.015,0.81s-0.03,0.553-0.059,0.822
			c-0.027,0.269-0.06,0.527-0.097,0.777s-0.071,0.476-0.103,0.678l-0.142,0.811c-0.006,0.023-0.016,0.071-0.032,0.144
			c-0.016,0.071-0.036,0.159-0.062,0.26s-0.054,0.212-0.086,0.33c-0.031,0.118-0.063,0.234-0.096,0.349
			c-0.032,0.114-0.063,0.219-0.093,0.316c-0.029,0.096-0.056,0.175-0.078,0.235l0.006-0.007c-0.02,0.104-0.041,0.209-0.063,0.317
			c-0.022,0.108-0.058,0.206-0.106,0.294c-0.047,0.087-0.112,0.162-0.193,0.221C109.059,34.271,108.95,34.306,108.813,34.317z
			 M108.532,26.98c-0.176,0.014-0.347,0.063-0.515,0.149c-0.167,0.085-0.33,0.194-0.488,0.324s-0.31,0.279-0.455,0.447
			c-0.146,0.168-0.282,0.34-0.412,0.515c-0.129,0.175-0.25,0.35-0.361,0.525s-0.212,0.337-0.302,0.485
			c-0.015,0.025-0.032,0.057-0.055,0.096s-0.044,0.082-0.066,0.128c-0.021,0.047-0.042,0.095-0.062,0.146s-0.035,0.096-0.048,0.136
			l0.602-0.048c0.218-0.017,0.466-0.053,0.744-0.105c0.278-0.054,0.553-0.113,0.823-0.177c0.271-0.065,0.521-0.128,0.746-0.191
			c0.227-0.063,0.397-0.11,0.512-0.143c0.012-0.052,0.021-0.122,0.028-0.208c0.007-0.087,0.011-0.184,0.015-0.29
			c0.003-0.105,0.003-0.219,0-0.338c-0.004-0.119-0.011-0.241-0.021-0.366c-0.008-0.101-0.021-0.217-0.039-0.346
			c-0.019-0.13-0.052-0.252-0.1-0.366s-0.115-0.208-0.201-0.281C108.791,27,108.677,26.969,108.532,26.98z"/>
		<path d="M112.454,34.863c-0.008-0.093,0.01-0.189,0.051-0.289c0.041-0.099,0.1-0.204,0.175-0.313
			c0.076-0.11,0.164-0.226,0.267-0.348c0.102-0.122,0.208-0.25,0.319-0.383c0.211-0.252,0.434-0.515,0.667-0.788
			c0.232-0.273,0.453-0.553,0.662-0.84c0.088-0.125,0.158-0.226,0.21-0.305c0.053-0.079,0.092-0.144,0.117-0.194
			s0.042-0.094,0.049-0.13c0.007-0.036,0.011-0.072,0.012-0.106c-0.18-0.198-0.343-0.414-0.489-0.649
			c-0.146-0.235-0.279-0.482-0.399-0.741c-0.12-0.258-0.231-0.521-0.333-0.788s-0.197-0.527-0.288-0.782
			c-0.085-0.232-0.167-0.467-0.247-0.704c-0.079-0.237-0.175-0.438-0.286-0.606c-0.084-0.126-0.158-0.259-0.223-0.397
			c-0.063-0.138-0.102-0.293-0.115-0.464c-0.006-0.074-0.004-0.161,0.005-0.262c0.01-0.101,0.034-0.196,0.072-0.285
			c0.038-0.089,0.09-0.167,0.157-0.233c0.067-0.065,0.154-0.103,0.259-0.111c0.113-0.009,0.222,0.022,0.325,0.092
			c0.103,0.07,0.198,0.162,0.286,0.274c0.087,0.113,0.163,0.236,0.229,0.37c0.066,0.134,0.118,0.258,0.159,0.372
			c0.052,0.165,0.116,0.369,0.192,0.614c0.076,0.245,0.153,0.496,0.23,0.752c0.077,0.256,0.151,0.499,0.225,0.729
			c0.073,0.229,0.137,0.412,0.19,0.549c0.065,0.171,0.133,0.332,0.203,0.48c0.07,0.149,0.14,0.277,0.206,0.383
			c0.068,0.107,0.132,0.189,0.193,0.25c0.063,0.06,0.118,0.087,0.169,0.083c0.039-0.003,0.095-0.06,0.168-0.172
			c0.286-0.449,0.582-0.93,0.888-1.442c0.307-0.512,0.604-1.019,0.894-1.52c0.107-0.185,0.201-0.355,0.283-0.511
			s0.155-0.303,0.221-0.443s0.124-0.276,0.177-0.408c0.052-0.131,0.1-0.263,0.145-0.396l0.104-0.625
			c0.011-0.063,0.031-0.128,0.063-0.196c0.032-0.067,0.07-0.129,0.114-0.186c0.045-0.056,0.098-0.104,0.159-0.142
			c0.062-0.038,0.132-0.061,0.21-0.066c0.101-0.008,0.19,0.005,0.268,0.041s0.142,0.083,0.193,0.146
			c0.053,0.063,0.094,0.136,0.123,0.222c0.03,0.086,0.05,0.175,0.057,0.269c0.009,0.105-0.002,0.227-0.032,0.367
			s-0.072,0.284-0.127,0.434s-0.117,0.297-0.188,0.444c-0.07,0.146-0.141,0.279-0.209,0.399c-0.494,0.838-0.996,1.688-1.506,2.549
			s-1.031,1.689-1.563,2.484c-0.474,0.708-0.939,1.366-1.398,1.974c-0.459,0.609-0.88,1.141-1.264,1.599
			c-0.082,0.096-0.177,0.188-0.284,0.275c-0.106,0.086-0.222,0.135-0.347,0.145c-0.066,0.005-0.122-0.005-0.17-0.03
			c-0.047-0.026-0.086-0.061-0.117-0.106c-0.03-0.044-0.056-0.096-0.073-0.156C112.471,34.98,112.459,34.921,112.454,34.863z"/>
		<path d="M126.443,33.754c-0.007-0.093,0.01-0.189,0.051-0.289c0.041-0.099,0.1-0.204,0.175-0.313
			c0.076-0.11,0.164-0.226,0.267-0.348c0.103-0.122,0.208-0.25,0.319-0.383c0.211-0.252,0.434-0.515,0.666-0.788
			c0.233-0.273,0.454-0.553,0.662-0.84c0.089-0.125,0.159-0.226,0.212-0.305c0.052-0.078,0.091-0.144,0.116-0.194
			s0.042-0.094,0.049-0.13c0.007-0.036,0.011-0.072,0.012-0.106c-0.18-0.198-0.343-0.414-0.489-0.649
			c-0.146-0.235-0.278-0.483-0.399-0.741c-0.12-0.259-0.231-0.522-0.333-0.788c-0.101-0.266-0.197-0.527-0.288-0.782
			c-0.085-0.232-0.167-0.467-0.246-0.704c-0.08-0.237-0.175-0.438-0.287-0.606c-0.084-0.126-0.158-0.259-0.223-0.396
			c-0.063-0.139-0.102-0.293-0.115-0.464c-0.006-0.074-0.004-0.161,0.006-0.262c0.01-0.101,0.033-0.196,0.071-0.285
			s0.091-0.167,0.157-0.233c0.068-0.066,0.154-0.104,0.259-0.112c0.113-0.009,0.222,0.022,0.325,0.092
			c0.104,0.07,0.198,0.162,0.286,0.274c0.087,0.113,0.164,0.236,0.229,0.37c0.065,0.134,0.119,0.258,0.159,0.372
			c0.052,0.165,0.116,0.369,0.193,0.614c0.075,0.245,0.152,0.496,0.229,0.752c0.077,0.256,0.152,0.499,0.225,0.729
			c0.073,0.229,0.137,0.412,0.191,0.549c0.063,0.171,0.132,0.332,0.202,0.48c0.07,0.149,0.14,0.277,0.207,0.383
			c0.066,0.107,0.132,0.189,0.192,0.25c0.063,0.06,0.118,0.087,0.169,0.083c0.039-0.003,0.095-0.06,0.168-0.172
			c0.286-0.45,0.582-0.931,0.889-1.443c0.306-0.512,0.604-1.019,0.893-1.52c0.107-0.185,0.202-0.355,0.283-0.511
			c0.082-0.155,0.155-0.303,0.221-0.443c0.065-0.14,0.124-0.276,0.176-0.408c0.053-0.131,0.101-0.264,0.146-0.396l0.104-0.625
			c0.011-0.063,0.032-0.128,0.063-0.196c0.032-0.067,0.07-0.129,0.115-0.186c0.044-0.056,0.097-0.104,0.159-0.142
			c0.061-0.038,0.131-0.061,0.209-0.066c0.102-0.008,0.19,0.005,0.268,0.041s0.142,0.083,0.193,0.146
			c0.052,0.063,0.094,0.136,0.124,0.222s0.049,0.175,0.057,0.269c0.008,0.105-0.003,0.227-0.033,0.367
			c-0.03,0.14-0.072,0.284-0.127,0.434s-0.117,0.297-0.188,0.444c-0.07,0.146-0.141,0.279-0.209,0.399
			c-0.494,0.838-0.996,1.688-1.506,2.549s-1.031,1.689-1.563,2.484c-0.473,0.708-0.938,1.366-1.398,1.974
			c-0.459,0.609-0.88,1.141-1.263,1.599c-0.083,0.096-0.178,0.188-0.284,0.275c-0.107,0.086-0.223,0.135-0.348,0.145
			c-0.066,0.005-0.122-0.005-0.17-0.03c-0.047-0.026-0.086-0.061-0.116-0.105c-0.031-0.044-0.057-0.097-0.074-0.156
			C126.46,33.872,126.448,33.813,126.443,33.754z"/>
		<path d="M139.464,30.942c0.169-0.143,0.345-0.238,0.526-0.286c0.183-0.047,0.376-0.089,0.581-0.125l0.991-6.027
			c-0.016,0.001-0.059,0.003-0.131,0.007s-0.153,0.004-0.241,0.001c-0.089-0.003-0.176-0.013-0.264-0.029s-0.154-0.044-0.2-0.084
			c-0.022-0.026-0.05-0.06-0.082-0.102c-0.033-0.042-0.065-0.089-0.096-0.14c-0.032-0.05-0.06-0.102-0.083-0.155
			c-0.024-0.053-0.038-0.106-0.043-0.161c-0.007-0.09,0.025-0.167,0.097-0.234c0.071-0.067,0.16-0.123,0.269-0.168
			s0.226-0.082,0.353-0.107c0.128-0.026,0.244-0.042,0.349-0.051c0.491-0.039,0.947-0.061,1.367-0.064
			c0.422-0.004,0.817,0.028,1.189,0.097s0.726,0.18,1.061,0.333c0.336,0.154,0.661,0.369,0.978,0.646
			c0.118,0.104,0.232,0.223,0.343,0.354c0.11,0.132,0.21,0.278,0.299,0.438c0.089,0.159,0.165,0.332,0.227,0.517
			c0.062,0.185,0.101,0.383,0.117,0.593c0.009,0.113,0.013,0.232,0.011,0.358s-0.009,0.234-0.021,0.325
			c-0.077,0.46-0.204,0.873-0.381,1.238s-0.39,0.693-0.639,0.985s-0.527,0.55-0.835,0.774s-0.629,0.424-0.964,0.599
			s-0.677,0.333-1.026,0.47s-0.69,0.262-1.022,0.375h0.006c-0.148,0.059-0.309,0.112-0.481,0.161
			c-0.172,0.049-0.347,0.092-0.524,0.13c-0.178,0.037-0.354,0.07-0.53,0.098c-0.176,0.028-0.342,0.048-0.497,0.06
			c-0.172,0.014-0.316,0.014-0.435,0.002c-0.119-0.012-0.216-0.033-0.291-0.065c-0.075-0.031-0.13-0.069-0.164-0.113
			c-0.035-0.044-0.055-0.094-0.06-0.148c-0.006-0.078,0.011-0.161,0.048-0.248C139.301,31.109,139.368,31.024,139.464,30.942z
			 M141.901,29.063c-0.031,0.202-0.064,0.41-0.099,0.625c-0.033,0.214-0.065,0.424-0.097,0.631l0.133-0.04
			c0.084-0.026,0.197-0.065,0.34-0.115s0.308-0.112,0.494-0.186c0.186-0.073,0.381-0.16,0.585-0.258
			c0.204-0.099,0.419-0.214,0.646-0.348c0.226-0.134,0.448-0.283,0.666-0.447c0.219-0.164,0.427-0.34,0.623-0.528
			s0.367-0.387,0.512-0.596c0.144-0.209,0.255-0.426,0.333-0.649s0.108-0.453,0.09-0.686c-0.02-0.238-0.083-0.458-0.194-0.664
			c-0.109-0.205-0.251-0.392-0.423-0.56c-0.172-0.169-0.368-0.316-0.588-0.441s-0.446-0.23-0.681-0.314
			c-0.233-0.083-0.468-0.142-0.704-0.176c-0.235-0.034-0.457-0.043-0.663-0.027c-0.232,0.779-0.421,1.566-0.565,2.361
			C142.164,27.438,142.027,28.245,141.901,29.063z"/>
		<path d="M148.718,27.717c0.023-0.155,0.052-0.326,0.086-0.515s0.071-0.385,0.112-0.588c0.04-0.203,0.082-0.408,0.124-0.616
			c0.043-0.207,0.085-0.406,0.126-0.598c0.042-0.191,0.08-0.37,0.113-0.535c0.034-0.166,0.064-0.306,0.091-0.422
			c0.054-0.259,0.104-0.519,0.149-0.779s0.089-0.533,0.129-0.818c0.066-0.158,0.163-0.274,0.29-0.35
			c0.127-0.074,0.269-0.118,0.425-0.13c0.13,0.056,0.235,0.139,0.316,0.249c0.081,0.109,0.128,0.236,0.139,0.38
			c0.009,0.101,0.001,0.218-0.021,0.351c-0.023,0.133-0.054,0.277-0.093,0.431c-0.039,0.154-0.083,0.316-0.132,0.486
			c-0.05,0.17-0.096,0.346-0.141,0.525c-0.084,0.328-0.168,0.656-0.251,0.984c-0.084,0.328-0.165,0.674-0.241,1.036
			c-0.021,0.096-0.042,0.192-0.065,0.288s-0.048,0.2-0.072,0.311c-0.024,0.112-0.051,0.237-0.079,0.374s-0.055,0.295-0.08,0.474
			c-0.03,0.21-0.056,0.42-0.073,0.632c-0.019,0.211-0.035,0.423-0.05,0.636c-0.015,0.212-0.032,0.428-0.055,0.645
			c-0.022,0.217-0.052,0.437-0.089,0.66c-0.014,0.079-0.042,0.151-0.086,0.215c-0.044,0.064-0.096,0.12-0.154,0.168
			s-0.122,0.086-0.19,0.115s-0.134,0.046-0.196,0.051s-0.122,0.005-0.179,0c-0.058-0.005-0.103-0.024-0.137-0.057
			c-0.051-0.047-0.093-0.1-0.125-0.161s-0.051-0.125-0.057-0.195c-0.001-0.02-0.002-0.038-0.001-0.056
			c0-0.018,0.002-0.037,0.004-0.056L148.718,27.717z"/>
		<path d="M151.569,29.507c0.136,0.037,0.275,0.08,0.419,0.131s0.291,0.1,0.443,0.145c0.152,0.044,0.312,0.08,0.476,0.106
			c0.165,0.026,0.339,0.032,0.522,0.017c0.214-0.017,0.428-0.059,0.642-0.127s0.422-0.16,0.622-0.276
			c0.2-0.115,0.391-0.252,0.569-0.409c0.18-0.158,0.343-0.335,0.487-0.535c0.159-0.213,0.291-0.404,0.396-0.575
			c0.104-0.171,0.187-0.322,0.248-0.455c0.063-0.132,0.105-0.246,0.129-0.339c0.024-0.094,0.034-0.174,0.028-0.24
			c-0.008-0.098-0.048-0.179-0.119-0.247c-0.072-0.066-0.165-0.119-0.28-0.157c-0.114-0.038-0.242-0.062-0.385-0.072
			c-0.142-0.011-0.288-0.01-0.44,0.002c-0.09,0.007-0.194,0.018-0.314,0.034c-0.121,0.015-0.243,0.031-0.367,0.047
			c-0.124,0.016-0.244,0.03-0.36,0.043c-0.117,0.013-0.218,0.023-0.304,0.03c-0.128,0.01-0.263,0.006-0.403-0.013
			c-0.141-0.018-0.279-0.055-0.417-0.111c-0.138-0.055-0.268-0.135-0.39-0.239s-0.227-0.237-0.313-0.398
			c-0.027-0.053-0.055-0.116-0.08-0.188c-0.025-0.073-0.041-0.151-0.048-0.237c-0.008-0.093-0.008-0.183-0.001-0.268
			c0.008-0.084,0.018-0.167,0.031-0.246c0.038-0.199,0.113-0.404,0.225-0.615c0.11-0.21,0.246-0.418,0.409-0.623
			c0.162-0.205,0.34-0.405,0.533-0.601c0.194-0.195,0.396-0.381,0.603-0.556c0.208-0.175,0.413-0.334,0.615-0.478
			c0.202-0.144,0.392-0.267,0.567-0.371c0.247-0.145,0.502-0.256,0.764-0.334c0.263-0.077,0.524-0.126,0.785-0.147
			c0.155-0.012,0.305-0.003,0.448,0.026c0.144,0.029,0.272,0.079,0.386,0.148c0.112,0.069,0.205,0.159,0.276,0.269
			s0.113,0.239,0.125,0.387c0.007,0.086,0.003,0.159-0.012,0.219c-0.016,0.06-0.037,0.109-0.065,0.149
			c-0.027,0.039-0.06,0.068-0.096,0.086s-0.072,0.029-0.111,0.033c-0.105,0.008-0.203,0.004-0.292-0.013
			c-0.09-0.016-0.177-0.036-0.261-0.058c-0.084-0.023-0.168-0.044-0.252-0.063c-0.084-0.018-0.174-0.024-0.271-0.016
			c-0.289,0.023-0.577,0.103-0.865,0.242c-0.289,0.138-0.567,0.307-0.836,0.507s-0.52,0.418-0.753,0.656
			c-0.234,0.238-0.442,0.468-0.625,0.69c-0.096,0.117-0.165,0.232-0.204,0.346c-0.04,0.112-0.057,0.218-0.049,0.315
			c0.012,0.144,0.083,0.251,0.214,0.324c0.131,0.072,0.286,0.101,0.465,0.086c0.105-0.008,0.225-0.02,0.356-0.034
			c0.132-0.014,0.267-0.03,0.404-0.046c0.138-0.017,0.272-0.034,0.402-0.05s0.245-0.028,0.347-0.036
			c0.241-0.019,0.476-0.003,0.703,0.047c0.228,0.051,0.432,0.135,0.613,0.254c0.183,0.119,0.332,0.272,0.451,0.461
			s0.188,0.409,0.209,0.662c0.012,0.156,0.001,0.315-0.033,0.479c-0.034,0.163-0.086,0.329-0.154,0.497
			c-0.069,0.168-0.15,0.335-0.243,0.501c-0.092,0.166-0.191,0.329-0.296,0.49c-0.188,0.29-0.402,0.565-0.643,0.827
			c-0.24,0.262-0.499,0.494-0.776,0.696c-0.278,0.202-0.575,0.369-0.893,0.5c-0.316,0.131-0.646,0.21-0.989,0.237
			c-0.147,0.012-0.301,0.01-0.459-0.005c-0.157-0.014-0.314-0.042-0.471-0.083c-0.156-0.04-0.304-0.095-0.444-0.165
			c-0.141-0.069-0.266-0.15-0.375-0.244c-0.109-0.093-0.199-0.198-0.27-0.316s-0.111-0.249-0.122-0.393
			c-0.006-0.07,0-0.138,0.016-0.204C151.433,29.55,151.484,29.514,151.569,29.507z"/>
		<path d="M161.299,23.746c-0.027,0.049-0.061,0.133-0.101,0.251c-0.039,0.119-0.079,0.255-0.12,0.409s-0.08,0.317-0.12,0.488
			c-0.039,0.172-0.075,0.333-0.108,0.482s-0.062,0.281-0.083,0.395c-0.022,0.113-0.036,0.188-0.041,0.224
			c-0.005,0.043-0.015,0.109-0.029,0.196c-0.015,0.088-0.026,0.163-0.037,0.227c0.424-0.183,0.846-0.339,1.264-0.471
			c0.419-0.131,0.843-0.213,1.271-0.248c0.066-0.005,0.154-0.01,0.264-0.015c0.109-0.004,0.218,0.001,0.325,0.019
			s0.2,0.05,0.281,0.098c0.08,0.049,0.124,0.124,0.132,0.225c0.001,0.004,0,0.028,0,0.073c0,0.045-0.008,0.098-0.022,0.157
			c-0.016,0.061-0.04,0.121-0.077,0.183c-0.036,0.062-0.088,0.109-0.156,0.142c-0.043,0-0.085,0.001-0.126,0.004
			c-0.041,0.003-0.083,0.007-0.126,0.01c-0.276,0.022-0.552,0.068-0.826,0.139c-0.274,0.07-0.55,0.159-0.825,0.265
			c-0.275,0.106-0.549,0.228-0.82,0.365s-0.542,0.281-0.813,0.432l-0.388,2.6c-0.002,0.066-0.03,0.128-0.082,0.186
			c-0.053,0.057-0.105,0.087-0.16,0.092l-0.141,0.011c-0.147,0.012-0.255-0.041-0.321-0.157c-0.065-0.116-0.106-0.27-0.121-0.461
			c-0.013-0.159-0.013-0.334,0-0.525c0.012-0.191,0.028-0.378,0.049-0.56c0.021-0.182,0.039-0.348,0.055-0.498
			c0.016-0.15,0.021-0.264,0.014-0.342c-0.052-0.063-0.104-0.129-0.156-0.199c-0.053-0.071-0.083-0.16-0.092-0.269
			c-0.014-0.171,0.021-0.311,0.102-0.42c0.082-0.108,0.192-0.217,0.333-0.326c0.015-0.013,0.029-0.036,0.045-0.068
			c0.015-0.032,0.027-0.069,0.038-0.109c0.011-0.04,0.02-0.08,0.026-0.12c0.006-0.04,0.012-0.073,0.018-0.101l0.171-0.884
			c0.066-0.346,0.127-0.65,0.181-0.911s0.104-0.495,0.15-0.703c0.046-0.207,0.089-0.394,0.129-0.56
			c0.04-0.166,0.079-0.327,0.118-0.482c0.011-0.052,0.032-0.126,0.061-0.223c0.03-0.096,0.067-0.191,0.113-0.285
			c0.045-0.093,0.099-0.176,0.159-0.248c0.062-0.071,0.131-0.11,0.209-0.117c0.175-0.014,0.296-0.008,0.362,0.016
			c0.066,0.024,0.111,0.059,0.135,0.104l0.063,0.124c0.062-0.013,0.149-0.034,0.263-0.064c0.113-0.031,0.229-0.064,0.35-0.102
			c0.121-0.037,0.233-0.072,0.336-0.105c0.104-0.034,0.178-0.061,0.224-0.08c0.255-0.091,0.489-0.17,0.703-0.238
			c0.215-0.068,0.418-0.126,0.609-0.174c0.192-0.049,0.377-0.088,0.556-0.118c0.178-0.03,0.357-0.052,0.541-0.066
			c0.086-0.007,0.166-0.009,0.24-0.008c0.074,0.002,0.14,0.012,0.193,0.029c0.055,0.017,0.099,0.045,0.133,0.084
			c0.034,0.038,0.055,0.09,0.06,0.157c0.003,0.035-0.002,0.079-0.013,0.133c-0.012,0.053-0.032,0.108-0.063,0.164
			c-0.031,0.055-0.075,0.109-0.131,0.16c-0.058,0.051-0.129,0.092-0.217,0.123c-0.027,0.01-0.074,0.024-0.144,0.044
			c-0.069,0.019-0.149,0.04-0.239,0.063c-0.091,0.022-0.187,0.046-0.288,0.072s-0.198,0.05-0.291,0.073
			c-0.145,0.047-0.309,0.098-0.49,0.153s-0.371,0.117-0.567,0.183s-0.394,0.137-0.592,0.211c-0.197,0.075-0.384,0.15-0.558,0.227
			c-0.175,0.077-0.33,0.153-0.467,0.231C161.482,23.592,161.376,23.669,161.299,23.746z"/>
		<path d="M165.736,29.001c0.151-0.909,0.312-1.809,0.479-2.698c0.169-0.889,0.328-1.788,0.48-2.697
			c0.018-0.119,0.036-0.232,0.055-0.34c0.02-0.107,0.036-0.214,0.051-0.321c0.016-0.107,0.025-0.215,0.03-0.323
			s0.003-0.221-0.006-0.337c-0.007-0.089-0.02-0.171-0.037-0.244c-0.018-0.074-0.029-0.157-0.037-0.25
			c-0.007-0.089-0.003-0.186,0.012-0.289c0.04-0.242,0.108-0.426,0.207-0.551c0.098-0.125,0.255-0.196,0.474-0.214
			c0.09-0.007,0.177-0.005,0.262,0.005c0.085,0.011,0.17,0.025,0.253,0.042c0.092,0.02,0.187,0.036,0.283,0.048
			c0.097,0.012,0.194,0.014,0.292,0.006c0.077-0.006,0.153-0.016,0.227-0.029c0.073-0.014,0.157-0.028,0.252-0.043
			c0.095-0.016,0.207-0.032,0.337-0.05s0.294-0.035,0.493-0.051c0.109-0.009,0.237-0.015,0.386-0.019
			c0.149-0.004,0.304,0.001,0.466,0.016c0.162,0.015,0.327,0.042,0.494,0.082c0.168,0.039,0.326,0.098,0.476,0.176
			c0.149,0.079,0.283,0.179,0.403,0.3c0.119,0.122,0.213,0.272,0.282,0.451c0.034,0.088,0.06,0.168,0.075,0.241
			s0.025,0.145,0.031,0.215c0.019,0.238-0.022,0.476-0.125,0.715c-0.116,0.272-0.28,0.531-0.494,0.777s-0.467,0.482-0.758,0.709
			c-0.114,0.091-0.248,0.187-0.4,0.287c-0.152,0.101-0.303,0.197-0.45,0.289c-0.147,0.092-0.28,0.176-0.397,0.251
			c-0.118,0.076-0.198,0.134-0.242,0.172c0.142,0.056,0.283,0.114,0.426,0.175c0.142,0.062,0.288,0.137,0.438,0.227
			c0.15,0.09,0.304,0.202,0.462,0.334c0.157,0.132,0.323,0.297,0.497,0.493c0.174,0.195,0.357,0.429,0.549,0.7
			c0.192,0.271,0.396,0.592,0.608,0.963c0.055,0.09,0.086,0.187,0.094,0.292c0.007,0.082-0.004,0.165-0.029,0.249
			c-0.027,0.084-0.066,0.162-0.117,0.233c-0.052,0.07-0.114,0.129-0.188,0.176c-0.075,0.047-0.157,0.074-0.247,0.082
			c-0.136,0.011-0.253-0.031-0.351-0.125c-0.098-0.094-0.193-0.22-0.289-0.377c-0.094-0.157-0.193-0.335-0.297-0.535
			c-0.104-0.2-0.229-0.399-0.374-0.6c-0.158-0.214-0.33-0.417-0.516-0.605s-0.38-0.35-0.582-0.483s-0.408-0.235-0.618-0.307
			c-0.209-0.072-0.415-0.099-0.617-0.083l-0.088,0.007c-0.121,0.009-0.228,0.029-0.321,0.058c-0.095,0.029-0.185,0.055-0.273,0.077
			c-0.124-0.033-0.217-0.096-0.279-0.189c-0.063-0.093-0.099-0.2-0.107-0.321l-0.007-0.082l-0.321,1.877
			c-0.011,0.06-0.026,0.141-0.046,0.245s-0.041,0.217-0.066,0.341c-0.025,0.123-0.052,0.252-0.078,0.388s-0.052,0.263-0.076,0.382
			c-0.023,0.12-0.045,0.227-0.063,0.322c-0.018,0.095-0.03,0.167-0.038,0.215c-0.048,0.102-0.11,0.184-0.189,0.247
			s-0.168,0.098-0.265,0.106c-0.172,0.014-0.295-0.028-0.369-0.126c-0.074-0.098-0.117-0.215-0.128-0.351
			c-0.004-0.055-0.005-0.111-0.001-0.167C165.723,29.107,165.729,29.053,165.736,29.001z M168.082,22.186
			c-0.018,0.08-0.042,0.195-0.075,0.347c-0.033,0.151-0.069,0.323-0.109,0.514s-0.082,0.396-0.128,0.615
			c-0.045,0.219-0.09,0.439-0.136,0.66c-0.045,0.221-0.089,0.436-0.131,0.643c-0.042,0.207-0.081,0.392-0.115,0.556
			c0.07-0.107,0.18-0.208,0.329-0.299c0.149-0.093,0.319-0.181,0.509-0.267c0.147-0.066,0.328-0.158,0.542-0.275
			s0.438-0.249,0.671-0.397c0.233-0.147,0.466-0.306,0.697-0.475c0.23-0.169,0.438-0.34,0.617-0.513
			c0.181-0.173,0.325-0.343,0.433-0.511c0.108-0.167,0.157-0.325,0.146-0.473c-0.012-0.144-0.071-0.254-0.18-0.33
			c-0.107-0.076-0.239-0.129-0.395-0.16s-0.324-0.045-0.506-0.045c-0.183,0-0.352,0.007-0.508,0.02
			c-0.279,0.022-0.559,0.062-0.836,0.119C168.63,21.972,168.354,22.063,168.082,22.186z"/>
		<path d="M174.392,26.229c0.055-0.4,0.119-0.759,0.194-1.076s0.15-0.613,0.226-0.888c0.077-0.274,0.149-0.536,0.218-0.787
			c0.068-0.25,0.125-0.508,0.171-0.774l0.048-0.286c0.01-0.071,0.017-0.16,0.02-0.266c0.003-0.106,0.007-0.217,0.012-0.333
			c0.005-0.116,0.015-0.231,0.028-0.346c0.015-0.115,0.041-0.219,0.078-0.312c0.038-0.093,0.09-0.17,0.155-0.233
			c0.065-0.062,0.153-0.097,0.262-0.105c0.121-0.01,0.225,0.003,0.312,0.04c0.088,0.036,0.159,0.087,0.216,0.153
			c0.056,0.066,0.1,0.144,0.13,0.234c0.03,0.089,0.05,0.183,0.058,0.281c0.006,0.082,0.008,0.164,0.005,0.246
			c-0.004,0.083-0.012,0.16-0.025,0.231c-0.029,0.179-0.084,0.389-0.162,0.63c-0.079,0.242-0.166,0.508-0.26,0.799
			c-0.095,0.292-0.189,0.606-0.284,0.945s-0.174,0.695-0.238,1.068c-0.038,0.21-0.068,0.44-0.09,0.688
			c-0.021,0.249-0.023,0.472-0.008,0.671c0.013,0.16,0.038,0.31,0.076,0.45c0.038,0.14,0.098,0.26,0.176,0.362
			c0.078,0.102,0.18,0.178,0.304,0.231c0.123,0.053,0.276,0.072,0.46,0.058c0.14-0.011,0.284-0.035,0.433-0.069
			c0.147-0.035,0.321-0.106,0.521-0.212c0.293-0.16,0.566-0.359,0.819-0.597c0.254-0.238,0.486-0.503,0.695-0.798
			c0.21-0.294,0.4-0.609,0.572-0.944c0.171-0.335,0.323-0.68,0.455-1.036c0.133-0.355,0.247-0.713,0.342-1.073
			c0.095-0.36,0.171-0.713,0.23-1.059c0.023-0.147,0.04-0.284,0.049-0.413c0.01-0.128,0.015-0.259,0.014-0.392
			c-0.001-0.133-0.004-0.276-0.011-0.428c-0.006-0.152-0.009-0.327-0.009-0.523c-0.001-0.156,0.032-0.295,0.1-0.416
			c0.066-0.121,0.178-0.188,0.334-0.2c0.097-0.008,0.185,0.024,0.263,0.096c0.078,0.073,0.146,0.164,0.201,0.275
			s0.101,0.23,0.134,0.356c0.034,0.127,0.055,0.241,0.063,0.342c0.016,0.195,0.013,0.406-0.009,0.635
			c-0.021,0.229-0.05,0.449-0.089,0.66c-0.077,0.457-0.177,0.917-0.299,1.381c-0.121,0.464-0.274,0.921-0.459,1.371
			c-0.184,0.45-0.403,0.889-0.662,1.319c-0.258,0.43-0.562,0.836-0.911,1.221c-0.173,0.19-0.362,0.378-0.566,0.565
			c-0.205,0.187-0.42,0.358-0.647,0.513c-0.227,0.155-0.461,0.284-0.703,0.388c-0.243,0.103-0.487,0.165-0.732,0.184
			c-0.354,0.028-0.666,0.002-0.935-0.076c-0.269-0.079-0.497-0.201-0.685-0.366s-0.334-0.369-0.439-0.609
			c-0.104-0.241-0.169-0.509-0.192-0.805c-0.011-0.14-0.012-0.296-0.002-0.467C174.354,26.564,174.369,26.396,174.392,26.229z"/>
		<path d="M184.867,27.28c0.097-0.658,0.211-1.323,0.345-1.996c0.133-0.673,0.261-1.34,0.385-2c0.053-0.274,0.099-0.524,0.138-0.749
			s0.071-0.428,0.096-0.61s0.041-0.347,0.049-0.495s0.007-0.284-0.003-0.408c-0.002-0.023-0.004-0.05-0.007-0.079
			c-0.002-0.029-0.007-0.065-0.014-0.107c-0.039,0.003-0.124,0.031-0.255,0.084c-0.132,0.054-0.284,0.123-0.459,0.207
			c-0.177,0.084-0.361,0.178-0.555,0.282c-0.193,0.103-0.372,0.207-0.537,0.31c-0.131,0.081-0.239,0.148-0.327,0.203
			s-0.164,0.096-0.229,0.126s-0.123,0.053-0.177,0.067c-0.054,0.014-0.109,0.023-0.168,0.028c-0.121,0.01-0.229-0.029-0.324-0.115
			c-0.095-0.087-0.148-0.204-0.16-0.352c-0.006-0.085-0.004-0.161,0.009-0.227c0.013-0.065,0.035-0.125,0.068-0.178
			c0.033-0.054,0.079-0.106,0.138-0.156c0.059-0.049,0.131-0.101,0.217-0.155c0.944-0.591,1.911-1.047,2.9-1.367
			c0.99-0.319,1.993-0.52,3.01-0.6c0.081-0.006,0.179-0.012,0.293-0.017c0.112-0.005,0.229-0.007,0.349-0.007
			c0.119,0,0.236,0.004,0.352,0.013c0.113,0.009,0.215,0.021,0.303,0.038c0.091,0.02,0.173,0.071,0.246,0.151
			s0.114,0.169,0.122,0.267c0.006,0.078,0.005,0.154-0.003,0.229c-0.008,0.075-0.027,0.141-0.058,0.199
			c-0.031,0.057-0.073,0.104-0.128,0.142c-0.054,0.037-0.121,0.059-0.203,0.066c-0.142-0.005-0.303-0.011-0.486-0.02
			c-0.183-0.009-0.365-0.006-0.549,0.008c-0.366,0.029-0.729,0.066-1.093,0.113s-0.731,0.127-1.106,0.244
			c-0.02,0.009-0.03,0.031-0.034,0.064c-0.003,0.034-0.004,0.076-0.004,0.127c0.006,0.211,0.003,0.397-0.008,0.559
			s-0.03,0.324-0.059,0.486c-0.029,0.163-0.064,0.339-0.109,0.529c-0.043,0.189-0.094,0.417-0.15,0.682
			c-0.058,0.266-0.123,0.582-0.198,0.95c-0.075,0.369-0.154,0.813-0.238,1.333l-0.19,1.156c-0.046,0.266-0.079,0.505-0.1,0.716
			c-0.02,0.211-0.036,0.419-0.047,0.624c-0.011,0.067-0.065,0.135-0.164,0.201s-0.218,0.105-0.357,0.117
			c-0.082,0.006-0.158-0.01-0.228-0.05s-0.129-0.093-0.178-0.16c-0.048-0.066-0.083-0.141-0.105-0.224S184.85,27.364,184.867,27.28z
			"/>
		<path d="M195.238,27.47c-0.082,0.006-0.155-0.003-0.22-0.03s-0.119-0.063-0.164-0.11c-0.046-0.047-0.081-0.103-0.108-0.168
			c-0.025-0.065-0.041-0.13-0.047-0.196c-0.005-0.058,0.005-0.14,0.027-0.246c0.022-0.106,0.054-0.225,0.092-0.357
			c0.039-0.132,0.082-0.271,0.13-0.416c0.046-0.145,0.092-0.284,0.137-0.417s0.082-0.255,0.112-0.368
			c0.029-0.112,0.05-0.2,0.061-0.263c0.011-0.071,0.023-0.157,0.039-0.256c0.016-0.1,0.033-0.208,0.054-0.325s0.04-0.24,0.06-0.369
			c0.018-0.129,0.038-0.258,0.06-0.389c-0.054,0.015-0.12,0.031-0.199,0.047s-0.163,0.032-0.252,0.046
			c-0.128,0.022-0.252,0.05-0.375,0.083s-0.248,0.07-0.377,0.109c-0.128,0.04-0.261,0.082-0.398,0.126s-0.285,0.09-0.441,0.138
			c-0.229,0.069-0.459,0.144-0.688,0.225s-0.47,0.131-0.724,0.151c-0.077,0.006-0.15-0.008-0.221-0.044
			c-0.069-0.036-0.146-0.06-0.229-0.073c-0.068,0.131-0.132,0.271-0.19,0.418c-0.059,0.148-0.111,0.299-0.158,0.454
			c-0.047,0.154-0.087,0.307-0.122,0.456c-0.035,0.15-0.065,0.29-0.091,0.421c-0.014,0.072-0.023,0.164-0.028,0.276
			c-0.005,0.112-0.009,0.226-0.011,0.342c-0.003,0.116-0.006,0.227-0.008,0.333c-0.004,0.106-0.009,0.191-0.016,0.254
			c-0.007,0.059-0.026,0.118-0.057,0.178c-0.03,0.059-0.069,0.114-0.117,0.165c-0.047,0.05-0.1,0.093-0.159,0.127
			c-0.061,0.034-0.122,0.054-0.185,0.059c-0.108,0.008-0.199-0.017-0.273-0.076c-0.073-0.059-0.133-0.134-0.182-0.227
			c-0.049-0.092-0.085-0.194-0.109-0.306s-0.041-0.214-0.048-0.308c-0.02-0.238-0.01-0.486,0.029-0.746
			c0.038-0.26,0.096-0.525,0.175-0.796c0.078-0.271,0.174-0.545,0.287-0.822c0.114-0.278,0.237-0.555,0.373-0.832
			c0.108-0.248,0.247-0.535,0.413-0.862c0.165-0.327,0.354-0.664,0.563-1.012c0.209-0.348,0.438-0.69,0.688-1.027
			s0.513-0.641,0.789-0.912c0.276-0.271,0.564-0.494,0.863-0.671c0.3-0.176,0.604-0.277,0.911-0.301
			c0.323-0.026,0.598,0.011,0.822,0.111c0.226,0.1,0.41,0.244,0.555,0.433c0.145,0.188,0.253,0.413,0.327,0.674
			c0.073,0.26,0.122,0.539,0.146,0.834c0.021,0.261,0.025,0.531,0.014,0.81c-0.011,0.279-0.03,0.553-0.059,0.822
			c-0.027,0.268-0.061,0.527-0.097,0.777c-0.037,0.25-0.071,0.476-0.103,0.678l-0.141,0.811c-0.006,0.024-0.018,0.072-0.033,0.144
			c-0.016,0.071-0.036,0.159-0.062,0.26s-0.054,0.212-0.086,0.33c-0.031,0.118-0.063,0.234-0.096,0.349
			c-0.032,0.114-0.063,0.219-0.093,0.316c-0.029,0.096-0.056,0.175-0.077,0.235l0.005-0.006c-0.02,0.104-0.04,0.209-0.063,0.316
			c-0.022,0.108-0.058,0.206-0.106,0.294c-0.048,0.087-0.111,0.162-0.193,0.221C195.483,27.424,195.375,27.459,195.238,27.47z
			 M194.957,20.133c-0.175,0.014-0.347,0.063-0.514,0.149c-0.168,0.085-0.331,0.194-0.489,0.324s-0.311,0.279-0.455,0.447
			c-0.146,0.168-0.283,0.34-0.412,0.515s-0.25,0.35-0.36,0.525c-0.112,0.175-0.213,0.337-0.303,0.485
			c-0.014,0.025-0.032,0.057-0.055,0.096s-0.044,0.082-0.066,0.128c-0.021,0.047-0.042,0.095-0.062,0.146s-0.035,0.096-0.048,0.136
			l0.602-0.048c0.218-0.017,0.466-0.053,0.744-0.105c0.277-0.054,0.552-0.113,0.824-0.177c0.271-0.065,0.52-0.128,0.745-0.191
			s0.396-0.11,0.512-0.143c0.012-0.052,0.021-0.122,0.027-0.208c0.007-0.087,0.012-0.184,0.016-0.29
			c0.003-0.106,0.003-0.219,0-0.338c-0.004-0.119-0.011-0.241-0.021-0.366c-0.008-0.101-0.021-0.217-0.039-0.347
			c-0.019-0.13-0.052-0.251-0.1-0.365c-0.049-0.114-0.115-0.208-0.201-0.281C195.216,20.152,195.102,20.122,194.957,20.133z
			 M197.035,16.177c-0.028,0.174-0.091,0.318-0.186,0.432s-0.215,0.215-0.361,0.305l-1.762,1.057
			c-0.067,0.044-0.158,0.071-0.275,0.08c-0.09,0.007-0.155-0.008-0.197-0.045c-0.042-0.038-0.066-0.09-0.071-0.156
			c-0.007-0.082,0.004-0.157,0.032-0.226s0.065-0.132,0.11-0.191c0.047-0.059,0.098-0.11,0.153-0.156
			c0.055-0.045,0.104-0.085,0.148-0.121l0.424-0.298c0.178-0.124,0.353-0.248,0.522-0.374c0.171-0.125,0.33-0.238,0.479-0.338
			c0.147-0.1,0.283-0.183,0.402-0.249c0.12-0.067,0.215-0.103,0.285-0.108c0.078-0.006,0.146,0.016,0.203,0.067
			c0.056,0.05,0.088,0.12,0.095,0.209c0.002,0.02,0.003,0.038,0.005,0.056C197.044,16.138,197.042,16.157,197.035,16.177z"/>
		<path d="M203.75,25.849c0.17-0.143,0.345-0.238,0.527-0.286c0.183-0.047,0.376-0.089,0.581-0.125l0.991-6.027
			c-0.016,0.001-0.06,0.003-0.131,0.007c-0.072,0.004-0.153,0.004-0.241,0.001s-0.176-0.013-0.264-0.029s-0.154-0.044-0.2-0.084
			c-0.022-0.025-0.05-0.06-0.082-0.102c-0.033-0.042-0.065-0.089-0.097-0.14s-0.06-0.102-0.082-0.155
			c-0.023-0.053-0.038-0.106-0.042-0.161c-0.007-0.09,0.023-0.167,0.095-0.234c0.072-0.066,0.162-0.122,0.27-0.168
			c0.108-0.046,0.227-0.082,0.353-0.107c0.128-0.026,0.243-0.042,0.349-0.051c0.49-0.039,0.947-0.061,1.368-0.064
			c0.42-0.004,0.816,0.028,1.188,0.097s0.726,0.18,1.062,0.333c0.335,0.154,0.661,0.369,0.977,0.646
			c0.117,0.104,0.232,0.222,0.343,0.354c0.109,0.132,0.21,0.278,0.299,0.438c0.09,0.159,0.164,0.332,0.226,0.517
			c0.063,0.185,0.102,0.383,0.118,0.593c0.009,0.113,0.013,0.232,0.011,0.358s-0.009,0.234-0.021,0.325
			c-0.076,0.46-0.204,0.873-0.381,1.238s-0.39,0.693-0.639,0.985s-0.527,0.55-0.835,0.774s-0.629,0.424-0.964,0.599
			c-0.335,0.176-0.678,0.333-1.026,0.47c-0.35,0.137-0.69,0.263-1.022,0.375l0.006-0.001c-0.148,0.059-0.309,0.113-0.481,0.162
			c-0.172,0.049-0.347,0.092-0.524,0.13c-0.177,0.037-0.354,0.07-0.53,0.098s-0.342,0.048-0.498,0.06
			c-0.171,0.014-0.316,0.014-0.434,0.002c-0.119-0.012-0.217-0.033-0.291-0.065c-0.075-0.031-0.13-0.069-0.165-0.113
			c-0.035-0.044-0.055-0.094-0.059-0.148c-0.006-0.078,0.01-0.161,0.048-0.248C203.588,26.016,203.655,25.931,203.75,25.849z
			 M206.188,23.969c-0.031,0.202-0.063,0.411-0.097,0.625c-0.034,0.214-0.066,0.424-0.098,0.631l0.133-0.04
			c0.083-0.026,0.197-0.065,0.34-0.115s0.308-0.112,0.494-0.186c0.186-0.073,0.381-0.16,0.585-0.258
			c0.203-0.099,0.419-0.214,0.646-0.348c0.226-0.134,0.448-0.282,0.667-0.447c0.218-0.164,0.425-0.34,0.622-0.528
			c0.196-0.188,0.367-0.387,0.512-0.596c0.144-0.209,0.255-0.426,0.333-0.649c0.078-0.224,0.108-0.453,0.09-0.686
			c-0.02-0.238-0.084-0.459-0.193-0.664c-0.11-0.205-0.252-0.392-0.424-0.56c-0.173-0.169-0.368-0.316-0.587-0.441
			c-0.221-0.125-0.447-0.23-0.681-0.313c-0.234-0.083-0.469-0.142-0.705-0.176c-0.235-0.035-0.457-0.043-0.663-0.027
			c-0.232,0.779-0.421,1.565-0.565,2.361C206.451,22.345,206.315,23.151,206.188,23.969z"/>
		<path d="M212.483,25.604c-0.011-0.136-0.003-0.282,0.023-0.437c0.091-0.541,0.204-1.072,0.342-1.594
			c0.136-0.522,0.257-1.04,0.361-1.554c0.104-0.513,0.191-0.947,0.259-1.298c0.068-0.353,0.13-0.655,0.184-0.908
			c0.055-0.253,0.105-0.472,0.154-0.656c0.048-0.184,0.102-0.366,0.162-0.547c0.038-0.109,0.081-0.222,0.129-0.339
			c0.047-0.117,0.1-0.227,0.159-0.327c0.059-0.101,0.122-0.184,0.188-0.25c0.067-0.066,0.14-0.102,0.218-0.108
			c0.159-0.013,0.284,0.004,0.371,0.05c0.088,0.046,0.144,0.09,0.166,0.131L215.272,18c0.059-0.008,0.133-0.025,0.225-0.05
			c0.093-0.025,0.185-0.051,0.279-0.078c0.094-0.027,0.182-0.053,0.261-0.08c0.08-0.026,0.142-0.048,0.184-0.067
			c0.251-0.09,0.483-0.169,0.697-0.238c0.215-0.067,0.419-0.126,0.612-0.175c0.194-0.049,0.38-0.087,0.559-0.117
			c0.178-0.03,0.357-0.052,0.541-0.066c0.179-0.014,0.326-0.016,0.439-0.005c0.115,0.01,0.207,0.029,0.276,0.057
			c0.067,0.028,0.117,0.063,0.146,0.106c0.029,0.043,0.046,0.09,0.05,0.14c0.004,0.047-0.005,0.098-0.026,0.152
			c-0.021,0.055-0.06,0.108-0.113,0.159c-0.055,0.051-0.128,0.098-0.219,0.141c-0.09,0.042-0.205,0.075-0.345,0.098
			c-0.034,0.011-0.114,0.032-0.239,0.063c-0.124,0.032-0.26,0.066-0.405,0.103c-0.146,0.037-0.285,0.072-0.415,0.106
			c-0.131,0.034-0.221,0.059-0.271,0.075l0.006,0c-0.023,0.006-0.077,0.025-0.163,0.057c-0.085,0.032-0.189,0.07-0.312,0.113
			s-0.254,0.091-0.396,0.146c-0.144,0.054-0.283,0.108-0.423,0.16c-0.139,0.052-0.267,0.102-0.385,0.148
			c-0.117,0.046-0.213,0.084-0.285,0.113c-0.229,0.112-0.405,0.251-0.528,0.416c-0.122,0.164-0.214,0.345-0.277,0.542
			c-0.013,0.037-0.031,0.098-0.056,0.184c-0.025,0.086-0.052,0.184-0.079,0.294c-0.029,0.11-0.06,0.228-0.094,0.352
			c-0.033,0.124-0.064,0.242-0.096,0.354c-0.03,0.112-0.056,0.214-0.077,0.306c-0.022,0.092-0.038,0.16-0.046,0.204
			c-0.009,0.04-0.014,0.075-0.016,0.107c-0.001,0.032-0.001,0.055,0,0.071c0.002,0.023,0.009,0.034,0.021,0.033
			c0.059-0.005,0.178-0.04,0.358-0.107s0.392-0.149,0.634-0.247c0.24-0.098,0.498-0.202,0.773-0.314
			c0.275-0.112,0.539-0.217,0.792-0.316c0.253-0.098,0.479-0.182,0.677-0.25c0.199-0.069,0.342-0.107,0.432-0.114
			c0.136-0.011,0.229,0.005,0.28,0.046c0.051,0.041,0.078,0.089,0.082,0.144c0.011,0.14-0.029,0.267-0.12,0.379
			c-0.091,0.113-0.207,0.214-0.35,0.304c-0.044,0.027-0.128,0.068-0.252,0.123c-0.122,0.055-0.255,0.111-0.396,0.169
			c-0.144,0.059-0.279,0.115-0.408,0.167c-0.129,0.054-0.222,0.092-0.278,0.117c-0.37,0.178-0.671,0.324-0.902,0.438
			c-0.232,0.115-0.42,0.208-0.563,0.28c-0.144,0.072-0.255,0.127-0.331,0.165c-0.078,0.038-0.15,0.07-0.217,0.096
			c-0.065,0.027-0.139,0.053-0.22,0.079c-0.08,0.026-0.19,0.063-0.332,0.109c-0.029,0.084-0.06,0.211-0.093,0.38
			c-0.034,0.169-0.065,0.344-0.094,0.525c-0.029,0.181-0.053,0.348-0.069,0.502c-0.017,0.154-0.023,0.26-0.019,0.319
			c0.006,0.07,0.02,0.121,0.041,0.153c0.021,0.031,0.047,0.052,0.075,0.061c0.028,0.01,0.057,0.013,0.084,0.011
			s0.049-0.004,0.064-0.005c0.187-0.015,0.408-0.06,0.668-0.135c0.259-0.076,0.513-0.168,0.762-0.278
			c0.239-0.105,0.446-0.216,0.621-0.332c0.175-0.115,0.34-0.224,0.494-0.324c0.155-0.101,0.307-0.187,0.456-0.26
			c0.148-0.072,0.314-0.118,0.497-0.136c0.039-0.003,0.085-0.003,0.139,0c0.053,0.004,0.104,0.015,0.151,0.032
			c0.049,0.018,0.089,0.043,0.121,0.076s0.047,0.076,0.043,0.132c-0.007,0.114-0.055,0.229-0.144,0.346
			c-0.088,0.117-0.202,0.231-0.342,0.345c-0.141,0.113-0.298,0.224-0.475,0.331c-0.175,0.108-0.355,0.211-0.539,0.31
			c-0.184,0.099-0.365,0.19-0.542,0.272c-0.179,0.083-0.337,0.155-0.478,0.217c-0.348,0.153-0.688,0.272-1.023,0.357
			c-0.334,0.085-0.636,0.138-0.904,0.159c-0.296,0.023-0.527-0.014-0.693-0.112C212.597,26.038,212.504,25.86,212.483,25.604z"/>
		<path d="M225.977,21.937c0.132-0.551,0.259-1.081,0.379-1.588c0.121-0.507,0.226-0.976,0.315-1.406
			c0.088-0.43,0.156-0.81,0.203-1.139s0.065-0.589,0.059-0.78c0.032-0.187,0.104-0.339,0.214-0.458
			c0.109-0.118,0.243-0.184,0.398-0.196c0.094-0.007,0.175,0.007,0.245,0.045c0.068,0.037,0.127,0.089,0.174,0.157
			c0.046,0.066,0.083,0.143,0.109,0.229c0.026,0.086,0.043,0.174,0.051,0.263c0.005,0.066,0.006,0.127,0.002,0.182
			c-0.003,0.055-0.009,0.109-0.017,0.16c-0.062,0.365-0.14,0.744-0.233,1.135c-0.095,0.392-0.191,0.788-0.291,1.19
			c-0.1,0.401-0.197,0.804-0.295,1.208c-0.098,0.404-0.182,0.798-0.254,1.184l-0.072,0.405c-0.039,0.207-0.07,0.403-0.096,0.59
			c-0.024,0.186-0.032,0.335-0.022,0.448c0.005,0.062,0.021,0.111,0.047,0.146c0.026,0.035,0.072,0.05,0.139,0.044
			c0.159-0.013,0.345-0.053,0.555-0.123c0.209-0.07,0.427-0.151,0.65-0.246c0.224-0.094,0.445-0.196,0.667-0.306
			c0.22-0.109,0.422-0.213,0.607-0.31c0.097-0.051,0.181-0.095,0.251-0.132c0.069-0.037,0.155-0.082,0.259-0.135
			c0.104-0.054,0.242-0.125,0.416-0.212c0.173-0.088,0.412-0.211,0.717-0.368c0.053-0.024,0.1-0.044,0.14-0.061
			c0.04-0.017,0.076-0.027,0.111-0.03c0.063-0.005,0.117,0.002,0.164,0.022s0.084,0.048,0.113,0.085
			c0.027,0.037,0.049,0.08,0.064,0.13c0.017,0.049,0.026,0.1,0.03,0.15c0.007,0.085,0.006,0.161-0.003,0.226
			c-0.009,0.066-0.019,0.121-0.031,0.165c-0.04,0.078-0.095,0.149-0.165,0.216c-0.069,0.066-0.142,0.125-0.221,0.176
			c-0.078,0.051-0.155,0.095-0.23,0.133c-0.075,0.037-0.138,0.066-0.188,0.085c-0.061,0.028-0.14,0.065-0.24,0.113
			s-0.209,0.099-0.326,0.155s-0.237,0.114-0.362,0.172c-0.124,0.059-0.242,0.115-0.352,0.167c-0.109,0.051-0.207,0.098-0.292,0.138
			c-0.084,0.04-0.144,0.067-0.178,0.082c-0.162,0.076-0.344,0.161-0.541,0.254c-0.199,0.094-0.396,0.184-0.593,0.271
			c-0.198,0.086-0.385,0.161-0.562,0.224c-0.178,0.063-0.326,0.1-0.447,0.109c-0.147,0.012-0.265,0.009-0.351-0.007
			c-0.086-0.017-0.162-0.043-0.232-0.079c-0.069-0.036-0.141-0.08-0.213-0.133c-0.073-0.053-0.169-0.11-0.287-0.171
			c-0.105-0.055-0.185-0.134-0.236-0.24c-0.052-0.106-0.083-0.221-0.093-0.346c-0.005-0.063-0.006-0.135-0.002-0.217
			c0.003-0.083,0.009-0.169,0.018-0.26c0.009-0.091,0.02-0.18,0.032-0.267c0.013-0.087,0.028-0.165,0.046-0.233L225.977,21.937z"/>
		<path d="M237.913,24.088c-0.082,0.007-0.154-0.003-0.219-0.03c-0.065-0.026-0.12-0.063-0.165-0.11
			c-0.045-0.047-0.08-0.103-0.107-0.167c-0.026-0.065-0.042-0.13-0.048-0.196c-0.004-0.058,0.005-0.141,0.028-0.246
			c0.022-0.106,0.053-0.225,0.091-0.357c0.039-0.132,0.082-0.271,0.13-0.416c0.047-0.146,0.092-0.284,0.137-0.417
			c0.045-0.132,0.082-0.255,0.112-0.367s0.051-0.2,0.061-0.264c0.011-0.071,0.023-0.156,0.039-0.255
			c0.016-0.1,0.033-0.208,0.054-0.325c0.021-0.118,0.04-0.24,0.06-0.369c0.019-0.129,0.039-0.259,0.06-0.39
			c-0.053,0.016-0.12,0.032-0.199,0.048s-0.162,0.032-0.252,0.046c-0.128,0.022-0.252,0.05-0.375,0.083
			c-0.122,0.033-0.248,0.07-0.377,0.109c-0.128,0.04-0.261,0.082-0.397,0.126c-0.139,0.044-0.285,0.09-0.442,0.138
			c-0.229,0.069-0.458,0.144-0.688,0.225c-0.229,0.081-0.47,0.131-0.723,0.151c-0.078,0.006-0.151-0.008-0.222-0.044
			c-0.068-0.036-0.146-0.06-0.229-0.073c-0.068,0.131-0.131,0.27-0.19,0.418c-0.059,0.147-0.111,0.299-0.158,0.453
			c-0.046,0.155-0.087,0.307-0.122,0.457c-0.035,0.149-0.065,0.29-0.091,0.421c-0.014,0.072-0.023,0.164-0.027,0.276
			c-0.005,0.112-0.009,0.226-0.011,0.342c-0.003,0.116-0.006,0.227-0.009,0.333c-0.004,0.106-0.009,0.19-0.016,0.254
			c-0.007,0.059-0.026,0.119-0.057,0.178c-0.03,0.059-0.069,0.114-0.116,0.165c-0.047,0.05-0.101,0.093-0.16,0.127
			c-0.061,0.034-0.122,0.054-0.184,0.059c-0.109,0.009-0.2-0.017-0.273-0.076c-0.073-0.058-0.134-0.134-0.183-0.226
			s-0.085-0.194-0.109-0.306c-0.024-0.112-0.041-0.215-0.048-0.308c-0.02-0.238-0.01-0.486,0.029-0.746
			c0.038-0.26,0.097-0.525,0.175-0.795c0.078-0.271,0.175-0.545,0.287-0.822c0.114-0.278,0.237-0.555,0.372-0.832
			c0.109-0.248,0.248-0.535,0.414-0.861s0.354-0.664,0.563-1.012c0.209-0.348,0.439-0.69,0.688-1.027
			c0.25-0.337,0.513-0.641,0.789-0.912c0.276-0.271,0.564-0.494,0.863-0.671c0.3-0.177,0.604-0.277,0.911-0.302
			c0.323-0.025,0.597,0.012,0.823,0.111c0.225,0.1,0.409,0.244,0.554,0.432c0.144,0.188,0.253,0.413,0.327,0.674
			c0.073,0.261,0.122,0.539,0.146,0.834c0.021,0.261,0.025,0.531,0.014,0.81c-0.011,0.279-0.03,0.553-0.059,0.822
			c-0.027,0.269-0.06,0.528-0.097,0.778c-0.037,0.25-0.071,0.476-0.103,0.678l-0.141,0.811c-0.006,0.023-0.017,0.072-0.033,0.144
			c-0.016,0.072-0.036,0.159-0.062,0.261c-0.025,0.102-0.053,0.212-0.085,0.33c-0.032,0.118-0.064,0.234-0.097,0.349
			c-0.032,0.114-0.063,0.219-0.093,0.315c-0.028,0.097-0.055,0.175-0.077,0.235l0.005-0.006c-0.02,0.104-0.04,0.209-0.063,0.316
			c-0.022,0.108-0.058,0.206-0.106,0.294c-0.047,0.088-0.111,0.162-0.193,0.221C238.158,24.042,238.05,24.078,237.913,24.088z
			 M237.632,16.752c-0.175,0.014-0.347,0.063-0.514,0.149c-0.168,0.085-0.331,0.194-0.488,0.324
			c-0.159,0.13-0.311,0.279-0.456,0.447c-0.145,0.168-0.282,0.34-0.411,0.515c-0.13,0.175-0.251,0.35-0.361,0.525
			c-0.112,0.175-0.212,0.337-0.303,0.485c-0.014,0.024-0.032,0.057-0.055,0.096s-0.044,0.082-0.066,0.128
			c-0.021,0.047-0.041,0.095-0.061,0.146s-0.036,0.096-0.049,0.136l0.602-0.047c0.218-0.018,0.466-0.053,0.744-0.106
			s0.553-0.112,0.824-0.177c0.271-0.064,0.52-0.128,0.745-0.191c0.227-0.063,0.397-0.111,0.513-0.144
			c0.012-0.052,0.021-0.122,0.027-0.208s0.011-0.183,0.015-0.289c0.003-0.106,0.003-0.219,0-0.338
			c-0.004-0.119-0.011-0.241-0.021-0.366c-0.008-0.101-0.021-0.216-0.039-0.346c-0.019-0.13-0.052-0.252-0.099-0.365
			c-0.049-0.114-0.116-0.208-0.202-0.281C237.891,16.771,237.776,16.741,237.632,16.752z"/>
		<path d="M252.637,20.224c0.022,0.28-0.037,0.575-0.18,0.884c-0.142,0.309-0.384,0.607-0.726,0.893
			c-0.106,0.087-0.238,0.182-0.392,0.286c-0.154,0.105-0.322,0.211-0.504,0.32c-0.182,0.108-0.373,0.214-0.574,0.318
			c-0.202,0.104-0.405,0.198-0.612,0.281s-0.41,0.153-0.609,0.21c-0.2,0.057-0.389,0.092-0.568,0.107
			c-0.089,0.007-0.166,0.006-0.232-0.002c-0.065-0.008-0.126-0.028-0.183-0.059c-0.058-0.031-0.114-0.076-0.17-0.133
			c-0.056-0.059-0.116-0.132-0.182-0.221c-0.089,0.078-0.183,0.137-0.283,0.178s-0.204,0.066-0.309,0.075l-0.164,0.013
			c-0.031,0.002-0.062-0.006-0.089-0.025c-0.029-0.019-0.056-0.043-0.08-0.073c-0.023-0.029-0.043-0.062-0.058-0.098
			s-0.023-0.071-0.026-0.106c-0.016-0.199-0.002-0.391,0.04-0.577c0.042-0.185,0.093-0.37,0.152-0.555
			c0.083-0.34,0.166-0.696,0.251-1.069c0.084-0.374,0.164-0.747,0.24-1.122c0.076-0.374,0.147-0.744,0.215-1.107
			c0.067-0.364,0.129-0.709,0.186-1.035l0.11-0.691c-0.001-0.012-0.006-0.044-0.014-0.099c-0.009-0.054-0.019-0.113-0.029-0.177
			c-0.011-0.063-0.021-0.123-0.028-0.177l-0.012-0.075l0.021-0.102l-0.006,0.006c0.014-0.071,0.035-0.154,0.063-0.246
			c0.027-0.092,0.064-0.18,0.108-0.261c0.045-0.082,0.096-0.152,0.15-0.209c0.057-0.058,0.12-0.089,0.19-0.095
			c0.066-0.005,0.15-0.007,0.255-0.005s0.196-0.001,0.278-0.007c0.039-0.003,0.077-0.008,0.114-0.015
			c0.036-0.007,0.083-0.02,0.137-0.041c0.056-0.02,0.128-0.048,0.218-0.084c0.089-0.037,0.205-0.086,0.349-0.148
			c0.217-0.096,0.415-0.177,0.596-0.244c0.181-0.067,0.353-0.124,0.516-0.17c0.162-0.046,0.321-0.083,0.476-0.111
			c0.155-0.028,0.313-0.049,0.478-0.062c0.206-0.017,0.407-0.013,0.604,0.011c0.195,0.024,0.372,0.073,0.528,0.149
			c0.157,0.076,0.286,0.181,0.387,0.316c0.102,0.136,0.16,0.304,0.176,0.506c0.027,0.347-0.039,0.666-0.201,0.957
			c-0.161,0.291-0.399,0.569-0.715,0.833c-0.316,0.264-0.701,0.517-1.154,0.759c-0.453,0.242-0.96,0.484-1.521,0.729
			c0.465,0.034,0.868,0.085,1.208,0.154c0.341,0.069,0.625,0.16,0.854,0.271c0.229,0.112,0.401,0.245,0.52,0.4
			C252.554,19.831,252.62,20.014,252.637,20.224z M250.608,19.844c-0.039-0.005-0.111-0.012-0.217-0.023
			c-0.104-0.012-0.227-0.023-0.366-0.036c-0.141-0.012-0.292-0.025-0.453-0.037c-0.162-0.013-0.315-0.026-0.462-0.04
			c-0.146-0.014-0.279-0.028-0.399-0.042c-0.121-0.014-0.21-0.026-0.265-0.038c-0.11,0.491-0.204,0.959-0.279,1.406
			c-0.077,0.447-0.154,0.896-0.231,1.35l0.389,0.01c0.09,0.001,0.169,0.001,0.238,0.002c0.068,0,0.109,0,0.12-0.001
			c0.154-0.028,0.323-0.072,0.507-0.131c0.184-0.06,0.373-0.132,0.567-0.216c0.195-0.084,0.393-0.18,0.592-0.288
			c0.199-0.107,0.395-0.222,0.584-0.343c0.07-0.053,0.145-0.115,0.22-0.188c0.077-0.072,0.146-0.151,0.206-0.236
			c0.059-0.085,0.106-0.174,0.143-0.267s0.05-0.187,0.043-0.28c-0.013-0.156-0.105-0.285-0.277-0.386
			C251.093,19.957,250.874,19.886,250.608,19.844z M248.655,18.635c0.213-0.087,0.436-0.188,0.669-0.303
			c0.234-0.115,0.475-0.239,0.721-0.372c0.246-0.133,0.495-0.273,0.749-0.421c0.252-0.147,0.504-0.295,0.755-0.445l-0.006,0
			c0.089-0.058,0.177-0.126,0.263-0.206s0.162-0.164,0.227-0.253c0.065-0.089,0.117-0.182,0.154-0.277
			c0.038-0.095,0.054-0.188,0.046-0.277c-0.004-0.059-0.022-0.116-0.055-0.172c-0.032-0.057-0.079-0.106-0.142-0.147
			c-0.062-0.042-0.141-0.073-0.239-0.093c-0.098-0.019-0.216-0.023-0.356-0.012c-0.194,0.015-0.413,0.057-0.654,0.125
			c-0.241,0.068-0.474,0.148-0.698,0.24c-0.224,0.093-0.421,0.19-0.594,0.294c-0.172,0.104-0.284,0.199-0.335,0.285
			c-0.011,0.021-0.023,0.064-0.04,0.133c-0.017,0.068-0.035,0.143-0.056,0.225c-0.021,0.082-0.043,0.161-0.066,0.237
			c-0.023,0.077-0.048,0.133-0.072,0.17c-0.005,0.04-0.015,0.1-0.032,0.182c-0.017,0.081-0.038,0.178-0.063,0.29
			c-0.024,0.112-0.052,0.236-0.082,0.371C248.717,18.346,248.687,18.488,248.655,18.635z"/>
		<path d="M254.514,19.881c0.055-0.4,0.12-0.759,0.194-1.076s0.15-0.613,0.227-0.888c0.076-0.274,0.148-0.537,0.217-0.787
			c0.068-0.25,0.125-0.508,0.171-0.774l0.048-0.286c0.011-0.071,0.016-0.16,0.02-0.266c0.003-0.106,0.008-0.218,0.012-0.333
			c0.005-0.116,0.015-0.231,0.029-0.346c0.014-0.114,0.04-0.219,0.078-0.312s0.09-0.171,0.154-0.233
			c0.066-0.062,0.153-0.097,0.262-0.106c0.121-0.009,0.226,0.004,0.312,0.04c0.088,0.037,0.159,0.088,0.216,0.154
			c0.057,0.066,0.1,0.144,0.13,0.234c0.03,0.089,0.05,0.183,0.058,0.28c0.006,0.082,0.008,0.164,0.005,0.246
			c-0.004,0.083-0.013,0.16-0.025,0.232c-0.029,0.179-0.083,0.389-0.162,0.63s-0.165,0.508-0.26,0.799
			c-0.094,0.292-0.189,0.606-0.284,0.945c-0.094,0.338-0.174,0.695-0.238,1.068c-0.038,0.21-0.067,0.44-0.089,0.688
			s-0.024,0.472-0.009,0.671c0.013,0.16,0.038,0.31,0.076,0.449c0.039,0.14,0.098,0.261,0.176,0.363
			c0.078,0.101,0.18,0.178,0.304,0.231c0.123,0.053,0.277,0.072,0.46,0.057c0.141-0.011,0.284-0.034,0.433-0.069
			c0.147-0.036,0.322-0.106,0.521-0.212c0.293-0.16,0.566-0.359,0.82-0.597c0.253-0.238,0.485-0.504,0.695-0.798
			c0.209-0.295,0.399-0.61,0.571-0.944c0.171-0.335,0.323-0.68,0.456-1.036s0.246-0.713,0.341-1.073
			c0.095-0.36,0.172-0.713,0.23-1.059c0.024-0.146,0.04-0.284,0.049-0.412c0.01-0.128,0.015-0.259,0.014-0.392
			s-0.004-0.276-0.011-0.428c-0.006-0.152-0.009-0.326-0.009-0.522c-0.001-0.157,0.032-0.295,0.1-0.416
			c0.066-0.121,0.178-0.188,0.334-0.2c0.097-0.008,0.185,0.025,0.264,0.097c0.078,0.072,0.145,0.164,0.2,0.275
			c0.056,0.112,0.101,0.23,0.135,0.357c0.033,0.126,0.054,0.241,0.063,0.342c0.015,0.195,0.012,0.406-0.009,0.636
			c-0.021,0.229-0.051,0.449-0.09,0.66c-0.076,0.457-0.177,0.917-0.298,1.381c-0.123,0.464-0.275,0.921-0.46,1.371
			c-0.183,0.449-0.403,0.889-0.661,1.319c-0.258,0.43-0.563,0.836-0.912,1.221c-0.173,0.19-0.362,0.378-0.566,0.565
			c-0.204,0.187-0.421,0.357-0.647,0.513c-0.227,0.155-0.461,0.284-0.703,0.388c-0.243,0.103-0.487,0.165-0.732,0.184
			c-0.354,0.028-0.666,0.003-0.935-0.076s-0.497-0.2-0.685-0.366c-0.187-0.166-0.333-0.369-0.439-0.609
			c-0.104-0.241-0.169-0.509-0.192-0.805c-0.011-0.14-0.012-0.296-0.001-0.467C254.476,20.216,254.491,20.048,254.514,19.881z"/>
		<path d="M262.518,21.64c-0.011-0.136-0.003-0.282,0.024-0.437c0.091-0.54,0.204-1.071,0.342-1.593
			c0.136-0.522,0.256-1.041,0.361-1.554c0.104-0.514,0.19-0.947,0.259-1.299s0.129-0.655,0.184-0.908
			c0.055-0.253,0.105-0.472,0.153-0.656s0.103-0.366,0.163-0.547c0.038-0.109,0.08-0.222,0.128-0.339s0.101-0.227,0.16-0.327
			c0.058-0.101,0.121-0.184,0.188-0.25c0.067-0.066,0.14-0.102,0.217-0.108c0.16-0.013,0.284,0.004,0.372,0.05
			s0.144,0.09,0.166,0.13l0.071,0.236c0.058-0.009,0.134-0.025,0.226-0.05s0.185-0.051,0.279-0.078
			c0.093-0.027,0.181-0.054,0.261-0.08s0.141-0.048,0.183-0.068c0.252-0.09,0.484-0.169,0.698-0.237
			c0.214-0.067,0.419-0.126,0.612-0.175s0.38-0.088,0.558-0.117c0.179-0.03,0.358-0.052,0.542-0.067
			c0.179-0.014,0.325-0.016,0.439-0.005c0.115,0.01,0.206,0.029,0.275,0.058c0.068,0.028,0.118,0.063,0.146,0.105
			c0.029,0.043,0.046,0.09,0.05,0.14c0.004,0.047-0.005,0.098-0.026,0.152c-0.021,0.055-0.06,0.108-0.114,0.16
			c-0.055,0.051-0.127,0.098-0.218,0.141s-0.205,0.075-0.345,0.098c-0.035,0.01-0.114,0.031-0.239,0.063
			c-0.125,0.031-0.26,0.066-0.406,0.103c-0.146,0.037-0.284,0.072-0.414,0.106c-0.131,0.034-0.222,0.059-0.271,0.074h0.006
			c-0.023,0.005-0.076,0.024-0.162,0.057s-0.189,0.07-0.312,0.113c-0.122,0.043-0.254,0.091-0.397,0.146
			c-0.143,0.055-0.283,0.108-0.422,0.16c-0.139,0.052-0.268,0.102-0.385,0.148c-0.118,0.046-0.213,0.084-0.285,0.114
			c-0.229,0.112-0.406,0.25-0.528,0.415s-0.215,0.345-0.277,0.542c-0.013,0.036-0.031,0.098-0.056,0.184
			c-0.025,0.086-0.052,0.185-0.08,0.294c-0.029,0.11-0.06,0.227-0.093,0.351s-0.064,0.243-0.096,0.354
			c-0.03,0.112-0.057,0.214-0.078,0.306c-0.022,0.092-0.038,0.16-0.046,0.204c-0.008,0.04-0.013,0.075-0.015,0.106
			c-0.001,0.032-0.001,0.055,0,0.071c0.002,0.023,0.009,0.034,0.021,0.034c0.058-0.005,0.178-0.041,0.357-0.108
			c0.182-0.067,0.393-0.149,0.633-0.247c0.241-0.097,0.5-0.202,0.775-0.314c0.275-0.112,0.539-0.217,0.792-0.316
			c0.252-0.098,0.479-0.182,0.677-0.25c0.198-0.069,0.342-0.106,0.431-0.114c0.137-0.011,0.23,0.004,0.281,0.046
			c0.05,0.041,0.077,0.088,0.081,0.143c0.011,0.14-0.028,0.267-0.119,0.379c-0.092,0.113-0.207,0.215-0.35,0.305
			c-0.045,0.027-0.129,0.067-0.252,0.123c-0.123,0.055-0.255,0.111-0.397,0.169s-0.278,0.114-0.407,0.167s-0.223,0.092-0.279,0.116
			c-0.369,0.178-0.67,0.325-0.902,0.438c-0.232,0.115-0.419,0.208-0.563,0.28c-0.143,0.072-0.254,0.126-0.331,0.164
			s-0.149,0.07-0.216,0.096c-0.066,0.027-0.139,0.053-0.22,0.08c-0.08,0.026-0.191,0.062-0.332,0.109
			c-0.029,0.084-0.061,0.211-0.094,0.38c-0.034,0.169-0.064,0.344-0.093,0.525c-0.029,0.181-0.053,0.348-0.069,0.502
			c-0.018,0.154-0.024,0.26-0.02,0.319c0.006,0.07,0.02,0.121,0.042,0.152c0.021,0.032,0.047,0.052,0.075,0.062
			c0.028,0.009,0.057,0.013,0.084,0.011c0.027-0.002,0.048-0.004,0.063-0.005c0.188-0.015,0.409-0.06,0.668-0.135
			c0.259-0.076,0.514-0.168,0.763-0.278c0.239-0.105,0.445-0.215,0.621-0.331c0.175-0.116,0.34-0.224,0.494-0.324
			c0.155-0.101,0.307-0.187,0.456-0.26c0.148-0.072,0.314-0.118,0.497-0.136c0.039-0.003,0.085-0.003,0.138,0.001
			s0.104,0.014,0.152,0.032c0.049,0.018,0.089,0.043,0.121,0.076c0.032,0.033,0.047,0.077,0.043,0.132
			c-0.007,0.114-0.055,0.23-0.144,0.347c-0.089,0.116-0.202,0.231-0.343,0.344c-0.14,0.113-0.298,0.224-0.474,0.332
			c-0.176,0.107-0.355,0.211-0.539,0.31c-0.185,0.099-0.365,0.189-0.544,0.272c-0.177,0.083-0.335,0.155-0.476,0.217
			c-0.349,0.153-0.69,0.271-1.024,0.357s-0.636,0.138-0.904,0.16c-0.296,0.023-0.526-0.014-0.693-0.113
			C262.632,22.074,262.538,21.896,262.518,21.64z"/>
		<path d="M271.011,14.289c0.016-0.103,0.036-0.213,0.062-0.331c0.026-0.118,0.065-0.227,0.116-0.327
			c0.05-0.1,0.12-0.186,0.208-0.258c0.089-0.071,0.205-0.113,0.35-0.124c0.136-0.011,0.261,0.017,0.374,0.084
			c0.112,0.067,0.215,0.137,0.307,0.208c0.106,0.058,0.215,0.184,0.324,0.379s0.226,0.437,0.349,0.725
			c0.122,0.288,0.256,0.615,0.4,0.979s0.302,0.746,0.474,1.144c0.17,0.398,0.358,0.803,0.563,1.216
			c0.205,0.413,0.434,0.813,0.683,1.201c0.04,0.06,0.087,0.129,0.141,0.209s0.106,0.155,0.161,0.225
			c0.055,0.07,0.105,0.129,0.15,0.176c0.045,0.048,0.077,0.071,0.097,0.069c0.012-0.001,0.022-0.031,0.033-0.091
			c0.011-0.06,0.022-0.131,0.036-0.214c0.013-0.083,0.026-0.168,0.041-0.256s0.03-0.159,0.045-0.215
			c0.061-0.185,0.124-0.397,0.193-0.636c0.069-0.238,0.146-0.526,0.226-0.864c0.081-0.337,0.168-0.737,0.261-1.199
			s0.192-1.008,0.3-1.64c0.026-0.155,0.054-0.331,0.084-0.527c0.029-0.196,0.057-0.396,0.082-0.6
			c0.024-0.204,0.046-0.402,0.062-0.596c0.016-0.193,0.023-0.36,0.024-0.501c-0.002-0.023-0.003-0.064-0.004-0.124
			c-0.001-0.058,0.001-0.125,0.005-0.2c0.004-0.075,0.011-0.153,0.02-0.234c0.01-0.081,0.024-0.156,0.044-0.224
			c0.021-0.068,0.049-0.125,0.084-0.171s0.08-0.071,0.135-0.075c0.055-0.004,0.122-0.002,0.204,0.007
			c0.08,0.009,0.155,0.027,0.224,0.052c0.083,0.096,0.159,0.212,0.23,0.35c0.072,0.137,0.117,0.327,0.137,0.568
			c0.012,0.152,0.011,0.335-0.004,0.55c-0.015,0.215-0.036,0.446-0.065,0.693c-0.029,0.248-0.064,0.502-0.104,0.764
			s-0.082,0.513-0.125,0.753c-0.044,0.24-0.086,0.461-0.127,0.663s-0.076,0.367-0.104,0.499c-0.052,0.231-0.106,0.47-0.164,0.715
			c-0.057,0.246-0.12,0.503-0.191,0.773c-0.07,0.27-0.147,0.557-0.231,0.859s-0.179,0.626-0.284,0.972
			c-0.047,0.157-0.102,0.314-0.166,0.472c-0.063,0.158-0.14,0.302-0.227,0.432c-0.088,0.131-0.19,0.239-0.307,0.324
			c-0.117,0.086-0.251,0.135-0.403,0.147c-0.09,0.007-0.183,0.001-0.28-0.017c-0.098-0.018-0.183-0.063-0.254-0.135
			c-0.349-0.345-0.666-0.742-0.953-1.191c-0.287-0.449-0.548-0.922-0.785-1.419c-0.237-0.496-0.452-1-0.646-1.512
			c-0.192-0.512-0.371-1.002-0.533-1.471l-0.046-0.131c-0.02-0.054-0.039-0.107-0.057-0.163c-0.019-0.056-0.036-0.106-0.054-0.152
			c-0.018-0.045-0.036-0.082-0.056-0.11c-0.021-0.028-0.042-0.041-0.065-0.039s-0.049,0.047-0.076,0.135
			c-0.028,0.089-0.057,0.188-0.083,0.297c-0.026,0.11-0.051,0.217-0.071,0.32c-0.021,0.104-0.035,0.169-0.041,0.197
			c-0.02,0.103-0.048,0.252-0.088,0.445c-0.039,0.193-0.084,0.412-0.134,0.654c-0.048,0.244-0.103,0.5-0.161,0.771
			c-0.06,0.271-0.115,0.533-0.17,0.786c-0.055,0.253-0.107,0.487-0.156,0.703s-0.091,0.39-0.123,0.521
			c-0.027,0.104-0.061,0.237-0.098,0.401c-0.038,0.164-0.076,0.328-0.113,0.494c-0.038,0.166-0.073,0.316-0.106,0.452
			c-0.031,0.136-0.052,0.226-0.06,0.27c-0.035,0.152-0.096,0.269-0.182,0.353c-0.085,0.083-0.175,0.128-0.269,0.136
			c-0.059,0.004-0.118-0.011-0.18-0.048c-0.062-0.036-0.117-0.082-0.167-0.137c-0.05-0.054-0.091-0.115-0.125-0.181
			c-0.035-0.065-0.055-0.126-0.059-0.18c-0.003-0.031,0.003-0.082,0.018-0.151c0.014-0.07,0.035-0.188,0.064-0.355l0.105-0.614
			L271.011,14.289z"/>
		<path d="M284.344,20.41c-0.081,0.006-0.154-0.004-0.22-0.03c-0.064-0.026-0.119-0.063-0.163-0.11
			c-0.046-0.048-0.081-0.103-0.108-0.168c-0.026-0.065-0.042-0.13-0.048-0.196c-0.005-0.058,0.005-0.14,0.028-0.246
			c0.022-0.106,0.054-0.225,0.091-0.357c0.039-0.132,0.082-0.271,0.13-0.416c0.047-0.145,0.093-0.284,0.137-0.417
			c0.045-0.133,0.082-0.255,0.112-0.368c0.03-0.112,0.051-0.2,0.062-0.263c0.011-0.071,0.023-0.157,0.039-0.256
			c0.015-0.1,0.032-0.208,0.053-0.325s0.04-0.24,0.06-0.369c0.019-0.129,0.039-0.258,0.061-0.39c-0.054,0.016-0.121,0.032-0.2,0.048
			c-0.078,0.016-0.162,0.032-0.252,0.046c-0.127,0.022-0.252,0.05-0.375,0.083s-0.248,0.07-0.376,0.109
			c-0.129,0.04-0.262,0.082-0.398,0.126c-0.139,0.044-0.285,0.09-0.442,0.138c-0.229,0.069-0.458,0.144-0.687,0.225
			c-0.229,0.081-0.471,0.131-0.724,0.151c-0.078,0.006-0.151-0.008-0.221-0.044s-0.146-0.06-0.229-0.073
			c-0.067,0.131-0.131,0.271-0.19,0.418c-0.059,0.148-0.111,0.299-0.157,0.453c-0.047,0.155-0.088,0.307-0.123,0.457
			s-0.065,0.29-0.09,0.421c-0.014,0.072-0.023,0.164-0.028,0.276c-0.005,0.112-0.008,0.226-0.011,0.342
			c-0.003,0.116-0.006,0.227-0.009,0.333c-0.004,0.106-0.009,0.191-0.016,0.254c-0.007,0.059-0.026,0.118-0.057,0.178
			c-0.03,0.059-0.068,0.114-0.115,0.165c-0.048,0.05-0.102,0.093-0.161,0.127c-0.061,0.034-0.121,0.054-0.184,0.059
			c-0.109,0.009-0.2-0.016-0.272-0.075c-0.074-0.059-0.135-0.134-0.184-0.227c-0.049-0.092-0.085-0.194-0.109-0.306
			c-0.023-0.111-0.04-0.214-0.047-0.308c-0.02-0.238-0.011-0.486,0.028-0.746c0.038-0.26,0.097-0.525,0.176-0.795
			c0.077-0.271,0.174-0.545,0.286-0.822c0.114-0.278,0.237-0.555,0.373-0.832c0.109-0.248,0.247-0.535,0.413-0.862
			s0.354-0.664,0.563-1.012s0.439-0.69,0.688-1.027c0.25-0.337,0.513-0.641,0.789-0.912c0.276-0.271,0.564-0.494,0.863-0.671
			c0.3-0.176,0.604-0.277,0.911-0.301c0.323-0.026,0.598,0.011,0.823,0.111c0.225,0.1,0.409,0.244,0.554,0.433
			c0.145,0.188,0.253,0.413,0.327,0.673c0.073,0.261,0.122,0.539,0.146,0.835c0.021,0.261,0.025,0.531,0.014,0.81
			c-0.011,0.279-0.03,0.553-0.059,0.822c-0.026,0.268-0.06,0.527-0.097,0.777c-0.037,0.25-0.071,0.476-0.103,0.678l-0.141,0.811
			c-0.006,0.024-0.018,0.072-0.033,0.144s-0.036,0.159-0.061,0.261c-0.025,0.102-0.054,0.212-0.086,0.33s-0.064,0.234-0.097,0.349
			c-0.032,0.114-0.062,0.219-0.092,0.316c-0.029,0.096-0.056,0.175-0.078,0.235l0.005-0.006c-0.02,0.104-0.04,0.209-0.063,0.317
			c-0.022,0.108-0.058,0.206-0.105,0.294c-0.048,0.087-0.112,0.162-0.194,0.221C284.59,20.364,284.48,20.399,284.344,20.41z
			 M284.063,13.073c-0.175,0.014-0.346,0.063-0.514,0.149c-0.167,0.085-0.331,0.194-0.488,0.324
			c-0.159,0.13-0.311,0.279-0.456,0.447c-0.145,0.168-0.283,0.34-0.411,0.515c-0.13,0.175-0.25,0.35-0.361,0.525
			c-0.112,0.175-0.212,0.337-0.303,0.485c-0.014,0.025-0.032,0.057-0.055,0.096s-0.044,0.082-0.065,0.128s-0.042,0.095-0.062,0.146
			s-0.036,0.096-0.049,0.136l0.602-0.048c0.218-0.017,0.467-0.053,0.745-0.105c0.277-0.054,0.552-0.113,0.823-0.177
			c0.271-0.065,0.52-0.128,0.746-0.191c0.226-0.063,0.396-0.111,0.512-0.143c0.011-0.052,0.021-0.122,0.027-0.208
			c0.007-0.086,0.012-0.183,0.016-0.289c0.003-0.106,0.003-0.219,0-0.338c-0.004-0.119-0.011-0.241-0.021-0.366
			c-0.008-0.101-0.021-0.217-0.039-0.347c-0.019-0.13-0.052-0.252-0.1-0.365c-0.049-0.114-0.116-0.208-0.202-0.281
			C284.322,13.093,284.207,13.062,284.063,13.073z"/>
		<path d="M292.885,19.151c0.051-0.302,0.128-0.639,0.231-1.011s0.227-0.762,0.368-1.169c0.144-0.407,0.302-0.821,0.479-1.243
			c0.176-0.422,0.36-0.833,0.555-1.234c0.193-0.401,0.395-0.782,0.603-1.141c0.209-0.359,0.418-0.683,0.626-0.969
			c0.061-0.079,0.137-0.178,0.227-0.294c0.091-0.117,0.193-0.239,0.306-0.365c0.114-0.126,0.232-0.252,0.358-0.378
			s0.252-0.239,0.382-0.342c0.129-0.102,0.256-0.187,0.379-0.253c0.124-0.066,0.241-0.104,0.35-0.113
			c0.148-0.012,0.285,0.003,0.412,0.044c0.127,0.041,0.237,0.104,0.333,0.191c0.095,0.086,0.171,0.193,0.23,0.319
			c0.06,0.127,0.095,0.268,0.107,0.424c0.005,0.066,0.006,0.133,0.001,0.2s-0.012,0.136-0.021,0.208l-0.391,3.311
			c0.052-0.094,0.124-0.223,0.217-0.385s0.198-0.343,0.315-0.542c0.117-0.2,0.239-0.407,0.368-0.624
			c0.128-0.215,0.253-0.424,0.377-0.626c0.122-0.202,0.236-0.386,0.34-0.553c0.104-0.167,0.19-0.303,0.257-0.406l0.094-0.143
			c0.063-0.095,0.142-0.207,0.232-0.336c0.092-0.128,0.194-0.264,0.306-0.406c0.112-0.142,0.231-0.283,0.357-0.422
			c0.127-0.139,0.255-0.266,0.388-0.377c0.132-0.112,0.264-0.207,0.395-0.281c0.132-0.075,0.26-0.118,0.384-0.127
			c0.094-0.007,0.174,0.008,0.238,0.046c0.066,0.038,0.122,0.091,0.166,0.16c0.045,0.069,0.079,0.152,0.103,0.248
			s0.039,0.197,0.048,0.302c0.013,0.164,0.012,0.33-0.002,0.5c-0.014,0.169-0.033,0.324-0.058,0.463
			c-0.011,0.11-0.025,0.268-0.042,0.474c-0.018,0.205-0.038,0.44-0.062,0.708c-0.023,0.266-0.049,0.554-0.075,0.864
			c-0.027,0.31-0.054,0.624-0.081,0.944s-0.056,0.635-0.084,0.947c-0.028,0.312-0.055,0.603-0.077,0.873
			c-0.023,0.271-0.046,0.512-0.066,0.725s-0.038,0.379-0.052,0.498c-0.008,0.056-0.021,0.131-0.038,0.226
			c-0.019,0.096-0.047,0.19-0.089,0.284c-0.042,0.093-0.1,0.176-0.175,0.249c-0.074,0.073-0.17,0.114-0.287,0.123
			c-0.062,0.005-0.123-0.011-0.183-0.047s-0.114-0.084-0.164-0.143c-0.05-0.059-0.09-0.123-0.121-0.193
			c-0.031-0.07-0.051-0.134-0.06-0.192l0.758-5.867c0.008-0.056,0.014-0.105,0.018-0.149c0.005-0.043,0.006-0.084,0.002-0.124
			c-0.003-0.042-0.011-0.081-0.023-0.116c-0.013-0.034-0.024-0.067-0.034-0.097c-0.015-0.034-0.029-0.065-0.043-0.091
			c-0.164,0.146-0.339,0.33-0.523,0.55c-0.184,0.22-0.369,0.464-0.553,0.731c-0.186,0.268-0.368,0.55-0.55,0.849
			c-0.184,0.299-0.354,0.598-0.514,0.896c-0.127,0.234-0.264,0.479-0.41,0.738c-0.146,0.258-0.293,0.518-0.44,0.778
			c-0.148,0.261-0.29,0.521-0.429,0.781c-0.138,0.259-0.263,0.507-0.373,0.743c-0.054,0.115-0.107,0.26-0.16,0.437
			c-0.052,0.176-0.111,0.35-0.179,0.52s-0.141,0.317-0.224,0.441c-0.082,0.124-0.183,0.191-0.299,0.2
			c-0.09,0.007-0.166-0.001-0.228-0.023c-0.063-0.022-0.113-0.055-0.152-0.097c-0.038-0.042-0.068-0.093-0.089-0.151
			c-0.02-0.06-0.033-0.124-0.038-0.194c-0.008-0.089-0.006-0.18,0.005-0.271c0.01-0.091,0.022-0.178,0.035-0.262
			c0.055-0.349,0.113-0.696,0.176-1.042c0.063-0.346,0.128-0.7,0.195-1.062s0.137-0.737,0.207-1.125
			c0.072-0.388,0.144-0.8,0.214-1.237c0.018-0.123,0.038-0.26,0.062-0.413s0.045-0.307,0.063-0.463
			c0.02-0.156,0.032-0.307,0.041-0.453c0.008-0.146,0.007-0.275-0.002-0.388c-0.009-0.101-0.022-0.182-0.042-0.24
			c-0.021-0.06-0.052-0.087-0.095-0.084c-0.145,0.011-0.292,0.077-0.443,0.197c-0.151,0.12-0.302,0.274-0.451,0.462
			c-0.15,0.188-0.296,0.401-0.438,0.64c-0.142,0.238-0.275,0.483-0.4,0.734c-0.125,0.251-0.24,0.498-0.347,0.742
			c-0.105,0.244-0.196,0.462-0.271,0.657c-0.017,0.04-0.04,0.096-0.072,0.167c-0.03,0.071-0.072,0.17-0.123,0.298
			s-0.112,0.29-0.184,0.488c-0.073,0.198-0.157,0.447-0.253,0.749c-0.096,0.302-0.206,0.661-0.329,1.078
			c-0.124,0.417-0.262,0.907-0.412,1.467c-0.028,0.096-0.084,0.177-0.167,0.242s-0.171,0.102-0.265,0.109
			c-0.202,0.016-0.355-0.026-0.459-0.128c-0.104-0.102-0.163-0.232-0.176-0.392C292.869,19.317,292.872,19.238,292.885,19.151z"/>
		<path d="M304.782,15.898c0.055-0.399,0.12-0.759,0.194-1.076c0.075-0.317,0.15-0.613,0.226-0.888
			c0.077-0.274,0.149-0.537,0.217-0.787c0.069-0.25,0.126-0.508,0.172-0.775l0.047-0.286c0.011-0.072,0.018-0.16,0.021-0.266
			c0.003-0.106,0.007-0.217,0.012-0.333s0.015-0.231,0.028-0.346c0.015-0.115,0.041-0.219,0.079-0.312
			c0.038-0.093,0.089-0.17,0.154-0.233c0.065-0.062,0.153-0.097,0.262-0.105c0.121-0.01,0.226,0.004,0.312,0.04
			c0.088,0.036,0.16,0.087,0.216,0.153c0.057,0.066,0.099,0.144,0.13,0.234c0.03,0.09,0.05,0.184,0.058,0.281
			c0.006,0.082,0.008,0.164,0.005,0.246c-0.004,0.083-0.012,0.16-0.026,0.231c-0.028,0.179-0.082,0.389-0.161,0.63
			c-0.079,0.242-0.165,0.508-0.26,0.799s-0.189,0.607-0.284,0.945c-0.094,0.339-0.174,0.695-0.238,1.068
			c-0.039,0.21-0.067,0.44-0.089,0.688c-0.021,0.249-0.024,0.473-0.009,0.671c0.013,0.16,0.038,0.31,0.076,0.45
			c0.039,0.14,0.098,0.26,0.176,0.362c0.078,0.102,0.18,0.178,0.303,0.231c0.124,0.053,0.278,0.072,0.461,0.058
			c0.141-0.011,0.284-0.035,0.433-0.069c0.147-0.035,0.322-0.106,0.521-0.212c0.293-0.16,0.566-0.359,0.819-0.597
			c0.254-0.238,0.485-0.504,0.696-0.799c0.209-0.294,0.399-0.609,0.571-0.944c0.171-0.335,0.322-0.68,0.455-1.036
			s0.247-0.713,0.342-1.073c0.095-0.36,0.172-0.713,0.23-1.059c0.023-0.147,0.04-0.284,0.049-0.412
			c0.01-0.128,0.015-0.259,0.014-0.393c-0.001-0.133-0.004-0.275-0.011-0.428c-0.006-0.152-0.009-0.327-0.009-0.522
			c-0.001-0.157,0.032-0.296,0.1-0.417c0.066-0.121,0.178-0.188,0.333-0.2c0.098-0.008,0.186,0.024,0.265,0.097
			c0.077,0.072,0.145,0.164,0.2,0.275s0.101,0.23,0.135,0.357c0.033,0.126,0.054,0.241,0.063,0.342
			c0.015,0.195,0.013,0.406-0.009,0.635s-0.051,0.449-0.09,0.66c-0.076,0.457-0.177,0.917-0.298,1.381
			c-0.122,0.464-0.275,0.921-0.46,1.371c-0.184,0.45-0.403,0.889-0.661,1.319c-0.258,0.43-0.562,0.837-0.912,1.221
			c-0.173,0.19-0.362,0.378-0.566,0.565c-0.204,0.187-0.421,0.358-0.647,0.513c-0.227,0.155-0.461,0.284-0.704,0.388
			c-0.242,0.103-0.486,0.165-0.731,0.184c-0.354,0.028-0.666,0.002-0.935-0.076c-0.269-0.079-0.497-0.201-0.685-0.366
			c-0.188-0.166-0.334-0.369-0.439-0.609s-0.169-0.509-0.192-0.805c-0.011-0.14-0.012-0.296-0.002-0.467
			C304.744,16.234,304.76,16.065,304.782,15.898z M311.076,6.972c-0.03,0.175-0.092,0.318-0.187,0.432
			c-0.095,0.114-0.216,0.215-0.36,0.305l-1.763,1.057c-0.066,0.044-0.159,0.071-0.275,0.08c-0.09,0.007-0.155-0.008-0.198-0.045
			c-0.042-0.038-0.065-0.09-0.071-0.156c-0.006-0.082,0.005-0.157,0.032-0.226c0.028-0.069,0.065-0.132,0.112-0.191
			c0.046-0.059,0.096-0.11,0.151-0.156c0.056-0.045,0.105-0.085,0.149-0.12l0.423-0.298c0.179-0.125,0.353-0.249,0.523-0.374
			c0.17-0.125,0.33-0.238,0.479-0.337c0.149-0.1,0.283-0.183,0.403-0.25s0.215-0.103,0.285-0.108
			c0.077-0.006,0.146,0.016,0.202,0.066c0.058,0.051,0.089,0.121,0.097,0.21c0.001,0.019,0.003,0.038,0.004,0.055
			C311.085,6.933,311.082,6.951,311.076,6.972z"/>
		<path d="M312.661,16.744c0.136,0.036,0.275,0.08,0.419,0.131c0.144,0.051,0.291,0.099,0.443,0.144
			c0.152,0.044,0.312,0.08,0.476,0.106c0.165,0.026,0.339,0.032,0.521,0.017c0.215-0.017,0.429-0.06,0.643-0.127
			c0.214-0.068,0.421-0.16,0.621-0.276c0.201-0.116,0.391-0.252,0.57-0.409c0.18-0.158,0.342-0.335,0.487-0.535
			c0.159-0.213,0.291-0.404,0.395-0.575c0.104-0.171,0.188-0.323,0.249-0.455c0.063-0.132,0.105-0.246,0.129-0.339
			c0.024-0.094,0.034-0.174,0.028-0.24c-0.008-0.098-0.048-0.18-0.119-0.247c-0.072-0.066-0.165-0.119-0.28-0.157
			c-0.115-0.038-0.242-0.062-0.385-0.072c-0.142-0.01-0.289-0.009-0.44,0.002c-0.09,0.007-0.194,0.019-0.314,0.034
			c-0.121,0.015-0.243,0.031-0.367,0.046c-0.124,0.016-0.244,0.03-0.36,0.043c-0.117,0.013-0.218,0.023-0.304,0.03
			c-0.129,0.01-0.263,0.006-0.403-0.012c-0.141-0.018-0.28-0.055-0.418-0.111c-0.137-0.055-0.268-0.135-0.389-0.239
			c-0.122-0.104-0.227-0.237-0.313-0.398c-0.027-0.053-0.055-0.116-0.08-0.188c-0.025-0.073-0.041-0.152-0.048-0.238
			c-0.008-0.093-0.008-0.183-0.001-0.267c0.008-0.084,0.018-0.167,0.031-0.246c0.038-0.199,0.113-0.404,0.225-0.615
			c0.109-0.21,0.246-0.418,0.408-0.623c0.163-0.205,0.341-0.405,0.534-0.601c0.194-0.195,0.396-0.381,0.603-0.556
			c0.208-0.175,0.413-0.334,0.614-0.478c0.203-0.144,0.392-0.268,0.567-0.371c0.248-0.145,0.503-0.257,0.765-0.334
			c0.262-0.077,0.523-0.126,0.784-0.147c0.156-0.012,0.306-0.004,0.449,0.026c0.143,0.029,0.271,0.079,0.386,0.148
			c0.112,0.07,0.205,0.159,0.276,0.27c0.071,0.11,0.113,0.239,0.125,0.387c0.007,0.086,0.003,0.159-0.012,0.219
			c-0.016,0.06-0.037,0.109-0.065,0.149s-0.061,0.068-0.096,0.087c-0.036,0.019-0.072,0.029-0.111,0.032
			c-0.105,0.008-0.203,0.004-0.292-0.012c-0.09-0.016-0.177-0.036-0.262-0.059c-0.083-0.022-0.167-0.043-0.251-0.063
			c-0.084-0.019-0.174-0.024-0.271-0.016c-0.289,0.023-0.577,0.103-0.865,0.242c-0.289,0.139-0.567,0.308-0.836,0.507
			s-0.521,0.418-0.754,0.656c-0.233,0.238-0.441,0.468-0.624,0.69c-0.096,0.117-0.165,0.232-0.205,0.345s-0.056,0.218-0.049,0.315
			c0.012,0.144,0.083,0.252,0.215,0.324c0.131,0.072,0.286,0.101,0.465,0.086c0.105-0.008,0.225-0.02,0.355-0.034
			c0.133-0.014,0.268-0.03,0.405-0.047c0.138-0.017,0.271-0.033,0.402-0.049c0.129-0.016,0.245-0.028,0.346-0.037
			c0.242-0.019,0.477-0.003,0.703,0.047c0.229,0.051,0.433,0.135,0.614,0.254c0.183,0.119,0.332,0.272,0.451,0.46
			c0.119,0.188,0.188,0.41,0.209,0.663c0.012,0.156,0.001,0.315-0.033,0.479c-0.034,0.164-0.086,0.329-0.155,0.498
			c-0.068,0.168-0.149,0.335-0.242,0.501c-0.092,0.166-0.191,0.33-0.296,0.491c-0.188,0.289-0.402,0.564-0.643,0.827
			s-0.499,0.494-0.777,0.697c-0.277,0.202-0.575,0.369-0.892,0.5c-0.317,0.13-0.646,0.21-0.989,0.237
			c-0.147,0.012-0.301,0.01-0.459-0.005c-0.158-0.015-0.314-0.042-0.471-0.083c-0.156-0.04-0.305-0.095-0.444-0.165
			c-0.142-0.069-0.266-0.15-0.375-0.244c-0.11-0.093-0.2-0.198-0.27-0.317c-0.07-0.118-0.111-0.249-0.122-0.393
			c-0.006-0.07,0-0.138,0.016-0.204C312.524,16.787,312.576,16.751,312.661,16.744z"/>
		<path d="M320.627,14.097c0.023-0.154,0.052-0.326,0.086-0.515s0.072-0.385,0.111-0.587c0.041-0.204,0.083-0.409,0.126-0.616
			c0.042-0.207,0.083-0.406,0.125-0.598c0.042-0.192,0.08-0.37,0.114-0.535c0.034-0.166,0.063-0.307,0.089-0.422
			c0.055-0.259,0.104-0.519,0.151-0.779c0.045-0.26,0.088-0.533,0.128-0.818c0.066-0.158,0.162-0.274,0.29-0.349
			s0.269-0.118,0.425-0.13c0.13,0.056,0.235,0.139,0.316,0.248s0.127,0.236,0.139,0.38c0.008,0.102,0,0.218-0.021,0.352
			c-0.022,0.133-0.054,0.277-0.093,0.431s-0.083,0.316-0.132,0.486c-0.049,0.171-0.096,0.346-0.141,0.525
			c-0.084,0.328-0.167,0.656-0.251,0.984s-0.164,0.673-0.241,1.036c-0.021,0.095-0.042,0.191-0.066,0.287
			c-0.022,0.096-0.047,0.2-0.071,0.312c-0.024,0.111-0.051,0.236-0.079,0.374c-0.028,0.138-0.056,0.295-0.081,0.474
			c-0.029,0.21-0.054,0.421-0.072,0.632s-0.035,0.423-0.05,0.636c-0.015,0.212-0.033,0.428-0.056,0.645
			c-0.021,0.217-0.051,0.437-0.088,0.66c-0.014,0.079-0.042,0.151-0.086,0.215c-0.044,0.064-0.095,0.12-0.154,0.168
			c-0.059,0.048-0.122,0.086-0.19,0.115c-0.068,0.028-0.134,0.045-0.196,0.05s-0.122,0.005-0.179,0
			c-0.058-0.005-0.103-0.024-0.137-0.056c-0.051-0.047-0.093-0.101-0.125-0.161c-0.031-0.06-0.051-0.125-0.056-0.195
			c-0.002-0.02-0.002-0.038-0.002-0.055c0.001-0.018,0.002-0.037,0.005-0.057L320.627,14.097z"/>
		<path d="M323.569,14.733c-0.018-0.226-0.011-0.484,0.021-0.774s0.104-0.575,0.22-0.855c0.157-0.388,0.338-0.766,0.54-1.133
			c0.201-0.366,0.411-0.706,0.63-1.02c0.218-0.313,0.438-0.593,0.662-0.839c0.224-0.247,0.439-0.443,0.646-0.589l-0.005,0.006
			c0.13-0.097,0.267-0.197,0.411-0.303c0.144-0.106,0.294-0.204,0.446-0.294c0.154-0.09,0.311-0.167,0.471-0.231
			c0.158-0.063,0.318-0.102,0.478-0.114c0.164-0.013,0.322,0.008,0.476,0.062c0.153,0.055,0.29,0.135,0.41,0.241
			c0.12,0.106,0.219,0.232,0.295,0.379c0.075,0.147,0.12,0.306,0.134,0.478c0.01,0.121,0.011,0.216,0.002,0.285
			c-0.008,0.069-0.025,0.123-0.052,0.16c-0.025,0.038-0.062,0.062-0.105,0.073c-0.044,0.012-0.096,0.02-0.154,0.024
			c-0.085,0.007-0.153-0.006-0.205-0.04s-0.095-0.075-0.128-0.125c-0.034-0.05-0.06-0.107-0.081-0.17
			c-0.021-0.063-0.043-0.12-0.069-0.171c-0.025-0.051-0.057-0.093-0.093-0.128c-0.036-0.034-0.083-0.049-0.142-0.044
			c-0.155,0.012-0.321,0.061-0.497,0.146c-0.175,0.084-0.353,0.192-0.532,0.324c-0.18,0.131-0.358,0.28-0.534,0.444
			c-0.178,0.165-0.346,0.332-0.505,0.501s-0.306,0.336-0.439,0.499c-0.134,0.164-0.248,0.31-0.345,0.439
			c-0.14,0.211-0.266,0.424-0.379,0.639c-0.111,0.215-0.206,0.432-0.282,0.651c-0.077,0.22-0.132,0.443-0.165,0.671
			c-0.033,0.228-0.04,0.462-0.021,0.704c0.015,0.187,0.054,0.349,0.118,0.484c0.063,0.136,0.131,0.252,0.201,0.349
			c0.082,0.111,0.181,0.185,0.294,0.221c0.111,0.036,0.244,0.048,0.396,0.036c0.33-0.026,0.635-0.082,0.909-0.166
			c0.275-0.084,0.538-0.189,0.786-0.315c0.249-0.125,0.489-0.271,0.725-0.434c0.233-0.163,0.475-0.337,0.722-0.521l0.152-0.012
			c0.051-0.004,0.104,0.005,0.158,0.028c0.055,0.023,0.104,0.055,0.148,0.094c0.045,0.04,0.082,0.086,0.11,0.138
			c0.03,0.053,0.047,0.108,0.052,0.166c0.01,0.129-0.03,0.261-0.121,0.395c-0.092,0.135-0.211,0.266-0.36,0.393
			c-0.147,0.127-0.318,0.25-0.508,0.367c-0.191,0.117-0.38,0.222-0.566,0.315c-0.187,0.093-0.361,0.174-0.525,0.242
			c-0.162,0.067-0.294,0.115-0.394,0.143c-0.084,0.026-0.165,0.051-0.244,0.075c-0.078,0.024-0.171,0.049-0.279,0.075
			c-0.106,0.026-0.236,0.05-0.387,0.072c-0.152,0.022-0.342,0.042-0.572,0.06c-0.14,0.011-0.271-0.001-0.391-0.037
			s-0.229-0.08-0.324-0.133c-0.097-0.053-0.181-0.11-0.25-0.171c-0.068-0.061-0.125-0.113-0.168-0.157
			c-0.25-0.251-0.439-0.502-0.564-0.754C323.67,15.327,323.595,15.045,323.569,14.733z"/>
		<path d="M335.897,16.326c-0.082,0.006-0.154-0.003-0.219-0.03c-0.065-0.026-0.12-0.063-0.165-0.11
			c-0.046-0.048-0.08-0.104-0.107-0.168c-0.026-0.064-0.042-0.13-0.048-0.196c-0.004-0.058,0.005-0.14,0.028-0.246
			c0.022-0.106,0.053-0.225,0.091-0.357c0.039-0.132,0.082-0.271,0.13-0.416c0.047-0.145,0.092-0.284,0.137-0.417
			c0.045-0.133,0.082-0.255,0.112-0.368c0.03-0.112,0.051-0.2,0.061-0.263c0.011-0.071,0.023-0.157,0.039-0.256
			c0.016-0.1,0.033-0.208,0.054-0.325s0.04-0.24,0.06-0.369c0.019-0.129,0.039-0.259,0.06-0.39c-0.053,0.016-0.12,0.032-0.199,0.048
			s-0.162,0.032-0.252,0.046c-0.128,0.022-0.252,0.05-0.375,0.083c-0.122,0.033-0.248,0.07-0.377,0.109
			c-0.128,0.04-0.261,0.082-0.397,0.126c-0.139,0.044-0.285,0.09-0.442,0.138c-0.229,0.069-0.458,0.144-0.688,0.225
			c-0.229,0.081-0.47,0.131-0.723,0.151c-0.078,0.006-0.151-0.008-0.222-0.044c-0.068-0.036-0.146-0.06-0.229-0.073
			c-0.068,0.131-0.131,0.271-0.19,0.418c-0.059,0.148-0.111,0.299-0.158,0.453c-0.046,0.155-0.087,0.307-0.122,0.457
			s-0.065,0.29-0.091,0.421c-0.014,0.072-0.023,0.164-0.028,0.276c-0.004,0.112-0.008,0.226-0.01,0.342
			c-0.003,0.116-0.006,0.227-0.009,0.333c-0.004,0.106-0.009,0.191-0.016,0.254c-0.007,0.059-0.026,0.118-0.057,0.178
			c-0.03,0.059-0.069,0.114-0.116,0.165c-0.047,0.05-0.101,0.093-0.16,0.127c-0.061,0.034-0.122,0.054-0.184,0.059
			c-0.109,0.008-0.2-0.017-0.273-0.076c-0.073-0.059-0.134-0.134-0.183-0.227c-0.049-0.092-0.085-0.194-0.109-0.306
			s-0.041-0.214-0.048-0.308c-0.02-0.238-0.01-0.486,0.029-0.746c0.038-0.26,0.097-0.525,0.175-0.796
			c0.078-0.271,0.175-0.545,0.287-0.822c0.114-0.277,0.237-0.555,0.372-0.832c0.109-0.248,0.248-0.535,0.414-0.862
			s0.354-0.664,0.563-1.012c0.209-0.348,0.439-0.69,0.688-1.027c0.25-0.337,0.513-0.641,0.789-0.912
			c0.276-0.271,0.564-0.494,0.863-0.671c0.3-0.176,0.604-0.277,0.911-0.301c0.323-0.026,0.597,0.012,0.823,0.111
			c0.225,0.1,0.409,0.244,0.554,0.432c0.144,0.189,0.253,0.413,0.327,0.674c0.073,0.261,0.122,0.539,0.146,0.835
			c0.021,0.261,0.025,0.531,0.014,0.81c-0.011,0.279-0.03,0.553-0.059,0.822c-0.027,0.269-0.06,0.527-0.097,0.777
			c-0.037,0.25-0.071,0.476-0.103,0.678l-0.141,0.811c-0.006,0.023-0.017,0.071-0.033,0.144c-0.016,0.071-0.036,0.158-0.062,0.26
			c-0.025,0.102-0.053,0.212-0.085,0.33c-0.032,0.118-0.064,0.234-0.097,0.349c-0.032,0.114-0.063,0.219-0.093,0.316
			c-0.028,0.096-0.055,0.175-0.077,0.235l0.005-0.006c-0.02,0.104-0.04,0.209-0.063,0.317c-0.022,0.108-0.058,0.206-0.106,0.293
			c-0.047,0.088-0.111,0.162-0.193,0.221S336.034,16.314,335.897,16.326z M335.616,8.989c-0.175,0.014-0.347,0.063-0.514,0.149
			c-0.168,0.085-0.331,0.194-0.488,0.324c-0.159,0.13-0.311,0.279-0.456,0.447c-0.145,0.168-0.282,0.34-0.411,0.515
			c-0.13,0.175-0.251,0.35-0.361,0.525c-0.112,0.175-0.212,0.337-0.303,0.485c-0.014,0.025-0.032,0.057-0.055,0.096
			s-0.044,0.082-0.066,0.128c-0.021,0.047-0.041,0.095-0.061,0.146s-0.036,0.096-0.049,0.136l0.602-0.048
			c0.218-0.017,0.466-0.053,0.744-0.105c0.278-0.054,0.553-0.113,0.824-0.177c0.271-0.065,0.52-0.128,0.745-0.191
			c0.227-0.063,0.397-0.11,0.513-0.143c0.012-0.052,0.021-0.122,0.027-0.208c0.007-0.086,0.011-0.183,0.015-0.289
			c0.003-0.105,0.003-0.219,0-0.338c-0.004-0.119-0.011-0.241-0.021-0.366c-0.008-0.101-0.021-0.217-0.039-0.346
			c-0.019-0.13-0.052-0.252-0.099-0.366c-0.049-0.114-0.116-0.208-0.202-0.281C335.875,9.008,335.761,8.978,335.616,8.989z"/>
		<path d="M341.129,14.655c0.021,0.269-0.063,0.51-0.254,0.723c-0.19,0.213-0.418,0.33-0.683,0.351
			c-0.203,0.016-0.381-0.041-0.535-0.172c-0.152-0.131-0.237-0.297-0.253-0.5c-0.021-0.269,0.068-0.514,0.268-0.735
			c0.199-0.222,0.43-0.343,0.691-0.363c0.202-0.016,0.376,0.042,0.522,0.176C341.031,14.267,341.112,14.441,341.129,14.655z"/>
		<path d="M345.48,14.311c0.021,0.269-0.063,0.51-0.254,0.723c-0.19,0.213-0.418,0.33-0.683,0.351
			c-0.203,0.016-0.381-0.041-0.535-0.172c-0.152-0.131-0.237-0.297-0.253-0.5c-0.021-0.269,0.068-0.514,0.268-0.735
			c0.199-0.222,0.43-0.343,0.691-0.363c0.202-0.016,0.376,0.042,0.522,0.176C345.383,13.922,345.464,14.096,345.48,14.311z"/>
		<path d="M349.832,13.966c0.021,0.269-0.063,0.51-0.254,0.723c-0.19,0.213-0.418,0.33-0.683,0.351
			c-0.203,0.016-0.381-0.041-0.535-0.172c-0.152-0.131-0.237-0.297-0.253-0.5c-0.021-0.269,0.068-0.514,0.268-0.735
			c0.199-0.222,0.431-0.343,0.691-0.363c0.202-0.016,0.377,0.042,0.522,0.176S349.815,13.751,349.832,13.966z"/>
	</g>
	<g>
		<path d="M12.193,13.56c0.156,7.912,2.697,15.801,9.332,20.579c0.703,0.506,1.371-0.657,0.677-1.157
			c-6.232-4.488-8.522-12.032-8.668-19.421C13.517,12.696,12.176,12.695,12.193,13.56L12.193,13.56z"/>
	</g>
</g>
</svg>
