<?xml version="1.0" encoding="utf-8"?>
<!-- Generator: Adobe Illustrator 16.0.0, SVG Export Plug-In . SVG Version: 6.00 Build 0)  -->
<!DOCTYPE svg PUBLIC "-//W3C//DTD SVG 1.1//EN" "http://www.w3.org/Graphics/SVG/1.1/DTD/svg11.dtd">
<svg version="1.1" id="Capa_1" xmlns="http://www.w3.org/2000/svg" xmlns:xlink="http://www.w3.org/1999/xlink" x="0px" y="0px"
	 width="206.667px" height="48.001px" viewBox="0 0 206.667 48.001" enable-background="new 0 0 206.667 48.001"
	 xml:space="preserve">
<path fill="#CCCBCB" d="M3.222,5.348c0,5.778,0.482,30.814,6.259,34.666c5.296,3.852,7.222-3.21,10.592-3.691
	c3.371,0,3.049,2.729,5.938,3.21c6.74,1.444,12.839-3.21,21.024-3.21c6.26,0,8.458,7.732,17.494,2.568
	c2.131-1.218,6.901,3.209,8.827,3.209c3.852,0.482,6.42-2.567,9.79-2.567c6.741-0.481,8.667,5.296,15.408,4.815
	c5.778-0.481,10.592-7.864,16.851-8.346c6.741-0.963,10.471,3.563,17.211,3.082c8.667-0.963,15.689-2.44,24.356,0.449
	c4.333,1.444,11.396,1.444,16.211,0.481c1.926-0.481,3.369-0.802,5.776-1.284c2.407-0.482,3.619,3.147,5.297,2.086
	c9.165-5.798,21.827,1.284,16.048-8.827c4.816-3.37,0-16.049-4.332-18.457c-4.814-3.37-11.877,1.766-16.691,0.321
	c-8.666-2.889-10.752-11.395-22.308-8.987c-5.778,0.963-16.172,1.846-22.913,0.401c-8.666-1.926-12.198,4.419-26.322,2.604
	C95.203,6.26,97.43,7.274,85.393,5.83c-6.259-0.481-12.839-2.247-19.58-1.284c-4.815,0.963-13,5.617-18.778,4.655
	c-4.333-0.482-6.42-1.445-10.271-2.889c-8.666-1.926-16.691-1.605-25.358-3.049C6.592,2.78,4.987,1.175,3.542,7.435
	C3.061,9.842,3.222,18.348,4.666,20.273"/>
<g>
	<path d="M6.698,1.848c-7.292,5.925-3.581,14.561-3.115,22.455c0.247,4.175-0.336,7.121,1.706,10.938
		c1.317,2.463,3.62,6.431,6.887,6.468c4.474,0.051,6.238-5.164,10.734-2.58c0.704,0.405,1.172,1.965,2.162,2.108
		c1.81,0.261,3.368,0.245,5.074-0.409c4.126-1.582,7.394-2.245,11.804-2.546c1.077-0.073,12.098-0.666,11.804,1.156
		c-0.064,0.396,0.097,0.908,0.561,0.987c3.708,0.633,7.274-0.778,10.95-0.042c3.455,0.692,5.405,2.638,9.106,2.211
		c2.573-0.296,5.023-1.727,7.436-2.59c5.288-1.892,7.809,1.829,11.329,4.685c3.731,3.026,7.076,0.154,9.971-2.349
		c4.592-3.969,17.711-7.902,22.361-2.764c0.696,0.769,1.827-0.37,1.135-1.135c-4.259-4.707-11.852-2.533-17.075-0.935
		c-2.82,0.863-5.24,1.853-7.556,3.698c-3.254,2.594-5.89,4.167-9.356,0.9c-1.134-1.069-2.169-2.128-3.448-3.022
		c-2.297-1.605-5.268-1.321-7.788-0.626c-2.043,0.563-3.964,1.603-5.98,2.268c-3.228,1.063-5.471-0.415-8.393-1.431
		c-1.635-0.569-11.615-1.074-11.615-0.021c0-1.214-1.212-1.756-2.17-2.11c-4.946-1.826-11.805-0.572-16.879,0.033
		c-3.04,0.363-5.961,2.423-8.854,2.617c-2.607,0.175-4.538-3.049-7.382-3.54c-1.652-0.285-2.922,1.037-3.939,2.109
		c-6.18,6.516-11.12-6.392-11.053-10.316C5.252,19.899,0.425,9.003,7.833,2.982C8.637,2.33,7.494,1.201,6.698,1.848L6.698,1.848z"/>
</g>
<g>
	<path d="M126.677,40.454c7.245-0.185,14.241-2.352,21.507-2.247c6.507,0.093,12.828,5.466,19.474,3.823
		c2.936-0.726,5.334-2.24,8.453-2.219c2.608,0.018,4.681,1.689,7.08,1.649c2.348-0.04,5.124-1.742,7.374-2.403
		c4.311-1.268,9.408-0.321,13.794,0.112c0.482,0.047,0.963-0.557,0.774-1.016c-1.024-2.479-5.454-7.831-0.238-9.605
		c0.592-0.202,0.762-0.874,0.354-1.341c-2.767-3.172-3.824-6.278-4.522-10.36c-0.258-1.508-1.036-2.817-2.372-3.622
		c-6.878-4.148-13.846-1.4-21.172-0.027c-1.017,0.19-0.585,1.737,0.427,1.548c5.407-1.014,18.646-5.819,21.4,1.784
		c1.666,4.599,1.735,7.949,5.104,11.813c0.118-0.447,0.236-0.894,0.354-1.341c-6.979,2.375-2.895,6.708-0.883,11.58
		c0.258-0.339,0.516-0.677,0.774-1.016c-6.922-0.683-12.406-0.823-18.937,1.568c-2.764,1.012-4.784-0.314-7.588-0.802
		c-2.444-0.425-4.669-0.04-6.923,0.897c-7.868,3.271-13.62-1.739-21.251-2.482c-7.756-0.755-15.265,1.906-22.983,2.103
		C125.644,38.875,125.642,40.48,126.677,40.454L126.677,40.454z"/>
</g>
<g>
	<path d="M149.231,6.639c3.65-1.841,6.794-2.917,10.917-2.209c2.5,0.429,4.921,1.704,7.298,2.556
		c3.046,1.093,5.356,2.292,7.495,4.704c0.941,1.062,1.878,1.644,3.204,2.092c0.983,0.332,1.402-1.218,0.427-1.548
		c-2.561-0.865-4.074-3.751-6.438-5.064c-2.589-1.438-5.601-2.154-8.328-3.281c-5.492-2.27-10.263-1.218-15.384,1.365
		C147.497,5.719,148.31,7.104,149.231,6.639L149.231,6.639z"/>
</g>
<g>
	<path d="M149.789,5.464c-3.868-0.096-7.485,0.957-11.313-0.075c-2.909-0.784-4.879-2.119-7.977-1.733
		c-3.012,0.375-6.149,2.472-8.949,3.498c-4.237,1.552-8.208,0.888-12.314-0.698c-0.967-0.374-1.382,1.179-0.427,1.548
		c5.712,2.206,10.398,1.981,16.016-0.407c2.239-0.951,4.659-2.209,7.068-2.509c1.915-0.239,4.399,1.214,6.157,1.849
		c3.778,1.364,7.854,0.036,11.739,0.132C150.825,7.095,150.822,5.49,149.789,5.464L149.789,5.464z"/>
</g>
<g>
	<path d="M83.129,5.115c8.202,3.232,15.92,3.228,24.609,2.918c1.032-0.037,1.036-1.642,0-1.605
		c-8.494,0.303-16.141,0.309-24.183-2.86C82.591,3.187,82.178,4.74,83.129,5.115L83.129,5.115z"/>
</g>
<g>
	<path d="M82.38,3.859c-5.793-0.149-11.536-1.623-17.34-0.86c-1.531,0.202-2.947,0.811-4.151,1.776
		c-3.593,2.878-8.261,4.489-12.964,3.607c-5.826-1.092-10.892-4.252-16.93-4.25c-4.303,0.002-8.021,0.842-12.356-0.236
		C14.81,2.944,11.234,1.79,7.266,1.612c-1.035-0.046-1.031,1.559,0,1.605c7.134,0.318,13.532,4.055,20.757,2.86
		c4.064-0.672,7.564-0.053,11.36,1.34c2.923,1.073,6.419,2.79,9.586,2.776c5.654-0.024,9.205-1.624,13.667-4.692
		c4.889-3.362,14.249-0.18,19.744-0.038C83.416,5.491,83.413,3.886,82.38,3.859L82.38,3.859z"/>
</g>
<g>
	<path fill-rule="evenodd" clip-rule="evenodd" fill="#040404" d="M112.216,20.434c1.212-2.315,3.17-3.472,5.877-3.472
		c0.926,0,2.066,0.143,3.419,0.427v5.29h-2.938v-2.351c-0.25-0.071-0.552-0.107-0.909-0.107c-1.069,0-2.029,0.25-2.884,0.748
		c-0.819,0.499-1.675,1.354-2.565,2.564v11.059h-3.686v-17.31h3.686V20.434z M101.318,12.901v5.449h-0.694
		c-0.286-0.214-0.713-0.516-1.283-0.908c-0.571-0.428-1.105-0.766-1.603-1.016c-0.606-0.356-1.318-0.659-2.137-0.908
		c-0.819-0.213-1.675-0.32-2.565-0.32c-1.068,0-2.029,0.16-2.885,0.48c-0.89,0.285-1.673,0.748-2.35,1.389
		c-0.678,0.642-1.193,1.443-1.549,2.404c-0.392,0.961-0.588,2.083-0.588,3.365c0,2.564,0.676,4.524,2.03,5.877
		c1.389,1.389,3.419,2.083,6.091,2.083c0.213,0,0.463,0,0.748,0c0.285-0.036,0.534-0.054,0.748-0.054V26.15h-4.649v-4.381h10.792
		v11.486c-1.068,0.427-2.458,0.837-4.167,1.229s-3.437,0.588-5.182,0.588c-3.954,0-7.053-1.068-9.296-3.206
		c-2.245-2.173-3.366-5.164-3.366-8.976c0-3.598,1.141-6.5,3.419-8.708c2.244-2.244,5.396-3.366,9.456-3.366
		c1.532,0,2.993,0.143,4.382,0.427C98.059,11.529,99.608,12.081,101.318,12.901z M121.566,34.004
		c0.569-0.072,1.068-0.267,1.496-0.588c0.57-0.427,1.406-1.282,2.511-2.564l15.065-17.95h0.694l-0.694,17.362
		c-0.036,0.89-0.054,1.442-0.054,1.656c0,0.712,0.143,1.229,0.428,1.55c0.285,0.32,0.766,0.498,1.442,0.534l-0.16,0.587h-9.19
		l0.161-0.587c0.925-0.072,1.442-0.143,1.549-0.214c0.32-0.143,0.587-0.445,0.801-0.909c0.25-0.462,0.409-1.264,0.48-2.404
		l0.107-2.725h-6.571l-2.831,3.419c-0.285,0.392-0.499,0.748-0.642,1.068c-0.106,0.25-0.159,0.481-0.159,0.695
		c0,0.249,0.142,0.48,0.427,0.694c0.25,0.213,0.695,0.338,1.336,0.375v0.587h-6.358L121.566,34.004z M154.903,9.107h6.036v25.484
		h-6.197l-2.831-11.272v11.272h-6.037V9.107h5.983l3.046,11.22V9.107z M165.961,18.03c0.927-1.033,1.728-2.172,2.403-3.419h0.535
		v5.342h3.473v1.549h-3.473v9.029c0,0.855,0.035,1.407,0.107,1.656c0.07,0.25,0.213,0.445,0.427,0.587
		c0.179,0.142,0.356,0.214,0.534,0.214c0.678,0,1.317-0.517,1.924-1.549l0.48,0.374c-0.855,1.995-2.227,2.992-4.113,2.992
		c-0.926,0-1.71-0.267-2.351-0.801c-0.641-0.499-1.051-1.069-1.229-1.71c-0.106-0.356-0.16-1.318-0.16-2.885v-7.907h-1.923v-0.534
		C163.914,20.042,165.036,19.063,165.961,18.03z M136.631,19.525l-5.93,6.945h5.503L136.631,19.525z M195.72,20.327
		c0.176,0,0.32-0.036,0.426-0.107c0.107-0.071,0.285-0.302,0.534-0.694h0.534l0.268,5.022h-0.534
		c-0.641-1.496-1.301-2.511-1.977-3.045c-0.677-0.534-1.354-0.801-2.03-0.801c-0.463,0-0.837,0.143-1.121,0.428
		c-0.321,0.285-0.482,0.624-0.482,1.015c0,0.249,0.107,0.516,0.32,0.801c0.357,0.427,1.301,1.157,2.832,2.19
		c1.531,1.033,2.547,1.924,3.045,2.671c0.463,0.713,0.695,1.514,0.695,2.404c0,0.819-0.195,1.621-0.588,2.404
		c-0.428,0.784-1.015,1.371-1.764,1.763c-0.711,0.428-1.531,0.642-2.457,0.642c-0.676,0-1.602-0.213-2.777-0.642
		c-0.322-0.106-0.534-0.16-0.642-0.16c-0.356,0-0.64,0.25-0.854,0.749h-0.534l-0.214-5.236h0.534
		c0.463,1.389,1.104,2.422,1.923,3.099c0.82,0.677,1.585,1.015,2.298,1.015c0.499,0,0.907-0.142,1.229-0.427
		c0.319-0.32,0.479-0.694,0.479-1.122c0-0.499-0.16-0.944-0.479-1.335c-0.285-0.356-0.98-0.909-2.085-1.657
		c-1.603-1.104-2.636-1.94-3.099-2.51c-0.676-0.855-1.016-1.799-1.016-2.832c0-1.139,0.393-2.155,1.178-3.044
		c0.747-0.926,1.869-1.39,3.364-1.39c0.783,0,1.55,0.196,2.298,0.588C195.309,20.256,195.54,20.327,195.72,20.327z M175.151,25.563
		c0.96-1.603,2.154-2.867,3.578-3.793c1.461-0.891,2.955-1.335,4.488-1.335c1.104,0,1.922,0.214,2.457,0.641
		c0.534,0.463,0.801,0.997,0.801,1.603c0,0.89-0.338,1.728-1.015,2.511c-0.926,1.033-2.261,1.87-4.007,2.51
		c-1.175,0.428-2.831,0.767-4.968,1.016c-0.072,0.499-0.108,0.926-0.108,1.282c0,0.926,0.34,1.709,1.016,2.351
		c0.641,0.677,1.442,1.015,2.404,1.015c0.748,0,1.461-0.16,2.138-0.481c0.712-0.32,1.745-0.997,3.099-2.03l0.32,0.427
		c-2.457,2.458-4.809,3.687-7.053,3.687c-1.53,0-2.689-0.481-3.473-1.443c-0.747-0.961-1.121-2.012-1.121-3.152
		C173.708,28.804,174.188,27.201,175.151,25.563z M183.858,21.609c-0.285-0.25-0.694-0.375-1.229-0.375
		c-1.068,0-2.191,0.552-3.366,1.656c-1.21,1.14-2.083,2.813-2.618,5.022c1.532-0.178,2.778-0.481,3.74-0.908
		c1.283-0.57,2.244-1.247,2.885-2.03c0.641-0.819,0.963-1.584,0.963-2.297C184.233,22.25,184.107,21.894,183.858,21.609z
		 M36.568,14.237c0.534,0.498,0.765,1.139,0.694,1.923s-0.409,2.084-1.014,3.9l-4.969,14.532h-6.305l4.862-14.372
		c0.499-1.424,0.747-2.297,0.747-2.618c0.036-0.321-0.159-0.481-0.587-0.481c-0.462,0-0.819,0.179-1.068,0.534
		c-0.214,0.356-0.588,1.318-1.123,2.885l-4.808,14.051h-6.305l7.053-20.783h6.464l-0.802,1.924c0.711-0.749,1.478-1.318,2.298-1.71
		c0.782-0.392,1.603-0.587,2.457-0.587C35.268,13.436,36.069,13.703,36.568,14.237z M10.124,11.939h5.502v22.652h-5.502V11.939z
		 M68.729,17.496c2.422,0,4.363,0.729,5.824,2.19c1.496,1.46,2.243,3.313,2.243,5.557c0,0.462-0.106,1.193-0.32,2.189H64.508
		c0.071,1.318,0.518,2.351,1.336,3.099c0.855,0.748,1.995,1.122,3.419,1.122c1.781,0,3.134-0.463,4.06-1.389l1.55,2.992
		c-1.389,1.104-3.455,1.656-6.197,1.656c-2.529,0-4.541-0.747-6.038-2.243c-1.495-1.496-2.243-3.597-2.243-6.304
		c0-2.635,0.819-4.772,2.458-6.411C64.492,18.314,66.449,17.496,68.729,17.496z M64.616,24.441h8.228
		c-0.25-2.422-1.603-3.633-4.061-3.633C66.539,20.808,65.15,22.019,64.616,24.441z M51.207,14.61v16.348
		c0,1.104,0.071,1.78,0.213,2.03c0.107,0.285,0.338,0.534,0.695,0.749c0.356,0.178,0.837,0.267,1.441,0.267h0.695v0.587H43.139
		v-0.587h0.695c0.605,0,1.104-0.107,1.496-0.321c0.249-0.143,0.463-0.392,0.641-0.748c0.106-0.249,0.161-0.908,0.161-1.977V14.61
		h-1.55c-1.424,0-2.458,0.303-3.099,0.908c-0.89,0.819-1.459,2.012-1.709,3.58h-0.588v-5.716h19.072v5.716h-0.587
		c-0.32-1.318-0.695-2.262-1.122-2.831c-0.392-0.57-0.944-1.033-1.657-1.39c-0.391-0.178-1.085-0.267-2.083-0.267H51.207z"/>
</g>
<g>
	<path d="M1.685,12.902c1.69,7.628-1.25,24.717,9.483,26.734c1.011,0.19,1.443-1.357,0.427-1.548
		C2.019,36.29,4.8,19.551,3.233,12.476C3.009,11.465,1.462,11.894,1.685,12.902L1.685,12.902z"/>
</g>
<g>
	<path d="M16.834,41.053c2.336-3.237,5.833-2.566,8.257,0.162c0.688,0.775,1.82-0.364,1.135-1.135
		c-3.192-3.593-7.86-3.88-10.778,0.162C14.841,41.083,16.234,41.883,16.834,41.053L16.834,41.053z"/>
</g>
<g>
	<path d="M27.254,41.935c7.698-4.46,15.907-5.104,24.579-4.054c1.026,0.124,1.014-1.482,0-1.605
		c-8.984-1.087-17.456-0.323-25.389,4.273C25.549,41.068,26.356,42.455,27.254,41.935L27.254,41.935z"/>
</g>
<g>
	<path d="M52.814,37.673c0.001,1.223-0.032,2.574,0.83,3.542c0.689,0.774,1.82-0.365,1.135-1.135
		c-0.506-0.569-0.359-1.71-0.359-2.407C54.419,36.638,52.814,36.638,52.814,37.673L52.814,37.673z"/>
</g>
<g>
	<path d="M55.5,42.837c1.353-2.496,4.073-3.577,6.827-3.201c1.012,0.138,1.448-1.408,0.427-1.548
		c-3.454-0.471-6.917,0.76-8.64,3.938C53.621,42.937,55.006,43.747,55.5,42.837L55.5,42.837z"/>
</g>
<g>
	<path d="M72.866,43.206c3.896-0.728,7.517-2.446,11.303-3.569c0.99-0.294,0.568-1.843-0.427-1.548
		c-3.786,1.123-7.407,2.841-11.303,3.569C71.422,41.848,71.854,43.395,72.866,43.206L72.866,43.206z"/>
</g>
<g>
	<path d="M85.526,39.637c3.491,0.674,5.821,3.079,7.974,5.742c0.651,0.805,1.779-0.338,1.135-1.135
		c-2.323-2.875-4.93-5.43-8.682-6.155C84.942,37.894,84.511,39.44,85.526,39.637L85.526,39.637z"/>
</g>
<g>
	<path d="M94.663,46.804c11.662-0.585,19.461-15.886,31.718-7.843c0.868,0.57,1.671-0.821,0.81-1.386
		c-4.837-3.175-9.546-3.305-14.801-1.042c-5.969,2.57-10.934,8.325-17.726,8.666C93.633,45.25,93.627,46.856,94.663,46.804
		L94.663,46.804z"/>
</g>
<g>
	<path d="M131.543,40.26c8.827-0.908,17.24-2.687,25.618,1.277c2.136,1.01,4.137,2.015,6.504,2.292
		c3.518,0.411,6.758-3.119,10.112-3.569c1.01-0.136,1.023-1.743,0-1.605c-2.423,0.326-4.362,1.452-6.534,2.55
		c-4.686,2.371-7.936-0.834-12.145-2.35c-7.693-2.771-15.675-1.01-23.557-0.2C130.524,38.76,130.514,40.366,131.543,40.26
		L131.543,40.26z"/>
</g>
<g>
	<path d="M178.751,14.058c3.552-0.549,7.154-0.641,10.707-1.189c1.021-0.158,0.585-1.704-0.427-1.548
		c-3.552,0.549-7.154,0.641-10.707,1.189C177.304,12.667,177.739,14.214,178.751,14.058L178.751,14.058z"/>
</g>
<g>
	<path d="M163.856,5.649c4.269,2.932,9.174,4.638,13.682,7.138c0.906,0.502,1.715-0.884,0.81-1.386
		c-4.507-2.5-9.412-4.206-13.681-7.138C163.811,3.675,163.009,5.067,163.856,5.649L163.856,5.649z"/>
</g>
<g>
	<path d="M116.672,9.922c5.139,0.433,9.726-1.809,14.087-4.273c0.9-0.509,0.092-1.896-0.811-1.386
		c-4.125,2.332-8.41,4.464-13.276,4.054C115.641,8.23,115.649,9.836,116.672,9.922L116.672,9.922z"/>
</g>
<g>
	<path d="M55.615,9.894c4.627-0.715,9.531-2.379,12.376-6.317c0.462-0.64-0.297-1.276-0.906-1.179
		c-1.114,0.178-1.867,1.012-2.974,1.189c-1.02,0.163-0.585,1.709,0.427,1.548c1.114-0.178,1.867-1.012,2.974-1.189
		c-0.302-0.393-0.604-0.786-0.906-1.179c-2.577,3.567-7.264,4.938-11.417,5.58C54.168,8.503,54.603,10.05,55.615,9.894L55.615,9.894
		z"/>
</g>
<g>
	<path d="M59.376,8.623c1.482-0.98,3.045-1.851,4.326-3.1c0.488-0.476,0.138-1.401-0.567-1.37c-1.202,0.053-1.787,0.759-2.785,1.299
		c-0.91,0.493-0.1,1.878,0.811,1.386c0.655-0.354,1.205-1.046,1.974-1.08c-0.189-0.457-0.378-0.914-0.567-1.37
		c-1.182,1.152-2.634,1.944-4.001,2.849C57.707,7.805,58.51,9.196,59.376,8.623L59.376,8.623z"/>
</g>
</svg>
