<?xml version="1.0" encoding="utf-8"?>
<!-- Generator: Adobe Illustrator 16.0.0, SVG Export Plug-In . SVG Version: 6.00 Build 0)  -->
<!DOCTYPE svg PUBLIC "-//W3C//DTD SVG 1.1//EN" "http://www.w3.org/Graphics/SVG/1.1/DTD/svg11.dtd">
<svg version="1.1" id="Capa_1" xmlns="http://www.w3.org/2000/svg" xmlns:xlink="http://www.w3.org/1999/xlink" x="0px" y="0px"
	 width="119px" height="87px" viewBox="0 0 119 87" enable-background="new 0 0 119 87" xml:space="preserve">
<g>
	<g>
		<path fill="#FFFFFF" d="M43.505,65.843c0.7,6.63-3.521,11.099-8.614,13.647c11.34-0.527,16.417-12.391,25.419-16.023
			c11.582-4.576,21.998,1.631,35.047-1.759c15.631-4.333,19.254-20.804,17.645-36.053C111.041,7.092,100.957,6.816,84.975,7.834
			C63.689,9.411,9.602,5.068,6.053,34.939c-0.486,8.096,0.915,21.355,8.174,26.622c7.993,5.859,16.645-1.088,24.287,1.457
			c2.792,1.047,2.583-0.942,4.398,3.559"/>
	</g>
	<g>
		<g>
			<path d="M42.835,65.843c0.316,6.205-3.044,10.253-8.282,13.068c-0.566,0.304-0.334,1.308,0.338,1.249
				c10.414-0.911,15.413-10.055,23.667-15.096c5.999-3.662,13.643-2.754,20.281-2.099c6.537,0.646,13.007,0.817,19.261-1.471
				c8.674-3.173,13.305-11.495,15.086-20.084c1.78-8.576,1.573-19.728-2.931-27.473c-3.674-6.317-11.396-7.112-17.979-7.094
				C84.38,6.865,76.434,7.526,68.533,7.732C52.018,8.163,33.647,8.499,18.72,16.453C6.962,22.718,4.144,33.689,5.94,46.205
				c0.931,6.484,3.938,15.354,10.954,17.575c4.031,1.276,7.875,0.751,11.96,0.012c4.605-0.833,11.356-1.874,13.479,3.123
				c0.337,0.793,1.491,0.108,1.157-0.677c-3.779-8.898-17.729-1.967-24.801-3.295C6.641,60.682,4.833,39.851,7.697,30.59
				c5.414-17.506,30.93-19.74,45.953-20.85c8.372-0.619,16.771-0.672,25.157-0.935c8.229-0.257,17.766-2.302,25.483,1.364
				c10.069,4.782,9.19,21.83,7.604,30.885c-2.588,14.762-13.893,21.569-28.314,20.961c-9.2-0.389-18.324-2.609-26.696,2.502
				C49.17,69.229,44.732,77.959,34.891,78.82c0.113,0.416,0.226,0.832,0.338,1.248c5.646-3.033,9.283-7.616,8.946-14.226
				C44.132,64.982,42.791,64.979,42.835,65.843L42.835,65.843z"/>
		</g>
	</g>
</g>
<g>
	<path d="M24.833,35.959c-0.011-0.136-0.002-0.282,0.024-0.437c0.091-0.54,0.204-1.071,0.342-1.594
		c0.137-0.521,0.257-1.04,0.361-1.554s0.19-0.947,0.258-1.299c0.069-0.352,0.13-0.655,0.185-0.908
		c0.054-0.253,0.105-0.472,0.153-0.656c0.049-0.184,0.103-0.367,0.162-0.547c0.039-0.109,0.082-0.222,0.129-0.339
		c0.048-0.118,0.101-0.227,0.16-0.327c0.059-0.101,0.121-0.184,0.188-0.25c0.067-0.066,0.14-0.102,0.218-0.108
		c0.159-0.013,0.283,0.004,0.371,0.05c0.088,0.046,0.144,0.09,0.166,0.131l0.072,0.235c0.058-0.008,0.133-0.025,0.225-0.05
		c0.092-0.025,0.186-0.051,0.279-0.078c0.094-0.027,0.181-0.053,0.261-0.079c0.08-0.026,0.142-0.048,0.183-0.067
		c0.252-0.091,0.484-0.169,0.698-0.238c0.214-0.068,0.418-0.126,0.612-0.175c0.194-0.049,0.38-0.088,0.558-0.118
		c0.179-0.029,0.358-0.052,0.542-0.066c0.179-0.014,0.326-0.016,0.44-0.006c0.114,0.01,0.206,0.03,0.274,0.058
		c0.069,0.028,0.118,0.063,0.146,0.106c0.029,0.043,0.046,0.09,0.05,0.14c0.004,0.047-0.005,0.098-0.026,0.152
		c-0.021,0.055-0.059,0.108-0.114,0.159c-0.055,0.052-0.127,0.099-0.218,0.141c-0.091,0.042-0.205,0.075-0.345,0.098
		c-0.034,0.011-0.114,0.032-0.239,0.063c-0.125,0.032-0.26,0.066-0.406,0.103s-0.284,0.073-0.414,0.106
		c-0.131,0.034-0.221,0.059-0.271,0.075h0.006c-0.022,0.006-0.076,0.024-0.162,0.057c-0.086,0.033-0.189,0.07-0.312,0.113
		c-0.122,0.042-0.255,0.091-0.397,0.146c-0.143,0.054-0.283,0.107-0.422,0.16c-0.139,0.053-0.267,0.102-0.385,0.148
		c-0.118,0.046-0.213,0.084-0.285,0.114c-0.23,0.112-0.406,0.25-0.528,0.415s-0.215,0.346-0.277,0.542
		c-0.013,0.037-0.031,0.098-0.057,0.184c-0.023,0.086-0.051,0.184-0.079,0.294s-0.059,0.228-0.093,0.352
		c-0.033,0.124-0.065,0.242-0.095,0.354s-0.057,0.214-0.079,0.306c-0.022,0.092-0.037,0.16-0.045,0.204
		c-0.009,0.04-0.014,0.075-0.016,0.107c-0.001,0.031-0.001,0.055,0,0.07c0.002,0.023,0.009,0.035,0.021,0.034
		c0.058-0.005,0.178-0.041,0.358-0.107c0.181-0.067,0.392-0.15,0.633-0.248c0.241-0.098,0.499-0.202,0.774-0.313
		c0.275-0.112,0.539-0.217,0.792-0.316c0.253-0.098,0.479-0.182,0.677-0.25c0.198-0.068,0.342-0.106,0.432-0.114
		c0.137-0.011,0.229,0.004,0.28,0.046c0.05,0.041,0.077,0.088,0.081,0.143c0.012,0.141-0.028,0.267-0.119,0.38
		c-0.091,0.113-0.207,0.214-0.35,0.304c-0.045,0.027-0.128,0.068-0.252,0.123c-0.123,0.055-0.255,0.111-0.397,0.169
		c-0.143,0.059-0.278,0.114-0.407,0.167c-0.129,0.054-0.222,0.092-0.278,0.116c-0.37,0.179-0.671,0.325-0.902,0.439
		c-0.232,0.115-0.42,0.208-0.563,0.28c-0.144,0.072-0.253,0.127-0.331,0.164c-0.077,0.038-0.149,0.069-0.216,0.097
		c-0.066,0.026-0.14,0.053-0.22,0.079s-0.19,0.063-0.332,0.108c-0.028,0.085-0.06,0.211-0.094,0.381
		c-0.033,0.169-0.064,0.344-0.094,0.525c-0.028,0.18-0.051,0.347-0.068,0.501c-0.017,0.154-0.023,0.261-0.019,0.319
		c0.005,0.07,0.019,0.122,0.041,0.153c0.022,0.031,0.048,0.052,0.076,0.062c0.027,0.01,0.055,0.013,0.082,0.011
		c0.027-0.002,0.049-0.004,0.064-0.005c0.188-0.015,0.41-0.06,0.668-0.135c0.259-0.075,0.514-0.168,0.763-0.278
		c0.239-0.105,0.445-0.215,0.621-0.331c0.175-0.116,0.34-0.224,0.494-0.325c0.155-0.1,0.307-0.187,0.456-0.259
		c0.148-0.073,0.314-0.119,0.497-0.137c0.039-0.003,0.085-0.003,0.139,0c0.053,0.004,0.104,0.015,0.152,0.032
		c0.048,0.018,0.088,0.043,0.12,0.076c0.032,0.032,0.047,0.076,0.043,0.132c-0.007,0.114-0.055,0.229-0.143,0.346
		c-0.09,0.117-0.204,0.231-0.344,0.345c-0.14,0.113-0.298,0.223-0.474,0.331c-0.175,0.108-0.354,0.211-0.539,0.31
		s-0.365,0.189-0.543,0.272c-0.178,0.083-0.336,0.155-0.477,0.217c-0.349,0.153-0.689,0.272-1.023,0.357
		c-0.334,0.085-0.636,0.139-0.904,0.16c-0.296,0.023-0.527-0.014-0.693-0.112C24.947,36.394,24.854,36.216,24.833,35.959z"/>
	<path d="M37.223,35.125c-0.041-0.115-0.095-0.247-0.161-0.396c-0.066-0.15-0.143-0.306-0.228-0.47
		c-0.086-0.163-0.178-0.33-0.275-0.501c-0.098-0.17-0.196-0.334-0.295-0.491c-0.099-0.157-0.195-0.301-0.289-0.433
		c-0.096-0.132-0.182-0.241-0.259-0.33c-0.105,0.099-0.225,0.21-0.355,0.334c-0.132,0.125-0.269,0.253-0.41,0.388
		c-0.143,0.135-0.287,0.27-0.436,0.405c-0.147,0.135-0.294,0.261-0.438,0.378c-0.113,0.095-0.247,0.204-0.399,0.326
		c-0.153,0.122-0.314,0.248-0.484,0.379s-0.344,0.26-0.522,0.385c-0.178,0.126-0.35,0.24-0.514,0.34
		c-0.165,0.102-0.317,0.185-0.459,0.251c-0.142,0.066-0.26,0.103-0.353,0.11c-0.148,0.012-0.259-0.027-0.33-0.118
		c-0.072-0.09-0.112-0.194-0.122-0.311c-0.008-0.109-0.003-0.201,0.017-0.277c0.02-0.076,0.076-0.141,0.17-0.196
		c0.783-0.458,1.519-0.965,2.207-1.523s1.309-1.165,1.859-1.819c-0.038-0.083-0.086-0.191-0.146-0.324
		c-0.06-0.133-0.124-0.275-0.192-0.429c-0.069-0.153-0.142-0.312-0.218-0.476c-0.075-0.165-0.148-0.323-0.22-0.477
		c-0.07-0.153-0.137-0.292-0.198-0.419s-0.109-0.23-0.147-0.309c-0.093-0.189-0.191-0.344-0.295-0.465
		c-0.104-0.121-0.201-0.231-0.291-0.33c-0.09-0.099-0.167-0.197-0.229-0.293c-0.063-0.097-0.1-0.216-0.111-0.356
		c-0.005-0.062,0.004-0.128,0.025-0.198c0.022-0.071,0.057-0.137,0.102-0.199c0.047-0.063,0.104-0.115,0.17-0.158
		c0.067-0.042,0.144-0.067,0.229-0.074c0.094-0.008,0.184,0.003,0.271,0.031c0.086,0.028,0.166,0.067,0.238,0.116
		c0.072,0.049,0.139,0.106,0.198,0.173c0.061,0.065,0.113,0.132,0.157,0.199c0.151,0.231,0.299,0.496,0.442,0.794
		c0.143,0.298,0.276,0.594,0.402,0.888c0.125,0.294,0.24,0.564,0.346,0.811c0.105,0.246,0.197,0.433,0.274,0.56
		c0.246-0.306,0.476-0.599,0.691-0.881c0.214-0.281,0.414-0.556,0.599-0.823s0.353-0.531,0.505-0.79
		c0.151-0.258,0.284-0.52,0.396-0.784c0.056-0.129,0.101-0.26,0.133-0.39c0.033-0.13,0.08-0.248,0.143-0.355
		c0.05-0.062,0.114-0.115,0.193-0.159c0.079-0.043,0.175-0.069,0.288-0.078c0.081-0.006,0.151,0.004,0.211,0.033
		c0.059,0.029,0.108,0.069,0.147,0.121c0.039,0.051,0.069,0.112,0.091,0.181c0.022,0.069,0.034,0.14,0.04,0.214
		c0.005,0.055,0.006,0.108,0.005,0.161c-0.002,0.053-0.007,0.102-0.016,0.146c-0.042,0.207-0.106,0.406-0.193,0.597
		s-0.189,0.382-0.308,0.571c-0.118,0.19-0.248,0.38-0.39,0.571c-0.142,0.192-0.288,0.392-0.44,0.6
		c-0.22,0.299-0.42,0.568-0.604,0.806c-0.183,0.238-0.341,0.442-0.475,0.613c-0.133,0.171-0.241,0.311-0.324,0.42
		c-0.084,0.108-0.138,0.187-0.161,0.236c0.003,0.039,0.019,0.08,0.045,0.123c0.026,0.042,0.056,0.084,0.086,0.125
		c0.351,0.466,0.643,0.873,0.876,1.22c0.233,0.348,0.422,0.645,0.564,0.891c0.143,0.245,0.244,0.443,0.305,0.593
		c0.062,0.15,0.095,0.26,0.101,0.33c0.005,0.063,0.001,0.13-0.011,0.204c-0.012,0.074-0.036,0.143-0.072,0.209
		c-0.035,0.065-0.084,0.122-0.145,0.17s-0.137,0.075-0.226,0.082C37.637,35.608,37.374,35.458,37.223,35.125z"/>
	<path d="M40.523,32.647c-0.019-0.226-0.012-0.484,0.021-0.774c0.032-0.291,0.105-0.576,0.221-0.855
		c0.157-0.388,0.337-0.766,0.539-1.133c0.202-0.367,0.412-0.707,0.631-1.02c0.218-0.313,0.438-0.593,0.662-0.84
		c0.223-0.247,0.438-0.443,0.646-0.589l-0.006,0.006c0.13-0.097,0.268-0.198,0.411-0.303c0.145-0.105,0.294-0.203,0.447-0.294
		c0.153-0.09,0.311-0.167,0.47-0.23s0.319-0.102,0.479-0.114c0.163-0.013,0.322,0.008,0.475,0.063
		c0.154,0.055,0.291,0.135,0.41,0.241c0.12,0.106,0.219,0.232,0.295,0.379c0.076,0.147,0.121,0.306,0.135,0.477
		c0.01,0.121,0.011,0.215,0.002,0.285c-0.008,0.069-0.025,0.122-0.052,0.16s-0.062,0.062-0.105,0.073
		c-0.045,0.011-0.096,0.021-0.154,0.024c-0.086,0.007-0.154-0.006-0.206-0.039c-0.052-0.033-0.094-0.075-0.127-0.125
		c-0.034-0.05-0.062-0.107-0.082-0.17c-0.02-0.063-0.043-0.12-0.068-0.171c-0.026-0.051-0.057-0.093-0.093-0.128
		c-0.036-0.035-0.083-0.049-0.142-0.045c-0.156,0.012-0.321,0.061-0.497,0.145c-0.176,0.085-0.354,0.193-0.533,0.325
		c-0.179,0.132-0.357,0.28-0.534,0.445c-0.177,0.165-0.345,0.332-0.504,0.501c-0.159,0.169-0.306,0.335-0.439,0.499
		c-0.135,0.164-0.249,0.31-0.345,0.439c-0.14,0.211-0.267,0.424-0.379,0.638c-0.112,0.214-0.206,0.432-0.283,0.651
		c-0.076,0.22-0.132,0.443-0.164,0.671c-0.033,0.228-0.04,0.463-0.021,0.704c0.015,0.187,0.054,0.349,0.118,0.484
		c0.063,0.136,0.13,0.252,0.2,0.348c0.083,0.111,0.182,0.185,0.294,0.221c0.112,0.036,0.244,0.048,0.396,0.036
		c0.331-0.026,0.634-0.082,0.91-0.167c0.275-0.084,0.537-0.189,0.786-0.315s0.489-0.27,0.724-0.434s0.475-0.337,0.723-0.521
		l0.152-0.012c0.05-0.004,0.103,0.006,0.158,0.029c0.054,0.023,0.104,0.054,0.148,0.094c0.044,0.04,0.081,0.086,0.11,0.138
		c0.029,0.053,0.047,0.108,0.052,0.167c0.01,0.128-0.031,0.26-0.122,0.395c-0.091,0.134-0.211,0.265-0.359,0.393
		c-0.149,0.127-0.318,0.25-0.509,0.367c-0.191,0.117-0.38,0.222-0.565,0.315c-0.187,0.093-0.362,0.173-0.525,0.241
		c-0.163,0.068-0.294,0.115-0.394,0.143c-0.085,0.026-0.166,0.051-0.244,0.075s-0.172,0.049-0.279,0.075
		c-0.107,0.026-0.236,0.05-0.388,0.072c-0.151,0.021-0.342,0.041-0.571,0.06c-0.141,0.011-0.271-0.001-0.391-0.037
		c-0.121-0.036-0.229-0.08-0.325-0.133c-0.097-0.053-0.18-0.11-0.249-0.171c-0.069-0.062-0.125-0.113-0.168-0.157
		c-0.251-0.25-0.439-0.502-0.565-0.755C40.623,33.24,40.548,32.958,40.523,32.647z"/>
	<path d="M47.678,34.149c-0.011-0.136-0.003-0.282,0.024-0.437c0.09-0.54,0.204-1.071,0.341-1.593s0.258-1.04,0.362-1.554
		s0.19-0.946,0.259-1.299c0.067-0.352,0.129-0.655,0.184-0.908c0.054-0.253,0.105-0.472,0.153-0.656
		c0.048-0.184,0.103-0.367,0.163-0.547c0.037-0.109,0.081-0.222,0.128-0.34c0.048-0.118,0.101-0.227,0.159-0.327
		c0.059-0.101,0.122-0.184,0.189-0.25c0.067-0.066,0.14-0.102,0.218-0.108c0.159-0.012,0.283,0.004,0.371,0.05
		c0.088,0.046,0.143,0.09,0.166,0.131l0.071,0.236c0.059-0.009,0.134-0.025,0.226-0.05c0.092-0.025,0.185-0.051,0.279-0.078
		c0.094-0.027,0.18-0.053,0.261-0.079c0.08-0.026,0.141-0.049,0.183-0.068c0.251-0.09,0.484-0.169,0.698-0.237
		c0.214-0.068,0.418-0.126,0.612-0.175c0.194-0.049,0.38-0.088,0.558-0.118c0.178-0.029,0.358-0.051,0.541-0.066
		c0.18-0.014,0.326-0.016,0.44-0.006c0.115,0.011,0.206,0.03,0.275,0.058c0.068,0.028,0.118,0.063,0.146,0.106
		s0.045,0.09,0.049,0.14c0.004,0.047-0.005,0.098-0.025,0.152c-0.021,0.055-0.06,0.108-0.114,0.159
		c-0.055,0.052-0.127,0.099-0.218,0.142c-0.091,0.042-0.206,0.075-0.345,0.097c-0.035,0.011-0.114,0.032-0.239,0.063
		c-0.125,0.031-0.261,0.066-0.406,0.102c-0.146,0.037-0.284,0.073-0.415,0.107c-0.13,0.034-0.22,0.059-0.27,0.074h0.006
		c-0.023,0.006-0.078,0.024-0.163,0.057c-0.086,0.032-0.19,0.07-0.312,0.113c-0.122,0.042-0.255,0.091-0.397,0.146
		c-0.143,0.054-0.283,0.107-0.422,0.16c-0.14,0.052-0.268,0.102-0.385,0.148c-0.118,0.046-0.213,0.084-0.285,0.114
		c-0.23,0.112-0.406,0.25-0.528,0.415c-0.123,0.165-0.215,0.345-0.278,0.542c-0.013,0.037-0.03,0.098-0.056,0.184
		c-0.024,0.086-0.051,0.184-0.079,0.294c-0.028,0.109-0.06,0.227-0.093,0.351c-0.033,0.124-0.065,0.242-0.096,0.354
		c-0.03,0.112-0.057,0.214-0.078,0.306c-0.022,0.092-0.037,0.16-0.046,0.204c-0.009,0.04-0.014,0.075-0.015,0.107
		c-0.002,0.032-0.002,0.055-0.001,0.07c0.002,0.023,0.009,0.035,0.021,0.034c0.059-0.004,0.178-0.041,0.359-0.107
		c0.181-0.067,0.392-0.15,0.633-0.247c0.241-0.098,0.499-0.202,0.774-0.314c0.275-0.112,0.539-0.217,0.792-0.316
		c0.253-0.098,0.479-0.182,0.677-0.25c0.198-0.068,0.342-0.106,0.432-0.113c0.136-0.011,0.229,0.004,0.279,0.045
		c0.051,0.041,0.078,0.089,0.082,0.144c0.012,0.14-0.028,0.267-0.119,0.379c-0.092,0.113-0.208,0.214-0.35,0.304
		c-0.045,0.027-0.129,0.068-0.252,0.123c-0.123,0.055-0.255,0.111-0.398,0.17c-0.142,0.058-0.277,0.114-0.406,0.167
		c-0.129,0.053-0.222,0.092-0.279,0.116c-0.37,0.179-0.671,0.325-0.902,0.439c-0.232,0.115-0.419,0.208-0.563,0.28
		c-0.144,0.072-0.254,0.127-0.331,0.165c-0.077,0.038-0.149,0.069-0.216,0.096c-0.067,0.027-0.14,0.053-0.22,0.079
		c-0.08,0.026-0.191,0.063-0.332,0.108c-0.029,0.085-0.061,0.212-0.094,0.381s-0.064,0.344-0.094,0.525
		c-0.028,0.18-0.052,0.348-0.069,0.502s-0.022,0.261-0.018,0.319c0.005,0.07,0.019,0.121,0.041,0.152
		c0.021,0.032,0.047,0.052,0.075,0.062c0.028,0.009,0.057,0.013,0.083,0.011c0.027-0.002,0.049-0.004,0.064-0.005
		c0.187-0.015,0.409-0.06,0.668-0.136c0.259-0.075,0.513-0.168,0.763-0.277c0.238-0.105,0.445-0.216,0.621-0.331
		c0.174-0.116,0.339-0.224,0.494-0.325c0.154-0.1,0.307-0.188,0.455-0.259c0.149-0.073,0.315-0.118,0.498-0.137
		c0.039-0.003,0.085-0.003,0.138,0.001c0.054,0.003,0.104,0.014,0.152,0.032c0.049,0.018,0.089,0.043,0.121,0.076
		c0.032,0.032,0.046,0.077,0.043,0.132c-0.007,0.114-0.055,0.229-0.144,0.346c-0.089,0.117-0.203,0.231-0.343,0.345
		c-0.14,0.113-0.298,0.223-0.474,0.332c-0.176,0.107-0.355,0.211-0.54,0.31c-0.184,0.099-0.364,0.189-0.542,0.272
		c-0.178,0.082-0.337,0.155-0.477,0.216c-0.349,0.153-0.689,0.271-1.023,0.358c-0.335,0.085-0.636,0.138-0.904,0.16
		c-0.296,0.023-0.527-0.014-0.694-0.113C47.792,34.584,47.698,34.406,47.678,34.149z"/>
	<path d="M55.329,30.945c0.133-0.551,0.26-1.081,0.38-1.588c0.121-0.507,0.226-0.976,0.314-1.406c0.09-0.43,0.158-0.81,0.204-1.139
		c0.047-0.329,0.066-0.589,0.06-0.78c0.031-0.188,0.103-0.339,0.213-0.458c0.11-0.118,0.243-0.184,0.398-0.196
		c0.094-0.007,0.175,0.007,0.245,0.045c0.069,0.037,0.127,0.089,0.174,0.156c0.046,0.067,0.083,0.143,0.109,0.229
		c0.026,0.086,0.043,0.174,0.05,0.263c0.006,0.066,0.007,0.127,0.003,0.182c-0.003,0.055-0.009,0.108-0.017,0.16
		c-0.062,0.365-0.139,0.744-0.233,1.135c-0.095,0.391-0.191,0.788-0.291,1.189c-0.099,0.402-0.198,0.804-0.295,1.208
		c-0.098,0.403-0.182,0.798-0.253,1.184l-0.074,0.406c-0.038,0.207-0.069,0.403-0.094,0.589c-0.025,0.186-0.032,0.335-0.023,0.448
		c0.005,0.063,0.021,0.111,0.047,0.146c0.026,0.035,0.072,0.05,0.139,0.045c0.16-0.013,0.345-0.054,0.555-0.123
		c0.21-0.07,0.427-0.152,0.65-0.246c0.224-0.095,0.446-0.196,0.667-0.306c0.221-0.11,0.423-0.213,0.606-0.31
		c0.098-0.051,0.182-0.095,0.252-0.132c0.069-0.037,0.155-0.082,0.26-0.135c0.104-0.054,0.241-0.125,0.415-0.212
		c0.173-0.088,0.412-0.211,0.717-0.368c0.054-0.024,0.101-0.044,0.14-0.061c0.041-0.017,0.078-0.027,0.111-0.03
		c0.063-0.005,0.117,0.002,0.164,0.022s0.084,0.048,0.112,0.085c0.028,0.037,0.051,0.081,0.065,0.13
		c0.017,0.05,0.025,0.1,0.029,0.15c0.008,0.086,0.006,0.161-0.003,0.227c-0.008,0.066-0.019,0.12-0.03,0.165
		C61.057,31.7,61,31.772,60.932,31.838s-0.144,0.125-0.222,0.176c-0.078,0.051-0.155,0.095-0.229,0.133
		c-0.076,0.037-0.139,0.066-0.188,0.085c-0.061,0.028-0.143,0.065-0.241,0.113c-0.101,0.047-0.209,0.099-0.325,0.155
		c-0.117,0.056-0.238,0.114-0.363,0.172c-0.124,0.059-0.241,0.115-0.351,0.166c-0.11,0.052-0.207,0.098-0.292,0.138
		s-0.145,0.067-0.179,0.082c-0.163,0.076-0.343,0.16-0.542,0.254c-0.197,0.094-0.396,0.184-0.592,0.27
		c-0.197,0.086-0.385,0.161-0.562,0.224c-0.178,0.063-0.326,0.1-0.447,0.109c-0.147,0.012-0.265,0.009-0.35-0.008
		c-0.086-0.017-0.163-0.043-0.233-0.078c-0.069-0.036-0.141-0.08-0.213-0.133c-0.073-0.053-0.168-0.11-0.287-0.171
		c-0.106-0.055-0.185-0.134-0.236-0.24c-0.052-0.105-0.082-0.221-0.092-0.345c-0.005-0.063-0.006-0.135-0.003-0.217
		c0.004-0.083,0.01-0.169,0.018-0.26c0.009-0.091,0.02-0.18,0.032-0.268c0.013-0.087,0.027-0.165,0.046-0.232L55.329,30.945z"/>
	<path d="M62.094,33.007c-0.011-0.136-0.003-0.282,0.024-0.437c0.09-0.54,0.204-1.071,0.341-1.593s0.258-1.04,0.361-1.554
		c0.104-0.514,0.191-0.946,0.259-1.299c0.067-0.352,0.13-0.655,0.185-0.908s0.105-0.472,0.153-0.656s0.103-0.367,0.162-0.548
		c0.038-0.109,0.081-0.222,0.129-0.339c0.048-0.117,0.101-0.227,0.159-0.327c0.059-0.101,0.121-0.184,0.189-0.25
		c0.065-0.066,0.139-0.102,0.217-0.108c0.16-0.013,0.283,0.004,0.371,0.049c0.088,0.046,0.144,0.09,0.166,0.131l0.071,0.236
		c0.058-0.009,0.134-0.025,0.226-0.05c0.093-0.025,0.186-0.051,0.279-0.078s0.18-0.053,0.26-0.08
		c0.082-0.026,0.143-0.048,0.185-0.067c0.251-0.091,0.483-0.169,0.698-0.237c0.214-0.068,0.418-0.126,0.611-0.175
		c0.193-0.049,0.381-0.088,0.559-0.118c0.178-0.029,0.357-0.051,0.541-0.066c0.179-0.014,0.326-0.016,0.439-0.006
		c0.114,0.011,0.207,0.03,0.275,0.058s0.117,0.063,0.146,0.106c0.027,0.043,0.045,0.09,0.049,0.14
		c0.004,0.047-0.006,0.098-0.026,0.152c-0.021,0.055-0.06,0.108-0.112,0.159c-0.055,0.051-0.128,0.098-0.22,0.141
		c-0.09,0.042-0.205,0.075-0.344,0.098c-0.035,0.011-0.115,0.032-0.239,0.063c-0.125,0.031-0.261,0.065-0.406,0.102
		c-0.146,0.038-0.283,0.073-0.414,0.107c-0.132,0.034-0.222,0.059-0.271,0.074h0.006c-0.023,0.006-0.077,0.024-0.163,0.057
		c-0.085,0.033-0.188,0.07-0.312,0.113c-0.123,0.042-0.254,0.091-0.396,0.146s-0.283,0.107-0.422,0.16
		c-0.141,0.052-0.268,0.102-0.387,0.148c-0.116,0.047-0.211,0.084-0.284,0.114c-0.229,0.112-0.405,0.25-0.527,0.415
		c-0.123,0.165-0.215,0.345-0.278,0.542c-0.013,0.036-0.031,0.098-0.056,0.184s-0.051,0.184-0.079,0.294
		c-0.029,0.11-0.06,0.228-0.093,0.352s-0.065,0.242-0.097,0.354c-0.029,0.112-0.057,0.214-0.077,0.306
		c-0.022,0.092-0.038,0.16-0.046,0.204c-0.01,0.04-0.014,0.076-0.016,0.107c-0.002,0.032-0.002,0.055,0,0.07
		c0.002,0.023,0.008,0.035,0.021,0.034c0.06-0.004,0.178-0.041,0.358-0.107c0.181-0.067,0.393-0.15,0.633-0.247
		c0.24-0.098,0.5-0.202,0.773-0.314c0.275-0.112,0.539-0.217,0.793-0.316c0.252-0.098,0.479-0.182,0.676-0.25
		c0.199-0.068,0.344-0.106,0.434-0.113c0.136-0.011,0.229,0.004,0.279,0.045c0.05,0.041,0.076,0.089,0.082,0.144
		c0.011,0.14-0.028,0.267-0.121,0.379c-0.09,0.113-0.207,0.214-0.348,0.304c-0.046,0.027-0.13,0.068-0.253,0.123
		c-0.122,0.055-0.256,0.111-0.397,0.17c-0.143,0.058-0.277,0.114-0.406,0.167c-0.13,0.054-0.223,0.092-0.279,0.116
		c-0.369,0.179-0.671,0.325-0.902,0.439c-0.231,0.115-0.42,0.208-0.563,0.28s-0.253,0.127-0.33,0.165
		c-0.076,0.038-0.148,0.069-0.216,0.096c-0.067,0.027-0.14,0.053-0.22,0.079c-0.08,0.026-0.191,0.063-0.334,0.108
		c-0.027,0.085-0.06,0.212-0.092,0.381c-0.035,0.169-0.064,0.344-0.095,0.525c-0.028,0.18-0.052,0.348-0.069,0.501
		c-0.017,0.154-0.022,0.261-0.019,0.319c0.006,0.07,0.021,0.121,0.042,0.152c0.021,0.032,0.047,0.052,0.075,0.062
		c0.026,0.01,0.056,0.014,0.083,0.011c0.027-0.002,0.049-0.004,0.063-0.005c0.188-0.015,0.41-0.06,0.67-0.136
		c0.258-0.075,0.513-0.167,0.763-0.277c0.237-0.105,0.444-0.216,0.62-0.332c0.175-0.116,0.34-0.224,0.494-0.324
		c0.154-0.101,0.308-0.187,0.455-0.259c0.149-0.073,0.315-0.118,0.498-0.137c0.039-0.003,0.086-0.003,0.139,0.001
		c0.053,0.003,0.104,0.014,0.152,0.032c0.047,0.018,0.088,0.043,0.121,0.076c0.031,0.032,0.045,0.076,0.043,0.132
		c-0.008,0.114-0.056,0.229-0.145,0.346c-0.09,0.117-0.203,0.231-0.344,0.345c-0.141,0.113-0.297,0.223-0.474,0.332
		c-0.176,0.107-0.354,0.211-0.54,0.31c-0.184,0.099-0.365,0.19-0.543,0.272c-0.177,0.083-0.336,0.155-0.476,0.217
		c-0.349,0.153-0.69,0.272-1.024,0.358c-0.334,0.085-0.636,0.138-0.904,0.16c-0.295,0.023-0.525-0.015-0.692-0.113
		C62.208,33.442,62.113,33.264,62.094,33.007z"/>
	<path d="M70.587,25.657c0.015-0.103,0.036-0.213,0.062-0.331c0.025-0.118,0.064-0.226,0.115-0.327
		c0.051-0.1,0.121-0.186,0.209-0.257c0.09-0.072,0.204-0.113,0.35-0.125c0.136-0.011,0.261,0.018,0.373,0.085
		c0.113,0.067,0.217,0.137,0.309,0.208c0.105,0.059,0.214,0.185,0.324,0.38c0.109,0.195,0.227,0.437,0.348,0.725
		c0.123,0.288,0.258,0.614,0.401,0.979c0.144,0.365,0.302,0.747,0.473,1.144c0.171,0.398,0.358,0.804,0.563,1.216
		s0.433,0.813,0.683,1.201c0.04,0.059,0.087,0.129,0.142,0.209c0.053,0.081,0.105,0.155,0.16,0.226
		c0.055,0.07,0.104,0.129,0.149,0.176s0.077,0.07,0.097,0.068c0.012-0.001,0.022-0.031,0.034-0.09
		c0.011-0.06,0.022-0.131,0.035-0.215c0.014-0.083,0.026-0.168,0.042-0.256s0.029-0.159,0.044-0.215
		c0.062-0.185,0.125-0.396,0.194-0.635c0.068-0.238,0.145-0.527,0.226-0.864s0.167-0.737,0.261-1.199
		c0.094-0.461,0.192-1.009,0.299-1.64c0.027-0.155,0.056-0.331,0.086-0.526c0.028-0.196,0.056-0.396,0.08-0.601
		c0.025-0.204,0.047-0.402,0.063-0.596c0.017-0.193,0.022-0.36,0.024-0.501c-0.002-0.023-0.004-0.064-0.004-0.123
		c-0.002-0.059,0-0.125,0.004-0.2c0.004-0.075,0.011-0.153,0.021-0.234c0.009-0.081,0.022-0.155,0.044-0.224
		c0.02-0.068,0.049-0.125,0.083-0.171c0.036-0.045,0.081-0.071,0.136-0.075s0.123-0.001,0.203,0.007
		c0.081,0.01,0.156,0.027,0.225,0.053c0.082,0.096,0.158,0.212,0.23,0.349c0.071,0.137,0.117,0.327,0.137,0.568
		c0.012,0.152,0.01,0.335-0.004,0.55c-0.015,0.214-0.035,0.446-0.065,0.693c-0.028,0.247-0.063,0.501-0.104,0.763
		c-0.039,0.262-0.082,0.513-0.125,0.754c-0.044,0.24-0.087,0.461-0.127,0.663c-0.041,0.201-0.076,0.367-0.104,0.499
		c-0.053,0.232-0.107,0.47-0.164,0.716c-0.059,0.245-0.121,0.503-0.191,0.773s-0.146,0.557-0.232,0.859
		c-0.082,0.302-0.178,0.626-0.283,0.972c-0.047,0.156-0.102,0.313-0.165,0.472c-0.063,0.158-0.14,0.302-0.228,0.432
		c-0.088,0.13-0.189,0.239-0.308,0.324c-0.116,0.086-0.25,0.135-0.401,0.146c-0.09,0.007-0.184,0.002-0.281-0.016
		s-0.182-0.063-0.254-0.135c-0.35-0.345-0.666-0.742-0.953-1.191c-0.286-0.45-0.549-0.922-0.785-1.419
		c-0.236-0.496-0.452-1-0.646-1.512c-0.193-0.511-0.371-1.002-0.533-1.471l-0.045-0.132c-0.021-0.053-0.039-0.108-0.059-0.163
		c-0.02-0.055-0.036-0.106-0.054-0.151c-0.017-0.046-0.035-0.083-0.056-0.11c-0.021-0.028-0.041-0.041-0.064-0.039
		c-0.023,0.001-0.049,0.047-0.077,0.135c-0.028,0.088-0.056,0.188-0.082,0.297c-0.026,0.109-0.051,0.217-0.071,0.32
		c-0.021,0.103-0.035,0.169-0.041,0.197c-0.02,0.103-0.048,0.251-0.088,0.444c-0.039,0.193-0.084,0.411-0.134,0.654
		c-0.049,0.243-0.104,0.5-0.162,0.771s-0.114,0.534-0.17,0.787c-0.054,0.253-0.106,0.487-0.155,0.703
		c-0.05,0.215-0.091,0.389-0.123,0.521c-0.026,0.104-0.061,0.238-0.099,0.401c-0.037,0.164-0.075,0.329-0.112,0.494
		c-0.037,0.166-0.072,0.316-0.105,0.452c-0.031,0.135-0.053,0.226-0.061,0.269c-0.035,0.151-0.096,0.27-0.182,0.353
		s-0.175,0.128-0.27,0.136c-0.059,0.005-0.117-0.011-0.18-0.047c-0.063-0.037-0.117-0.082-0.167-0.137
		c-0.05-0.055-0.091-0.115-0.126-0.181c-0.033-0.065-0.054-0.126-0.059-0.181c-0.002-0.031,0.004-0.081,0.018-0.151
		c0.016-0.069,0.036-0.188,0.065-0.355l0.104-0.613L70.587,25.657z"/>
	<path d="M81.218,30.98c0.097-0.658,0.212-1.324,0.345-1.997c0.133-0.672,0.263-1.339,0.386-2c0.053-0.274,0.099-0.524,0.138-0.749
		s0.071-0.428,0.096-0.61c0.025-0.182,0.041-0.347,0.051-0.495c0.008-0.147,0.006-0.284-0.004-0.409
		c-0.002-0.022-0.004-0.049-0.006-0.079c-0.004-0.029-0.009-0.065-0.015-0.107c-0.039,0.003-0.125,0.031-0.256,0.084
		c-0.132,0.054-0.284,0.123-0.46,0.207s-0.359,0.178-0.553,0.282c-0.194,0.104-0.373,0.207-0.537,0.311
		c-0.131,0.081-0.24,0.148-0.328,0.202c-0.088,0.054-0.163,0.096-0.229,0.126c-0.063,0.031-0.123,0.053-0.178,0.067
		c-0.053,0.014-0.109,0.023-0.168,0.028c-0.12,0.01-0.229-0.029-0.322-0.116c-0.096-0.086-0.148-0.204-0.16-0.352
		c-0.008-0.086-0.004-0.161,0.008-0.227c0.013-0.065,0.035-0.125,0.068-0.179c0.032-0.053,0.078-0.105,0.139-0.155
		c0.058-0.049,0.131-0.101,0.216-0.155c0.944-0.592,1.911-1.048,2.901-1.368c0.988-0.319,1.992-0.519,3.008-0.6
		c0.082-0.006,0.181-0.012,0.293-0.017c0.113-0.005,0.229-0.007,0.35-0.007s0.236,0.004,0.352,0.013
		c0.113,0.009,0.215,0.021,0.303,0.038c0.093,0.02,0.175,0.07,0.248,0.151c0.072,0.08,0.113,0.169,0.121,0.267
		c0.006,0.078,0.004,0.154-0.004,0.229c-0.008,0.075-0.026,0.142-0.058,0.198c-0.03,0.058-0.073,0.105-0.127,0.142
		c-0.054,0.038-0.122,0.06-0.203,0.066c-0.142-0.004-0.304-0.011-0.485-0.02c-0.185-0.009-0.367-0.006-0.551,0.008
		c-0.365,0.029-0.729,0.067-1.093,0.113c-0.362,0.046-0.731,0.127-1.106,0.243c-0.019,0.009-0.028,0.03-0.032,0.064
		c-0.003,0.034-0.005,0.076-0.005,0.127c0.006,0.211,0.002,0.397-0.008,0.559c-0.012,0.162-0.031,0.324-0.06,0.487
		s-0.063,0.339-0.108,0.528c-0.043,0.189-0.094,0.417-0.15,0.682s-0.123,0.582-0.198,0.95c-0.073,0.369-0.153,0.813-0.237,1.333
		l-0.19,1.155c-0.046,0.266-0.078,0.504-0.099,0.716c-0.021,0.212-0.037,0.419-0.049,0.624c-0.01,0.067-0.064,0.134-0.162,0.201
		c-0.1,0.066-0.219,0.105-0.358,0.116c-0.082,0.006-0.157-0.01-0.228-0.049c-0.07-0.04-0.13-0.093-0.178-0.159
		c-0.049-0.067-0.084-0.142-0.105-0.224C81.204,31.147,81.201,31.064,81.218,30.98z"/>
	<path d="M86.416,31.08c-0.012-0.136-0.003-0.282,0.023-0.437c0.09-0.54,0.205-1.071,0.342-1.594
		c0.137-0.522,0.257-1.04,0.361-1.554c0.104-0.514,0.19-0.947,0.258-1.299c0.068-0.352,0.131-0.655,0.186-0.908
		s0.105-0.472,0.152-0.656c0.049-0.184,0.103-0.367,0.162-0.547c0.039-0.109,0.082-0.222,0.129-0.339
		c0.049-0.118,0.102-0.227,0.16-0.327c0.059-0.101,0.121-0.184,0.188-0.25c0.066-0.065,0.141-0.102,0.219-0.108
		c0.159-0.013,0.282,0.004,0.371,0.05c0.088,0.046,0.143,0.09,0.166,0.131l0.071,0.235c0.058-0.008,0.133-0.025,0.226-0.05
		c0.092-0.025,0.186-0.051,0.278-0.078c0.095-0.027,0.181-0.053,0.261-0.079c0.081-0.026,0.143-0.048,0.184-0.067
		c0.252-0.091,0.484-0.17,0.699-0.238c0.213-0.068,0.418-0.126,0.611-0.175s0.38-0.088,0.559-0.118
		c0.178-0.029,0.357-0.052,0.541-0.066c0.179-0.014,0.326-0.016,0.439-0.006c0.114,0.011,0.206,0.03,0.275,0.058
		c0.068,0.028,0.117,0.063,0.146,0.106s0.045,0.09,0.05,0.14c0.004,0.047-0.006,0.098-0.027,0.152
		c-0.021,0.055-0.059,0.108-0.112,0.159c-0.056,0.051-0.127,0.099-0.22,0.141c-0.09,0.042-0.204,0.075-0.344,0.098
		c-0.035,0.011-0.115,0.032-0.238,0.063c-0.125,0.032-0.262,0.066-0.406,0.103c-0.146,0.037-0.284,0.073-0.415,0.106
		c-0.131,0.034-0.222,0.059-0.271,0.075h0.006c-0.023,0.006-0.077,0.024-0.163,0.057c-0.085,0.032-0.189,0.07-0.312,0.113
		c-0.123,0.043-0.255,0.092-0.396,0.146c-0.143,0.055-0.283,0.108-0.422,0.16c-0.141,0.053-0.269,0.102-0.387,0.148
		c-0.117,0.046-0.211,0.084-0.285,0.114c-0.229,0.112-0.404,0.25-0.526,0.415c-0.123,0.165-0.216,0.345-0.278,0.542
		c-0.013,0.037-0.031,0.098-0.056,0.184c-0.024,0.086-0.052,0.185-0.079,0.294c-0.029,0.11-0.061,0.228-0.094,0.351
		c-0.032,0.124-0.064,0.242-0.096,0.354c-0.031,0.112-0.057,0.214-0.078,0.306c-0.021,0.092-0.037,0.16-0.045,0.204
		c-0.01,0.04-0.015,0.075-0.016,0.107c-0.002,0.031-0.002,0.055-0.001,0.07c0.002,0.023,0.009,0.035,0.021,0.034
		c0.06-0.005,0.179-0.041,0.358-0.108c0.181-0.067,0.394-0.149,0.634-0.247c0.24-0.098,0.5-0.202,0.773-0.313
		c0.275-0.112,0.539-0.217,0.793-0.316c0.252-0.098,0.479-0.182,0.676-0.251c0.199-0.068,0.344-0.106,0.432-0.113
		c0.138-0.011,0.23,0.004,0.281,0.046c0.049,0.041,0.076,0.088,0.082,0.143c0.01,0.14-0.029,0.267-0.121,0.38
		c-0.091,0.113-0.207,0.214-0.349,0.304c-0.045,0.027-0.129,0.068-0.252,0.123c-0.123,0.055-0.256,0.111-0.397,0.169
		c-0.143,0.059-0.277,0.114-0.406,0.167c-0.131,0.054-0.223,0.092-0.279,0.116c-0.37,0.178-0.671,0.325-0.902,0.439
		c-0.231,0.115-0.42,0.208-0.563,0.28c-0.143,0.072-0.254,0.126-0.33,0.164c-0.077,0.038-0.148,0.069-0.217,0.096
		c-0.066,0.027-0.139,0.054-0.219,0.08s-0.191,0.063-0.334,0.108c-0.027,0.085-0.06,0.211-0.093,0.381
		c-0.034,0.169-0.063,0.344-0.094,0.524c-0.029,0.181-0.052,0.348-0.069,0.502c-0.017,0.154-0.023,0.261-0.019,0.319
		c0.006,0.07,0.021,0.122,0.042,0.153c0.021,0.031,0.047,0.052,0.074,0.062c0.027,0.01,0.057,0.013,0.084,0.011
		s0.048-0.004,0.063-0.005c0.188-0.015,0.41-0.06,0.669-0.135s0.513-0.168,0.763-0.278c0.238-0.105,0.445-0.215,0.621-0.331
		c0.174-0.116,0.34-0.224,0.494-0.325c0.154-0.1,0.307-0.187,0.455-0.259c0.149-0.072,0.314-0.118,0.497-0.137
		c0.039-0.003,0.086-0.002,0.14,0.001c0.053,0.004,0.104,0.015,0.151,0.032s0.089,0.043,0.121,0.076
		c0.032,0.032,0.046,0.076,0.043,0.131c-0.007,0.114-0.056,0.229-0.144,0.347c-0.09,0.117-0.203,0.231-0.344,0.345
		c-0.141,0.113-0.298,0.223-0.474,0.331s-0.354,0.211-0.54,0.31c-0.184,0.099-0.365,0.189-0.543,0.272s-0.336,0.155-0.477,0.217
		c-0.349,0.153-0.689,0.272-1.023,0.357s-0.637,0.139-0.904,0.16c-0.296,0.023-0.527-0.014-0.693-0.112
		C86.529,31.515,86.438,31.337,86.416,31.08z"/>
	<path d="M25.551,49.9c0.168-0.144,0.344-0.238,0.526-0.286c0.182-0.048,0.376-0.091,0.58-0.125l0.992-6.027
		c-0.016,0.001-0.06,0.004-0.131,0.007c-0.073,0.004-0.153,0.004-0.241,0.002c-0.089-0.003-0.177-0.013-0.264-0.029
		c-0.088-0.017-0.154-0.044-0.201-0.084c-0.021-0.025-0.049-0.059-0.081-0.102c-0.033-0.042-0.065-0.088-0.097-0.139
		c-0.032-0.051-0.059-0.102-0.082-0.155c-0.024-0.053-0.038-0.106-0.043-0.161c-0.007-0.089,0.025-0.167,0.096-0.233
		c0.072-0.067,0.161-0.123,0.27-0.168c0.108-0.046,0.226-0.082,0.353-0.107s0.244-0.043,0.349-0.051
		c0.491-0.039,0.947-0.06,1.367-0.064c0.421-0.004,0.817,0.028,1.189,0.097c0.372,0.068,0.726,0.179,1.061,0.333
		c0.336,0.154,0.661,0.369,0.978,0.646c0.117,0.105,0.232,0.223,0.343,0.355c0.109,0.132,0.21,0.278,0.299,0.438
		c0.089,0.16,0.164,0.332,0.226,0.518c0.063,0.185,0.102,0.383,0.118,0.593c0.009,0.112,0.013,0.231,0.011,0.356
		s-0.009,0.234-0.021,0.325c-0.077,0.461-0.204,0.874-0.381,1.238c-0.177,0.364-0.39,0.692-0.639,0.985
		c-0.249,0.291-0.528,0.549-0.836,0.773c-0.307,0.225-0.628,0.424-0.963,0.6s-0.678,0.332-1.026,0.47
		c-0.35,0.138-0.691,0.263-1.023,0.375h0.006c-0.147,0.058-0.309,0.112-0.48,0.161c-0.172,0.049-0.348,0.092-0.524,0.129
		c-0.178,0.039-0.354,0.07-0.53,0.099c-0.176,0.028-0.342,0.048-0.497,0.06c-0.172,0.015-0.316,0.015-0.436,0.002
		c-0.118-0.012-0.215-0.033-0.29-0.064c-0.075-0.031-0.13-0.068-0.165-0.113c-0.035-0.044-0.055-0.094-0.059-0.147
		c-0.007-0.078,0.01-0.161,0.048-0.248C25.388,50.066,25.455,49.982,25.551,49.9z M27.987,48.021
		c-0.031,0.201-0.063,0.41-0.098,0.625c-0.034,0.215-0.065,0.424-0.097,0.631l0.132-0.041c0.085-0.025,0.198-0.063,0.341-0.114
		c0.143-0.052,0.308-0.112,0.494-0.187c0.186-0.074,0.381-0.16,0.585-0.258c0.203-0.098,0.419-0.214,0.646-0.348
		c0.226-0.133,0.448-0.282,0.666-0.447c0.219-0.164,0.426-0.34,0.623-0.527c0.196-0.188,0.366-0.388,0.511-0.597
		s0.255-0.425,0.334-0.649c0.078-0.223,0.108-0.451,0.09-0.686c-0.02-0.238-0.084-0.458-0.194-0.664
		c-0.11-0.205-0.251-0.392-0.424-0.56c-0.172-0.168-0.367-0.316-0.587-0.441c-0.22-0.125-0.446-0.23-0.681-0.313
		c-0.233-0.083-0.468-0.143-0.704-0.176c-0.235-0.034-0.457-0.043-0.663-0.027c-0.232,0.778-0.421,1.565-0.565,2.36
		C28.251,46.396,28.114,47.203,27.987,48.021z"/>
	<path d="M34.283,49.655c-0.012-0.138-0.003-0.282,0.023-0.438c0.091-0.54,0.204-1.071,0.341-1.593s0.258-1.04,0.362-1.555
		c0.104-0.514,0.19-0.945,0.259-1.299c0.067-0.352,0.129-0.654,0.184-0.907c0.054-0.253,0.105-0.472,0.153-0.656
		c0.049-0.184,0.103-0.367,0.163-0.548c0.038-0.109,0.081-0.222,0.128-0.34c0.048-0.117,0.101-0.226,0.16-0.327
		c0.058-0.101,0.121-0.184,0.188-0.25c0.067-0.066,0.14-0.102,0.218-0.108c0.159-0.013,0.283,0.003,0.371,0.049
		s0.144,0.089,0.166,0.131l0.071,0.236c0.059-0.009,0.134-0.025,0.226-0.05c0.092-0.025,0.186-0.051,0.279-0.078
		c0.094-0.027,0.181-0.054,0.261-0.08c0.08-0.026,0.141-0.048,0.183-0.067c0.252-0.091,0.484-0.169,0.698-0.237
		c0.214-0.068,0.419-0.126,0.612-0.175c0.194-0.049,0.38-0.088,0.558-0.118c0.179-0.03,0.358-0.052,0.542-0.066
		c0.179-0.014,0.325-0.016,0.44-0.005c0.114,0.011,0.206,0.03,0.274,0.058s0.118,0.063,0.146,0.106
		c0.029,0.043,0.046,0.089,0.05,0.14c0.004,0.047-0.005,0.097-0.026,0.152c-0.021,0.055-0.06,0.108-0.113,0.159
		c-0.056,0.051-0.128,0.098-0.219,0.141s-0.205,0.075-0.345,0.098c-0.034,0.011-0.114,0.032-0.239,0.063
		c-0.125,0.031-0.26,0.065-0.406,0.103c-0.146,0.037-0.284,0.072-0.415,0.106c-0.13,0.034-0.22,0.059-0.27,0.074h0.006
		c-0.023,0.006-0.077,0.025-0.163,0.057c-0.086,0.033-0.189,0.07-0.312,0.113c-0.122,0.042-0.255,0.091-0.397,0.146
		s-0.283,0.107-0.422,0.16c-0.139,0.053-0.268,0.102-0.385,0.148c-0.118,0.047-0.213,0.084-0.285,0.114
		c-0.23,0.112-0.406,0.25-0.528,0.415s-0.215,0.345-0.277,0.542c-0.013,0.035-0.031,0.097-0.056,0.184
		c-0.025,0.086-0.052,0.184-0.08,0.294c-0.028,0.11-0.06,0.228-0.093,0.353c-0.033,0.123-0.064,0.242-0.096,0.354
		c-0.03,0.112-0.056,0.214-0.078,0.307c-0.022,0.092-0.037,0.159-0.046,0.203c-0.009,0.039-0.014,0.075-0.015,0.106
		c-0.002,0.032-0.002,0.055-0.001,0.069c0.002,0.023,0.009,0.035,0.021,0.035c0.059-0.005,0.179-0.041,0.359-0.107
		c0.181-0.067,0.392-0.15,0.633-0.247c0.241-0.099,0.499-0.202,0.774-0.313c0.275-0.113,0.539-0.218,0.792-0.315
		c0.253-0.099,0.479-0.183,0.677-0.25c0.198-0.068,0.342-0.106,0.432-0.113c0.136-0.011,0.229,0.004,0.28,0.045
		c0.05,0.042,0.077,0.089,0.081,0.144c0.012,0.142-0.028,0.268-0.119,0.381c-0.091,0.113-0.208,0.214-0.35,0.304
		c-0.045,0.026-0.129,0.067-0.252,0.123c-0.123,0.056-0.255,0.11-0.397,0.17c-0.143,0.058-0.278,0.114-0.407,0.167
		c-0.129,0.055-0.222,0.092-0.279,0.116c-0.369,0.178-0.67,0.325-0.902,0.438c-0.231,0.114-0.419,0.209-0.563,0.279
		c-0.144,0.072-0.253,0.127-0.331,0.165c-0.077,0.037-0.149,0.069-0.215,0.097c-0.067,0.026-0.141,0.053-0.221,0.078
		c-0.08,0.026-0.191,0.063-0.332,0.108c-0.029,0.085-0.06,0.212-0.094,0.381c-0.033,0.169-0.064,0.344-0.093,0.524
		c-0.029,0.181-0.053,0.349-0.069,0.502c-0.018,0.154-0.023,0.261-0.019,0.318c0.005,0.07,0.02,0.121,0.041,0.152
		s0.047,0.052,0.075,0.063c0.028,0.01,0.057,0.014,0.084,0.01c0.026-0.002,0.048-0.004,0.063-0.004
		c0.188-0.016,0.41-0.061,0.668-0.137c0.259-0.074,0.514-0.167,0.763-0.277c0.238-0.104,0.445-0.215,0.621-0.332
		c0.175-0.115,0.339-0.224,0.494-0.323c0.154-0.101,0.307-0.187,0.455-0.259c0.149-0.073,0.315-0.118,0.498-0.137
		c0.039-0.004,0.085-0.004,0.138,0c0.054,0.004,0.104,0.015,0.152,0.032c0.049,0.019,0.089,0.043,0.121,0.076
		c0.032,0.033,0.046,0.077,0.043,0.132c-0.007,0.114-0.055,0.229-0.144,0.346c-0.089,0.117-0.202,0.232-0.343,0.346
		c-0.14,0.113-0.298,0.224-0.474,0.332c-0.175,0.106-0.355,0.211-0.539,0.31c-0.185,0.099-0.365,0.19-0.543,0.272
		c-0.178,0.082-0.337,0.154-0.477,0.217c-0.349,0.152-0.689,0.271-1.023,0.357c-0.335,0.084-0.636,0.139-0.904,0.16
		c-0.296,0.022-0.527-0.016-0.694-0.113C34.396,50.09,34.303,49.912,34.283,49.655z"/>
	<path d="M41.456,47.018c-0.018-0.226-0.011-0.483,0.021-0.773c0.032-0.291,0.105-0.576,0.221-0.855
		c0.157-0.389,0.337-0.766,0.539-1.133c0.202-0.367,0.412-0.707,0.631-1.02c0.218-0.313,0.438-0.593,0.662-0.84
		c0.224-0.247,0.438-0.443,0.646-0.589l-0.005,0.006c0.129-0.097,0.267-0.198,0.411-0.303c0.144-0.104,0.293-0.204,0.446-0.294
		c0.153-0.091,0.311-0.167,0.47-0.231c0.16-0.063,0.319-0.101,0.479-0.114c0.164-0.013,0.322,0.007,0.476,0.062
		c0.154,0.055,0.29,0.135,0.409,0.241c0.121,0.106,0.219,0.232,0.295,0.379c0.076,0.147,0.121,0.306,0.135,0.478
		c0.01,0.121,0.011,0.216,0.002,0.285c-0.008,0.069-0.025,0.122-0.052,0.16c-0.027,0.038-0.062,0.062-0.105,0.073
		c-0.044,0.012-0.096,0.02-0.154,0.024c-0.085,0.007-0.154-0.006-0.206-0.039c-0.051-0.033-0.094-0.075-0.127-0.125
		c-0.034-0.05-0.061-0.107-0.081-0.17c-0.021-0.063-0.044-0.121-0.069-0.171c-0.026-0.051-0.057-0.094-0.093-0.128
		c-0.036-0.035-0.083-0.049-0.142-0.045c-0.156,0.013-0.321,0.061-0.497,0.145c-0.175,0.085-0.353,0.193-0.532,0.325
		c-0.179,0.132-0.358,0.28-0.535,0.445c-0.177,0.165-0.345,0.332-0.504,0.501c-0.159,0.169-0.306,0.336-0.439,0.499
		c-0.135,0.164-0.249,0.31-0.345,0.438c-0.14,0.211-0.266,0.424-0.378,0.639c-0.113,0.214-0.207,0.433-0.283,0.651
		c-0.077,0.219-0.132,0.443-0.165,0.671c-0.033,0.228-0.039,0.462-0.021,0.704c0.015,0.188,0.054,0.349,0.118,0.484
		c0.063,0.136,0.13,0.252,0.2,0.348c0.084,0.111,0.182,0.186,0.294,0.221c0.113,0.036,0.245,0.049,0.397,0.036
		c0.331-0.026,0.634-0.081,0.909-0.166c0.275-0.084,0.537-0.188,0.786-0.313c0.249-0.127,0.49-0.271,0.724-0.435
		c0.234-0.163,0.476-0.337,0.723-0.521l0.152-0.012c0.051-0.005,0.103,0.004,0.158,0.027c0.055,0.023,0.104,0.054,0.148,0.094
		c0.044,0.04,0.081,0.085,0.11,0.139c0.029,0.052,0.047,0.106,0.052,0.166c0.01,0.127-0.03,0.26-0.122,0.395
		c-0.091,0.134-0.211,0.266-0.359,0.393c-0.148,0.129-0.318,0.25-0.509,0.367c-0.19,0.117-0.379,0.223-0.565,0.315
		c-0.187,0.093-0.361,0.173-0.525,0.241c-0.163,0.068-0.294,0.117-0.394,0.144c-0.085,0.026-0.165,0.052-0.244,0.075
		c-0.078,0.023-0.171,0.049-0.279,0.074c-0.107,0.027-0.236,0.051-0.388,0.072c-0.151,0.022-0.342,0.043-0.571,0.061
		c-0.141,0.011-0.271-0.001-0.391-0.037c-0.12-0.036-0.23-0.08-0.326-0.133c-0.096-0.053-0.18-0.11-0.248-0.172
		c-0.07-0.062-0.126-0.112-0.169-0.156c-0.251-0.25-0.439-0.502-0.565-0.755S41.48,47.33,41.456,47.018z"/>
	<path d="M49.133,45.54c0.023-0.154,0.052-0.326,0.086-0.515c0.034-0.189,0.071-0.385,0.111-0.588
		c0.041-0.203,0.082-0.408,0.125-0.615s0.084-0.406,0.126-0.597c0.042-0.192,0.079-0.37,0.113-0.536
		c0.034-0.165,0.064-0.306,0.09-0.421c0.055-0.259,0.104-0.519,0.15-0.779c0.046-0.26,0.089-0.533,0.129-0.818
		c0.066-0.158,0.162-0.274,0.29-0.349c0.127-0.075,0.269-0.118,0.425-0.13c0.13,0.056,0.235,0.139,0.316,0.248
		c0.081,0.109,0.127,0.235,0.139,0.379c0.008,0.102,0,0.219-0.022,0.352c-0.022,0.133-0.054,0.277-0.092,0.431
		c-0.039,0.154-0.083,0.316-0.133,0.486c-0.049,0.17-0.096,0.346-0.14,0.526c-0.084,0.328-0.168,0.656-0.251,0.984
		c-0.084,0.328-0.165,0.673-0.241,1.036c-0.021,0.097-0.042,0.191-0.066,0.288c-0.022,0.096-0.047,0.199-0.071,0.313
		c-0.025,0.11-0.052,0.235-0.079,0.373c-0.028,0.138-0.056,0.295-0.081,0.474c-0.029,0.21-0.055,0.421-0.073,0.632
		c-0.019,0.211-0.034,0.423-0.049,0.637c-0.015,0.213-0.033,0.428-0.055,0.645c-0.022,0.218-0.052,0.438-0.089,0.66
		c-0.014,0.08-0.042,0.15-0.086,0.216c-0.044,0.063-0.096,0.12-0.154,0.168c-0.058,0.048-0.122,0.086-0.191,0.114
		c-0.067,0.029-0.133,0.047-0.195,0.052s-0.122,0.005-0.179,0c-0.058-0.005-0.104-0.024-0.137-0.058
		c-0.051-0.045-0.093-0.1-0.125-0.16c-0.032-0.06-0.051-0.125-0.057-0.194c-0.001-0.021-0.002-0.038-0.001-0.056
		c0-0.019,0.002-0.036,0.004-0.057L49.133,45.54z"/>
	<path d="M51.984,47.33c0.136,0.037,0.275,0.081,0.419,0.132c0.143,0.052,0.291,0.101,0.443,0.144
		c0.152,0.045,0.311,0.082,0.476,0.106c0.165,0.024,0.339,0.032,0.521,0.019c0.215-0.018,0.429-0.061,0.643-0.127
		c0.214-0.067,0.421-0.16,0.622-0.275c0.2-0.116,0.39-0.253,0.569-0.41c0.18-0.157,0.342-0.336,0.487-0.536
		c0.159-0.212,0.291-0.403,0.396-0.575c0.104-0.171,0.187-0.322,0.248-0.455c0.063-0.133,0.105-0.246,0.129-0.338
		c0.024-0.095,0.034-0.175,0.028-0.242c-0.008-0.097-0.048-0.179-0.119-0.246c-0.072-0.066-0.166-0.118-0.28-0.156
		c-0.114-0.038-0.242-0.063-0.385-0.072c-0.142-0.01-0.289-0.01-0.44,0.002c-0.09,0.008-0.194,0.02-0.315,0.034
		c-0.12,0.017-0.242,0.031-0.366,0.047c-0.124,0.017-0.244,0.03-0.36,0.043c-0.117,0.013-0.218,0.022-0.304,0.03
		c-0.128,0.01-0.263,0.006-0.403-0.012c-0.141-0.02-0.28-0.057-0.418-0.111c-0.137-0.057-0.267-0.137-0.389-0.24
		c-0.122-0.104-0.227-0.236-0.314-0.398c-0.027-0.052-0.054-0.115-0.079-0.188c-0.025-0.072-0.041-0.151-0.048-0.237
		c-0.008-0.093-0.008-0.183-0.001-0.267c0.008-0.085,0.018-0.167,0.03-0.247c0.039-0.199,0.114-0.404,0.226-0.614
		c0.11-0.211,0.246-0.418,0.408-0.623c0.162-0.205,0.34-0.405,0.534-0.601c0.194-0.196,0.396-0.381,0.603-0.556
		c0.208-0.175,0.413-0.334,0.615-0.479c0.202-0.143,0.391-0.267,0.567-0.371c0.246-0.145,0.502-0.256,0.764-0.333
		c0.262-0.077,0.523-0.126,0.785-0.147c0.155-0.012,0.305-0.003,0.448,0.026c0.144,0.03,0.271,0.08,0.386,0.149
		c0.112,0.07,0.205,0.159,0.276,0.269c0.071,0.11,0.112,0.239,0.124,0.387c0.007,0.085,0.003,0.158-0.011,0.218
		c-0.016,0.061-0.037,0.11-0.065,0.149c-0.028,0.04-0.061,0.068-0.096,0.087c-0.036,0.019-0.073,0.029-0.112,0.033
		c-0.105,0.008-0.202,0.004-0.292-0.012c-0.089-0.017-0.176-0.036-0.26-0.059c-0.085-0.023-0.168-0.044-0.252-0.063
		s-0.174-0.024-0.271-0.017c-0.289,0.023-0.577,0.104-0.865,0.242c-0.289,0.138-0.567,0.308-0.836,0.507
		c-0.269,0.2-0.52,0.418-0.753,0.657c-0.234,0.238-0.442,0.468-0.625,0.689c-0.096,0.118-0.165,0.233-0.205,0.346
		c-0.039,0.113-0.056,0.218-0.048,0.315c0.012,0.144,0.082,0.252,0.214,0.324c0.131,0.072,0.286,0.101,0.465,0.086
		c0.105-0.008,0.224-0.02,0.355-0.034c0.133-0.014,0.268-0.03,0.405-0.046c0.137-0.016,0.271-0.033,0.401-0.05
		c0.13-0.016,0.246-0.028,0.348-0.036c0.241-0.019,0.476-0.003,0.703,0.047c0.227,0.051,0.432,0.135,0.613,0.254
		c0.183,0.119,0.332,0.272,0.451,0.461c0.118,0.188,0.188,0.409,0.208,0.663c0.013,0.156,0.001,0.314-0.032,0.479
		c-0.034,0.164-0.086,0.33-0.155,0.498c-0.068,0.168-0.149,0.334-0.242,0.5c-0.093,0.166-0.191,0.33-0.296,0.491
		c-0.188,0.29-0.403,0.565-0.643,0.827c-0.24,0.262-0.499,0.494-0.776,0.695c-0.278,0.203-0.576,0.369-0.893,0.5
		c-0.317,0.132-0.646,0.211-0.989,0.238c-0.147,0.012-0.301,0.01-0.459-0.006c-0.157-0.015-0.314-0.043-0.471-0.083
		c-0.156-0.041-0.304-0.095-0.444-0.165c-0.142-0.068-0.267-0.15-0.375-0.242c-0.109-0.095-0.199-0.199-0.27-0.317
		s-0.111-0.249-0.122-0.394c-0.006-0.069,0-0.139,0.016-0.205C51.848,47.373,51.898,47.336,51.984,47.33z"/>
	<path d="M59.951,44.684c0.022-0.156,0.051-0.326,0.085-0.516c0.034-0.189,0.071-0.385,0.112-0.588
		c0.039-0.203,0.082-0.408,0.125-0.615c0.041-0.207,0.084-0.406,0.125-0.598c0.041-0.191,0.08-0.37,0.113-0.535
		s0.063-0.306,0.09-0.421c0.055-0.259,0.104-0.519,0.149-0.779c0.046-0.261,0.09-0.533,0.129-0.818
		c0.065-0.158,0.163-0.274,0.29-0.349c0.127-0.075,0.27-0.118,0.426-0.13c0.129,0.056,0.234,0.139,0.315,0.248
		s0.128,0.235,0.139,0.379c0.009,0.102,0.001,0.219-0.021,0.352c-0.023,0.133-0.055,0.276-0.094,0.431
		c-0.039,0.154-0.082,0.316-0.131,0.486c-0.051,0.17-0.097,0.346-0.142,0.525c-0.084,0.328-0.167,0.656-0.251,0.984
		c-0.084,0.328-0.164,0.674-0.241,1.036c-0.021,0.096-0.042,0.191-0.065,0.289c-0.023,0.096-0.047,0.199-0.071,0.311
		s-0.052,0.236-0.079,0.374s-0.055,0.296-0.08,0.474c-0.029,0.211-0.055,0.422-0.072,0.633c-0.02,0.211-0.035,0.422-0.051,0.636
		c-0.016,0.213-0.033,0.428-0.055,0.645c-0.022,0.218-0.053,0.438-0.09,0.66c-0.014,0.08-0.041,0.151-0.086,0.215
		c-0.043,0.064-0.096,0.12-0.153,0.169c-0.058,0.047-0.122,0.086-0.19,0.114c-0.068,0.029-0.134,0.046-0.196,0.051
		s-0.122,0.005-0.179,0c-0.058-0.005-0.104-0.024-0.137-0.057c-0.051-0.046-0.093-0.101-0.125-0.16
		c-0.032-0.062-0.051-0.125-0.057-0.194c-0.001-0.021-0.002-0.039-0.001-0.057c0-0.018,0.002-0.037,0.004-0.057L59.951,44.684z"/>
	<path d="M62.813,44.838c0.047-0.298,0.125-0.604,0.232-0.921c0.107-0.316,0.24-0.635,0.395-0.958
		c0.156-0.322,0.332-0.64,0.527-0.956c0.196-0.316,0.407-0.622,0.633-0.92s0.459-0.581,0.703-0.849
		c0.242-0.268,0.488-0.516,0.736-0.743c0.118-0.095,0.229-0.161,0.331-0.197c0.104-0.035,0.213-0.058,0.33-0.067
		c0.124-0.01,0.235,0,0.337,0.029c0.102,0.029,0.203,0.089,0.309,0.179c0.034,0.032,0.069,0.061,0.106,0.085
		c0.036,0.025,0.071,0.036,0.103,0.033c0.008,0,0.018-0.01,0.027-0.028c0.01-0.019,0.021-0.04,0.033-0.064s0.025-0.05,0.044-0.077
		c0.018-0.027,0.038-0.047,0.065-0.061c0.063-0.037,0.141-0.063,0.23-0.08c0.091-0.017,0.184-0.029,0.275-0.037
		c0.176-0.014,0.349,0.005,0.517,0.056c0.169,0.052,0.319,0.13,0.454,0.238c0.316,0.253,0.568,0.566,0.753,0.939
		c0.185,0.374,0.294,0.782,0.329,1.226c0.031,0.397,0.008,0.831-0.073,1.299c-0.069,0.413-0.183,0.818-0.342,1.214
		c-0.158,0.397-0.353,0.773-0.581,1.129c-0.229,0.354-0.488,0.683-0.779,0.984c-0.292,0.301-0.605,0.564-0.945,0.792
		c-0.338,0.228-0.695,0.411-1.072,0.552c-0.377,0.143-0.764,0.229-1.161,0.26c-0.37,0.029-0.706,0-1.009-0.09
		c-0.305-0.09-0.564-0.229-0.786-0.42c-0.222-0.189-0.396-0.423-0.525-0.699c-0.129-0.274-0.208-0.586-0.235-0.933
		c-0.012-0.147-0.015-0.298-0.008-0.448C62.771,45.152,62.787,44.997,62.813,44.838z M63.832,45.15
		c-0.027,0.199-0.035,0.375-0.021,0.531c0.017,0.219,0.068,0.407,0.158,0.566c0.09,0.16,0.207,0.29,0.354,0.391
		c0.146,0.1,0.318,0.17,0.517,0.211c0.197,0.041,0.411,0.053,0.642,0.034c0.271-0.022,0.547-0.086,0.821-0.194
		c0.275-0.107,0.541-0.254,0.798-0.438c0.256-0.185,0.498-0.401,0.729-0.651c0.229-0.25,0.44-0.529,0.63-0.838
		s0.354-0.641,0.491-0.997s0.243-0.73,0.313-1.124c0.026-0.144,0.045-0.292,0.049-0.445c0.006-0.153,0.004-0.3-0.008-0.44
		c-0.019-0.226-0.061-0.44-0.128-0.642c-0.067-0.202-0.165-0.379-0.294-0.529c-0.13-0.15-0.294-0.266-0.492-0.346
		c-0.197-0.08-0.437-0.109-0.711-0.087c-0.039,0.003-0.068,0.022-0.088,0.057c-0.019,0.035-0.037,0.078-0.058,0.131
		c-0.017,0.044-0.035,0.091-0.058,0.139c-0.021,0.049-0.051,0.094-0.088,0.134c-0.039,0.04-0.086,0.074-0.146,0.103
		c-0.06,0.029-0.134,0.046-0.222,0.053c-0.066,0.005-0.127-0.005-0.181-0.03c-0.053-0.025-0.106-0.062-0.161-0.107
		c-0.025-0.021-0.046-0.039-0.063-0.051c-0.018-0.012-0.035-0.018-0.055-0.016c-0.035,0.002-0.08,0.022-0.135,0.058
		c-0.054,0.036-0.109,0.077-0.166,0.125s-0.111,0.098-0.164,0.148c-0.053,0.051-0.094,0.096-0.121,0.133
		c-0.244,0.293-0.483,0.611-0.723,0.954c-0.236,0.342-0.453,0.693-0.646,1.053c-0.195,0.36-0.361,0.721-0.5,1.083
		C63.971,44.48,63.88,44.822,63.832,45.15z M69.781,36.192c-0.029,0.175-0.092,0.319-0.186,0.433
		c-0.097,0.113-0.217,0.215-0.361,0.305l-1.762,1.057c-0.068,0.044-0.16,0.071-0.277,0.081c-0.088,0.007-0.154-0.008-0.196-0.046
		s-0.065-0.089-0.071-0.156c-0.006-0.082,0.006-0.157,0.032-0.226c0.028-0.069,0.065-0.133,0.11-0.191
		c0.047-0.059,0.098-0.111,0.152-0.156c0.055-0.046,0.104-0.086,0.148-0.121l0.424-0.298c0.178-0.124,0.354-0.248,0.521-0.374
		c0.172-0.125,0.33-0.237,0.479-0.337c0.147-0.1,0.283-0.183,0.403-0.249c0.119-0.067,0.215-0.103,0.285-0.108
		c0.078-0.006,0.145,0.016,0.201,0.066c0.058,0.05,0.09,0.121,0.097,0.21c0.002,0.02,0.003,0.038,0.005,0.056
		C69.79,36.154,69.788,36.172,69.781,36.192z"/>
	<path d="M72.729,39.932c0.017-0.103,0.037-0.214,0.063-0.331c0.025-0.118,0.064-0.226,0.115-0.327
		c0.052-0.1,0.121-0.186,0.209-0.257c0.089-0.072,0.205-0.113,0.35-0.125c0.137-0.011,0.262,0.018,0.373,0.085
		c0.113,0.067,0.217,0.137,0.309,0.208c0.105,0.059,0.215,0.185,0.324,0.38c0.108,0.195,0.225,0.437,0.348,0.725
		s0.257,0.614,0.4,0.979c0.145,0.365,0.303,0.746,0.473,1.144c0.172,0.398,0.358,0.803,0.563,1.216s0.435,0.813,0.683,1.201
		c0.041,0.059,0.088,0.129,0.142,0.209c0.054,0.081,0.106,0.154,0.162,0.227c0.054,0.069,0.104,0.129,0.149,0.176
		s0.075,0.069,0.096,0.067c0.012-0.001,0.022-0.03,0.033-0.09c0.012-0.06,0.023-0.131,0.037-0.215
		c0.012-0.083,0.025-0.168,0.041-0.256c0.014-0.089,0.029-0.159,0.045-0.216c0.06-0.185,0.123-0.396,0.192-0.635
		c0.069-0.239,0.146-0.527,0.226-0.864c0.082-0.338,0.168-0.737,0.262-1.199c0.093-0.461,0.191-1.009,0.299-1.64
		c0.027-0.155,0.056-0.331,0.085-0.526c0.028-0.196,0.058-0.396,0.082-0.601c0.024-0.204,0.045-0.402,0.062-0.596
		c0.017-0.193,0.024-0.36,0.024-0.501c-0.002-0.023-0.003-0.064-0.004-0.123c0-0.059,0.001-0.125,0.005-0.2
		c0.004-0.075,0.012-0.153,0.02-0.234c0.01-0.081,0.024-0.155,0.045-0.224c0.021-0.068,0.047-0.125,0.082-0.171
		c0.037-0.045,0.082-0.071,0.137-0.075s0.121-0.001,0.203,0.007c0.08,0.008,0.156,0.027,0.225,0.053
		c0.082,0.095,0.159,0.212,0.23,0.349c0.072,0.137,0.117,0.327,0.137,0.568c0.012,0.152,0.011,0.335-0.004,0.55
		c-0.016,0.214-0.036,0.446-0.065,0.693c-0.028,0.247-0.063,0.501-0.104,0.763c-0.039,0.262-0.08,0.513-0.125,0.754
		c-0.043,0.24-0.086,0.461-0.127,0.662s-0.074,0.368-0.104,0.499c-0.052,0.232-0.105,0.47-0.162,0.716
		c-0.059,0.245-0.121,0.503-0.193,0.773c-0.069,0.27-0.146,0.556-0.23,0.859c-0.084,0.301-0.179,0.625-0.283,0.971
		c-0.048,0.156-0.103,0.313-0.166,0.473c-0.063,0.158-0.141,0.302-0.229,0.432c-0.087,0.131-0.189,0.239-0.307,0.324
		c-0.117,0.086-0.25,0.135-0.402,0.146c-0.09,0.007-0.184,0.002-0.28-0.017c-0.097-0.018-0.183-0.063-0.255-0.135
		c-0.35-0.345-0.666-0.742-0.952-1.19c-0.286-0.451-0.548-0.922-0.784-1.419c-0.238-0.497-0.453-1-0.646-1.512
		c-0.193-0.512-0.372-1.002-0.534-1.471l-0.046-0.132c-0.02-0.053-0.039-0.108-0.057-0.163c-0.02-0.055-0.037-0.106-0.055-0.151
		c-0.018-0.046-0.035-0.083-0.056-0.11c-0.021-0.028-0.041-0.041-0.063-0.039c-0.023,0.001-0.051,0.046-0.078,0.135
		c-0.028,0.088-0.057,0.188-0.082,0.297c-0.026,0.109-0.051,0.217-0.071,0.32s-0.035,0.169-0.04,0.197
		c-0.02,0.103-0.049,0.251-0.09,0.444c-0.039,0.193-0.084,0.411-0.133,0.654c-0.049,0.243-0.104,0.5-0.162,0.771
		c-0.06,0.271-0.115,0.534-0.17,0.787s-0.105,0.487-0.155,0.703c-0.05,0.215-0.091,0.389-0.123,0.521
		c-0.027,0.104-0.06,0.237-0.099,0.401c-0.037,0.164-0.076,0.329-0.112,0.494c-0.038,0.166-0.073,0.315-0.105,0.452
		c-0.032,0.135-0.053,0.226-0.062,0.269c-0.034,0.151-0.096,0.271-0.182,0.353c-0.084,0.084-0.175,0.129-0.269,0.137
		c-0.058,0.004-0.118-0.012-0.181-0.047c-0.062-0.036-0.116-0.082-0.166-0.137c-0.049-0.056-0.092-0.115-0.127-0.182
		c-0.033-0.066-0.053-0.126-0.058-0.181c-0.003-0.031,0.003-0.081,0.017-0.151c0.016-0.068,0.037-0.188,0.066-0.355l0.104-0.612
		L72.729,39.932z"/>
	<path d="M82.372,45.328c0.021,0.27-0.063,0.51-0.254,0.722c-0.19,0.214-0.419,0.33-0.685,0.351
		c-0.201,0.017-0.379-0.041-0.533-0.172c-0.152-0.131-0.237-0.297-0.254-0.5c-0.021-0.269,0.067-0.514,0.269-0.734
		c0.198-0.223,0.431-0.344,0.69-0.363c0.203-0.016,0.377,0.042,0.521,0.176C82.271,44.941,82.355,45.114,82.372,45.328z
		 M83.736,37.914c0.014,0.164-0.047,0.417-0.182,0.761c-0.101,0.263-0.291,0.884-0.572,1.864c-0.28,0.98-0.45,1.586-0.512,1.819
		c-0.06,0.232-0.107,0.514-0.145,0.846c-0.03,0.257-0.195,0.398-0.495,0.421c-0.386,0.031-0.595-0.145-0.624-0.526
		c-0.031-0.401,0.146-1.19,0.533-2.367c0.387-1.176,0.691-1.986,0.914-2.429c0.225-0.443,0.455-0.673,0.691-0.692
		C83.589,37.591,83.719,37.692,83.736,37.914z"/>
	<path d="M86.725,44.982c0.021,0.27-0.063,0.511-0.254,0.723c-0.191,0.213-0.42,0.33-0.685,0.352
		c-0.202,0.016-0.38-0.041-0.533-0.173c-0.153-0.131-0.237-0.298-0.255-0.5c-0.021-0.269,0.068-0.514,0.27-0.735
		c0.198-0.222,0.43-0.342,0.69-0.362c0.202-0.017,0.376,0.042,0.521,0.176C86.624,44.596,86.707,44.77,86.725,44.982z
		 M88.088,37.569c0.014,0.164-0.047,0.417-0.181,0.761c-0.101,0.263-0.292,0.884-0.572,1.864s-0.451,1.586-0.513,1.819
		c-0.059,0.232-0.106,0.514-0.145,0.846c-0.029,0.257-0.195,0.398-0.494,0.421c-0.387,0.031-0.595-0.146-0.625-0.526
		c-0.031-0.401,0.146-1.19,0.533-2.367c0.387-1.176,0.691-1.986,0.915-2.43c0.224-0.442,0.454-0.673,0.69-0.692
		C87.939,37.246,88.07,37.347,88.088,37.569z"/>
</g>
</svg>
