<?xml version="1.0" encoding="utf-8"?>
<!-- Generator: Adobe Illustrator 16.0.0, SVG Export Plug-In . SVG Version: 6.00 Build 0)  -->
<!DOCTYPE svg PUBLIC "-//W3C//DTD SVG 1.1//EN" "http://www.w3.org/Graphics/SVG/1.1/DTD/svg11.dtd">
<svg version="1.1" id="Capa_1" xmlns="http://www.w3.org/2000/svg" xmlns:xlink="http://www.w3.org/1999/xlink" x="0px" y="0px"
	 width="136.375px" height="48px" viewBox="0 0 136.375 48" enable-background="new 0 0 136.375 48" xml:space="preserve">
<g>
	<path d="M5.845,3.558C5.204,7.088,4.882,10.299,4.24,13.83c-0.321,1.605-0.642,3.21-0.963,4.494c0,1.284-1.284,1.284-0.963,2.889
		c0.321,0.963,2.568,1.926,2.889,3.209c2.567,7.704-8.667,14.767,3.209,18.297c4.494,1.604,1.605,0.32,4.815-0.963
		c2.247-0.963,3.531-1.926,6.42-1.605c2.247,0.32,3.21,1.605,5.457,2.247c2.889,0.963,4.173,0,7.062-0.321
		c6.42-0.961,14.766,2.568,22.148,2.889c7.383,0,14.124-4.813,22.148-2.567c6.42,1.604,15.408,4.815,22.791,2.567
		c3.854-1.283,5.779-3.852,10.594-3.53c3.852,0.321,7.383,2.89,11.234,3.21c5.457,0.32,4.494-0.32,5.778-4.494
		c0.642-1.926,0.321-2.889,1.604-5.136c1.283-1.927,4.173-3.21,4.813-5.457c0.644-2.89-2.245-7.062-2.888-9.951
		c-1.284-5.136,0.963-7.062,1.925-11.556c1.604-5.458-0.642-4.173-6.099-3.852c-4.172,0.321-8.024,0-11.555,1.926
		c-2.248,0.963-2.248,2.247-5.137,2.889c-1.926,0.321-5.136,0.321-7.063-0.321c-4.493-0.963-7.062-2.247-12.197-2.247
		c-4.174,0-9.309-0.642-13.161,0.321c-3.853,1.284-7.062,4.173-11.235,4.815c-8.345,1.605-9.309-1.926-16.05-4.494
		c-4.173-1.605-9.629,0.963-13.802,1.605c-1.926,0-5.778,0.963-7.383,0.642c-2.889-0.642-3.852-3.21-6.42-3.21
		c-5.778-0.321-12.198,7.383-14.766-3.21"/>
	<g>
		<path d="M5.071,3.344C4.095,9.068,3.075,14.529,1.556,20.051c-0.254,0.924-0.005,1.837,0.733,2.456
			c3.433,2.878,2.55,6.154,1.242,9.712c-0.988,2.689-2.165,5.257-0.76,7.984c1.044,2.027,6.375,4.615,8.508,4.028
			c0.824-0.228,1.678-1.44,2.355-1.782c4.065-2.049,7.347-0.798,11.259,0.723c1.958,0.76,3.953,0.341,5.922-0.072
			c4.525-0.949,9.065,0.117,13.493,1.064c5.515,1.18,10.459,2.01,16.028,0.773c3.344-0.742,6.528-1.832,9.947-2.253
			c3.926-0.485,7.832,0.983,11.574,1.979c5.316,1.416,10.637,2.334,16.116,1.455c2.194-0.354,4.179-1.539,6.106-2.566
			c4.742-2.531,8.983-0.514,13.553,1.146c2.238,0.811,6.697,1.811,8.625-0.238c0.699-0.742,0.841-2.121,1.078-3.043
			c1.012-3.928,2.313-6.53,5.267-9.307c2.801-2.633,1.114-6.279-0.149-9.252c-1.586-3.733-1.975-6.883-0.57-10.742
			c0.813-2.234,1.709-4.609,1.731-7.014c0.021-2.116-2.446-2.099-3.911-2.006c-5.676,0.359-11.455,0.169-16.562,2.945
			c-2.759,1.5-4.797,2.432-7.91,2.333c-2.772-0.088-5.729-1.257-8.407-1.938c-4.791-1.22-10.057-0.988-14.96-0.998
			c-4.661-0.009-7.981,1.91-12.024,3.982c-5.736,2.941-10.754,1.653-15.945-1.303c-7.929-4.517-15.851-0.124-24.288,0.478
			c-3.683,0.263-5.335-4.042-9.444-3.111c-5.222,1.183-9.775,4.766-11.938-2.784c-0.285-0.993-1.833-0.57-1.548,0.427
			c0.692,2.417,1.869,6.002,4.956,6.163c4.599,0.239,8.915-4.282,13.269-1.109c3.567,2.6,7.085,2.091,11.332,1.285
			c3.211-0.609,6.299-1.673,9.556-2.059c3.738-0.444,7.052,1.986,10.147,3.725c3.721,2.09,7.631,1.782,11.672,0.884
			c2.517-0.559,4.867-2.169,7.11-3.353c4.291-2.266,9.273-1.607,13.943-1.441c6.223,0.222,11.952,2.609,18.104,2.804
			c2.043,0.065,3.822-0.331,5.576-1.337c4.107-2.354,7.316-3.364,12.109-3.582c1.303-0.059,7.941-1.642,7.416,1.501
			c-0.424,2.526-1.541,4.898-2.289,7.332c-0.6,1.947-0.328,3.927,0.043,5.879c0.67,3.535,4.752,7.571,1.846,11.156
			c-1.543,1.902-3.31,2.827-4.395,5.113c-0.808,1.703-1.041,3.955-1.513,5.791c-0.979,3.804-6.708,1.559-9.087,0.695
			c-3.244-1.179-5.98-2.229-9.457-1.773c-1.698,0.222-3.289,1.123-4.775,1.914c-3.479,1.857-6.837,2.328-10.746,2.138
			C84.739,44.524,78.525,41.2,71.789,41c-5.943-0.178-11.54,2.918-17.473,3.164C47.36,44.452,40.6,41.04,33.572,41.133
			c-0.922,0.014-2.295,0.277-3.184,0.418c-3.531,0.563-5.752-0.186-8.85-1.697c-1.932-0.941-4.187-0.584-6.125,0.055
			c-1.33,0.438-3.466,1.152-4.353,2.359c-0.666,0.906-4.384-1.043-4.937-1.291c-2.472-1.109-2.679-3.352-2.033-5.629
			c1.145-4.041,3.704-8.15,1.264-12.24c-0.452-0.757-2.7-1.786-1.987-3.057c0.562-1,0.725-1.694,1.004-2.895
			C5.399,12.747,5.858,8.23,6.619,3.771C6.792,2.759,5.245,2.326,5.071,3.344L5.071,3.344z"/>
	</g>
</g>
<g>
	<path fill="#FFFFFF" d="M84.755,16.448c-0.321,0-0.947,0.053-1.879,0.161v7.463c0.789,0.107,1.522,0.161,2.203,0.161
		c1.896,0,3.274-0.304,4.135-0.913c0.857-0.608,1.289-1.7,1.289-3.275c0-1.289-0.465-2.219-1.396-2.792
		C88.21,16.716,86.761,16.448,84.755,16.448z M82.233,13.656c1.503-0.108,2.595-0.161,3.274-0.161c5.548,0,8.322,2.201,8.322,6.603
		c0,1.468-0.447,2.774-1.344,3.919c-0.895,1.181-1.949,1.916-3.167,2.202l6.658,10.576H92.38l-6.121-9.879
		c-0.717,0-1.844-0.053-3.383-0.16v10.039h-3.113V13.763C79.871,13.763,80.694,13.728,82.233,13.656z M99.039,16.019
		c0-0.43,0.16-0.806,0.482-1.128c0.287-0.322,0.662-0.483,1.128-0.483c0.429,0,0.806,0.161,1.127,0.483
		c0.322,0.322,0.483,0.698,0.483,1.128c0,0.429-0.161,0.805-0.483,1.127c-0.321,0.322-0.698,0.483-1.127,0.483
		c-0.43,0-0.805-0.161-1.128-0.483C99.199,16.824,99.039,16.448,99.039,16.019z M126.742,11.186l-4.939,25.609h-7.248l1.181-4.457
		h-1.772l-1.879,4.457h-7.354l12.081-25.609H126.742z M117.238,27.239c0.574-2.576,1.45-5.852,2.631-9.825
		c-1.968,4.617-3.363,7.893-4.188,9.825H117.238z M101.937,21.978v11.543c0,0.931,0.072,1.539,0.215,1.825
		c0.145,0.287,0.342,0.501,0.59,0.645c0.25,0.145,0.717,0.215,1.397,0.215v0.59H97.16v-0.59c0.68,0,1.145-0.055,1.396-0.162
		c0.251-0.144,0.448-0.375,0.591-0.697c0.145-0.322,0.214-0.93,0.214-1.825v-5.53c0-1.574-0.053-2.595-0.161-3.06
		c-0.072-0.322-0.178-0.537-0.322-0.645c-0.18-0.143-0.394-0.214-0.645-0.214c-0.322,0-0.68,0.071-1.072,0.214l-0.216-0.537
		l4.295-1.772L101.937,21.978L101.937,21.978z M78.475,28.26c-0.966,2.791-2.435,4.975-4.402,6.549
		c-1.969,1.576-4.206,2.361-6.711,2.361c-2.507,0-4.207-0.787-5.101-2.361c-0.896-1.574-0.859-3.758,0.107-6.549
		c0.931-2.758,2.38-4.94,4.349-6.55c1.968-1.576,4.207-2.362,6.711-2.362s4.206,0.787,5.101,2.362
		C79.423,23.32,79.406,25.502,78.475,28.26z M68.542,23.427c-1.216,1.146-2.183,2.757-2.899,4.833
		c-0.681,2.074-0.805,3.686-0.375,4.832c0.429,1.181,1.396,1.771,2.899,1.771c1.502,0,2.863-0.59,4.081-1.771
		c1.254-1.146,2.219-2.756,2.899-4.832c0.715-2.076,0.841-3.688,0.375-4.833c-0.431-1.181-1.378-1.771-2.847-1.771
		C71.173,21.656,69.794,22.246,68.542,23.427z M57.798,22.783h-3.5v9.824c0,0.979,0.131,1.637,0.395,1.976
		c0.302,0.339,0.659,0.509,1.074,0.509c0.375,0,0.734-0.094,1.072-0.283c0.339-0.263,0.602-0.604,0.791-1.017h0.677
		c-0.414,1.054-0.96,1.864-1.638,2.428c-0.715,0.526-1.449,0.791-2.201,0.791c-0.527,0-1.017-0.132-1.469-0.396
		c-0.489-0.3-0.865-0.695-1.129-1.185c-0.225-0.526-0.338-1.336-0.338-2.428v-10.22h-2.37v-0.564
		c0.601-0.225,1.223-0.621,1.862-1.187c0.639-0.601,1.205-1.297,1.694-2.089c0.264-0.414,0.622-1.186,1.073-2.315H54.3v4.025h3.5
		v2.131H57.798z M8.625,18.38v-0.322c0-0.178,0.018-0.376,0.054-0.59l1.342-0.268c0.25-0.072,0.501-0.144,0.751-0.215
		c0.573-0.107,1.305-0.358,2.201-0.751c0.179-0.107,0.322-0.197,0.43-0.269l0.859,0.055v9.396c0.93-0.752,1.79-1.271,2.576-1.559
		c0.788-0.321,1.61-0.483,2.471-0.483c0.786,0,1.484,0.143,2.093,0.429c0.572,0.287,1.021,0.645,1.342,1.075
		c0.323,0.429,0.556,0.947,0.699,1.556c0.107,0.394,0.162,1.183,0.162,2.362l-0.055,6.39c0.035,0.106,0.071,0.179,0.107,0.214
		c0.144,0.036,0.465,0.107,0.966,0.215c0.288,0.036,0.501,0.09,0.645,0.161c0.072,0.144,0.107,0.269,0.107,0.375v0.108
		c-0.036,0.105-0.054,0.285-0.054,0.537H25c-0.179,0-0.501-0.019-0.967-0.055c-0.859-0.107-1.593-0.16-2.201-0.16
		c-0.395,0-0.913,0.035-1.557,0.107c-0.465,0-1.056,0-1.771,0c-0.108,0-0.215-0.018-0.323-0.055v-0.536
		c0-0.106,0.019-0.233,0.055-0.376c0.25-0.107,0.536-0.18,0.859-0.215c0.322-0.036,0.625-0.072,0.912-0.108
		c0.036-0.214,0.053-0.339,0.053-0.375l0.108-6.174c0-1.146-0.072-1.915-0.214-2.31c-0.107-0.394-0.359-0.715-0.752-0.965
		c-0.429-0.287-0.912-0.431-1.449-0.431c-0.68,0-1.324,0.162-1.932,0.483c-0.645,0.287-1.182,0.645-1.611,1.074v2.738
		c0,1.539-0.019,2.684-0.054,3.436c0,0.431,0,0.717,0,0.859c0,0.715,0.036,1.198,0.108,1.449c0.071,0.145,0.196,0.27,0.375,0.376
		c0.394,0.036,0.716,0.054,0.967,0.054s0.465,0.018,0.644,0.053c0,0.287,0,0.467,0,0.537c0,0.145-0.018,0.323-0.054,0.537
		l-1.772-0.053c-0.644-0.072-1.234-0.107-1.771-0.107l-2.201,0.16L8.895,36.69c-0.108-0.145-0.215-0.395-0.322-0.752v-0.215
		c0.178-0.036,0.644-0.107,1.396-0.215c0.357-0.036,0.572-0.108,0.643-0.215c0.108-0.145,0.162-0.52,0.162-1.127l0.107-11.061
		c0-1.969-0.036-3.186-0.107-3.652c-0.072-0.25-0.233-0.465-0.483-0.643C10.074,18.667,9.52,18.523,8.625,18.38z M26.558,15.481
		h9.127v0.59h-0.752c-0.894,0-1.539,0.251-1.932,0.752c-0.252,0.322-0.377,1.127-0.377,2.416v13.798
		c0,1.073,0.073,1.789,0.215,2.146c0.106,0.25,0.322,0.465,0.644,0.645c0.465,0.25,0.949,0.375,1.45,0.375h0.752v0.592h-9.127
		v-0.592h0.75c0.896,0,1.54-0.25,1.934-0.75c0.25-0.359,0.375-1.164,0.375-2.416V19.239c0-1.073-0.071-1.79-0.215-2.147
		c-0.106-0.25-0.322-0.465-0.644-0.644c-0.465-0.25-0.949-0.376-1.45-0.376h-0.75V15.481z M47.872,18.005v3.919h-4.456V17.79
		c0-0.465-0.25-0.698-0.751-0.698c-0.608,0-0.914,0.448-0.914,1.342l0.108,1.45c0,0.824,0.554,1.79,1.664,2.899
		c2.075,2.004,3.382,3.401,3.919,4.188c0.572,0.787,0.859,1.664,0.859,2.632v2.899c0,3.006-1.915,4.508-5.746,4.508
		c-3.686,0-5.529-1.359-5.529-4.079v-5.155h4.509v5.155c0,0.536,0.305,0.806,0.914,0.806c0.608,0,0.912-0.27,0.912-0.806v-2.685
		c0-0.789-0.537-1.736-1.61-2.846c-2.111-2.041-3.437-3.419-3.973-4.135c-0.501-0.716-0.751-1.485-0.751-2.308v-2.524
		c0-2.935,1.915-4.402,5.745-4.402C46.171,14.032,47.872,15.356,47.872,18.005z"/>
</g>
</svg>
