<?xml version="1.0" encoding="utf-8"?>
<!-- Generator: Adobe Illustrator 16.0.0, SVG Export Plug-In . SVG Version: 6.00 Build 0)  -->
<!DOCTYPE svg PUBLIC "-//W3C//DTD SVG 1.1//EN" "http://www.w3.org/Graphics/SVG/1.1/DTD/svg11.dtd">
<svg version="1.1" id="Capa_1" xmlns="http://www.w3.org/2000/svg" xmlns:xlink="http://www.w3.org/1999/xlink" x="0px" y="0px"
	 width="237px" height="193.668px" viewBox="0 0 237 193.668" enable-background="new 0 0 237 193.668" xml:space="preserve">
<g>
	<g>
		<path fill="#FBF8CD" d="M5.115,30.749c0.973,11.673,7.891,20.286,11.458,31.312c1.297,3.891,0.865,9.729,5.405,10.701
			c3.891,0.973,11.35-3.243,15.565-4.216c11.998-2.27,24.32-5.513,36.318-5.837c11.674-0.324,23.672-0.648,35.346-1.297
			c12.322-0.648,25.293-2.27,37.939-2.27c4.217,0,22.051,2.594,25.619,0c2.918-2.27-1.299-13.295-1.621-17.511
			c-0.326-5.837-0.648-11.999-0.648-17.835c0-4.54,0.324-9.404-0.325-13.944c-0.974-6.81-4.215-5.837-11.024-5.837
			c-25.941,0-52.534,2.594-78.149,6.161c-15.241,2.27-32.103,3.784-47.344,7.351c-8.431,1.946-6.838,1.449-14.62,5.016
			c-2.271,0.973-14.564,4.712-16.51,5.685"/>
	</g>
	<g>
		<path fill="#C73535" d="M152.012,29.633c4.215,4.216,12.647,5.513,15.241-2.27c1.946-4.864-3.784-3.567-5.405-6.81
			c-1.945-3.567,1.838-5.621,4.756-2.702c3.244-9.728-13.942-5.405-13.619,1.081c0,3.567,6.484,2.27,7.457,6.161
			c0.975,4.54-4.539,3.567-7.457,3.567"/>
	</g>
	<g>
		<path fill="#C73535" d="M138.068,18.608c0,4.215-0.324,8.755-0.324,12.971c0,7.783,3.893,5.297,4.54-0.541
			c1.297,1.622,3.892,6.702,6.81,5.405c1.946-0.973,0.973-5.837,0.973-7.458c0-4.215,0.975-9.08,0.324-12.646
			c-6.388,0-1.729,6.485-3.675,9.08c-2.594-2.27-4.756-5.188-8.647-6.161"/>
	</g>
	<g>
		<g>
			<path fill="#C73535" d="M131.583,17.311c-6.161-6.81-8.215,0.325-9.188,5.513c-0.647,3.891-1.188,7.783-3.783,11.025l0.648,1.297
				c0.973,0.649,2.594,1.297,3.567,1.297c0.647-2.594,0.973-6.161,3.891-5.513c0.325,1.945,0.325,3.567,0.325,5.513
				c6.811,1.946,5.512-3.243,6.161-8.107C133.854,23.472,135.475,20.878,131.583,17.311z M125.098,24.661v-0.648
				c-0.973-4.215,2.271-7.134,3.567-2.27C129.637,24.985,127.691,25.958,125.098,24.661z"/>
		</g>
	</g>
	<g>
		<path fill="#C73535" d="M108.235,27.688c-1.297,2.918,0.324,9.728,4.54,6.485c2.918-2.27-2.594-9.512,4.54-7.891
			c0.324-0.648,0.648-2.486,0.973-3.135c-0.973-0.324-4.864-1.621-5.188-2.594c-1.945-4.215,2.919-1.513,4.864-2.486
			c2.918-1.622,6.149-7.75,0-7.242c-14.946,1.236-6.81,9.944-10.376,15.781"/>
	</g>
	<g>
		<g>
			<path fill="#C73535" d="M77.753,32.227c-0.648-3.243-3.891-2.594-6.486-3.891c2.919-5.513,3.892-10.052-4.215-8.431
				c-7.783,1.297-6.485,4.864-6.485,11.025l0.973-0.324c-1.621,5.188,4.54,11.025,9.728,9.404
				C73.862,39.361,78.402,35.47,77.753,32.227z M63.278,24.024l0.288-0.432c2.018-1.441,4.901-0.433,3.748,2.306
				C65.44,29.79,63.711,26.907,63.278,24.024z M71.206,34.69c-0.577,1.441-2.162,2.018-3.027,1.297
				c-0.72-0.721-0.72-2.594-1.585-3.459h-0.432C68.035,32.096,72.647,31.375,71.206,34.69z"/>
		</g>
	</g>
	<g>
		<path fill="#C73535" d="M41.435,28.012c-1.297,7.783,11.025,17.187,17.187,11.025c4.216-4.215,3.567-13.944,2.594-19.132
			c-8.107,0-1.946,8.431-5.513,11.998c-6.161,5.837-8.431-8.755-13.62-4.864"/>
	</g>
	<g>
		<path fill="#C73535" d="M30.409,28.012c0,3.891,0.973,16.862,5.513,18.483c0.324,0,9.621-2.594,10.593-3.243
			c3.243-1.945,1.405-3.891,1.405-7.783c-7.134,0.648-8.107,7.458-9.729-1.621c-0.973-6.485-1.297-9.728-8.107-6.81"/>
	</g>
	<g>
		<path fill="#C73535" d="M19.384,28.336c-6.161,0-4.864,12.647-2.594,15.889c4.865,6.81,16.538,7.459,13.944-3.567
			c-2.27,0.649-8.755,1.297-10.052-2.27c-0.648-1.946,10.024-6.101-1.297-9.404"/>
	</g>
	<g>
		<path fill="#663333" d="M106.132,59.79c-0.324,8.431-1.622,17.835-0.649,26.266c0.649,7.134,2.594,13.62,2.918,21.078
			c0.324,8.433,2.27,16.538,2.594,25.294c0,5.512-0.324,21.188,0.973,26.375c0.649,3.243,0.649-0.973,1.946,1.621
			c0,0.325,2.27-0.107,2.27,0.217c5.188-7.457,1.946-13.942,2.917-22.699c0.974-9.403,1.623-17.188-0.325-26.59
			c-2.594-12.972-1.513-24.97-0.216-37.939c0-3.242,0.108-7.458-0.541-10.701c-0.973-4.54-0.54-3.026-5.404-3.026
			c-1.946,0-3.892-0.865-5.513-0.541"/>
	</g>
	<g>
		<path fill="#E8C3C0" d="M63.649,126.588c-1.946,1.297-3.243,2.27-2.918,4.54c0.324,2.918,2.486,3.458,3.135,5.404
			c1.297,2.918-0.865,6.161,0.433,9.403c0.972,2.595,4.864,4.647,6.485,6.595c1.621,2.27,0.973,4.54,1.945,6.81
			c1.622,3.891,4.216,5.514,8.756,7.135c3.891,1.297,11.674,1.945,13.295-3.244c0.973-3.24-2.27-4.215-0.324-6.81
			c1.297-1.297,4.54-0.973,5.837-1.946c7.783-4.539,7.221-12.014,7.134-20.752c-0.039-3.918,7.458-3.892,6.81-8.105
			c-0.648-6.486-5.513,1.945-9.08,2.27c-0.648-2.594,0.541-6.484,0.216-8.755c-0.648-2.594-2.162-3.241-2.486-6.161
			c-0.324-2.27,0.649-4-1.621-5.619c-3.892-2.596-6.81,0.756-10.377,0.432c-3.243,0-7.269-0.531-10.053-1.621
			c-11.049-4.327-15.349-6.162-13.728,3.242c0.648,3.566,3.026,17.188-2.486,17.188"/>
	</g>
	<g>
		<path fill="#FFFFFF" d="M80.512,140.855c1.622,2.271,13.775,5.821,15.89,0.974c2.263-5.19-13.295-0.647-16.538-0.647"/>
	</g>
	<g>
		<path fill="#26231D" d="M68.838,114.59c2.918-0.973,6.486,2.378,9.08,3.676c3.243,1.297,4.216,0.433,7.783,1.729
			c4.864,1.621,5.296,2.485,9.836-0.433c2.27-1.945,6.702-5.297,6.702-8.541c-3.892-1.297-5.188,3.567-8.431,4.541
			c-1.297,0.323-6.81,0.647-7.783,0.647c-5.513,0-13.295-6.81-17.511-3.567"/>
	</g>
	<g>
		<path fill="#26231D" d="M62.676,122.48c0.324,2.918,6.161,9.942,6.485,3.135c1.622,0.973,3.567,1.945,5.513,2.594
			c-0.648-0.973-0.324-2.919-0.973-3.893c0.973,0.324,2.27,0.647,2.918,1.298c-1.622-6.162-10.377-11.999-9.08-19.132
			c1.621-8.107,11.349-1.946,15.565,0.324c5.188,2.918,5.513,2.594,10.377,1.297c3.243-0.648,5.837-0.975,7.783,1.621
			c0.973,1.297,0.324,3.566,0.973,4.863c0.648,1.946,2.918,2.596,3.567,4.54c0.648,2.595-0.648,6.161-0.973,8.755
			c5.837-3.891,4.215-5.188,4.215-11.023s2.918-7.783-2.27-13.295c-3.242-3.567-8.431-5.838-12.322-8.755
			c-3.243-2.27-7.134-3.567-11.025-5.188c-3.243-1.622-7.134-4.324-10.701-5.945c-3.891-1.621-7.458-3.783-11.674-3.459
			c-4.864,0.324-6.81,5.188-10.052,8.431c-3.243,3.243-4.54,4.864-3.567,9.728c0.648,3.243,1.188,5.513,1.513,8.433
			c0.649,3.242,0,7.241,3.567,9.512c0-0.647,0.541-1.62,0.865-1.944c2.918,1.297,9.296,7.351,9.62,11.242"/>
	</g>
	<g>
		<path fill="#1E1B16" d="M55.542,181.064c8.107,3.892,16.213,6.484,25.293,7.783c7.458,0.647,20.105,2.271,26.915-0.974
			c7.783-3.894,5.188-15.563,1.946-21.728c-2.27-4.217-4.54-4.863-8.431-6.811c-1.297-0.648-4.864-3.566-5.837-3.243
			c-2.594,0.974,0.324,3.892,0,5.837c-0.973,6.161-6.485,5.514-11.999,5.514c-7.458,0-8.755-4.215-11.998-10.053
			c-10.727,7.377-16.214,10.701-17.187,23.35"/>
	</g>
	<g>
		<path fill="#1E1B16" d="M110.431,165.703c0.649-6.702,4.324-10.377,9.945-12.973c1.513-0.647,6.054-2.595,7.783-1.945
			c1.513,0.648,2.594,2.595,3.459,3.675c0.647,0.433,2.161,1.729,2.812,1.946c5.836,1.514,12.538-4.107,18.159-2.812
			c4.974,1.298,11.242,11.025,13.836,15.351c1.515,2.595,6.702,12.105,4.324,14.269c-1.513,1.729-9.944,1.729-12.755,2.378
			c-3.026,0.432-5.838,0.432-8.864,0.432c-7.351,0-14.7,2.379-22.269,1.515c-3.025-0.433-16.3,1.853-19.11,0.337
			c-1.729-0.865,4.626-5.093,3.545-6.393c-2.811-2.811-1.297-14.916,0.216-18.809"/>
	</g>
	<g>
		<path fill="#E8C3C0" d="M131.834,116.626c-8.648,6.054,2.594,16.431,2.162,24.214c-0.434,4.756-3.893,10.811,0,13.836
			c2.162,1.729,8.215,0.865,11.242,0.865c11.675,0,15.134-10.811,17.296-20.754c0.864-5.621,3.459-9.514,3.459-14.702
			c0-2.161-0.865-3.892-0.433-5.621c0.433-3.026,2.594-3.891,3.025-6.485c2.162-7.783-0.434-9.08-6.918-11.673
			c-5.621-2.594-10.811-7.783-16.861-7.783c-6.918,0-12.107,3.459-14.271,9.512c-3.024,6.918,1.297,10.81,0.435,17.296"/>
	</g>
	<g>
		<path fill="#FFFFFF" d="M139.617,115.979c4.973,2.162,11.458,3.893,10.377-4.323c-1.081-7.567-10.594-1.729-10.377,3.459"/>
	</g>
	<g>
		<path fill="#FFFFFF" d="M161.669,118.355c3.675,0.648,6.271-3.893,3.459-6.484c-4.323-3.459-6.918,4.324-3.675,5.837"/>
	</g>
	<g>
		<path fill="#1E1B16" d="M163.184,107.979c1.512-0.432,3.242-0.862,4.756-1.729c-1.515-1.514-3.676-0.865-3.893,1.297"/>
	</g>
	<g>
		<path fill="#1E1B16" d="M139.617,103.439c1.297-0.217,3.459-0.435,4.756-0.217c1.945,0.433,3.027,1.945,4.756,2.379
			c0-0.865-2.162-5.406-3.027-6.055c-2.377-1.081-5.404,2.378-7.564,3.026"/>
	</g>
	<g>
		<path fill="#26231D" d="M128.592,118.572c-5.189-6.053-4.756-12.539-3.459-19.458c1.178-7.063,6.024-11.957,11.818-14.502
			c2.72-1.195,5.648-1.368,8.504-1.928c10.732-2.108,12.972-0.864,22.917,2.162c5.188,1.729,8.864-1.297,8.864,6.918
			c0,4.324-3.459,8.648-6.918,11.675c-0.434-2.162-0.865-4.324-1.297-5.621c-0.865,3.459-4.108,4.756-6.703,3.024
			c1.298-1.297,1.729-3.892,2.162-5.621c-6.485,0-3.39,9.988-11.242-1.297c-1.297,1.297-3.026,1.729-4.756,3.026
			c0.433-6.053-4.107-2.81-8-1.513c-1.729-2.594-6.271-6.27-7.133-1.081c-0.434,2.594,2.811,2.594,3.241,6.917
			c0,1.299-1.079,5.188-1.079,6.486c0,2.162,1.438,6.631,3.025,8.864c4.263,6.003-2.104,3.78-8.864,0.216"/>
	</g>
	<g>
		<path d="M156.557,138.082c-3.119,0-9.72-1.975-12.977-4.777c-1.283-1.104-1.973-2.262-2.051-3.438
			c-0.028-0.417,0.287-0.777,0.705-0.806c0.41-0.029,0.777,0.287,0.805,0.705c0.051,0.758,0.564,1.563,1.527,2.393
			c3.121,2.685,9.813,4.605,12.354,4.396c0.421-0.039,0.782,0.274,0.815,0.691c0.035,0.417-0.272,0.781-0.689,0.816
			C156.896,138.076,156.73,138.082,156.557,138.082z"/>
	</g>
	<g>
		<path d="M153.072,129.586c-0.268,0-0.52-0.009-0.754-0.025c-0.418-0.029-0.73-0.393-0.701-0.81s0.391-0.729,0.809-0.701
			c1.879,0.134,4.872-0.304,5.422-2.063c0.359-1.15-0.246-1.989-1.287-3.234c-0.399-0.48-0.815-0.979-1.104-1.51
			c-1.822-3.342-1.822-7.426-1.822-11.028c0-0.418,0.341-0.757,0.759-0.757s0.756,0.339,0.756,0.757c0,3.423,0,7.304,1.638,10.304
			c0.219,0.4,0.569,0.819,0.94,1.264c0.979,1.175,2.198,2.636,1.566,4.658C158.512,128.934,155.303,129.586,153.072,129.586z"/>
	</g>
	<g>
		<path d="M147.328,119.617c-0.061,0-0.123-0.008-0.184-0.023c-0.64-0.158-1.322-0.281-2.045-0.412
			c-2.47-0.442-5.269-0.947-6.89-3.191c-0.245-0.34-0.168-0.813,0.17-1.057c0.338-0.244,0.813-0.17,1.058,0.17
			c1.264,1.75,3.635,2.176,5.931,2.588c0.715,0.129,1.454,0.264,2.144,0.436c0.404,0.102,0.651,0.514,0.549,0.917
			C147.977,119.389,147.667,119.617,147.328,119.617z"/>
	</g>
	<g>
		<path d="M147.184,119.906c-0.238,0-0.473-0.113-0.621-0.323c-0.237-0.342-0.154-0.813,0.188-1.054
			c1.577-1.104,2.811-3.926,2.748-6.29c-0.027-1.06-0.32-2.483-1.563-3.259c-1.787-1.129-3.375-0.672-4.392-0.09
			c-1.954,1.117-3.317,3.543-3.243,5.766c0.014,0.418-0.313,0.768-0.73,0.781c-0.426,0.015-0.768-0.313-0.781-0.73
			c-0.094-2.795,1.555-5.729,4.004-7.129c1.95-1.116,4.063-1.073,5.949,0.123c1.408,0.88,2.216,2.479,2.27,4.5
			c0.075,2.908-1.383,6.162-3.393,7.568C147.484,119.861,147.334,119.906,147.184,119.906z"/>
	</g>
	<g>
		<path d="M145.309,118.32c-0.145,0-0.291-0.041-0.418-0.127c-0.338-0.227-0.437-0.676-0.229-1.021
			c-0.93,0.342-2.104,0.194-2.957-0.42c-0.816-0.588-1.145-1.496-0.868-2.429c0.297-0.94,0.99-1.537,1.906-1.651
			c0.789-0.102,1.651,0.18,2.358,0.704c0.002,0,0.002,0,0.004,0c0.406-0.11,0.819,0.123,0.934,0.522
			c0.07,0.256,0.113,0.49,0.136,0.709c0.57,1.07,0.489,2.289-0.233,3.375C145.793,118.202,145.553,118.32,145.309,118.32z
			 M143.066,114.166c-0.047,0-0.092,0.003-0.137,0.008c-0.326,0.041-0.531,0.229-0.646,0.592c-0.055,0.185-0.088,0.479,0.304,0.758
			c0.511,0.365,1.341,0.42,1.774,0.115c0.182-0.128,0.285-0.32,0.311-0.58C144.279,114.537,143.613,114.166,143.066,114.166z"/>
	</g>
	<g>
		<path d="M162.02,119.331c-1.254,0-2.521-0.367-3.144-1.919c-0.497-1.363,0.212-3.201,0.837-4.823
			c0.25-0.647,0.484-1.259,0.564-1.659c0.084-0.41,0.484-0.673,0.892-0.595c0.41,0.082,0.675,0.479,0.595,0.892
			c-0.104,0.526-0.353,1.166-0.638,1.906c-0.478,1.236-1.129,2.93-0.835,3.739c0.452,1.128,1.613,1.042,3.335,0.782
			c0.332-0.051,0.646-0.098,0.931-0.123c0.41-0.042,0.783,0.269,0.821,0.685s-0.269,0.784-0.685,0.822
			c-0.256,0.022-0.541,0.067-0.84,0.112C163.307,119.232,162.665,119.331,162.02,119.331z"/>
	</g>
	<g>
		<path d="M165.057,119.041c-0.264,0-0.519-0.137-0.658-0.381c-0.207-0.363-0.082-0.825,0.281-1.033
			c0.709-0.404,2.077-3.572,1.588-4.452c-0.281-0.561-1.465-1.271-2.735-1.438c-0.712-0.092-1.275,0.011-1.515,0.277
			c-0.276,0.313-0.754,0.342-1.066,0.063c-0.313-0.277-0.342-0.757-0.063-1.068c0.588-0.663,1.598-0.938,2.842-0.771
			c1.469,0.193,3.271,1.021,3.877,2.231c0.916,1.646-0.836,5.708-2.176,6.474C165.313,119.009,165.184,119.041,165.057,119.041z"/>
	</g>
	<g>
		<path d="M162.895,118.752c-0.104,0-0.211-0.021-0.313-0.068c-0.38-0.173-0.549-0.621-0.376-1.002
			c0.333-0.729-0.06-1.918-0.468-2.166c-0.163-0.1-0.418,0.178-0.555,0.354c-0.26,0.328-0.733,0.385-1.063,0.128
			c-0.329-0.258-0.387-0.732-0.128-1.063c1.11-1.412,2.22-0.9,2.532-0.711c1.132,0.688,1.664,2.75,1.059,4.086
			C163.456,118.587,163.182,118.752,162.895,118.752z"/>
	</g>
	<g>
		<path d="M150.348,106.822c-1.533,0-2.772-0.594-3.978-1.172c-0.759-0.363-1.474-0.707-2.253-0.901
			c-1.24-0.38-2.483-0.206-3.801-0.022c-0.526,0.074-1.053,0.147-1.58,0.188c-0.407,0.034-0.779-0.28-0.813-0.696
			c-0.009-0.117,0.011-0.229,0.05-0.333c-0.064-0.075-0.121-0.157-0.168-0.247c-0.139-0.262-0.299-0.808,0.168-1.519
			c0.975-1.486,4.727-3.449,6.381-3.326c1.994,0.142,2.775,1.552,3.404,2.685c0.156,0.279,0.313,0.561,0.484,0.82
			c0.305,0.34,0.765,0.725,1.252,1.133c0.783,0.655,1.595,1.334,2.095,2.234c0.123,0.223,0.127,0.49,0.013,0.715
			c-0.117,0.225-0.338,0.377-0.59,0.405C150.786,106.811,150.563,106.822,150.348,106.822z M142.5,103.007
			c0.664,0,1.338,0.074,2.023,0.285c0.889,0.222,1.707,0.614,2.5,0.994c0.724,0.347,1.422,0.682,2.162,0.869
			c-0.209-0.188-0.435-0.375-0.66-0.564c-0.51-0.427-1.037-0.868-1.479-1.375c-0.257-0.373-0.433-0.688-0.608-1.004
			c-0.646-1.167-1.067-1.83-2.189-1.91c-1.23-0.099-4.525,1.802-5.02,2.644c0.158,0.063,0.504,0.15,1.201,0.171
			c0.076,0.002,0.149,0.015,0.219,0.036C141.257,103.073,141.875,103.007,142.5,103.007z"/>
	</g>
	<g>
		<path d="M160.876,109.673c-0.418,0-0.757-0.339-0.757-0.757s0.339-0.757,0.757-0.757c0.087,0,0.171-0.001,0.253-0.002
			c0.016-0.294,0.203-0.565,0.497-0.673c0.649-0.236,1.022-0.705,1.455-1.248c0.42-0.529,0.897-1.129,1.667-1.471
			c0.825-0.414,3.091-0.55,3.939,0.392c0.215,0.237,0.646,0.895,0.033,1.858c-0.029,0.047-0.064,0.09-0.104,0.129
			c-0.168,0.168-0.313,0.231-1.753,0.763c-0.659,0.243-1.764,0.651-1.971,0.776c-0.027,0.018-0.078,0.045-0.106,0.059
			C163.449,109.336,162.607,109.673,160.876,109.673z M166.471,105.97c-0.424,0-0.854,0.054-1.076,0.164
			c-0.463,0.207-0.771,0.595-1.129,1.044c-0.056,0.071-0.113,0.146-0.174,0.219c0.012-0.006,0.024-0.011,0.036-0.017
			c0.312-0.182,0.972-0.435,2.214-0.892c0.348-0.129,0.785-0.29,1.069-0.401C167.197,106.009,166.837,105.97,166.471,105.97z"/>
	</g>
	<g>
		<path d="M136.854,121.596c-0.049,0-0.099-0.002-0.146-0.006c-1.125-0.087-1.94-1.146-2.729-2.169
			c-0.701-0.91-1.426-1.851-2.183-1.938c-0.373-0.041-0.798,0.127-1.282,0.523c-0.193,0.157-0.453,0.208-0.689,0.141
			c-0.239-0.068-0.428-0.252-0.508-0.486c-0.016-0.045-0.049-0.1-0.09-0.155c-0.022,0.021-0.045,0.039-0.067,0.06
			c-0.235,0.201-0.472,0.401-0.606,0.537c-0.158,0.156-0.378,0.237-0.601,0.219c-0.224-0.021-0.427-0.137-0.554-0.32
			c-1.293-1.844-1.748-3.92-2.188-5.928c-0.29-1.319-0.563-2.566-1.058-3.721c-1.282-3.098-0.52-5.266,0.221-7.361
			c0.345-0.979,0.701-1.992,0.879-3.141c0.042-0.435,0.02-0.896-0.003-1.384c-0.044-0.914-0.09-1.86,0.349-2.845
			c0.533-1.39,1.614-2.332,2.66-3.243c0.493-0.429,0.958-0.834,1.359-1.281c0.164-0.239,0.244-0.468,0.328-0.711
			c0.195-0.57,0.414-1.048,1.273-1.586c0.485-0.292,1.034-0.349,1.563-0.404c0.437-0.045,0.886-0.092,1.103-0.266
			c0.604-0.419,0.946-0.865,1.278-1.297c0.705-0.917,1.435-1.87,3.7-1.75l0.105-0.001c0.418,0,0.758,0.339,0.758,0.757
			s-0.34,0.757-0.758,0.757h-0.144c-1.511-0.079-1.851,0.364-2.464,1.161c-0.365,0.475-0.819,1.064-1.574,1.587
			c-0.521,0.42-1.227,0.494-1.85,0.559c-0.365,0.038-0.744,0.078-0.931,0.189c-0.463,0.29-0.51,0.425-0.635,0.788
			c-0.101,0.287-0.233,0.681-0.58,1.165c-0.519,0.581-1.039,1.036-1.544,1.476c-0.948,0.826-1.846,1.606-2.257,2.681
			c-0.308,0.692-0.273,1.388-0.234,2.193c0.025,0.521,0.052,1.061-0.007,1.645c-0.203,1.329-0.584,2.409-0.952,3.454
			c-0.731,2.078-1.312,3.718-0.254,6.271c0.547,1.277,0.851,2.653,1.144,3.983c0.362,1.659,0.711,3.239,1.496,4.658
			c0.23-0.199,0.463-0.396,0.596-0.528c0.172-0.172,0.414-0.25,0.656-0.212c0.238,0.039,0.445,0.19,0.556,0.409
			c0.019,0.031,0.103,0.125,0.165,0.191c0.027,0.03,0.058,0.063,0.089,0.1c0.579-0.319,1.157-0.448,1.728-0.385
			c1.389,0.162,2.354,1.414,3.207,2.519c0.559,0.728,1.193,1.549,1.647,1.584c0.178,0.019,0.374-0.099,0.616-0.328
			c1.347-1.18,0.599-2.343-1.297-4.544c-1.248-1.447-2.426-2.814-1.922-4.238c0.139-0.395,0.567-0.604,0.965-0.461
			c0.394,0.139,0.601,0.57,0.461,0.965c-0.211,0.597,0.772,1.738,1.643,2.748c1.59,1.847,3.768,4.375,1.169,6.649
			C137.958,121.348,137.413,121.596,136.854,121.596z"/>
	</g>
	<g>
		<path d="M170.243,104.052c-0.356,0-0.675-0.254-0.743-0.616c-0.077-0.412,0.193-0.807,0.604-0.884
			c4.15-0.778,7.002-7.93,6.594-12.009c-0.42-3.77-3.51-5.349-6.424-5.229c-2.76,0.136-5.765-0.303-9.184-1.329
			c-0.89-0.213-1.777-0.459-2.645-0.699c-3.063-0.847-5.705-1.58-9.151-1.148c-3.757,0.49-7.823,1.898-9.913,2.694
			c-0.39,0.148-0.828-0.047-0.977-0.438c-0.149-0.391,0.047-0.828,0.438-0.977c2.152-0.819,6.346-2.271,10.26-2.782
			c3.752-0.467,6.664,0.338,9.748,1.191c0.853,0.236,1.723,0.477,2.635,0.698c3.291,0.985,6.129,1.4,8.724,1.277
			c4.254-0.175,7.545,2.536,7.995,6.582c0.473,4.729-2.844,12.721-7.819,13.655C170.336,104.047,170.29,104.052,170.243,104.052z"/>
	</g>
	<g>
		<path d="M168.947,104.052c-0.209,0-0.416-0.086-0.565-0.254c-0.278-0.313-0.25-0.791,0.063-1.067
			c0.308-0.273,0.638-1.183,0.679-2.594c0.047-1.594-0.299-2.813-0.567-3.081c-0.295-0.295-0.295-0.775,0-1.07
			c0.297-0.295,0.774-0.295,1.07,0c0.813,0.812,1.051,2.768,1.01,4.196c-0.029,1.006-0.224,2.823-1.187,3.68
			C169.307,103.989,169.126,104.052,168.947,104.052z"/>
	</g>
	<g>
		<path d="M164.787,101.462c-1.264,0-2.543-0.246-3.594-0.627c-0.236-0.086-0.414-0.284-0.477-0.528
			c-0.061-0.244,0.004-0.502,0.174-0.688c0.256-0.286,0.541-0.563,0.822-0.835c1.256-1.216,1.879-1.909,1.225-3.221
			c-0.188-0.374-0.037-0.828,0.338-1.015c0.373-0.186,0.828-0.035,1.015,0.338c1.14,2.278-0.271,3.769-1.396,4.861
			c1.722,0.358,3.729,0.276,4.857-0.603c0.695-0.541,0.979-1.326,0.873-2.402c-0.042-0.416,0.264-0.787,0.68-0.828
			c0.405-0.04,0.784,0.262,0.826,0.678c0.201,2.012-0.677,3.149-1.447,3.75C167.65,101.143,166.229,101.462,164.787,101.462z"/>
	</g>
	<g>
		<path d="M159.146,101.746c-0.229,0-0.451-0.104-0.599-0.292c-0.358-0.463-0.877-0.863-1.424-1.286
			c-0.831-0.643-1.771-1.371-2.271-2.469c-0.641-1.146-0.58-2.575-0.526-3.836c0.014-0.323,0.026-0.641,0.026-0.945
			c0-0.418,0.34-0.757,0.758-0.757s0.757,0.339,0.757,0.757c0,0.325-0.015,0.664-0.028,1.009c-0.047,1.113-0.095,2.264,0.365,3.092
			c0.371,0.811,1.088,1.365,1.846,1.952c0.124,0.096,0.248,0.192,0.372,0.29c0.327-1.174,1.229-2.006,2.058-2.768
			c0.791-0.728,1.537-1.416,1.836-2.362c0.125-0.399,0.547-0.62,0.949-0.494c0.398,0.126,0.619,0.551,0.494,0.95
			c-0.42,1.331-1.395,2.228-2.254,3.019c-1.242,1.145-1.929,1.856-1.621,3.215c0.079,0.348-0.093,0.701-0.414,0.854
			C159.367,101.723,159.256,101.746,159.146,101.746z"/>
	</g>
	<g>
		<path d="M147.904,98.286c-0.227,0-0.446-0.103-0.592-0.286c-0.201-0.252-0.219-0.604-0.047-0.875
			c0.795-1.261,1.037-2.42,0.643-3.101c-0.41-0.709-1.469-0.814-2.278-0.783c-0.409,0.017-0.771-0.307-0.788-0.724
			c-0.017-0.417,0.307-0.771,0.725-0.788c2.231-0.098,3.217,0.784,3.65,1.536c0.458,0.792,0.506,1.805,0.159,2.914
			c2.229-0.89,3.756-1.883,4.44-3.934c0.131-0.396,0.559-0.61,0.957-0.479c0.396,0.132,0.609,0.561,0.479,0.957
			c-1.145,3.436-4.309,4.542-7.098,5.519C148.072,98.271,147.988,98.286,147.904,98.286z"/>
	</g>
	<g>
		<path d="M139.949,96.456c-0.26,0-0.521-0.017-0.787-0.049c-0.32-0.04-0.58-0.279-0.646-0.595
			c-0.065-0.316,0.074-0.639,0.353-0.805c0.136-0.082,0.806-0.5,0.678-0.75c-0.455-0.89-3.748-1.71-4.892-1.221
			c-0.387,0.166-0.829-0.014-0.993-0.397c-0.165-0.384,0.013-0.829,0.396-0.994c1.783-0.764,5.957,0.205,6.836,1.922
			c0.125,0.248,0.285,0.707,0.115,1.25c0.502-0.123,0.958-0.336,1.334-0.631c0.609-0.478,0.967-1.129,1.063-1.935
			c0.05-0.414,0.424-0.709,0.841-0.663c0.415,0.049,0.712,0.425,0.662,0.84c-0.142,1.204-0.705,2.224-1.632,2.949
			C142.384,96.079,141.202,96.456,139.949,96.456z"/>
	</g>
	<g>
		<path d="M135.221,111.547c-0.068,0-0.139-0.009-0.207-0.029c-0.402-0.115-0.635-0.533-0.521-0.936l0.185-0.641
			c0.504-1.736,0.939-3.237,0.939-5.063c0-0.507-0.109-1.154-0.225-1.841c-0.242-1.449-0.531-3.163,0.155-4.343
			c-1.455-0.584-3.746-1.74-3.937-3.289c-0.068-0.568,0.109-1.398,1.351-2.131c0.358-0.212,0.824-0.093,1.036,0.267
			c0.213,0.36,0.093,0.824-0.268,1.036c-0.399,0.236-0.637,0.484-0.617,0.646c0.087,0.708,2.287,1.917,4.053,2.446
			c0.297,0.089,0.51,0.352,0.537,0.659c0.025,0.31-0.139,0.604-0.416,0.741c-0.879,0.439-0.723,1.818-0.403,3.718
			c0.128,0.75,0.245,1.459,0.245,2.092c0,2.039-0.484,3.712-1,5.484l-0.184,0.634C135.854,111.33,135.55,111.547,135.221,111.547z"
			/>
	</g>
	<g>
		<path d="M131.617,125.527c-0.329,0-0.633-0.217-0.727-0.549c-0.396-1.384,0.086-2.854,1.172-3.576
			c0.348-0.232,0.816-0.137,1.049,0.209c0.23,0.349,0.139,0.818-0.209,1.05c-0.545,0.362-0.773,1.144-0.557,1.899
			c0.113,0.401-0.119,0.82-0.521,0.937C131.756,125.518,131.686,125.527,131.617,125.527z"/>
	</g>
	<g>
		<path d="M131.604,130.467c-2.424,0-3.682-1.238-4.317-2.338c-1.868-3.223-0.521-8.667,1.271-11.15
			c0.242-0.34,0.717-0.416,1.055-0.172c0.34,0.243,0.418,0.717,0.173,1.055c-1.681,2.337-2.585,7.099-1.188,9.51
			c0.711,1.225,1.911,1.729,3.666,1.549c0.41-0.048,0.787,0.258,0.831,0.674s-0.258,0.788-0.674,0.831
			C132.132,130.453,131.861,130.467,131.604,130.467z"/>
	</g>
	<g>
		<path d="M163.613,130.716c-0.396,0-0.727-0.307-0.754-0.707c-0.116-1.747,0.733-2.952,1.483-4.015
			c0.337-0.475,0.652-0.924,0.899-1.418c0.549-1.258,0.382-2.21,0.171-3.416c-0.118-0.67-0.251-1.43-0.251-2.301
			c0-0.418,0.339-0.756,0.757-0.756s0.759,0.338,0.759,0.756c0,0.738,0.114,1.398,0.227,2.039c0.226,1.283,0.457,2.606-0.291,4.317
			c-0.315,0.634-0.68,1.149-1.033,1.649c-0.693,0.98-1.292,1.828-1.211,3.042c0.027,0.417-0.288,0.776-0.705,0.805
			C163.648,130.715,163.631,130.716,163.613,130.716z"/>
	</g>
	<g>
		<path d="M151.202,152.621c-5.451,0-8.626-3.152-11.577-7.846l-0.421-0.643c-2.356-3.576-6.745-10.236-4.332-14.006
			c0.226-0.354,0.694-0.455,1.045-0.229c0.353,0.226,0.455,0.692,0.229,1.045c-1.883,2.941,2.465,9.541,4.319,12.357l0.433,0.658
			c3.098,4.93,6.223,7.814,12.238,7.014c0.42-0.054,0.795,0.235,0.85,0.649c0.055,0.415-0.236,0.795-0.65,0.851
			C152.588,152.572,151.877,152.621,151.202,152.621z"/>
	</g>
	<g>
		<path d="M153.957,152.623c-0.389,0-0.719-0.297-0.753-0.691c-0.036-0.416,0.272-0.783,0.688-0.817
			c2.625-0.229,5.474-6.345,6.689-8.955l0.33-0.704c1.352-3.246,1.943-6.727,1.801-10.604c-0.016-0.418,0.313-0.769,0.729-0.785
			c0.435,0.018,0.771,0.313,0.785,0.729c0.151,4.103-0.479,7.788-1.932,11.272l-0.34,0.729c-1.551,3.327-4.436,9.521-7.934,9.824
			C154.001,152.622,153.979,152.623,153.957,152.623z"/>
	</g>
	<g>
		<path d="M129.6,151.326c-0.179,0-0.355-0.063-0.5-0.189c-0.313-0.275-0.344-0.755-0.066-1.068
			c3.083-3.493,2.646-9.551,2.261-14.896c-0.127-1.763-0.248-3.428-0.248-4.966c0-0.418,0.339-0.757,0.759-0.757
			c0.418,0,0.756,0.339,0.756,0.757c0,1.484,0.119,3.123,0.244,4.857c0.405,5.641,0.867,12.035-2.637,16.006
			C130.018,151.239,129.809,151.326,129.6,151.326z"/>
	</g>
	<g>
		<path d="M139.88,157.191c-2.853,0-5.585-0.439-7.521-1.697c-1.594-1.037-2.485-2.527-2.649-4.428
			c-0.036-0.416,0.272-0.782,0.688-0.818c0.401-0.04,0.783,0.271,0.818,0.689c0.124,1.432,0.768,2.508,1.969,3.289
			c4.535,2.948,15.363,0.627,18.795-0.554c0.396-0.135,0.826,0.075,0.961,0.472c0.137,0.396-0.073,0.824-0.469,0.961
			C150.627,155.739,145.061,157.191,139.88,157.191z"/>
	</g>
	<g>
		<path d="M110.574,165.307c-0.156,0-0.313-0.048-0.448-0.146c-0.336-0.248-0.408-0.724-0.161-1.06
			c0.847-1.147,1.505-2.507,2.203-3.943c0.894-1.844,1.818-3.749,3.189-5.206c2.967-3.354,7.396-4.995,13.522-4.995
			c0.418,0,0.758,0.339,0.758,0.757s-0.34,0.759-0.758,0.759c-5.667,0-9.725,1.471-12.404,4.5c-1.228,1.305-2.062,3.024-2.945,4.846
			c-0.696,1.437-1.416,2.922-2.345,4.183C111.036,165.201,110.806,165.307,110.574,165.307z"/>
	</g>
	<g>
		<path d="M170.244,181.882c-0.313,0-0.604-0.194-0.713-0.504c-0.592-1.666-0.969-3.354-1.332-4.985
			c-0.639-2.861-1.243-5.565-2.911-8.112c-1.548-2.259-3.644-4.349-5.669-6.368c-2.422-2.415-4.924-4.911-6.604-7.79
			c-0.209-0.361-0.088-0.824,0.271-1.035c0.359-0.209,0.822-0.089,1.035,0.271c1.578,2.709,4.012,5.137,6.363,7.48
			c2.074,2.07,4.222,4.21,5.856,6.598c1.829,2.791,2.491,5.756,3.131,8.625c0.354,1.588,0.722,3.229,1.282,4.811
			c0.141,0.395-0.066,0.824-0.46,0.966C170.414,181.868,170.328,181.882,170.244,181.882z"/>
	</g>
	<g>
		<path fill="#FFFFFF" d="M155.688,183.18c-0.332,0-0.635-0.22-0.729-0.554c-1.814-6.506-5.387-9.536-11.232-9.536
			c-0.711,0-1.475-0.027-2.267-0.058c-3.467-0.127-7.396-0.275-9.767,1.879c-2.146,1.896-4.291,4.688-6.043,7.876
			c-0.2,0.365-0.662,0.499-1.026,0.298c-0.366-0.202-0.5-0.662-0.298-1.028c1.834-3.334,4.093-6.271,6.359-8.272
			c2.818-2.563,7.262-2.397,10.83-2.265c0.771,0.028,1.517,0.058,2.209,0.058c6.541,0,10.692,3.479,12.69,10.642
			c0.112,0.403-0.123,0.82-0.524,0.934C155.822,183.17,155.754,183.18,155.688,183.18z"/>
	</g>
	<g>
		<path fill="#FFFFFF" d="M135.221,185.052c-0.175,0-0.35-0.06-0.492-0.182c-0.316-0.272-0.354-0.75-0.082-1.067
			c0.834-0.974,2.037-1.828,3.199-2.652c1.303-0.926,2.65-1.883,3.203-2.852c0.207-0.361,0.669-0.488,1.033-0.281
			c0.363,0.207,0.488,0.67,0.281,1.032c-0.719,1.259-2.204,2.314-3.641,3.334c-1.09,0.772-2.215,1.571-2.929,2.404
			C135.646,184.962,135.434,185.052,135.221,185.052z"/>
	</g>
	<g>
		<path fill="#FFFFFF" d="M138.969,184.332c-0.217,0-0.432-0.093-0.582-0.271c-0.824-0.992-1.794-1.828-2.818-2.715
			c-0.68-0.587-1.381-1.193-2.034-1.847c-0.296-0.295-0.296-0.774,0-1.069c0.296-0.296,0.772-0.296,1.069,0
			c0.614,0.614,1.295,1.202,1.953,1.771c1.026,0.887,2.088,1.805,2.993,2.891c0.267,0.321,0.224,0.799-0.097,1.066
			C139.311,184.273,139.141,184.332,138.969,184.332z"/>
	</g>
	<g>
		<path fill="#FFFFFF" d="M147.039,185.773c-0.114,0-0.229-0.026-0.338-0.08c-0.374-0.188-0.525-0.644-0.338-1.017
			c0.729-1.461,1.91-2.362,3.05-3.235c0.58-0.443,1.179-0.902,1.704-1.428c0.296-0.296,0.773-0.296,1.07,0
			c0.295,0.295,0.295,0.774,0,1.069c-0.598,0.596-1.235,1.085-1.854,1.56c-1.05,0.805-2.042,1.563-2.617,2.713
			C147.584,185.62,147.316,185.773,147.039,185.773z"/>
	</g>
	<g>
		<path fill="#FFFFFF" d="M151.796,184.766c-0.194,0-0.387-0.074-0.534-0.223c-0.289-0.289-0.578-0.588-0.869-0.891
			c-1.137-1.184-2.313-2.404-3.711-3.158c-0.369-0.198-0.506-0.657-0.308-1.025c0.198-0.367,0.657-0.505,1.024-0.307
			c1.606,0.865,2.867,2.175,4.086,3.441c0.285,0.295,0.564,0.588,0.848,0.869c0.295,0.295,0.295,0.774,0,1.069
			C152.184,184.689,151.99,184.766,151.796,184.766z"/>
	</g>
	<g>
		<path d="M110.287,181.45c-0.009,0-0.017,0-0.026,0c-0.417-0.015-0.745-0.364-0.731-0.782c0.039-1.161,0.177-2.477,0.324-3.871
			c0.402-3.826,0.858-8.163-0.537-11.053c-1.352-2.432-4.509-4.07-7.562-5.655c-1.457-0.756-2.832-1.47-4-2.265
			c-0.346-0.235-0.436-0.706-0.2-1.051c0.235-0.348,0.706-0.437,1.051-0.2c1.095,0.743,2.432,1.438,3.847,2.172
			c3.252,1.688,6.615,3.433,8.208,6.301c1.602,3.315,1.122,7.881,0.699,11.908c-0.144,1.366-0.279,2.655-0.316,3.763
			C111.029,181.127,110.693,181.45,110.287,181.45z"/>
	</g>
	<g>
		<path d="M55.805,180.873c-0.418,0-0.757-0.339-0.757-0.757c0-3.888,1.049-8.3,2.953-12.425c1.286-2.857,2.982-4.729,6.048-6.664
			c0.5-0.334,1.277-0.709,2.176-1.146c1.829-0.884,4.891-2.362,4.967-3.597c0.026-0.417,0.375-0.731,0.803-0.708
			c0.417,0.024,0.734,0.385,0.708,0.803c-0.132,2.117-3.286,3.642-5.82,4.865c-0.813,0.394-1.581,0.764-2.01,1.05
			c-2.805,1.771-4.341,3.457-5.495,6.021c-1.817,3.938-2.816,8.125-2.816,11.798C56.562,180.534,56.223,180.873,55.805,180.873z"/>
	</g>
	<g>
		<path d="M89.45,168.303c-1.423,0-2.874-0.121-4.206-0.232c-1.037-0.086-2.017-0.168-2.775-0.168
			c-3.738-0.094-7.046-1.586-8.867-3.993c-1.484-1.961-1.911-4.396-1.234-7.04c0.104-0.405,0.514-0.65,0.92-0.545
			c0.405,0.104,0.649,0.516,0.545,0.92c-0.558,2.182-0.221,4.171,0.975,5.752c1.546,2.043,4.417,3.313,7.68,3.395
			c0.001,0,0.002,0,0.003,0c0.802,0,1.811,0.084,2.879,0.174c3.151,0.265,7.467,0.625,9.42-1.133
			c1.734-1.509,1.265-2.318,0.413-3.791c-0.458-0.791-0.978-1.688-1.092-2.773c-0.044-0.416,0.258-0.788,0.673-0.832
			c0.415-0.043,0.788,0.258,0.832,0.673c0.081,0.765,0.477,1.449,0.896,2.174c0.867,1.499,1.947,3.364-0.72,5.683
			C94.258,167.945,91.895,168.303,89.45,168.303z"/>
	</g>
	<g>
		<path d="M78.721,157.091c-0.099,0-0.199-0.021-0.295-0.06c-6.589-2.795-11.075-5.844-13.711-9.319
			c-4.053-4.987-1.918-12.419,2.394-16.433c0.307-0.285,0.786-0.27,1.069,0.037c0.285,0.307,0.268,0.785-0.038,1.068
			c-3.813,3.551-5.752,10.063-2.234,14.393c2.488,3.279,6.772,6.17,13.112,8.858c0.385,0.164,0.564,0.607,0.401,0.992
			C79.296,156.918,79.016,157.091,78.721,157.091z"/>
	</g>
	<g>
		<path d="M87.606,159.409c-0.139,0-0.281-0.004-0.425-0.013c-0.972-0.065-2.103-0.338-3.196-0.604
			c-1.429-0.347-2.909-0.703-3.851-0.558c-0.411,0.063-0.8-0.219-0.863-0.633s0.22-0.799,0.633-0.862
			c1.241-0.188,2.866,0.2,4.437,0.583c1.032,0.25,2.099,0.508,2.935,0.563c1.264,0.075,2.3-0.294,3.398-0.685
			c0.86-0.306,1.75-0.622,2.799-0.753c0.41-0.057,0.793,0.24,0.845,0.656c0.052,0.414-0.242,0.791-0.657,0.846
			c-0.886,0.109-1.66,0.386-2.48,0.677C90.098,159.012,88.982,159.409,87.606,159.409z"/>
	</g>
	<g>
		<path d="M95.153,158.102c-0.27,0-0.531-0.146-0.667-0.398c-0.197-0.369-0.059-0.827,0.31-1.023
			c1.008-0.539,2.127-1.005,3.209-1.453c3.403-1.414,6.618-2.748,7.511-6.418c0.911-3.342,3.667-13.445,0.82-17.859
			c-0.227-0.352-0.125-0.819,0.226-1.047c0.351-0.227,0.82-0.125,1.046,0.227c2.88,4.464,1.022,13.016-0.626,19.059
			c-1.069,4.396-4.962,6.013-8.396,7.438c-1.096,0.455-2.132,0.885-3.074,1.392C95.396,158.072,95.273,158.102,95.153,158.102z"/>
	</g>
	<g>
		<path d="M73.1,144.409c-0.114,0-0.229-0.026-0.338-0.08c-0.374-0.187-0.525-0.642-0.338-1.015
			c0.719-1.438,1.766-2.666,2.778-3.854c1.968-2.308,3.667-4.301,3.064-7.485c-0.078-0.412,0.192-0.808,0.603-0.885
			c0.404-0.079,0.806,0.192,0.884,0.604c0.737,3.896-1.366,6.363-3.4,8.748c-0.954,1.119-1.939,2.274-2.576,3.55
			C73.645,144.255,73.377,144.409,73.1,144.409z"/>
	</g>
	<g>
		<path d="M102.502,143.111c-0.131,0-0.264-0.034-0.384-0.105c-3.365-1.988-4.198-6.747-3.532-10.582
			c0.072-0.412,0.47-0.682,0.875-0.615c0.412,0.071,0.688,0.463,0.616,0.875c-0.559,3.215,0.083,7.408,2.81,9.021
			c0.36,0.212,0.479,0.676,0.267,1.036C103.013,142.979,102.761,143.111,102.502,143.111z"/>
	</g>
	<g>
		<path d="M97.603,142.391c-0.071,0-0.143-0.01-0.214-0.031c-0.939-0.274-1.742-0.645-2.519-1c-1.32-0.605-2.46-1.131-4.042-1.131
			c-2.385,0-4.882,0.315-7.296,0.621c-1.611,0.205-3.277,0.416-4.9,0.531c-0.421,0.018-0.779-0.283-0.809-0.701
			c-0.03-0.416,0.284-0.779,0.701-0.809c1.583-0.113,3.228-0.321,4.819-0.521c2.461-0.313,5.006-0.634,7.486-0.634
			c1.913,0,3.316,0.646,4.674,1.269c0.727,0.334,1.479,0.681,2.313,0.926c0.401,0.117,0.63,0.539,0.513,0.938
			C98.231,142.177,97.93,142.391,97.603,142.391z"/>
	</g>
	<g>
		<path d="M85.496,144.12c-0.061,0-0.123-0.009-0.184-0.022c-0.386-0.097-0.801-0.067-1.238-0.041
			c-1.251,0.084-2.806,0.188-4.156-2.518c-0.187-0.374-0.035-0.828,0.339-1.016c0.374-0.184,0.828-0.034,1.015,0.34
			c0.9,1.803,1.615,1.755,2.701,1.684c0.155-0.01,0.316-0.021,0.483-0.027c-0.303-0.541-0.791-1.125-1.158-1.563l-0.113-0.136
			c-0.267-0.32-0.224-0.799,0.097-1.065c0.321-0.269,0.797-0.224,1.066,0.099l0.111,0.133c0.799,0.957,1.793,2.146,1.793,3.378
			c0,0.233-0.107,0.452-0.291,0.596C85.827,144.064,85.663,144.12,85.496,144.12z"/>
	</g>
	<g>
		<path d="M88.417,145.133c-1.49,0-2.923-1.57-4.084-2.842c-0.352-0.386-0.685-0.75-0.915-0.947
			c-0.317-0.271-0.354-0.75-0.083-1.066c0.272-0.317,0.749-0.354,1.067-0.084c0.301,0.26,0.647,0.639,1.048,1.076
			c0.826,0.905,2.204,2.399,3.003,2.351c0.41-0.046,0.791-1.604,0.613-3.199c-0.046-0.416,0.253-0.79,0.668-0.836
			c0.424-0.051,0.79,0.252,0.836,0.668c0.177,1.59-0.006,4.654-1.965,4.872C88.543,145.13,88.48,145.133,88.417,145.133z"/>
	</g>
	<g>
		<path d="M90.611,145.775c-0.563,0-1.072-0.295-1.428-0.851c-0.226-0.352-0.125-0.819,0.227-1.045
			c0.352-0.225,0.82-0.125,1.045,0.228c0.115,0.179,0.148,0.17,0.242,0.137c0.965-0.337,2.336-2.932,2.26-3.688
			c-0.042-0.416,0.262-0.787,0.678-0.828c0.408-0.041,0.787,0.262,0.828,0.679c0.139,1.386-1.544,4.665-3.268,5.267
			C90.998,145.741,90.802,145.775,90.611,145.775z"/>
	</g>
	<g>
		<path d="M93.787,144.333c-0.132,0-0.263-0.021-0.39-0.067c-1.058-0.381-0.803-1.848-0.719-2.33
			c0.072-0.412,0.464-0.682,0.875-0.615c0.412,0.072,0.687,0.464,0.616,0.875c-0.032,0.182-0.049,0.324-0.058,0.438
			c0.493-0.358,1.24-1.144,1.538-1.666c0.208-0.362,0.67-0.487,1.032-0.28c0.363,0.207,0.489,0.668,0.281,1.031
			C96.946,141.75,95.253,144.333,93.787,144.333z"/>
	</g>
	<g>
		<path d="M64.165,135.04c-1.88,0-2.536-1.37-2.97-2.276c-0.092-0.189-0.181-0.38-0.281-0.555c-0.179-0.251-0.404-0.51-0.61-0.75
			c-0.775-0.898-1.577-1.829-0.725-3.816c0.812-1.547,2.319-2.406,3.936-2.3c1.674,0.11,3.079,1.171,3.667,2.769
			c0.145,0.394-0.056,0.828-0.448,0.974c-0.395,0.144-0.827-0.058-0.972-0.448c-0.379-1.027-1.278-1.712-2.347-1.781
			c-1.047-0.068-1.96,0.471-2.471,1.439c-0.453,1.063-0.192,1.367,0.507,2.18c0.237,0.272,0.493,0.571,0.741,0.928
			c0.154,0.264,0.261,0.484,0.369,0.709c0.446,0.932,0.72,1.416,1.605,1.416c0.418,0,0.757,0.34,0.757,0.758
			S64.583,135.04,64.165,135.04z"/>
	</g>
	<g>
		<path d="M63.443,130.716c-0.339,0-0.648-0.229-0.733-0.573c-0.213-0.851,0.018-1.689,0.632-2.304c0.296-0.296,0.776-0.295,1.07,0
			c0.295,0.295,0.295,0.775,0,1.07c-0.297,0.297-0.291,0.636-0.233,0.866c0.102,0.406-0.145,0.815-0.55,0.918
			C63.566,130.709,63.504,130.716,63.443,130.716z"/>
	</g>
	<g>
		<path d="M108.988,132.302c-0.378,0-0.705-0.282-0.75-0.668c-0.049-0.415,0.248-0.791,0.663-0.84
			c1.264-0.149,2.78-1.28,3.526-2.631c0.391-0.708,0.743-1.789,0.203-2.922c-0.276-0.536-0.731-1.208-1.277-1.25
			c-1.176-0.124-2.845,2.217-3.852,3.595c-0.603,0.825-1.079,1.477-1.498,1.813c-0.327,0.262-0.803,0.207-1.063-0.117
			c-0.261-0.326-0.208-0.803,0.118-1.063c0.261-0.209,0.749-0.877,1.221-1.522c1.421-1.944,3.184-4.359,5.192-4.211
			c0.997,0.078,1.843,0.781,2.515,2.088c0.647,1.359,0.561,2.888-0.234,4.326c-0.976,1.768-2.942,3.197-4.674,3.4
			C109.047,132.3,109.018,132.302,108.988,132.302z"/>
	</g>
	<g>
		<path d="M109.709,128.986c-0.418,0-0.757-0.34-0.757-0.758c0-0.465,0.195-0.855,0.367-1.201c0.187-0.373,0.641-0.523,1.015-0.338
			c0.374,0.187,0.525,0.641,0.339,1.015c-0.092,0.187-0.208,0.416-0.208,0.524C110.466,128.646,110.127,128.986,109.709,128.986z"/>
	</g>
	<g>
		<path d="M105.24,127.545c-0.36,0-0.68-0.258-0.744-0.625c-0.345-1.958,0.132-4.053,0.593-6.08
			c0.154-0.675,0.305-1.335,0.416-1.966c0.073-0.412,0.466-0.688,0.876-0.614c0.412,0.073,0.687,0.465,0.614,0.876
			c-0.116,0.655-0.271,1.341-0.431,2.04c-0.428,1.881-0.871,3.824-0.579,5.481c0.073,0.411-0.202,0.804-0.614,0.876
			C105.328,127.542,105.284,127.545,105.24,127.545z"/>
	</g>
	<g>
		<path d="M105.385,119.186c-0.158,0-0.317-0.049-0.454-0.149c-1.734-1.302-2.781-2.085-2.607-4.691
			c-0.002-0.521,0.149-1.094,0.294-1.646c0.201-0.764,0.391-1.483,0.107-1.938c-0.222-0.354-0.114-0.821,0.241-1.042
			c0.353-0.222,0.821-0.115,1.042,0.241c0.63,1.008,0.334,2.133,0.073,3.125c-0.126,0.481-0.246,0.935-0.246,1.312
			c-0.121,1.838,0.372,2.207,2.003,3.432c0.334,0.251,0.402,0.725,0.151,1.061C105.842,119.081,105.615,119.186,105.385,119.186z"/>
	</g>
	<g>
		<path d="M103.943,110.682c-0.393,0-0.725-0.304-0.754-0.703c-0.118-1.638-3.952-3.117-7.609-2.929
			c-0.917,0.048-3.907,0.341-3.851,2.13c0.013,0.418-0.315,0.769-0.733,0.78c-0.421-0.01-0.767-0.315-0.78-0.733
			c-0.067-2.136,1.91-3.515,5.286-3.688c3.713-0.194,8.974,1.208,9.197,4.332c0.03,0.417-0.284,0.779-0.701,0.809
			C103.98,110.682,103.962,110.682,103.943,110.682z"/>
	</g>
	<g>
		<path d="M91.26,111.547c-0.154,0-0.31-0.047-0.444-0.145c-2.945-2.144-6.593-3.543-10.121-4.896l-0.515-0.197
			c-0.781-0.313-1.599-0.674-2.447-1.049c-3.04-1.342-6.471-2.863-9.479-2.65c-0.41,0.021-0.778-0.282-0.809-0.699
			c-0.03-0.417,0.284-0.779,0.701-0.811c3.375-0.238,6.996,1.362,10.197,2.776c0.831,0.367,1.632,0.722,2.389,1.022l0.505,0.193
			c3.619,1.391,7.362,2.827,10.468,5.088c0.338,0.244,0.413,0.719,0.167,1.057C91.725,111.438,91.494,111.547,91.26,111.547z"/>
	</g>
	<g>
		<path d="M75.839,128.555c-0.037,0-0.075-0.004-0.112-0.009c-7.149-1.065-14.465-9.13-14.769-16.282
			c-0.018-0.416,0.306-0.771,0.724-0.787c0.425-0.019,0.771,0.307,0.788,0.725c0.233,5.482,5.258,11.768,10.719,14.058
			c-0.385-0.521-0.63-1.096-0.552-1.724c0.035-0.274,0.216-0.51,0.473-0.61c0.257-0.101,0.551-0.054,0.762,0.122
			c0.763,0.637,1.714,0.957,2.75,1.189c-3.082-2.729-5.092-6.008-7.194-9.438l-0.218-0.355c-2.03-3.322-5.428-8.885-2.03-13.057
			c0.264-0.324,0.739-0.373,1.064-0.107c0.324,0.265,0.373,0.74,0.108,1.063c-2.721,3.341,0.209,8.138,2.148,11.312l0.218,0.355
			c2.565,4.188,4.99,8.143,9.42,11c0.313,0.202,0.433,0.604,0.282,0.942s-0.526,0.521-0.887,0.425
			c-0.588-0.157-1.197-0.27-1.841-0.386c-0.708-0.132-1.426-0.263-2.124-0.458c0.031,0.025,0.061,0.053,0.09,0.078
			c0.262,0.229,0.51,0.449,0.713,0.652c0.231,0.231,0.288,0.584,0.141,0.875C76.385,128.396,76.122,128.555,75.839,128.555z"/>
	</g>
	<g>
		<path d="M69.497,130.428c-0.035,0-0.071-0.002-0.107-0.008c-1.168-0.167-2.486-0.95-3.356-1.994
			c-0.268-0.32-0.225-0.798,0.097-1.064c0.322-0.268,0.798-0.226,1.065,0.098c0.288,0.346,0.654,0.66,1.042,0.909
			c-0.225-0.988-0.252-2.013-0.056-2.896c0.091-0.408,0.495-0.664,0.903-0.576c0.408,0.093,0.665,0.496,0.575,0.903
			c-0.23,1.037-0.024,2.457,0.514,3.533c0.126,0.252,0.102,0.553-0.063,0.781C69.967,130.313,69.738,130.428,69.497,130.428z"/>
	</g>
	<g>
		<path d="M61.283,118.177c-0.061,0-0.123-0.007-0.184-0.021c-2.147-0.537-4.645-1.375-6.361-3.175
			c0.01,0.158,0.021,0.316,0.031,0.476c0.033,0.479,0.064,0.951,0.064,1.389c0,0.281-0.156,0.54-0.406,0.671
			s-0.55,0.111-0.782-0.049c-3.714-2.57-5.371-6.164-5.371-11.646c0-0.418,0.339-0.758,0.757-0.758c0.418,0,0.757,0.34,0.757,0.758
			c0,4.308,1.046,7.213,3.448,9.397c-0.059-0.911-0.093-1.844,0.101-2.717c0.071-0.317,0.337-0.556,0.662-0.588
			c0.322-0.028,0.633,0.146,0.767,0.44c1.187,2.641,4.053,3.672,6.7,4.334c0.405,0.102,0.652,0.513,0.55,0.916
			C61.93,117.947,61.622,118.177,61.283,118.177z"/>
	</g>
	<g>
		<path d="M63.3,125.527c-0.418,0-0.757-0.34-0.757-0.758c0-1.675-0.378-3.468-1.095-5.187c-0.161-0.386,0.021-0.829,0.407-0.989
			c0.387-0.16,0.829,0.021,0.989,0.407c0.793,1.899,1.212,3.896,1.212,5.769C64.057,125.188,63.718,125.527,63.3,125.527z"/>
	</g>
	<g>
		<path d="M48.887,105.637c-0.185,0-0.371-0.066-0.516-0.203c-2.577-2.406-1.22-12.015-0.189-14.665
			c1.261-2.838,2.861-4.235,5.205-5.7c0.892-0.657,1.724-1.624,2.528-2.559c0.979-1.138,1.991-2.314,3.249-3.069
			c0.356-0.215,0.823-0.099,1.038,0.26c0.215,0.358,0.099,0.823-0.26,1.038c-1.049,0.629-1.938,1.664-2.88,2.758
			c-0.86,1-1.749,2.034-2.827,2.824c-2.191,1.372-3.561,2.566-4.656,5.03c-1.107,2.85-1.879,11.385-0.175,12.976
			c0.306,0.284,0.322,0.764,0.037,1.069C49.291,105.557,49.089,105.637,48.887,105.637z"/>
	</g>
	<g>
		<path d="M89.531,93.674c-0.135,0-0.271-0.036-0.395-0.112c-4.988-3.057-9.537-5.543-13.907-7.6
			c-0.669-0.321-1.499-0.766-2.434-1.268c-3.765-2.02-10.065-5.4-12.894-3.934c-0.371,0.192-0.827,0.047-1.02-0.324
			c-0.192-0.371-0.047-0.828,0.324-1.02c3.536-1.833,9.761,1.506,14.306,3.944c0.912,0.489,1.721,0.923,2.369,1.234
			c4.415,2.078,9.012,4.589,14.048,7.676c0.356,0.218,0.468,0.684,0.25,1.041C90.034,93.546,89.785,93.674,89.531,93.674z"/>
	</g>
	<g>
		<path d="M110.141,123.652c-0.38,0-0.708-0.285-0.751-0.672c-0.051-0.461-0.33-0.959-0.626-1.486
			c-0.384-0.686-0.82-1.463-0.82-2.346c0-0.748,0.341-1.469,0.67-2.168c0.281-0.596,0.572-1.209,0.63-1.799
			c0.114-2.178-0.796-4.97-1.599-7.433c-0.134-0.412-0.265-0.813-0.388-1.201c-1.788-6.735-7.503-7.903-13.555-9.143
			c-0.41-0.083-0.674-0.483-0.59-0.893c0.083-0.41,0.485-0.675,0.893-0.59c6.237,1.275,12.687,2.596,14.705,10.204
			c0.111,0.351,0.241,0.747,0.374,1.154c0.843,2.588,1.799,5.521,1.668,8.016c-0.088,0.886-0.451,1.652-0.771,2.33
			c-0.271,0.572-0.525,1.113-0.525,1.521c0,0.487,0.304,1.031,0.626,1.605c0.356,0.637,0.725,1.293,0.81,2.059
			c0.046,0.416-0.253,0.791-0.668,0.836C110.197,123.652,110.168,123.652,110.141,123.652z"/>
	</g>
	<g>
		<path d="M94.288,98.432c-0.199,0-0.398-0.08-0.547-0.233c-3.015-3.152-5.656-4.946-10.24-4.813
			c-0.435-0.019-0.767-0.316-0.779-0.733c-0.013-0.418,0.316-0.767,0.733-0.779c5.116-0.158,8.152,1.904,11.379,5.278
			c0.289,0.302,0.278,0.782-0.024,1.071C94.664,98.361,94.476,98.432,94.288,98.432z"/>
	</g>
	<g>
		<path d="M82.613,123.725c-0.09,0-0.182-0.016-0.271-0.051c-0.456-0.175-0.929-0.384-1.415-0.598
			c-1.475-0.651-3.003-1.33-4.461-1.227c-0.411,0.028-0.777-0.287-0.805-0.705c-0.028-0.418,0.288-0.777,0.705-0.807
			c1.834-0.127,3.608,0.661,5.173,1.354c0.462,0.205,0.912,0.402,1.346,0.569c0.39,0.15,0.585,0.589,0.435,0.979
			C83.203,123.541,82.917,123.725,82.613,123.725z"/>
	</g>
	<g>
		<path d="M95.007,123.941c-0.171,0-0.342-0.06-0.484-0.176c-0.321-0.269-0.364-0.746-0.097-1.065
			c0.867-1.04,2.641-1.382,4.09-1.564c0.419-0.05,0.793,0.242,0.845,0.657c0.052,0.415-0.242,0.793-0.657,0.846
			c-1.672,0.209-2.721,0.555-3.117,1.03C95.439,123.848,95.224,123.941,95.007,123.941z"/>
	</g>
	<g>
		<path d="M89.846,131.773c-0.723,0-1.278-0.438-1.478-1.188c-0.108-0.403,0.132-0.817,0.536-0.926
			c0.402-0.108,0.818,0.132,0.926,0.536c0.019,0.07,0.037,0.096,0.038,0.096c0.018-0.018,0.35-0.064,0.953-0.469
			c1.19-0.799,2.219-2.127,2.28-2.485c-0.002-0.774-2.393-2.272-3.414-2.913c-0.485-0.304-0.907-0.57-1.186-0.779
			c-0.334-0.25-0.402-0.725-0.151-1.06c0.252-0.334,0.726-0.401,1.06-0.151c0.253,0.19,0.639,0.432,1.081,0.707
			c2.255,1.414,4.122,2.707,4.122,4.224c0,1.385-2.872,4.177-4.518,4.393C90.009,131.768,89.926,131.773,89.846,131.773z"/>
	</g>
	<g>
		<path d="M91.981,122.788c-0.596,0-1.113-0.287-1.568-0.54c-0.264-0.146-0.538-0.299-0.742-0.339
			c-0.253-0.052-0.584-0.021-0.936,0.011c-0.422,0.039-0.903,0.082-1.37-0.011c-0.863-0.144-1.536-0.362-2.187-0.574
			c-0.687-0.224-1.335-0.435-2.248-0.574c-2.204-0.219-3.844-0.584-4.835-1.079c-0.999-0.578-1.903-1.395-2.86-2.26
			c-1.781-1.609-3.618-3.273-5.583-2.865c-0.407,0.084-0.81-0.178-0.895-0.586c-0.085-0.41,0.177-0.811,0.586-0.896
			c2.71-0.569,4.94,1.448,6.906,3.225c0.896,0.81,1.743,1.575,2.563,2.05c0.773,0.385,2.277,0.707,4.308,0.91
			c1.074,0.164,1.812,0.404,2.525,0.635c0.626,0.205,1.217,0.396,1.993,0.524c0.276,0.056,0.609,0.024,0.959-0.007
			c0.424-0.039,0.902-0.081,1.37,0.011c0.436,0.087,0.832,0.308,1.18,0.5c0.309,0.173,0.629,0.351,0.833,0.351
			c0.96,0,1.329-0.482,1.951-1.407c0.268-0.4,0.572-0.854,0.973-1.255c0.27-0.27,0.527-0.521,0.776-0.762
			c0.928-0.906,1.729-1.688,2.606-2.895c0.241-0.344,0.48-0.708,0.72-1.072c0.451-0.685,0.911-1.384,1.437-2.035
			c-1.182,0.24-2.424,1.146-3.406,1.857c-0.394,0.296-0.948,0.575-1.535,0.87c-1.02,0.513-2.417,1.215-2.48,1.901
			c-0.019,0.211-0.126,0.404-0.295,0.535c-0.169,0.127-0.386,0.178-0.593,0.143c-0.527-0.096-0.933-0.206-1.289-0.305
			c-0.693-0.189-1.077-0.293-1.886-0.132c-0.25,0.037-0.319,0.091-0.471,0.208c-0.415,0.321-0.879,0.592-1.988,0.369
			c-0.545-0.091-1.046-0.383-1.53-0.665c-0.366-0.213-0.745-0.435-1.041-0.481c-0.311-0.053-0.668,0.008-1.048,0.072
			c-0.464,0.076-0.99,0.162-1.546,0.07c-1.385-0.296-2.424-1.125-3.429-1.925c-0.663-0.528-1.348-1.075-2.118-1.459
			c-1.59-0.608-4.288-0.929-6.02-0.261c-0.39,0.15-0.828-0.045-0.978-0.435s0.045-0.828,0.435-0.978
			c2.109-0.813,5.206-0.469,7.173,0.289c0.979,0.483,1.728,1.082,2.451,1.658c0.908,0.725,1.766,1.406,2.769,1.623
			c0.275,0.045,0.634-0.017,1.014-0.078c0.464-0.078,0.99-0.164,1.546-0.072c0.569,0.095,1.07,0.387,1.554,0.669
			c0.366,0.213,0.745,0.435,1.041,0.483c0.546,0.107,0.614,0.059,0.791-0.078c0.213-0.166,0.537-0.416,1.14-0.502
			c1.12-0.226,1.779-0.045,2.541,0.164c0.159,0.043,0.33,0.09,0.519,0.135c0.557-1.043,1.921-1.729,3.061-2.303
			c0.525-0.265,1.021-0.514,1.316-0.734c1.66-1.207,3.922-2.852,6.203-1.975c0.247,0.096,0.426,0.312,0.473,0.57
			c0.047,0.262-0.044,0.523-0.242,0.701c-0.898,0.798-1.58,1.834-2.302,2.93c-0.248,0.375-0.495,0.751-0.752,1.118
			c-0.96,1.321-1.804,2.146-2.781,3.099c-0.245,0.238-0.498,0.484-0.762,0.75c-0.296,0.297-0.535,0.65-0.787,1.025
			C94.567,121.636,93.792,122.788,91.981,122.788z"/>
	</g>
	<g>
		<path d="M108.411,106.791c-0.381,0-0.709-0.288-0.751-0.675c-0.537-4.968-1.436-13.281-1.733-18.923
			c-0.171-2.658,0.01-5.284,0.185-7.823c0.121-1.754,0.246-3.567,0.246-5.333c0-0.941-0.066-2.023-0.136-3.168
			c-0.174-2.843-0.37-6.064,0.388-8.448c0.126-0.397,0.55-0.617,0.951-0.492c0.398,0.127,0.618,0.552,0.492,0.951
			c-0.673,2.114-0.485,5.186-0.319,7.896c0.071,1.169,0.139,2.273,0.139,3.26c0,1.817-0.127,3.657-0.25,5.437
			c-0.172,2.49-0.349,5.064-0.184,7.63c0.295,5.609,1.191,13.897,1.727,18.849c0.045,0.416-0.255,0.789-0.671,0.834
			C108.466,106.789,108.438,106.791,108.411,106.791z"/>
	</g>
	<g>
		<path d="M111.439,161.775c-0.322,0-0.62-0.205-0.722-0.528c-0.507-1.606-0.31-4.824-0.101-8.229
			c0.161-2.617,0.328-5.324,0.079-6.629c-0.284-1.756-0.438-3.668-0.586-5.516c-0.241-2.989-0.49-6.081-1.269-8.678
			c-0.12-0.4,0.107-0.822,0.507-0.942c0.399-0.12,0.822,0.106,0.942,0.507c0.825,2.751,1.081,5.924,1.328,8.991
			c0.153,1.901,0.298,3.699,0.568,5.374c0.28,1.471,0.116,4.148-0.059,6.984c-0.183,2.973-0.39,6.343,0.033,7.682
			c0.125,0.398-0.095,0.824-0.494,0.95C111.591,161.766,111.514,161.775,111.439,161.775z"/>
	</g>
	<g>
		<path d="M119.366,153.057c-0.418,0-0.757-0.34-0.757-0.758c0-3.267,0.156-6.58,0.306-9.783c0.261-5.563,0.53-11.319-0.014-16.953
			c-0.214-1.854-0.466-3.724-0.718-5.593c-0.253-1.878-0.505-3.757-0.722-5.635c-0.18-1.735-0.12-3.481-0.062-5.17
			c0.086-2.511,0.167-4.883-0.489-7.097c-0.119-0.4,0.11-0.822,0.511-0.94c0.399-0.116,0.821,0.11,0.94,0.511
			c0.726,2.45,0.637,5.057,0.55,7.578c-0.056,1.639-0.114,3.331,0.053,4.954c0.216,1.86,0.468,3.729,0.718,5.599
			c0.254,1.877,0.506,3.756,0.723,5.636c0.558,5.755,0.285,11.563,0.021,17.183c-0.148,3.188-0.304,6.48-0.304,9.712
			C120.123,152.717,119.784,153.057,119.366,153.057z"/>
	</g>
	<g>
		<path d="M117.781,102.755c-0.025,0-0.05-0.001-0.075-0.004c-0.416-0.041-0.72-0.411-0.679-0.827
			c0.785-8.027,0.229-16.105-0.309-23.919c-0.346-5.021-0.704-10.214-0.704-15.355c0-0.418,0.339-0.757,0.757-0.757
			s0.757,0.339,0.757,0.757c0,5.088,0.355,10.255,0.7,15.251c0.542,7.875,1.103,16.018,0.305,24.169
			C118.495,102.463,118.166,102.755,117.781,102.755z"/>
	</g>
	<g>
		<path d="M20.76,71.624c-0.316,0-0.61-0.199-0.717-0.515c-0.134-0.396,0.079-0.825,0.475-0.958
			c7.338-2.474,15.271-3.37,22.942-4.236c5.817-0.657,11.833-1.336,17.479-2.701c7.444-1.729,18.154-3.532,26.945-2.32
			c0.414,0.057,0.703,0.439,0.646,0.853c-0.057,0.414-0.441,0.701-0.853,0.646c-8.558-1.18-19.075,0.596-26.389,2.294
			c-5.731,1.385-11.794,2.07-17.658,2.732c-7.592,0.857-15.443,1.744-22.628,4.166C20.922,71.611,20.84,71.624,20.76,71.624z"/>
	</g>
	<g>
		<path d="M141.65,63.142c-1.625,0-3.224-0.116-4.778-0.229c-1.535-0.111-3.122-0.227-4.7-0.227
			c-14.708-0.288-29.798-0.288-44.392-0.288c-0.418,0-0.757-0.339-0.757-0.757s0.339-0.757,0.757-0.757
			c14.601,0,29.698,0,44.406,0.289c0.002,0,0.002,0,0.004,0c1.615,0,3.229,0.117,4.791,0.23c1.901,0.138,3.871,0.278,5.826,0.203
			c1.817-0.08,3.616-0.333,5.521-0.601c1.471-0.208,2.992-0.422,4.535-0.55c4.678-0.39,9.837-0.579,15.771-0.579
			c0.756,0,1.256-0.009,1.631-0.016c1.162-0.02,1.201-0.015,3.254,0.293l0.127,0.019c0.414,0.063,0.699,0.448,0.638,0.861
			c-0.063,0.413-0.449,0.697-0.861,0.636l-0.128-0.02c-1.966-0.295-1.966-0.296-3.002-0.276c-0.38,0.007-0.891,0.016-1.656,0.016
			c-5.895,0-11.013,0.188-15.646,0.573c-1.5,0.125-3,0.336-4.451,0.541c-1.855,0.261-3.773,0.532-5.668,0.614
			C142.462,63.135,142.055,63.142,141.65,63.142z"/>
	</g>
	<g>
		<path d="M20.329,71.334c-0.289,0-0.565-0.167-0.691-0.448c-0.893-1.997-1.925-3.999-2.924-5.936
			c-1.741-3.376-3.541-6.869-4.744-10.57c-0.404-1.211-0.787-2.417-1.166-3.611c-0.979-3.083-1.904-5.994-3.133-8.864
			c-0.571-1.451-1.413-2.819-2.304-4.267c-1.542-2.506-3.137-5.097-3.234-8.113c-0.013-0.417,0.314-0.767,0.732-0.781
			c0.406-0.004,0.767,0.314,0.781,0.732c0.084,2.615,1.505,4.924,3.01,7.369c0.887,1.441,1.804,2.931,2.415,4.486
			c1.25,2.916,2.186,5.862,3.176,8.98c0.377,1.188,0.758,2.386,1.161,3.596c1.167,3.591,2.938,7.027,4.652,10.35
			c1.008,1.955,2.05,3.976,2.96,6.011c0.17,0.381,0,0.829-0.382,1C20.537,71.313,20.432,71.334,20.329,71.334z"/>
	</g>
	<g>
		<path d="M3.033,29.826c-0.281,0-0.551-0.157-0.682-0.427c-0.182-0.376-0.024-0.829,0.352-1.011c2.5-1.209,5.335-2.118,8.078-2.996
			c2.233-0.715,4.542-1.455,6.657-2.353c4.263-1.875,8.009-3.345,11.442-4.489c7.042-2.642,14.758-3.933,22.044-4.932
			c5.768-0.704,11.012-1.425,16.898-3.147c6.032-1.653,12.123-1.863,18.014-2.066c4.512-0.155,9.178-0.316,13.776-1.124
			c4.88-0.888,9.931-1.021,14.816-1.148c3.111-0.082,6.329-0.166,9.46-0.446c2.148-0.143,4.322-0.336,6.426-0.522
			c4.312-0.382,8.769-0.778,13.244-0.778h17.584c0.834,0,1.705-0.045,2.627-0.093c1.893-0.098,3.849-0.2,5.574,0.105
			c1.139,0.207,2.053,0.67,2.938,1.119c0.469,0.237,0.911,0.462,1.39,0.653c0.389,0.155,0.577,0.595,0.424,0.983
			c-0.156,0.388-0.599,0.575-0.984,0.422c-0.541-0.216-1.034-0.466-1.512-0.708c-0.824-0.418-1.604-0.813-2.521-0.979
			c-1.555-0.275-3.424-0.178-5.229-0.083c-0.902,0.047-1.834,0.096-2.707,0.096h-17.584c-4.41,0-8.832,0.392-13.109,0.771
			c-2.111,0.187-4.293,0.381-6.442,0.524c-3.163,0.283-6.404,0.368-9.539,0.45c-4.828,0.126-9.82,0.257-14.59,1.125
			c-4.707,0.827-9.426,0.99-13.99,1.147c-5.804,0.2-11.805,0.407-17.653,2.009c-5.983,1.751-11.292,2.482-17.116,3.192
			c-7.188,0.987-14.804,2.259-21.734,4.858c-3.415,1.139-7.118,2.592-11.347,4.452c-2.188,0.928-4.53,1.678-6.796,2.404
			c-2.692,0.863-5.477,1.754-7.88,2.917C3.256,29.801,3.144,29.826,3.033,29.826z"/>
	</g>
	<g>
		<path d="M173.538,61.246c-0.04,0-0.08-0.003-0.12-0.01c-0.413-0.065-0.693-0.453-0.628-0.866c0.75-4.71,0.206-9.277-0.369-14.112
			c-0.181-1.521-0.362-3.047-0.502-4.582c-0.166-2.485,0.126-4.872,0.409-7.179c0.223-1.814,0.451-3.69,0.451-5.573l0.005-1.496
			c0.014-3.922,0.028-7.979-0.849-11.736c-0.164-0.779-0.359-1.53-0.555-2.276c-0.5-1.93-1.018-3.926-0.906-6.006
			c0.021-0.417,0.375-0.735,0.795-0.716c0.418,0.022,0.737,0.378,0.717,0.795c-0.098,1.848,0.367,3.645,0.861,5.547
			c0.197,0.769,0.397,1.543,0.563,2.329c0.914,3.914,0.898,8.06,0.885,12.069l-0.003,1.491c0,1.975-0.235,3.897-0.463,5.757
			c-0.287,2.341-0.56,4.552-0.403,6.876c0.139,1.502,0.317,3.014,0.497,4.521c0.563,4.725,1.146,9.61,0.36,14.529
			C174.225,60.98,173.902,61.246,173.538,61.246z"/>
	</g>
	<g>
		<path d="M25.584,50.212c-1.457,0-3.033-0.327-4.672-0.983c-2.504-1.095-4.362-3.152-5.394-5.958
			c-1.778-4.837-0.8-10.641,0.959-14.245c0.184-0.375,0.638-0.53,1.012-0.349c0.029,0.014,0.056,0.029,0.082,0.046
			c2.014-0.98,5.146-0.558,6.4-0.245c0.401,0.1,0.648,0.504,0.553,0.907c-0.272,1.157-0.104,2.38,0.059,3.563
			c0.158,1.145,0.32,2.329,0.091,3.475c-0.082,0.41-0.479,0.674-0.891,0.594c-1.299-0.261-2.343-0.012-2.657,0.632
			c-0.327,0.671,0.175,1.717,1.28,2.663c3.048,2.569,6.536,0.09,7.53-0.73c0.169-0.14,0.389-0.2,0.607-0.162
			c0.217,0.037,0.406,0.165,0.521,0.353c2.105,3.46,3.18,5.96-0.909,9.067C28.859,49.755,27.305,50.212,25.584,50.212z
			 M17.373,30.744c-1.5,3.79-1.699,8.566-0.435,12.005c0.898,2.444,2.432,4.154,4.558,5.084c2.161,0.864,5.284,1.538,7.764-0.213
			c2.791-2.122,2.615-3.469,0.943-6.336c-3.068,2.183-6.302,2.268-8.777,0.182c-1.699-1.456-2.318-3.129-1.661-4.479
			c0.547-1.124,1.853-1.695,3.504-1.567c0.027-0.707-0.077-1.47-0.187-2.265c-0.149-1.083-0.302-2.197-0.166-3.354
			c-1.909-0.332-4.488-0.26-5.318,0.754C17.534,30.636,17.458,30.698,17.373,30.744z"/>
	</g>
	<g>
		<path d="M35.894,47.842c-0.025,0-0.051-0.001-0.077-0.004c-0.204-0.021-0.39-0.124-0.517-0.284
			c-4.743-6.009-5.352-13.805-5.352-19.926c0-0.412,0.33-0.747,0.739-0.756c0.107-0.137,0.262-0.237,0.446-0.274
			c0.323-0.064,0.756-0.207,1.215-0.358c1.538-0.506,3.644-1.197,4.607,0.248c0.266,0.398,0.306,1.064,0.334,2.488
			c0.009,0.444,0.021,1.051,0.059,1.208c0.009,0.036,0.016,0.077,0.019,0.115c0.27,2.964,0.92,5.443,2.095,7.947
			c1.314-0.427,2.625-1.011,3.899-1.577c1.396-0.621,2.84-1.263,4.276-1.693c0.354-0.106,0.729,0.057,0.894,0.386
			c0.723,1.445,1.089,3.208,1.089,5.239l0.001,0.346c0.011,1.978-0.356,2.241-2.423,2.832c-1.278,0.396-2.473,0.646-3.628,0.888
			c-2.586,0.541-4.82,1.007-7.191,3C36.243,47.78,36.071,47.842,35.894,47.842z M31.463,28.075
			c0.029,5.594,0.636,12.518,4.567,17.937c2.436-1.825,4.771-2.313,7.232-2.828c1.122-0.234,2.281-0.477,3.506-0.857
			c0.513-0.147,1.192-0.341,1.303-0.457c0.044-0.091,0.042-0.53,0.04-0.917L48.109,40.6c0-1.495-0.229-2.854-0.668-3.972
			c-1.133,0.387-2.27,0.893-3.463,1.423c-1.518,0.675-3.087,1.373-4.705,1.835c-0.353,0.1-0.722-0.063-0.885-0.389
			c-1.433-2.866-2.212-5.647-2.522-9.013c-0.063-0.305-0.075-0.771-0.089-1.478c-0.01-0.527-0.03-1.509-0.115-1.742
			c-0.291-0.425-1.887,0.1-2.841,0.414C32.331,27.839,31.867,27.991,31.463,28.075z"/>
	</g>
	<g>
		<path d="M45.406,36.6c-0.164,0-0.329-0.053-0.467-0.162c-2.262-1.777-4.769-6.156-4.612-9.138
			c0.022-0.417,0.371-0.736,0.795-0.716c0.417,0.022,0.738,0.378,0.716,0.795c-0.126,2.387,2.152,6.389,4.036,7.869
			c0.328,0.258,0.385,0.734,0.127,1.062C45.852,36.501,45.63,36.6,45.406,36.6z"/>
	</g>
	<g>
		<path d="M53.16,42.552c-1.125,0-2.596-0.433-3.777-2.263c-0.227-0.351-0.125-0.819,0.226-1.046
			c0.351-0.226,0.82-0.126,1.046,0.226c0.73,1.132,1.619,1.644,2.722,1.563c2.087-0.153,4.556-2.49,5.466-4.492
			c1.843-3.97,2.179-9.245,0.838-13.133c-0.059-0.176-0.11-0.355-0.162-0.536c-0.11-0.387-0.242-0.849-0.41-1.039
			c-1.033,0.493-2.1,1.016-2.389,1.183c-0.336,0.439-0.194,1.204,0.081,2.387c0.13,0.561,0.265,1.141,0.314,1.732
			c0.319,3.834-0.233,6.234-1.688,7.338c-1.045,0.793-2.468,0.862-4.23,0.208c-2.504-0.974-3.578-3.446-4.44-5.433
			c-0.151-0.347-0.298-0.687-0.449-1.01c-0.166-0.447-0.251-0.762-0.32-1.017c-0.043-0.162-0.098-0.363-0.13-0.417
			c0.021,0.036-0.134-0.004-0.739-0.004c-0.042,0-0.083-0.003-0.124-0.01c-0.62-0.109-2.41,0.79-2.997,1.083
			c-0.374,0.186-0.828,0.035-1.015-0.338s-0.036-0.828,0.338-1.015c1.33-0.666,2.826-1.367,3.852-1.233
			c1.513,0.006,1.942,0.302,2.275,1.54c0.06,0.222,0.133,0.496,0.255,0.832c0.131,0.274,0.284,0.626,0.44,0.986
			c0.829,1.907,1.686,3.88,3.591,4.621c1.234,0.458,2.172,0.46,2.777,0c0.684-0.52,1.43-1.983,1.095-6.007
			c-0.041-0.481-0.163-1.007-0.281-1.515c-0.296-1.272-0.631-2.714,0.321-3.802c0.134-0.137,0.271-0.274,3.128-1.627
			c0.14-0.065,0.295-0.087,0.448-0.063c1.178,0.196,1.509,1.356,1.751,2.203c0.045,0.159,0.09,0.317,0.14,0.465
			c1.457,4.226,1.098,9.956-0.896,14.251c-1.102,2.423-3.99,5.168-6.73,5.369C53.382,42.548,53.272,42.552,53.16,42.552z"/>
	</g>
	<g>
		<path d="M67.319,41.065c-0.634,0-1.235-0.106-1.769-0.357c-1.984-0.992-4.218-8.084-4.447-9.004
			c-0.102-0.406,0.145-0.816,0.55-0.917c0.407-0.103,0.817,0.145,0.917,0.55c0.552,2.21,2.673,7.527,3.64,8.01
			c1.871,0.879,5.91-1.122,8.167-2.684c1.408-1.005,2.989-2.779,3.113-4.282c0.052-0.621-0.152-1.152-0.624-1.623
			c-1.075-1.076-4.188-1.076-5.518-1.076c-0.401,0-0.732-0.313-0.755-0.712c-0.062-1.053,0.616-2.22,1.334-3.456
			c0.759-1.307,1.62-2.788,1.291-3.759c-0.165-0.484-0.634-0.88-1.437-1.21c-2.267-0.933-7.888-0.214-9.844,0.958
			c-0.357,0.215-0.823,0.1-1.038-0.26c-0.215-0.358-0.099-0.823,0.26-1.038c2.315-1.389,8.496-2.172,11.199-1.06
			c1.214,0.5,1.985,1.214,2.294,2.124c0.55,1.622-0.494,3.419-1.416,5.005c-0.386,0.665-0.781,1.344-0.987,1.899
			c1.832,0.03,4.4,0.225,5.688,1.514c0.782,0.783,1.149,1.757,1.062,2.818c-0.177,2.131-2.131,4.238-3.751,5.395
			C74.699,38.28,70.567,41.065,67.319,41.065z"/>
	</g>
	<g>
		<path d="M65.472,28.543c-0.086,0-0.173-0.006-0.26-0.02c-1.528-0.231-2.4-2.507-2.682-4.387c-0.043-0.288,0.082-0.562,0.301-0.723
			c0.041-0.17,0.142-0.328,0.295-0.438c1.388-0.991,3.198-1.066,4.305-0.18c0.941,0.753,1.158,2.022,0.58,3.396
			C67.256,27.763,66.407,28.543,65.472,28.543z M64.068,24.165c0.302,1.697,0.985,2.804,1.37,2.862
			c0.167,0.024,0.612-0.248,1.195-1.457c0.203-0.485,0.358-1.189-0.146-1.592C65.998,23.587,64.969,23.556,64.068,24.165z"/>
	</g>
	<g>
		<path d="M69.08,37.054c-0.518,0-1.002-0.166-1.385-0.485c-0.53-0.526-0.745-1.25-0.952-1.95c-0.146-0.49-0.294-0.994-0.513-1.337
			c-0.37,0.033-0.719-0.21-0.806-0.583c-0.094-0.407,0.16-0.813,0.567-0.908c2.058-0.474,4.733-0.77,5.807,0.52
			c0.552,0.664,0.586,1.566,0.102,2.681c-0.395,0.987-1.216,1.736-2.189,1.982C69.498,37.027,69.286,37.054,69.08,37.054z
			 M67.784,32.997c0.172,0.391,0.294,0.805,0.409,1.192c0.147,0.495,0.313,1.056,0.521,1.264c0.167,0.134,0.467,0.095,0.625,0.054
			c0.39-0.099,0.9-0.438,1.164-1.098c0.143-0.329,0.337-0.883,0.131-1.13C70.369,32.958,69.39,32.78,67.784,32.997z"/>
	</g>
	<g>
		<path d="M90.969,33.285c-0.145,0-0.29-0.041-0.419-0.127c-0.649-0.433-1.119-1.098-1.454-1.92
			c-0.323,0.675-0.735,1.178-1.26,1.457c-0.561,0.297-1.497,0.466-2.771-0.407c-1.098-0.783-1.531-2.022-1.202-3.408
			c0.408-1.718,1.846-3.189,3.344-3.421c0.293-0.045,0.701-0.059,1.146,0.074c0.024-1.585,0.152-3.2,0.266-4.64
			c0.039-0.491,0.075-0.95,0.103-1.359c0.003-0.612,0.018-1.003,0.059-1.254c0.065-0.388,0.403-0.669,0.809-0.629
			c0.392,0.032,0.694,0.36,0.694,0.754c0,0.328-0.019,0.728-0.049,1.183c-0.001,0.336,0,0.719,0.003,1.11
			c0.011,2.191-0.009,4.378-0.188,6.285c0.151,0.281,0.107,0.62-0.093,0.852c-0.003,0.027-0.007,0.054-0.01,0.081
			c0.146,1.834,0.547,3.388,1.442,3.984c0.348,0.231,0.441,0.702,0.209,1.049C91.453,33.167,91.213,33.285,90.969,33.285z
			 M87.628,26.937c-0.081,0-0.146,0.01-0.189,0.017c-0.879,0.136-1.843,1.178-2.104,2.276c-0.129,0.543-0.13,1.299,0.597,1.818
			c0.509,0.349,0.915,0.456,1.194,0.309c0.669-0.354,1.061-1.737,1.289-3.432c-0.017-0.217-0.03-0.437-0.04-0.658
			C88.087,26.991,87.815,26.937,87.628,26.937z"/>
	</g>
	<g>
		<path d="M98.827,33.045c-1.719,0-3.608-0.234-4.476-1.721c-0.518-0.948-0.525-2.344-0.029-3.751
			c0.502-1.427,1.403-2.53,2.41-2.949c1.506-0.699,2.312-0.365,2.717,0.04c0.572,0.571,0.612,1.566,0.106,2.662
			c-0.651,1.413-2.153,2.861-4.009,2.939c0.031,0.116,0.072,0.222,0.123,0.315c0.614,1.052,2.759,0.978,4.324,0.925
			c0.333-0.011,0.645-0.022,0.921-0.022c0.418,0,0.757,0.339,0.757,0.757s-0.339,0.757-0.757,0.757c-0.26,0-0.554,0.01-0.869,0.021
			C99.661,33.031,99.249,33.045,98.827,33.045z M98.302,25.726c-0.123,0-0.416,0.029-0.961,0.282
			c-0.626,0.262-1.24,1.068-1.592,2.066c-0.079,0.226-0.142,0.452-0.188,0.673c1.054-0.084,1.935-0.907,2.397-1.646
			c0.447-0.713,0.478-1.262,0.415-1.375C98.374,25.73,98.352,25.726,98.302,25.726z"/>
	</g>
	<g>
		<path d="M25.497,65.417c-0.352,0-0.709-0.056-1.071-0.169c-0.798-0.228-1.304-0.604-1.53-1.146
			c-0.362-0.867,0.14-1.782,0.672-2.751c0.134-0.244,0.274-0.5,0.407-0.766c1.407-2.815,2.694-3.563,5.554-3.083
			c0.003-0.017,0.006-0.034,0.009-0.05c-0.263-1.212-0.176-2.554-0.09-3.876c0.025-0.392,0.051-0.79,0.069-1.189
			c0.015-0.356,0.277-0.653,0.629-0.713c0.351-0.06,0.697,0.135,0.83,0.465c0.441,1.103,0.473,3.13,0.112,5.275
			c0.287,0.996,0.921,1.717,2.205,2.23l0.356,0.122c0.522,0.182,0.929,0.315,1.279,0.348c-0.363-0.373-0.631-0.804-0.77-1.289
			c-0.513-1.711,0.393-3.546,1.453-4.523c0.809-0.745,1.69-1.006,2.415-0.725c0.495,0.194,1.107,0.715,1.218,2.096
			c0.002,0.673-0.801,3.028-1.56,4.336c0.866,0.282,1.901,0.409,2.911,0.308c0.75-0.075,2.508-0.396,2.617-1.762
			c0.033-0.417,0.403-0.722,0.815-0.694c0.417,0.034,0.727,0.398,0.694,0.815c-0.139,1.736-1.625,2.913-3.976,3.146
			c-1.376,0.139-2.914-0.079-4.167-0.62c-1.198,0.767-2.419,0.342-3.427-0.01l-0.378-0.13c-0.975-0.389-1.68-0.887-2.186-1.462
			c-0.507,1.726-1.268,3.349-2.276,4.438C27.466,64.951,26.508,65.417,25.497,65.417z M28.111,58.871
			c-1.298,0-1.907,0.636-2.783,2.389c-0.142,0.284-0.291,0.557-0.434,0.816c-0.256,0.466-0.684,1.246-0.603,1.441
			c0.015,0.035,0.15,0.161,0.567,0.28c0.846,0.265,1.606,0.006,2.339-0.787c0.867-0.937,1.537-2.441,1.983-4.036
			C28.776,58.908,28.424,58.871,28.111,58.871z M37.424,54.978c-0.127,0-0.418,0.095-0.788,0.436
			c-0.748,0.689-1.34,1.936-1.026,2.985c0.1,0.347,0.359,0.668,0.731,0.946c0.493-0.826,1.374-3.115,1.391-3.615
			c-0.045-0.531-0.206-0.724-0.258-0.745C37.461,54.981,37.445,54.978,37.424,54.978z"/>
	</g>
	<g>
		<path d="M52.181,60.093c-0.418,0-0.757-0.339-0.757-0.757c0-1.879-0.238-3.702-0.491-5.632c-0.255-1.945-0.518-3.957-0.518-6.042
			c0-0.418,0.339-0.757,0.757-0.757s0.757,0.339,0.757,0.757c0,1.987,0.256,3.949,0.505,5.846c0.248,1.894,0.504,3.851,0.504,5.829
			C52.938,59.754,52.599,60.093,52.181,60.093z"/>
	</g>
	<g>
		<path d="M56.505,58.796c-0.051,0-0.103-0.005-0.155-0.016c-0.409-0.085-0.672-0.486-0.586-0.896
			c0.392-1.88-0.002-3.824-0.42-5.882c-0.297-1.466-0.605-2.982-0.605-4.485c0-0.382,0.285-0.705,0.665-0.751
			c0.379-0.052,0.733,0.197,0.826,0.567c0.606,2.428,3.392,6.664,5.988,8.081c0.097-0.622,0.069-1.366,0.041-2.14
			c-0.038-1.003-0.076-2.04,0.137-3.033c0.089-0.737,0.314-1.466,0.533-2.171c0.117-0.38,0.237-0.765,0.338-1.169
			c0.101-0.406,0.51-0.654,0.917-0.55c0.405,0.101,0.652,0.512,0.55,0.917c-0.107,0.431-0.234,0.843-0.36,1.249
			c-0.208,0.672-0.404,1.306-0.488,1.976c-0.184,0.874-0.149,1.814-0.115,2.724c0.046,1.233,0.094,2.508-0.379,3.548
			c-0.16,0.353-0.561,0.529-0.928,0.405c-1.985-0.662-4.037-2.771-5.544-5.013c0.396,1.975,0.749,4.007,0.326,6.035
			C57.171,58.55,56.856,58.796,56.505,58.796z"/>
	</g>
	<g>
		<path d="M68.467,55.917c-0.418,0-0.757-0.339-0.757-0.757v-3.03c0-1.018-0.037-1.999-0.073-2.961
			c-0.036-0.946-0.071-1.875-0.071-2.804c0-0.418,0.339-0.757,0.757-0.757c0.418,0,0.757,0.339,0.757,0.757
			c0,0.91,0.034,1.82,0.069,2.747c0.037,0.981,0.075,1.981,0.075,3.019v3.031C69.224,55.579,68.885,55.917,68.467,55.917z"/>
	</g>
	<g>
		<path d="M73.801,46.545c-0.038,0-0.077-0.003-0.116-0.009c-1.163-0.18-2.349-0.12-3.605-0.058
			c-0.668,0.033-1.348,0.067-2.044,0.067c-0.418,0-0.757-0.339-0.757-0.757s0.339-0.757,0.757-0.757c0.671,0,1.326-0.033,1.97-0.064
			c1.277-0.063,2.597-0.128,3.911,0.073c0.413,0.063,0.696,0.45,0.633,0.863C74.49,46.277,74.168,46.545,73.801,46.545z"/>
	</g>
	<g>
		<path d="M72.359,51.589H68.9c-0.418,0-0.757-0.339-0.757-0.757s0.339-0.757,0.757-0.757h3.459c0.418,0,0.757,0.339,0.757,0.757
			S72.777,51.589,72.359,51.589z"/>
	</g>
	<g>
		<path d="M81.582,55.769c-0.361,0-0.681-0.259-0.745-0.627c-0.18-1.036-0.265-2.068-0.346-3.066c-0.147-1.79-0.287-3.5-0.951-5.11
			c-1.165,2.127-2.425,4.58-3.142,6.967c-0.12,0.401-0.543,0.629-0.942,0.507c-0.4-0.12-0.627-0.542-0.507-0.942
			c0.907-3.024,2.597-6.065,3.955-8.51c0.13-0.234,0.375-0.382,0.644-0.389c0.287-0.028,0.52,0.13,0.662,0.358
			c1.403,2.267,1.6,4.67,1.791,6.995c0.079,0.964,0.161,1.962,0.329,2.93c0.071,0.412-0.204,0.804-0.616,0.875
			C81.669,55.765,81.625,55.769,81.582,55.769z"/>
	</g>
	<g>
		<path d="M76.394,52.598c-0.333,0-0.638-0.221-0.729-0.558c-0.11-0.403,0.128-0.819,0.531-0.929
			c1.379-0.376,2.928-0.35,4.296-0.326c0.324,0.005,0.641,0.011,0.947,0.011c0.418,0,0.757,0.339,0.757,0.757
			c0,0.418-0.339,0.757-0.757,0.757c-0.314,0-0.641-0.006-0.973-0.011c-1.327-0.024-2.701-0.047-3.873,0.272
			C76.526,52.589,76.459,52.598,76.394,52.598z"/>
	</g>
	<g>
		<path d="M84.465,55.481c-0.418,0-0.757-0.339-0.757-0.757v-9.081c0-0.357,0.25-0.666,0.6-0.74
			c0.347-0.077,0.704,0.105,0.849,0.433c0.855,1.925,2.156,3.552,3.48,5.1c-0.033-0.937-0.175-2.063-0.307-3.108
			c-0.153-1.21-0.297-2.353-0.297-3.27c0-0.418,0.339-0.757,0.757-0.757s0.757,0.339,0.757,0.757c0,0.822,0.138,1.918,0.285,3.08
			c0.256,2.032,0.521,4.133,0.108,5.375c-0.086,0.259-0.305,0.451-0.572,0.503c-0.269,0.051-0.543-0.043-0.72-0.25l-0.551-0.639
			c-0.986-1.141-1.994-2.307-2.874-3.603v6.2C85.222,55.142,84.883,55.481,84.465,55.481z"/>
	</g>
	<g>
		<path d="M93.689,44.095c-0.418,0-0.757-0.339-0.757-0.757s0.339-0.757,0.757-0.757c2.339,0,4.76-0.151,6.818-0.426
			c0.42-0.051,0.795,0.236,0.85,0.65c0.055,0.414-0.236,0.795-0.65,0.85C98.585,43.938,96.093,44.095,93.689,44.095z"/>
	</g>
	<g>
		<path d="M97.437,53.031c-0.418,0-0.757-0.339-0.757-0.757c0-1.059-0.016-2.101-0.032-3.138c-0.031-2.032-0.063-4.134,0.033-6.265
			c0.02-0.417,0.373-0.734,0.79-0.722c0.417,0.019,0.741,0.373,0.722,0.79c-0.095,2.085-0.064,4.071-0.032,6.173
			c0.017,1.045,0.033,2.095,0.033,3.161C98.194,52.692,97.855,53.031,97.437,53.031z"/>
	</g>
	<g>
		<path d="M105.799,52.28c-0.501,0-1.028-0.101-1.57-0.308c-2.023-0.837-2.962-2.778-2.413-4.953
			c0.497-1.963,2.202-3.913,4.528-4.148c-0.019-0.128-0.005-0.262,0.046-0.39c0.155-0.389,0.596-0.576,0.983-0.422
			c2.511,1.004,3.091,4.694,2.042,7.378C108.696,51.277,107.377,52.28,105.799,52.28z M106.838,44.362
			c-1.753,0-3.165,1.487-3.554,3.029c-0.176,0.695-0.381,2.395,1.505,3.175c1.934,0.739,2.847-0.735,3.217-1.68
			c0.583-1.492,0.502-3.526-0.292-4.672c-0.15,0.122-0.346,0.188-0.554,0.165C107.052,44.368,106.944,44.362,106.838,44.362z"/>
	</g>
	<g>
		<path d="M113.58,47.554h-2.45c-0.418,0-0.757-0.339-0.757-0.757s0.339-0.757,0.757-0.757h2.45c0.418,0,0.757,0.339,0.757,0.757
			S113.998,47.554,113.58,47.554z"/>
	</g>
	<g>
		<path d="M116.491,53.481c-1.218,0-2.439-0.72-3.253-1.94c-0.232-0.348-0.138-0.818,0.209-1.049
			c0.348-0.23,0.818-0.138,1.049,0.209c0.575,0.862,1.396,1.345,2.171,1.257c0.623-0.072,1.117-0.515,1.392-1.247
			c0.778-2.466,0.402-6.024,0.127-8.623l-0.027-0.257c-0.044-0.416,0.258-0.788,0.673-0.832c0.418-0.047,0.788,0.258,0.832,0.673
			l0.027,0.256c0.289,2.731,0.684,6.471-0.203,9.275c-0.489,1.31-1.45,2.119-2.648,2.257
			C116.725,53.475,116.608,53.481,116.491,53.481z"/>
	</g>
	<g>
		<path d="M114.589,43.519c-0.269,0-0.53-0.144-0.667-0.398c-0.198-0.368-0.061-0.827,0.307-1.025
			c1.92-1.034,5.958-1.829,8.478-1.675c0.417,0.026,0.734,0.385,0.708,0.803c-0.026,0.417-0.373,0.731-0.804,0.708
			c-2.256-0.144-5.974,0.587-7.666,1.497C114.833,43.489,114.71,43.519,114.589,43.519z"/>
	</g>
	<g>
		<path d="M126.497,51.16c-0.044,0-0.089-0.001-0.134-0.004c-0.549-0.039-1.027-0.293-1.396-0.736
			c-1.355-1.63-0.984-5.655-0.896-6.445c0.046-0.415,0.414-0.72,0.836-0.668c0.414,0.046,0.714,0.42,0.668,0.836
			c-0.176,1.582-0.182,4.422,0.557,5.309c0.133,0.16,0.242,0.188,0.331,0.194c0.146,0.012,0.353-0.017,0.597-0.297
			c1.021-1.173,1.139-4.734,0.914-5.862c-0.082-0.41,0.185-0.809,0.594-0.891c0.41-0.08,0.81,0.185,0.892,0.594
			c0.226,1.119,0.271,5.397-1.257,7.152C127.732,50.879,127.146,51.16,126.497,51.16z"/>
	</g>
	<g>
		<path d="M134.479,52.166c-0.229,0-0.445-0.104-0.59-0.284c-1.048-1.309-1.377-3.015-1.695-4.666
			c-0.26-1.347-0.506-2.619-1.104-3.639c-0.212-0.36-0.092-0.824,0.271-1.036c0.357-0.213,0.824-0.092,1.035,0.269
			c0.731,1.245,1.015,2.706,1.287,4.12c0.195,1.016,0.385,1.995,0.727,2.836c0.207-0.614,0.365-1.298,0.529-2.004
			c0.199-0.853,0.403-1.735,0.711-2.533c0.16-0.538,0.418-1.089,0.666-1.622c0.373-0.798,0.726-1.553,0.726-2.287
			c0-0.418,0.339-0.757,0.757-0.757s0.758,0.339,0.758,0.757c0,1.07-0.44,2.014-0.869,2.927c-0.235,0.506-0.459,0.983-0.604,1.47
			c-0.288,0.755-0.475,1.548-0.668,2.388c-0.305,1.303-0.617,2.65-1.292,3.71c-0.131,0.206-0.354,0.336-0.599,0.349
			C134.506,52.166,134.492,52.166,134.479,52.166z"/>
	</g>
	<g>
		<path d="M142.549,51.445c-0.814,0-1.572-0.227-2.376-0.467c-0.315-0.094-0.64-0.192-0.978-0.276
			c-0.194-0.048-0.362-0.172-0.465-0.345c-0.104-0.172-0.135-0.378-0.086-0.573c0.207-0.825,0.479-1.658,0.742-2.463
			c0.303-0.925,0.614-1.881,0.84-2.856c0.154-0.498,0.268-0.926,0.371-1.325c0.35-1.333,0.649-2.485,1.661-2.846
			c0.777-0.277,1.716,0.028,3.041,0.992c0.339,0.246,0.413,0.719,0.167,1.057c-0.244,0.338-0.718,0.413-1.057,0.167
			c-1.232-0.897-1.604-0.804-1.643-0.79c-0.26,0.092-0.519,1.082-0.707,1.804c-0.109,0.422-0.229,0.875-0.377,1.34
			c-0.225,0.983-0.547,1.972-0.859,2.929c-0.186,0.565-0.363,1.109-0.52,1.647c0.102,0.03,0.2,0.06,0.299,0.09
			c0.727,0.216,1.352,0.403,1.943,0.403c0.418,0,0.758,0.339,0.758,0.757S142.967,51.445,142.549,51.445z"/>
	</g>
	<g>
		<path d="M144.279,47.121c-0.03,0-0.063-0.002-0.094-0.006c-1.105-0.138-2.401-0.138-3.653-0.138c-0.419,0-0.757-0.339-0.757-0.757
			c0-0.418,0.338-0.757,0.757-0.757c1.299,0,2.642,0,3.841,0.149c0.415,0.052,0.709,0.43,0.658,0.844
			C144.982,46.841,144.656,47.121,144.279,47.121z"/>
	</g>
	<g>
		<path d="M145.865,51.878c-0.088,0-0.178-0.016-0.266-0.048c-0.393-0.146-0.592-0.583-0.443-0.974
			c0.654-1.744,1.156-3.993,1.6-5.977c0.133-0.59,0.262-1.167,0.389-1.714c0.067-0.286,0.295-0.507,0.582-0.567
			s0.584,0.052,0.76,0.287c0.367,0.489,0.63,1.381,1.027,2.798c0.287,1.028,1.207,4.165,1.771,4.108
			c0.914-0.27,1.534-6.161,1.188-7.889c-0.082-0.41,0.185-0.809,0.594-0.891c0.412-0.08,0.81,0.185,0.892,0.594
			c0.274,1.381,0.127,7.052-1.304,8.94c-0.438,0.578-0.924,0.729-1.256,0.754c-1.816,0.134-2.604-2.578-3.342-5.208
			c-0.004-0.014-0.009-0.028-0.013-0.042c-0.409,1.809-0.875,3.746-1.472,5.338C146.459,51.69,146.171,51.878,145.865,51.878z"/>
	</g>
	<g>
		<path d="M154.945,50.725c-0.025,0-0.053-0.001-0.079-0.004c-0.416-0.043-0.718-0.416-0.673-0.832
			c0.104-1.006,0.152-2.083,0.199-3.124c0.078-1.788,0.16-3.636,0.535-5.321c0.09-0.407,0.494-0.663,0.901-0.575
			c0.407,0.091,0.665,0.495,0.573,0.903c-0.346,1.555-0.424,3.337-0.5,5.06c-0.047,1.064-0.096,2.164-0.207,3.215
			C155.656,50.436,155.328,50.725,154.945,50.725z"/>
	</g>
	<g>
		<path d="M161.042,51.828c-0.862,0-1.718-0.058-2.533-0.261c-0.389-0.097-0.635-0.481-0.56-0.875
			c0.563-2.957,0.563-5.998,0.563-8.938c0-0.418,0.338-0.757,0.756-0.757s0.758,0.339,0.758,0.757c0,2.77,0,5.625-0.459,8.476
			c0.97,0.13,2.043,0.084,3.088,0.039c0.56-0.024,1.115-0.048,1.66-0.048c0.418,0,0.756,0.339,0.756,0.757s-0.338,0.757-0.756,0.757
			c-0.522,0-1.059,0.023-1.594,0.046C162.164,51.803,161.602,51.828,161.042,51.828z"/>
	</g>
	<g>
		<path d="M110.64,35.417c-0.607,0-1.151-0.165-1.627-0.494c-1.697-1.175-1.729-4.011-1.665-5.176
			c0.07-0.979,0.171-1.946,0.275-2.928c0.113-1.067,0.227-2.152,0.302-3.277c-0.002-0.623-0.058-1.434-0.116-2.292
			c-0.187-2.714-0.397-5.79,0.806-7.715c0.052-0.084,0.119-0.154,0.194-0.209c0.07-0.291,0.31-0.523,0.624-0.571
			c1.184-0.177,2.382-0.503,3.651-0.848c1.71-0.465,3.478-0.946,5.215-1.033c0.999-0.135,1.702-0.229,2.229,0.178
			c0.476,0.368,0.543,0.928,0.639,1.702c0.021,0.188,0.049,0.402,0.083,0.643c0.089,0.439,0.38,3-0.071,3.905
			c-0.814,1.426-2.428,1.36-3.857,1.303c-1.456-0.058-2.455-0.043-2.984,0.679c-0.524,0.746-0.622,1.206-0.543,1.37
			c0.228,0.475,1.966,0.587,2.9,0.647c0.828,0.053,1.542,0.099,2.048,0.283c0.385,0.14,0.589,0.561,0.459,0.95
			c-0.083,0.249-0.153,0.909-0.215,1.491c-0.18,1.694-0.321,2.754-0.913,3.199c-0.557,0.418-1.404,0.301-2.3,0.179
			c-0.379-0.052-1.014-0.14-1.192-0.081c-1.056,0.368-1.028,1.262-0.72,3.217c0.255,1.619,0.573,3.635-1.281,4.415
			C111.876,35.262,111.229,35.417,110.64,35.417z M109.966,14.201c-0.018,0.046-0.04,0.091-0.067,0.134
			c-0.943,1.51-0.742,4.449-0.58,6.81c0.061,0.885,0.118,1.721,0.118,2.446c-0.078,1.195-0.194,2.3-0.309,3.386
			c-0.102,0.965-0.202,1.916-0.27,2.865c-0.103,1.856,0.286,3.331,1.016,3.837c0.474,0.328,1.182,0.29,2.104-0.115
			c0.697-0.294,0.648-1.115,0.384-2.79c-0.27-1.713-0.64-4.061,1.689-4.871c0.488-0.195,1.185-0.101,1.923,0
			c0.35,0.048,0.905,0.123,1.159,0.095c0.157-0.385,0.277-1.508,0.344-2.134c0.038-0.354,0.073-0.684,0.114-0.977
			c-0.3-0.033-0.652-0.056-0.998-0.078c-1.667-0.107-3.558-0.229-4.168-1.504c-0.373-0.778-0.15-1.729,0.679-2.907
			c1.054-1.438,2.839-1.366,4.274-1.308c1.322,0.053,2.146,0.046,2.461-0.505c0.134-0.331,0.072-2.152-0.084-2.935
			c-0.043-0.294-0.071-0.518-0.095-0.715c-0.03-0.244-0.063-0.513-0.098-0.664c-0.264-0.01-0.811,0.064-1.127,0.106
			c-1.636,0.084-3.324,0.543-4.956,0.987C112.328,13.679,111.138,14.003,109.966,14.201z"/>
	</g>
	<g>
		<path d="M128.271,37.759c-0.492,0-0.918-0.103-1.287-0.418c-0.53-0.452-0.756-1.202-0.756-2.508c0-0.615,0.123-1.212,0.231-1.739
			c0.265-1.273,0.261-1.631-0.271-1.921c-0.557-0.377-0.858-0.434-0.967-0.384c-0.309,0.145-0.527,0.993-0.654,2.521l-0.012,0.176
			c-0.086,1.32-0.16,2.46-1.018,3.077c-0.626,0.452-1.49,0.501-2.801,0.155c-2.714-0.724-2.602-1.873-2.144-4.008
			c0.464-1.967,1.11-3.926,1.735-5.82c1.198-3.64,2.438-7.403,2.438-11.082c0-0.418,0.34-0.757,0.758-0.757
			c0.183,0,0.35,0.064,0.479,0.171c1.64-1.173,3.253-1.572,4.798-1.179c2.022,0.512,3.777,2.364,5.073,5.355
			c1.354,3.129,0.95,6.58,0.56,9.917c-0.183,1.533-0.353,2.981-0.353,4.364c0,3.121-0.452,3.616-3.454,3.782
			c-0.326,0.04-0.671,0.095-0.982,0.145C129.141,37.687,128.684,37.759,128.271,37.759z M125.307,29.259
			c0.506,0,1.067,0.209,1.674,0.627c1.521,0.824,1.197,2.379,0.963,3.515c-0.1,0.479-0.2,0.973-0.2,1.433
			c0,1.108,0.188,1.325,0.225,1.357c0.149,0.127,0.865,0.012,1.442-0.079c0.331-0.053,0.693-0.11,1.09-0.157
			c2.07-0.116,2.07-0.116,2.07-2.275c0-1.472,0.185-3.032,0.361-4.541c0.368-3.138,0.75-6.383-0.443-9.139
			c-1.088-2.508-2.526-4.103-4.057-4.49c-1.184-0.299-2.481,0.098-3.861,1.181c-0.096,0.075-0.203,0.124-0.314,0.146
			c-0.193,3.571-1.357,7.102-2.486,10.526c-0.644,1.95-1.25,3.792-1.686,5.626c-0.402,1.879-0.402,1.879,1.044,2.266
			c1.084,0.284,1.431,0.151,1.529,0.08c0.276-0.199,0.335-1.088,0.391-1.947l0.015-0.19c0.135-1.617,0.36-3.229,1.515-3.775
			C124.805,29.313,125.048,29.259,125.307,29.259z"/>
	</g>
	<g>
		<path d="M127.852,26.366c-0.062,0-0.123-0.007-0.185-0.023c-0.196-0.049-0.396-0.103-0.592-0.156
			c-0.89-0.242-1.731-0.468-2.5-0.276c-0.406,0.103-0.816-0.146-0.917-0.55c-0.063-0.253,0.009-0.508,0.17-0.688
			c0.031-0.214,0.063-0.457,0.093-0.716c0.229-1.883,0.638-5.038,3.116-4.866c0.422,0.035,1.001,0.223,1.436,0.923
			c0.955,1.545,0.555,4.693,0.082,5.877C128.436,26.183,128.152,26.366,127.852,26.366z M125.398,24.328
			c0.666,0.029,1.309,0.193,1.938,0.362c0.271-1.217,0.324-3.111-0.152-3.882c-0.123-0.198-0.217-0.206-0.262-0.21
			c-0.951-0.051-1.277,1.713-1.5,3.54C125.415,24.202,125.407,24.266,125.398,24.328z"/>
	</g>
	<g>
		<path d="M148.553,37.625c-0.144,0-0.293-0.007-0.447-0.02c-2.379-0.125-3.834-3.297-4.979-6.237c0,0.092,0,0.184,0,0.275
			c0.003,1.563,0.007,3.178-0.645,4.293c-0.477,0.858-1.553,1.453-2.731,1.501c-1.103,0.046-2.065-0.395-2.585-1.174
			c-0.523-0.787-0.416-2.392-0.221-4.407c0.05-0.504,0.094-0.937,0.094-1.202c0-1.935-0.146-3.871-0.29-5.743
			c-0.132-1.737-0.271-3.53-0.285-5.304c-0.002-0.03-0.002-0.061,0-0.091c0-0.083-0.001-0.166-0.001-0.249
			c0-0.418,0.339-0.757,0.758-0.757c0.188,0,0.357,0.068,0.49,0.181c3.209-0.204,7.262,4.658,8.832,6.86
			c0.154-1.05-0.012-3.391-0.1-4.632c-0.129-1.829-0.191-2.892,0.002-3.477c0.459-1.041,1.572-2.101,2.781-2.15
			c0.793-0.023,1.489,0.38,1.916,1.162c0.471,0.822,0.305,2.406-0.002,4.727c-0.1,0.749-0.193,1.456-0.193,1.833
			c0,1.799,0.131,3.643,0.256,5.425c0.063,0.917,0.129,1.834,0.177,2.751c0.019,0.307,0.042,0.626,0.067,0.949
			c0.145,1.794,0.291,3.649-0.797,4.731C150.145,37.372,149.439,37.625,148.553,37.625z M142.695,27.446
			c0.298,0,0.57,0.176,0.691,0.45c0.232,0.526,0.483,1.185,0.758,1.905c0.94,2.471,2.362,6.205,4.065,6.294
			c0.663,0.063,1.114-0.043,1.371-0.298c0.591-0.587,0.466-2.154,0.354-3.537c-0.026-0.335-0.055-0.667-0.07-0.988
			c-0.049-0.911-0.112-1.819-0.176-2.727c-0.127-1.808-0.258-3.678-0.258-5.531c0-0.478,0.096-1.198,0.205-2.032
			c0.146-1.083,0.442-3.335,0.182-3.79c-0.192-0.354-0.381-0.398-0.532-0.388c-0.492,0.02-1.162,0.573-1.435,1.184
			c-0.082,0.26,0.022,1.742,0.101,2.824c0.274,3.883,0.333,6.27-1.167,6.68c-0.064,0.018-0.133,0.027-0.199,0.027h-0.145
			c-0.267,0-0.512-0.14-0.648-0.368c-1.374-2.29-5.492-6.888-7.809-6.956c0.035,1.512,0.15,3.02,0.271,4.6
			c0.145,1.9,0.295,3.865,0.295,5.858c0,0.297-0.045,0.782-0.1,1.348c-0.088,0.896-0.291,2.994-0.026,3.422
			c0.224,0.336,0.699,0.528,1.265,0.501c0.654-0.026,1.25-0.323,1.479-0.738c0.451-0.773,0.448-2.18,0.444-3.541
			c-0.002-1.302-0.006-2.647,0.369-3.697c0.104-0.292,0.375-0.49,0.685-0.502C142.676,27.447,142.686,27.446,142.695,27.446z"/>
	</g>
	<g>
		<path d="M157.085,33.785c-0.954,0-1.858-0.129-2.653-0.408c-1.397-0.489-3.646-1.885-2.97-5.737
			c0.063-0.362,0.377-0.626,0.745-0.626c0.383,0,0.941,0.035,1.598,0.076c1.512,0.094,6.11,0.383,6.489-0.599
			c0.532-1.244-1.675-3.148-3.409-4.112l-0.621-0.355c-1.39-0.787-2.486-1.409-2.768-2.565c-0.223-0.916,0.107-1.959,1.104-3.487
			c1.186-1.923,3.383-4.169,5.974-4.654c0.151-0.028,0.303-0.009,0.437,0.048c2.147-0.106,3.833,0.467,4.815,1.642
			c0.733,0.879,1.418,2.52,0.508,5.339c-0.067,0.215-0.231,0.388-0.44,0.472c-0.211,0.083-0.449,0.066-0.646-0.042
			c-1.066-0.593-3.491-1.44-4.167-0.28c-0.112,0.182-0.224,0.414-0.17,0.577c0.133,0.416,1.116,0.83,1.833,1.132
			c0.32,0.135,0.632,0.267,0.904,0.403l0.578,0.369c2.961,1.917,5.301,3.431,2.922,7.872
			C165.602,31.675,160.943,33.784,157.085,33.785z M152.87,28.55c-0.132,1.732,0.56,2.874,2.062,3.399
			c3.314,1.161,9.313-0.946,10.881-3.819c1.719-3.208,0.594-3.936-2.414-5.882l-0.506-0.329c-0.17-0.08-0.451-0.198-0.74-0.319
			c-1.098-0.462-2.342-0.987-2.688-2.065c-0.184-0.571-0.078-1.182,0.313-1.817c1.091-1.865,3.625-1.397,5.342-0.68
			c0.222-1.047,0.234-2.231-0.457-3.061c-0.773-0.929-2.331-1.292-4.375-1.03c-1.866,0.596-3.477,2.32-4.408,3.833
			c-0.729,1.115-1.021,1.868-0.912,2.319c0.127,0.521,0.932,0.976,2.042,1.606l0.622,0.355c0.538,0.299,5.321,3.062,4.063,5.998
			c-0.707,1.841-4.034,1.788-7.983,1.54C153.404,28.581,153.122,28.563,152.87,28.55z"/>
	</g>
	<g>
		<g>
			<path fill="#C40009" d="M141.563,126.161c0.865,0,0.865-1.341,0-1.341C140.699,124.82,140.699,126.161,141.563,126.161
				L141.563,126.161z"/>
		</g>
	</g>
	<g>
		<g>
			<path fill="#C40009" d="M145.021,123.566c0.865,0,0.865-1.342,0-1.342C144.158,122.225,144.158,123.566,145.021,123.566
				L145.021,123.566z"/>
		</g>
	</g>
	<g>
		<g>
			<path fill="#C40009" d="M145.887,127.025c0.864,0,0.864-1.34,0-1.34C145.023,125.686,145.021,127.025,145.887,127.025
				L145.887,127.025z"/>
		</g>
	</g>
	<g>
		<g>
			<path fill="#C40009" d="M162.75,124.432c0.863,0,0.863-1.341,0-1.341S161.887,124.432,162.75,124.432L162.75,124.432z"/>
		</g>
	</g>
	<g>
		<g>
			<path fill="#C40009" d="M159.725,131.35c0.863,0,0.863-1.341,0-1.341C158.859,130.009,158.859,131.35,159.725,131.35
				L159.725,131.35z"/>
		</g>
	</g>
	<g>
		<g>
			<path fill="#C40009" d="M146.752,141.727c0.864,0,0.864-1.341,0-1.341C145.889,140.386,145.889,141.727,146.752,141.727
				L146.752,141.727z"/>
		</g>
	</g>
	<g>
		<g>
			<path fill="#C40009" d="M148.48,147.348c0.865,0,0.865-1.341,0-1.341C147.617,146.007,147.617,147.348,148.48,147.348
				L148.48,147.348z"/>
		</g>
	</g>
	<g>
		<g>
			<path fill="#C40009" d="M154.104,144.32c0.863,0,0.863-1.34,0-1.34C153.238,142.98,153.238,144.32,154.104,144.32L154.104,144.32
				z"/>
		</g>
	</g>
	<g>
		<g>
			<path fill="#C40009" d="M156.697,108.865c0.863,0,0.863-1.342,0-1.342C155.833,107.523,155.833,108.865,156.697,108.865
				L156.697,108.865z"/>
		</g>
	</g>
	<g>
		<g>
			<path fill="#C40009" d="M154.104,101.516c0.863,0,0.863-1.342,0-1.342C153.238,100.174,153.238,101.516,154.104,101.516
				L154.104,101.516z"/>
		</g>
	</g>
	<g>
		<path d="M166.641,111.979c-0.113,0-0.229-0.024-0.338-0.08c-0.373-0.187-0.525-0.642-0.338-1.015
			c0.268-0.536,0.483-1.407,0.711-2.329c0.467-1.89,0.997-4.031,2.375-4.892c0.354-0.222,0.82-0.115,1.043,0.241
			c0.221,0.354,0.113,0.82-0.242,1.041c-0.856,0.537-1.328,2.44-1.707,3.972c-0.25,1.006-0.483,1.957-0.828,2.644
			C167.186,111.825,166.918,111.979,166.641,111.979z"/>
	</g>
	<g>
		<g>
			<path d="M145.021,116.734c-0.287,0-0.576,0-0.864,0c-0.455,0-0.739,0.6-0.382,0.923c0.418,0.38,0.908,0.686,1.406,0.95
				c0.09-0.336,0.182-0.672,0.271-1.008c-1.521-0.021-2.887-0.492-3.643-1.896c-0.33-0.614-1.264-0.068-0.934,0.546
				c0.934,1.732,2.682,2.406,4.574,2.432c0.525,0.006,0.753-0.755,0.273-1.009c-0.416-0.22-0.838-0.463-1.188-0.78
				c-0.127,0.309-0.255,0.614-0.382,0.924c0.287,0,0.576,0,0.865,0C145.721,117.814,145.721,116.734,145.021,116.734
				L145.021,116.734z"/>
		</g>
	</g>
	<g>
		<g>
			<path d="M160.443,118.014c1.869,0.65,4.69-1.828,2.709-3.455c-1.965-1.608-4.625,1.359-2.73,3.101
				c0.439,0.403,1.188-0.119,0.85-0.655c-0.19-0.302-0.398-0.593-0.199-0.93c0.189-0.317,0.455-0.575,0.633-0.902
				c0.33-0.613-0.604-1.16-0.936-0.546c-0.227,0.422-0.601,0.75-0.775,1.199c-0.238,0.604,0.02,1.208,0.345,1.725
				c0.283-0.218,0.565-0.438,0.851-0.653c-0.924-0.85,0.348-2.271,1.299-1.488c1,0.818-1.012,1.824-1.754,1.566
				C160.072,116.74,159.791,117.785,160.443,118.014L160.443,118.014z"/>
		</g>
	</g>
	<g>
		<g>
			<path d="M105.265,61.41c0.03,13.839,0.619,27.668,0.648,41.507c0.001,0.697,1.083,0.697,1.081,0
				c-0.03-13.839-0.619-27.668-0.648-41.507C106.345,60.713,105.264,60.712,105.265,61.41L105.265,61.41z"/>
		</g>
	</g>
	<g>
		<g>
			<path d="M109.481,132.425c0.041,9.3,0.606,18.587,0.648,27.888c0.003,0.697,1.084,0.697,1.081,0
				c-0.042-9.299-0.607-18.586-0.648-27.888C110.559,131.729,109.478,131.729,109.481,132.425L109.481,132.425z"/>
		</g>
	</g>
	<g>
		<g>
			<path d="M120.29,151.232c-0.235-7.412-0.056-14.807,0.392-22.207c0.5-8.289-1.711-15.646-2.335-23.84
				c-0.517-6.785,0.371-13.646-0.707-20.403c-0.727-4.555-1.695-8.904-1.013-13.547c0.512-3.488,2.03-6.562,2.044-10.15
				c0.003-0.697-1.078-0.697-1.081,0c-0.016,4.013-1.675,7.61-2.25,11.53c-0.355,2.419,0.028,4.924,0.36,7.325
				c1.176,8.51,1.279,16.675,1.566,25.246c0.25,7.45,3,14.433,2.459,21.979c-0.574,8.013-0.771,16.041-0.515,24.068
				C119.23,151.93,120.313,151.932,120.29,151.232L120.29,151.232z"/>
		</g>
	</g>
	<g>
		<g>
			<path d="M21.003,72.002c9.299-0.211,17.913-3.388,26.703-6.107c9.982-3.088,20.456-2.372,30.514-4.938
				c0.582-0.148,0.473-1.108-0.144-1.062c-18.452,1.407-36.571,5.167-54.622,9.099c-0.681,0.148-0.392,1.19,0.287,1.042
				c17.957-3.912,35.978-7.66,54.334-9.06c-0.048-0.354-0.096-0.708-0.144-1.062c-8.949,2.283-18.314,1.659-27.254,3.995
				c-9.938,2.597-19.239,6.774-29.675,7.011C20.308,70.937,20.306,72.018,21.003,72.002L21.003,72.002z"/>
		</g>
	</g>
	<g>
		<g>
			<path d="M85.029,61.931c6.116-2.461,12.732-1.89,19.156-1.363c6.993,0.574,14.013,0.817,21.018,1.226
				c15.779,0.919,31.178-0.576,46.912-1.464c0.693-0.039,0.697-1.12,0-1.081c-15.737,0.888-31.129,2.361-46.912,1.464
				c-7.512-0.427-15.031-0.734-22.53-1.35c-6.036-0.496-12.216-0.775-17.931,1.526C84.104,61.146,84.382,62.191,85.029,61.931
				L85.029,61.931z"/>
		</g>
	</g>
	<g>
		<g>
			<path d="M170.945,7.075c1.451,5.635,2.482,11.206,2.576,17.043c0.011,0.697,1.076,0.697,1.08,0
				c0.026-3.983,0.166-7.958-0.02-11.94c-0.074-1.604,0.043-4.706-1.545-5.713c-0.285-0.181-0.723-0.012-0.794,0.323
				c-1.786,8.158,1.274,16.264,1.056,24.466c-0.125,4.66-1.287,9.083-1.156,13.82c0.144,5.145,0.776,10.205,0.515,15.363
				c0.36,0,0.721,0,1.081,0c-0.793-7.888,0.523-15.762,0.578-23.656c0.063-9.159-2.178-18.072-1.01-27.255
				c0.086-0.69-0.996-0.682-1.082,0c-1.091,8.58,0.534,17.053,0.974,25.618c0.432,8.451-1.392,16.836-0.541,25.293
				c0.069,0.685,1.045,0.707,1.081,0c0.32-6.276-0.569-12.494-0.559-18.766c0.012-6.549,1.61-12.23,0.668-18.849
				c-0.537-3.76-1.125-7.485-1.154-11.29c0-0.094-0.191-5.109,0.414-2.813c0.293,1.102,0.317,2.325,0.395,3.458
				c0.268,3.971,0.046,7.965,0.02,11.94c0.359,0,0.722,0,1.08,0c-0.095-5.947-1.133-11.581-2.613-17.33
				C171.814,6.113,170.771,6.4,170.945,7.075L170.945,7.075z"/>
		</g>
	</g>
	<g>
		<g>
			<path d="M90.724,60.978c6.76-0.156,13.379,1.191,20.105,1.622c0-0.36,0-0.721,0-1.081c-7.158,0.458-14.105-1.799-21.268-1.562
				c-7.332,0.244-14.666,0.067-21.995,0.464c-13.973,0.756-27.344,5.386-40.868,8.575c-0.678,0.16-0.391,1.202,0.287,1.042
				c14.104-3.326,27.83-7.846,42.401-8.635c6.715-0.363,13.454-0.204,20.175-0.366c7.157-0.172,14.112,2.019,21.268,1.562
				c0.696-0.044,0.696-1.037,0-1.081c-6.726-0.43-13.345-1.777-20.105-1.622C90.028,59.913,90.026,60.994,90.724,60.978
				L90.724,60.978z"/>
		</g>
	</g>
	<g>
		<g>
			<path d="M4.339,29.126c1.607-3.959,10.824-4.38,14.358-4.894c5.151-0.749,9.869-2.048,14.66-4.136
				c7.174-3.126,14.218-4.607,21.931-5.769c8.472-1.276,16.757-3.623,25.267-4.626c8.133-0.959,16.577-0.251,24.762-0.521
				c8.349-0.275,16.703-0.896,25.042-1.372c6.261-0.358,12.548-0.737,18.757-1.642c6.095-0.889,14.558-3.07,20.134,0.583
				c0.585,0.383,1.126-0.553,0.546-0.934c-4.512-2.955-10.546-2.085-15.599-1.463c-7.328,0.902-14.563,1.792-21.943,2.262
				c-9.613,0.612-19.256,1.233-28.884,1.55c-8.798,0.29-17.671-0.334-26.404,0.927c-8.467,1.223-16.791,3.396-25.262,4.694
				c-8.378,1.284-15.275,4.129-23.102,7.095c-5.389,2.042-11.146,2.273-16.741,3.445c-2.852,0.598-7.319,1.443-8.565,4.512
				C3.034,29.485,4.081,29.763,4.339,29.126L4.339,29.126z"/>
		</g>
	</g>
	<g>
		<g>
			<path d="M1.923,31.395c5.33,2.982,7.297,10.13,9.128,15.538c2.517,7.435,5.463,14.822,8.459,22.079
				c0.262,0.635,1.308,0.357,1.042-0.287c-3.304-8.003-6.396-16.14-9.226-24.32c-1.753-5.068-3.915-11.178-8.857-13.943
				C1.86,30.121,1.315,31.055,1.923,31.395L1.923,31.395z"/>
		</g>
	</g>
	<g>
		<g>
			<path d="M141.982,130.105c2.017,2.953,4.578,5.142,7.891,6.518c0.645,0.268,0.921-0.779,0.287-1.042
				c-3.029-1.259-5.402-3.323-7.243-6.021C142.525,128.986,141.589,129.527,141.982,130.105L141.982,130.105z"/>
		</g>
	</g>
	<g>
		<g>
			<path d="M171.988,21.717c0.432,6.915,0.828,13.825,0.865,20.755c0.359,0,0.722,0,1.082,0c-0.104-6.292-1.203-12.635-0.021-18.882
				c-0.348,0-0.693,0-1.042,0c3.125,11.866-2.826,24.129-1.315,36.177c0.086,0.686,1.014,0.704,1.08,0
				c0.355-3.748,0.428-7.479,0.432-11.242c0-0.705-1.029-0.687-1.08,0c-0.229,3.073-1.069,6.013-1.297,9.081
				c-0.053,0.702,1.011,0.682,1.08,0c0.373-3.601,0.429-7.192,0.433-10.81c0.001-0.698-1.07-0.696-1.081,0
				c-0.073,4.565-0.919,9.69,1.805,13.677c0.26,0.381,0.848,0.34,0.987-0.129c0.698-2.358,0.006-5.58-0.144-7.979
				c-0.17-2.752-0.258-5.581-0.723-8.305c-0.074-0.44-0.809-0.552-0.986-0.129c-1.586,3.744-1.75,7.256-0.92,11.226
				c0.127,0.609,1.061,0.455,1.063-0.144c0.008-2.44,0.055-4.775,0.413-7.207c-0.354-0.048-0.708-0.096-1.062-0.144
				c0.389,3.74,0.51,7.499,0.862,11.242c0.063,0.682,1.077,0.709,1.081,0c0.063-11.833,1.23-23.624,1.298-35.456
				c0.005-0.697-1.075-0.697-1.081,0c-0.066,11.833-1.232,23.623-1.298,35.456c0.358,0,0.722,0,1.081,0
				c-0.354-3.744-0.475-7.502-0.863-11.242c-0.059-0.556-0.967-0.793-1.063-0.144c-0.369,2.501-0.443,4.963-0.452,7.494
				c0.354-0.048,0.708-0.096,1.063-0.144c-0.567-2.713-0.67-4.726-0.215-7.472c0.693-4.189,0.133-2.435,0.293-0.703
				c0.233,2.561,0.4,5.129,0.549,7.696c0.101,1.761,0.205,3.535,0.131,5.298c0.095-2.249-0.826-4.727-0.877-7.177
				c-0.039-1.901,0.106-3.813,0.139-5.714c-0.359,0-0.721,0-1.081,0c-0.004,3.618-0.06,7.209-0.433,10.81c0.359,0,0.722,0,1.082,0
				c0.228-3.073,1.067-6.013,1.297-9.081c-0.36,0-0.721,0-1.082,0c-0.004,3.763-0.075,7.494-0.432,11.242c0.359,0,0.721,0,1.082,0
				c-1.521-12.139,4.434-24.479,1.276-36.464c-0.13-0.495-0.938-0.539-1.042,0c-1.203,6.351-0.123,12.771-0.021,19.169
				c0.013,0.696,1.086,0.698,1.082,0c-0.039-6.93-0.436-13.84-0.865-20.755C173.027,21.025,171.945,21.021,171.988,21.717
				L171.988,21.717z"/>
		</g>
	</g>
	<g>
		<path fill="#2D2C81" d="M173.33,57.96c12.07,1.476,38.625,8.115,49.893,4.427c9.656-2.951,9.656-26.559,10.461-36.888
			c1.609-22.132-16.898-17.706-34.604-17.706c-5.633,0-18.508-2.213-21.727,0.738c-6.438,4.427-1.609,19.919-2.414,27.297
			c-0.806,6.64-1.609,12.542-3.219,19.182"/>
	</g>
	<g>
		<g>
			<path fill="#FFFFFF" d="M204.764,56.484c0.229-4.494,1.693-8.738,1.262-13.279c-1.844,1.844-3.688,3.689-5.532,5.533
				c1.728-0.182,3.269-0.531,4.911-1.071c1.134-0.373,2.256-0.774,3.389-1.148c0.17-0.056,3.232-0.462,1.607-0.716
				c0.49-3.623,0.979-7.246,1.471-10.869c-7.118-0.826-14.355,0.19-21.493,0.262c-7.135,0.072-7.137,11.013,0,11.066
				c4.11,0.031,8.218,0.231,12.328,0.262c2.97,0.022,5.595-2.534,5.532-5.533c-0.096-4.67-0.814-9.301-0.584-13.98
				c0.205-4.177,5.469-4.128,8.337-3.653c6.979,1.156,9.97-9.507,2.94-10.671c-7.318-1.212-14.74-0.562-19.397,5.996
				c-4.718,6.641-2.519,14.731-2.361,22.308c1.845-1.844,3.688-3.689,5.533-5.533c-4.11-0.031-8.218-0.231-12.328-0.262
				c0,3.689,0,7.377,0,11.066c7.138-0.072,14.375-1.088,21.493-0.262c6.182,0.717,7.609-9.909,1.471-10.869
				c-4.908-0.768-8.345,2.066-12.849,2.54c-2.767,0.291-5.841,2.305-5.533,5.533c0.427,4.481-1.034,8.81-1.263,13.279
				C193.334,63.62,204.402,63.584,204.764,56.484L204.764,56.484z"/>
		</g>
	</g>
	<g>
		<g>
			<path d="M174.672,60.971c16.996,0.002,33.986,0.162,50.691,3.661c1.004,0.21,1.432-1.327,0.425-1.538
				c-16.843-3.527-33.978-3.716-51.116-3.717C173.645,59.376,173.645,60.971,174.672,60.971L174.672,60.971z"/>
		</g>
	</g>
	<g>
		<g>
			<path d="M228.559,64.074c2.727-17.375-2.744-35.559,3.688-52.38c0.132-0.343-0.088-0.717-0.366-0.9
				c-7.492-4.953-17.349-4.917-25.99-4.703c-10.652,0.264-21.291,2.038-31.957,1.643c0.07,0.522,0.143,1.044,0.213,1.566
				c14.563-4.272,29.821-2.493,44.766-3.053c6.554-0.246,10.404,0.843,12.535,7.661c1.82,5.825-1.647,13.524-2.793,19.27
				c-1.366,6.87-0.146,13.99-1.633,20.882c-0.871,4.032-0.467,8.377-5.338,8.738c-15.824,1.172-31.24-2.51-47.012-2.684
				c-1.029-0.012-1.027,1.583,0,1.595c10.003,0.111,19.881,1.732,29.827,2.624c6.135,0.55,14.383,1.626,20.397-0.455
				c2.824-0.977,2.912-5.75,3.381-8.057c1.721-8.489,0.687-17.204,2.66-25.625c1.963-8.368,5.74-23.858-6.881-25.514
				c-2.912-0.382-5.986,0.019-8.908,0.089c-4.592,0.109-9.194-0.046-13.787-0.047c-9.295-0.002-18.672,0.408-27.641,3.039
				c-0.877,0.257-0.686,1.533,0.213,1.566c16.143,0.598,32.416-3.742,48.479-0.619c1.471,0.286,2.898,0.728,4.313,1.215
				c3.016,1.039,3.881,1.419,2.852,4.523c-1.613,4.859-2.01,10.116-2.182,15.197c-0.388,11.364,1.4,22.691-0.373,34.007
				C226.861,64.656,228.398,65.088,228.559,64.074L228.559,64.074z"/>
		</g>
	</g>
	<g>
		<g>
			<path d="M204.258,60.356c0.406-3.003,0.659-6.033,1.46-8.963c1.319-4.824,5.525-5.465,9.868-4.958
				c0.28,0.033,0.615-0.232,0.664-0.505c0.544-3.024,1.216-6.021,1.762-9.045c0.156-0.868-1.171-1.239-1.328-0.366
				c-0.357,1.985-0.764,3.958-1.175,5.934c-0.542,2.601-1.409,2.345-3.733,2.422c-1.596,0.053-3.504,0.609-4.696,1.714
				c-3.597,3.326-3.537,8.884-4.147,13.403C202.813,60.858,204.141,61.233,204.258,60.356L204.258,60.356z"/>
		</g>
	</g>
	<g>
		<g>
			<path d="M216.659,34.63c0.11,4.327,1.159,11.007-5.429,10.625c-0.422-0.024-1.287-0.042-1.666,0.216
				c-1.143,0.778-2.162-0.105-3.237,0.264c-4.552,1.56-2.604,9.879-3.397,13.566c-0.187,0.866,1.141,1.234,1.328,0.366
				c0.641-2.977,0.579-6.113,0.79-9.14c0.175-2.497,1.187-3.27,3.789-3.089c0.964,0.067,2.037-0.826,3.2-0.758
				c6.956,0.403,6.125-7.146,5.999-12.049C218.014,33.744,216.637,33.742,216.659,34.63L216.659,34.63z"/>
		</g>
	</g>
	<g>
		<g>
			<path d="M218.118,34.656c-3.595-0.771-7.341-0.713-10.998-0.714c0,0.459,0,0.918,0,1.377c3.213,0,6.427,0,9.64,0
				c0.889,0,0.889-1.377,0-1.377c-3.213,0-6.427,0-9.64,0c-0.888,0-0.888,1.377,0,1.377c3.53,0.001,7.164-0.078,10.633,0.666
				C218.618,36.17,218.986,34.842,218.118,34.656L218.118,34.656z"/>
		</g>
	</g>
	<g>
		<g>
			<path d="M187.951,36.516c1.51-0.07,2.921-0.667,4.426-0.738c0.883-0.041,0.893-1.377,0-1.377c-2.213,0-4.427,0-6.641,0
				c-0.887,0-0.887,1.377,0,1.377c2.214,0,4.428,0,6.641,0c0-0.459,0-0.918,0-1.377c-1.51,0.07-2.921,0.667-4.426,0.738
				C187.066,35.18,187.063,36.558,187.951,36.516L187.951,36.516z"/>
		</g>
	</g>
	<g>
		<g>
			<path d="M183.572,35.828c0.003,2.783-0.031,5.606,0.764,8.298c0.221,0.743,1.354,0.604,1.354-0.183c0-1.721,0-3.443,0-5.164
				c-0.459,0-0.918,0-1.377,0c0.14,6.022,4.315,10.476,10.461,8.042c0.677-0.268,0.649-1.384-0.184-1.353
				c-2.234,0.085-4.404,0.652-6.639,0.738c-0.885,0.034-0.889,1.411,0,1.377c2.234-0.085,4.404-0.652,6.639-0.738
				c-0.061-0.451-0.122-0.901-0.183-1.353c-5.263,2.085-8.599-1.508-8.72-6.713c-0.021-0.886-1.377-0.889-1.377,0
				c0,1.721,0,3.443,0,5.164c0.451-0.061,0.901-0.122,1.354-0.183c-0.762-2.575-0.712-5.271-0.714-7.932
				C184.949,34.939,183.572,34.939,183.572,35.828L183.572,35.828z"/>
		</g>
	</g>
	<g>
		<g>
			<path d="M193.164,46.894c0,3.935,0,7.869,0,11.804c0,0.888,1.377,0.888,1.377,0c0-3.935,0-7.869,0-11.804
				C194.541,46.006,193.164,46.006,193.164,46.894L193.164,46.894z"/>
		</g>
	</g>
	<g>
		<g>
			<path d="M207.061,34.537c-0.461-3.517-0.24-7.236,2.863-9.487c2.764-2.003,6.698-1.985,9.947-1.825
				c0.798,0.04,0.908-1.134,0.184-1.353c-3.27-0.985-7.508-1.864-10.449,0.466c-3.166,2.507-3.688,6.935-3.922,10.698
				c-0.056,0.887,1.321,0.882,1.377,0c0.194-3.155,0.566-6.745,2.848-9.151c2.479-2.618,6.8-1.583,9.781-0.685
				c0.061-0.451,0.121-0.902,0.183-1.353c-3.774-0.187-7.878,0.008-11.048,2.306c-3.292,2.388-3.627,6.674-3.141,10.382
				C205.796,35.405,207.175,35.416,207.061,34.537L207.061,34.537z"/>
		</g>
	</g>
	<g>
		<g>
			<path d="M223.035,22.354c-0.418-2.703-0.494-5.436,0-8.134c-0.451-0.061-0.901-0.122-1.354-0.183
				c0,2.125,0.004,4.235-0.476,6.317c0.451,0.061,0.901,0.122,1.353,0.183c0-1.833,0-3.667,0-5.5c0-0.888-1.377-0.888-1.377,0
				c0,1.833,0,3.667,0,5.5c0,0.768,1.176,0.952,1.354,0.183c0.506-2.202,0.523-4.434,0.523-6.683c0-0.759-1.209-0.963-1.353-0.183
				c-0.541,2.955-0.458,5.905,0,8.866C221.843,23.596,223.17,23.223,223.035,22.354L223.035,22.354z"/>
		</g>
	</g>
	<g>
		<g>
			<path d="M196.535,33.354c-3.297-15.245,10.51-25.961,24.652-20.153c0.062-0.451,0.123-0.902,0.184-1.353
				c-6.354-0.182-13.211-0.12-18.785,3.335c-5.718,3.544-6.641,10.729-6.402,16.854c0.033,0.885,1.41,0.889,1.377,0
				c-0.244-6.293,0.744-12.579,6.48-16.136c4.961-3.075,11.73-2.835,17.33-2.676c0.838,0.024,0.854-1.077,0.184-1.353
				c-15.218-6.25-29.834,5.725-26.348,21.847C195.395,34.588,196.723,34.22,196.535,33.354L196.535,33.354z"/>
		</g>
	</g>
</g>
</svg>
