<?xml version="1.0" encoding="utf-8"?>
<!-- Generator: Adobe Illustrator 16.0.0, SVG Export Plug-In . SVG Version: 6.00 Build 0)  -->
<!DOCTYPE svg PUBLIC "-//W3C//DTD SVG 1.1//EN" "http://www.w3.org/Graphics/SVG/1.1/DTD/svg11.dtd">
<svg version="1.1" id="Capa_1" xmlns="http://www.w3.org/2000/svg" xmlns:xlink="http://www.w3.org/1999/xlink" x="0px" y="0px"
	 width="178px" height="48.001px" viewBox="0 0 178 48.001" enable-background="new 0 0 178 48.001" xml:space="preserve">
<path d="M19.603,9.064c-1.926-2.408-5.296-4.333-8.185-5.778c-0.963,4.333-2.889,5.778-4.333,8.667c0,0.481-2.889,0-3.37,1.445
	c-0.482,1.444,1.926,2.407,1.926,3.851c0,0.481-2.729,6.581-2.729,7.543c0,2.407,1.645,5.336,2.086,8.386
	c0.442,3.049-0.32,6.219-1.283,9.107c8.074-3.042,9.629-0.481,13.962,0.963c5.296,2.407,12.037,0.481,17.333,0
	c10.111-0.482,20.222-1.444,30.333-1.926c5.296,0,10.111-0.963,14.926-0.963c5.778-0.481,11.074,2.407,16.852,1.926
	c5.296-0.481,7.223-4.333,13-2.407c3.37,0.963,3.852,2.889,7.222,3.852c3.371,0.963,8.667-0.481,12.037-0.963
	c8.667-1.444,16.571-4.072,27.444-0.641c12.078,3.81,18.297,1.604,16.852-14.284c-0.636-4.136-2.648-5.978-3.729-8.516
	c-0.552-1.303,1.031-3.499-0.766-4.806c-2.166-1.685-4.672,1.843-7.229,0.317c-2.558-1.525-5.165-8.106-7.535-8.181
	c-20.182-0.639-16.209,0-17.654,7.223c-4.815-4.333-9.309-6.259-15.086-7.223c-2.407-0.481-13-3.852-13.481-3.852
	c-2.888,0.481-2.888,3.852-4.814,4.815c-3.37,2.407-4.333,2.407-8.667,2.889c-5.777,0.481-8.024,0.963-13.802,2.889
	c-6.019,1.925-11.354-0.041-16.57-1.365c-5.216-1.324-10.312-2.006-15.849-3.932c-1.212-0.466-0.253-1.538-2.098-1.894
	c-2.244-0.432-3.771,1.227-6.735,1.161C32.472,7.21,23.108,6.314,20.084,9.064"/>
<g>
	<path d="M9.525,4.046c-0.333,4.361-3.015,6.17-6.343,8.295c-0.521,0.333-0.515,1.052,0,1.386c4.087,2.653,2.344,7.043-0.214,9.682
		c-0.428,0.441-0.682,1.508-0.682,2.075c0,1.012,0.955,2.272,1.168,3.172c1.036,4.371,1.35,8.662,0.321,13.055
		c-0.17,0.729,0.545,1.195,1.179,0.906c3.424-1.563,7.24-2.563,10.746-0.642c0.908,0.498,1.717-0.888,0.81-1.386
		c-4.036-2.213-8.367-1.184-12.365,0.642c0.393,0.302,0.786,0.604,1.179,0.906c0.823-3.516,0.94-6.961,0.315-10.538
		c-0.658-3.771-2.236-6.228,0.66-9.205c2.64-2.714,0.372-8.315-2.307-10.053c0,0.462,0,0.924,0,1.386
		c3.921-2.503,6.766-4.813,7.139-9.681C11.209,3.014,9.604,3.021,9.525,4.046L9.525,4.046z"/>
</g>
<g>
	<path d="M16.535,43.02c4.425,0.67,8.878-0.008,13.292,0.666c3.372,0.515,6.047,1.53,9.476,1.022
		c4.569-0.677,7.848-3.126,12.707-2.949c4.398,0.161,8.775,1.161,13.162,1.542c3.421,0.297,6.824-0.72,10.118-1.476
		c4.553-1.045,7.923-0.428,12.193,1.144c2.653,0.977,5.114,0.761,7.802,0.052c2.084-0.55,4.099-1.474,6.139-2.167
		c4.313-1.464,7.742-0.225,11.218,2.407c0.826,0.625,1.625-0.77,0.811-1.386c-3.041-2.301-5.286-3.589-9.127-3.319
		c-3.778,0.265-7.396,2.371-11.026,3.329c-3.795,1.001-7.852-1.584-11.496-2.337c-2.975-0.614-6.694,0.662-9.547,1.338
		c-8.845,2.099-17.686-2.452-26.371-0.125c-1.886,0.505-3.7,1.392-5.55,2.021c-2.858,0.971-5.714,0.378-8.529-0.305
		c-4.908-1.191-9.884-0.251-14.846-1.003C15.949,41.318,15.514,42.865,16.535,43.02L16.535,43.02z"/>
</g>
<g>
	<path d="M113.476,43.982c6.153,1.296,12.347-0.241,18.434-1.23c2.878-0.467,5.621-0.781,8.459-1.491
		c3.618-0.905,8.438-2.823,12.077-1.212c0.938,0.415,1.755-0.967,0.81-1.386c-4.506-1.996-10.1,0.246-14.566,1.364
		c-3.344,0.836-6.829,1.1-10.226,1.682c-4.835,0.829-9.687,1.752-14.561,0.725C112.893,42.222,112.463,43.769,113.476,43.982
		L113.476,43.982z"/>
</g>
<g>
	<path d="M151.674,39.809c4.604,0.689,8.195,3.958,13.027,3.079c3.705-0.675,8.037-2.761,10.866-5.211
		c0.425-0.368,0.225-0.977-0.162-1.26c-4.475-3.285,0.327-8.091-1.604-11.922c-1.162-2.306-5.775-4.557-4.208-7.203
		c0.528-0.893-0.859-1.7-1.387-0.811c-2.356,3.979,1.305,5.355,3.835,8.261c1.75,2.008-0.247,6.233-0.397,8.613
		c-0.13,2.041,1.493,3.377,2.95,4.447c-0.054-0.42-0.108-0.84-0.162-1.26c-2.581,2.234-6.088,3.559-9.292,4.571
		c-4.569,1.444-8.623-2.191-13.04-2.852C151.089,38.11,150.654,39.656,151.674,39.809L151.674,39.809z"/>
</g>
<g>
	<path d="M169.221,14.8c-4.787,0.467-9.654-1.184-10.461-6.473c-0.155-1.021-1.701-0.585-1.547,0.427
		c0.906,5.946,6.55,8.184,12.008,7.651C170.242,16.306,170.251,14.7,169.221,14.8L169.221,14.8z"/>
</g>
<g>
	<path d="M157.987,8.059c-5.981,0.14-11.72-1.715-17.615-2.448c-3.224-0.4-4.429,0.735-4.654,3.893
		c-0.564,7.905-4.203,2.141-4.888,1.004c-0.382-0.634-0.696-1.009-1.166-1.572c-0.932-1.119-2.079-2.16-3.394-2.793
		c-4.481-2.157-10.882-2.387-15.792-2.899c-1.029-0.107-1.019,1.499,0,1.605c5.939,0.619,13.667,0.798,18.051,5.222
		c1.577,1.591,2.418,5.28,5.403,4.459c3.903-1.074,2.854-7.53,6.439-7.313c5.963,0.36,11.571,2.589,17.615,2.448
		C159.02,9.64,159.022,8.035,157.987,8.059L157.987,8.059z"/>
</g>
<g>
	<path d="M10.97,4.849c4.21,0.148,11.718,8.212,13.293,0.374c-0.447,0.118-0.894,0.236-1.341,0.354
		c1.511,1.418,2.827,2.039,4.902,2.156c2.554,0.143,2.501-2.178,4.847-0.059c4.164,3.763,11.208-1.25,15.856-0.898
		c1.033,0.078,1.025-1.528,0-1.605C42.84,4.74,36.529,10.043,31.76,4.442c-0.284-0.334-0.843-0.29-1.135,0c-2.19,0-4.379,0-6.569,0
		c-0.412-0.387-1.217-0.264-1.341,0.354C21.729,9.7,14.124,3.355,10.97,3.244C9.934,3.208,9.938,4.813,10.97,4.849L10.97,4.849z"/>
</g>
<g>
	<path d="M48.602,6.861c3.586,3.908,6.963,4.312,12.036,4.504c5.512,0.209,11.162,5.533,16.698,4.059
		c2.578-0.687,4.604-1.987,6.925-3.238c3.478-1.875,9.054-1.265,12.938-1.205c2.349,0.036,4.475-0.172,6.623-1.106
		c2.712-1.179,3.584-5.144,6.1-6.741c0.871-0.553,0.067-1.942-0.81-1.386c-1.549,0.982-2.576,2.13-3.579,3.658
		c-2.385,3.634-5.574,4.012-9.612,3.95c-4.907-0.076-9.845-0.187-14.148,2.401c-6.775,4.073-10.537,0.324-16.983-1.423
		C59,8.766,54.341,10.743,49.736,5.727C49.035,4.962,47.903,6.101,48.602,6.861L48.602,6.861z"/>
</g>
<g>
	<path fill-rule="evenodd" clip-rule="evenodd" fill="#FFFFFF" d="M46.412,10.764c1.281,0.569,2.118,1.298,2.51,2.188
		c0.391,0.889,0.587,2.331,0.587,4.324v1.334h-6.62v-2.188c0-0.783-0.053-1.246-0.16-1.388c-0.107-0.179-0.286-0.267-0.534-0.267
		c-0.25,0-0.445,0.124-0.588,0.374c-0.177,0.213-0.267,0.623-0.267,1.228c0,0.783,0.09,1.317,0.267,1.602
		c0.213,0.426,0.641,0.907,1.282,1.441c3.239,1.78,5.232,3.238,5.98,4.377c0.782,1.14,1.174,2.954,1.174,5.446
		c0,1.815-0.214,3.167-0.641,4.057c-0.427,0.89-1.263,1.637-2.509,2.242c-1.248,0.606-2.688,0.909-4.324,0.909
		c-1.779,0-3.31-0.357-4.591-1.068c-1.282-0.677-2.118-1.549-2.51-2.616c-0.39-1.068-0.587-2.545-0.587-4.431v-1.922h6.62v3.311
		c0,0.889,0.071,1.423,0.213,1.602c0.106,0.177,0.32,0.267,0.641,0.267c0.285,0,0.516-0.125,0.694-0.375
		c0.143-0.284,0.214-0.711,0.214-1.281c0-1.388-0.107-2.242-0.321-2.562c-0.499-0.499-1.548-1.282-3.149-2.349
		c-1.601-1.068-2.669-1.851-3.203-2.349c-0.569-0.499-1.032-1.192-1.389-2.083c-0.356-0.889-0.534-2.01-0.534-3.362
		c0-1.958,0.25-3.399,0.748-4.324c0.533-0.926,1.371-1.656,2.509-2.189c1.139-0.534,2.492-0.801,4.057-0.801
		C43.726,9.909,45.203,10.193,46.412,10.764z M31.252,15.247c0,0.428-0.161,0.801-0.481,1.122c-0.319,0.32-0.695,0.479-1.121,0.479
		c-0.427,0-0.8-0.16-1.123-0.479c-0.32-0.321-0.479-0.694-0.479-1.122c0-0.426,0.159-0.801,0.479-1.121
		c0.287-0.32,0.659-0.481,1.123-0.481c0.426,0,0.801,0.161,1.121,0.481C31.091,14.446,31.252,14.821,31.252,15.247z M30.931,32.651
		c0,0.925,0.071,1.529,0.213,1.814s0.338,0.499,0.586,0.642c0.251,0.142,0.712,0.213,1.39,0.213v0.587h-6.94V35.32
		c0.675,0,1.138-0.054,1.388-0.161c0.249-0.143,0.445-0.373,0.587-0.694c0.142-0.32,0.214-0.925,0.214-1.814v-5.499
		c0-1.566-0.053-2.581-0.161-3.043c-0.07-0.321-0.178-0.534-0.319-0.641c-0.178-0.142-0.392-0.214-0.64-0.214
		c-0.322,0-0.677,0.072-1.068,0.214l-0.214-0.534l4.271-1.761h0.694V32.651z M58.05,32.223c1.139,1.174,2.704,1.763,4.699,1.763
		c1.494,0,3.167-0.356,5.017-1.068v2.456c-1.814,0.605-3.629,0.907-5.445,0.907c-2.954,0-5.232-0.765-6.833-2.294
		c-1.602-1.531-2.402-3.719-2.402-6.567c0-2.776,0.784-4.947,2.349-6.512c1.602-1.566,3.809-2.349,6.62-2.349
		c1.778,0,3.576,0.267,5.392,0.801v2.562c-1.993-0.711-3.7-1.068-5.125-1.068c-1.851,0-3.309,0.588-4.376,1.762
		c-1.068,1.174-1.602,2.775-1.602,4.804C56.342,29.483,56.911,31.085,58.05,32.223z M72.091,26.778
		c0.889-1.565,2.081-2.794,3.576-3.683c1.46-0.891,2.883-1.334,4.271-1.334c1.352,0,2.492,0.444,3.417,1.334
		c0.854,0.925,1.281,2.118,1.281,3.576c0,1.566-0.41,3.114-1.229,4.646c-0.818,1.529-1.975,2.74-3.469,3.629
		c-1.46,0.891-2.901,1.334-4.324,1.334c-1.423,0-2.58-0.444-3.469-1.334c-0.89-0.924-1.335-2.117-1.335-3.576
		C70.809,29.839,71.235,28.308,72.091,26.778z M13.581,14.768c0.785,0,1.513,0.142,2.19,0.426c0.64,0.285,1.227,0.712,1.76,1.282
		v-5.873h6.3v25.305h-6.3v-1.496c-0.604,0.605-1.246,1.068-1.921,1.388c-0.676,0.321-1.37,0.48-2.082,0.48
		c-0.996,0-1.852-0.249-2.562-0.748c-0.712-0.534-1.175-1.138-1.389-1.813c-0.178-0.677-0.267-1.78-0.267-3.311v-9.715
		c0-1.602,0.089-2.74,0.267-3.417c0.214-0.641,0.694-1.211,1.443-1.708C11.732,15.035,12.584,14.768,13.581,14.768z M15.824,18.825
		c-0.143,0.213-0.213,0.729-0.213,1.548v10.196c0,0.818,0.053,1.371,0.161,1.654c0.141,0.25,0.391,0.374,0.747,0.374
		c0.392,0,0.659-0.142,0.8-0.427c0.143-0.32,0.214-1.05,0.214-2.188v-9.609c0-0.748-0.071-1.264-0.214-1.548
		c-0.105-0.25-0.354-0.375-0.747-0.375S15.93,18.575,15.824,18.825z M167.487,26.084v4.858c0,1.353,0.035,2.188,0.107,2.51
		c0.037,0.32,0.125,0.516,0.266,0.587c0.107,0.106,0.232,0.159,0.375,0.159c0.179,0,0.32-0.035,0.427-0.106
		c0.249-0.106,0.677-0.48,1.282-1.121v0.854c-1.174,1.566-2.297,2.35-3.363,2.35c-0.498,0-0.891-0.178-1.176-0.534
		c-0.319-0.356-0.48-0.961-0.48-1.816c-1.494,1.139-2.42,1.798-2.775,1.975c-0.568,0.285-1.174,0.428-1.814,0.428
		c-0.996,0-1.797-0.338-2.403-1.015c-0.675-0.711-1.015-1.619-1.015-2.723c0-0.676,0.161-1.281,0.48-1.815
		c0.43-0.676,1.176-1.334,2.243-1.975s2.829-1.405,5.284-2.295v-0.534c0-1.458-0.23-2.438-0.693-2.936
		c-0.462-0.533-1.12-0.8-1.976-0.8c-0.64,0-1.156,0.178-1.548,0.534c-0.393,0.356-0.588,0.747-0.588,1.174v0.908
		c0,0.499-0.123,0.872-0.373,1.121c-0.248,0.285-0.569,0.428-0.961,0.428c-0.391,0-0.693-0.143-0.907-0.428
		c-0.249-0.285-0.374-0.658-0.374-1.121c0-0.889,0.445-1.708,1.336-2.456c0.924-0.748,2.223-1.121,3.896-1.121
		c1.281,0,2.313,0.212,3.096,0.64c0.641,0.32,1.104,0.818,1.389,1.495C167.399,23.771,167.487,24.697,167.487,26.084z
		 M164.924,27.366c-1.564,0.64-2.579,1.085-3.042,1.334c-0.819,0.463-1.405,0.943-1.763,1.441c-0.355,0.499-0.533,1.05-0.533,1.654
		c0,0.748,0.213,1.372,0.642,1.869c0.462,0.499,0.979,0.748,1.548,0.748c0.783,0,1.833-0.534,3.148-1.602V27.366z M118.855,16.849
		c0-0.783-0.125-1.298-0.374-1.547c-0.32-0.249-0.854-0.375-1.602-0.375v5.606c0.748,0,1.264-0.089,1.549-0.267
		c0.285-0.214,0.427-0.872,0.427-1.975V16.849z M124.995,17.49c0,1.993-0.25,3.327-0.748,4.004
		c-0.499,0.676-1.458,1.067-2.883,1.174c1.317,0.356,2.188,0.801,2.617,1.334c0.462,0.534,0.747,1.032,0.854,1.495
		c0.107,0.426,0.161,1.672,0.161,3.737v6.673h-6.14v-8.436c0-1.353-0.088-2.188-0.267-2.508c-0.249-0.321-0.819-0.481-1.709-0.481
		v11.425h-6.565V10.603h4.644c3.098,0,5.196,0.106,6.3,0.32c1.103,0.249,2.011,0.872,2.723,1.868
		C124.656,13.789,124.995,15.354,124.995,17.49z M127.823,30.675c0.428-0.676,1.174-1.334,2.243-1.975
		c1.067-0.641,2.829-1.405,5.285-2.295v-0.534c0-1.458-0.231-2.438-0.695-2.936c-0.462-0.533-1.12-0.8-1.974-0.8
		c-0.642,0-1.157,0.178-1.549,0.534c-0.392,0.356-0.586,0.747-0.586,1.174v0.908c0,0.499-0.125,0.872-0.375,1.121
		c-0.248,0.285-0.569,0.428-0.96,0.428c-0.393,0-0.695-0.143-0.909-0.428c-0.249-0.285-0.374-0.658-0.374-1.121
		c0-0.889,0.446-1.708,1.335-2.456c0.925-0.748,2.224-1.121,3.896-1.121c1.282,0,2.313,0.212,3.097,0.64
		c0.64,0.32,1.104,0.818,1.388,1.495c0.178,0.462,0.267,1.388,0.267,2.776v4.858c0,1.353,0.036,2.188,0.107,2.51
		c0.036,0.32,0.124,0.516,0.267,0.587c0.106,0.106,0.231,0.159,0.373,0.159c0.179,0,0.32-0.035,0.428-0.106
		c0.249-0.106,0.675-0.48,1.28-1.121v0.854c-1.173,1.566-2.294,2.35-3.362,2.35c-0.498,0-0.89-0.178-1.175-0.534
		c-0.32-0.356-0.48-0.961-0.48-1.816c-1.495,1.139-2.42,1.798-2.777,1.975c-0.568,0.285-1.173,0.428-1.814,0.428
		c-0.996,0-1.796-0.338-2.403-1.015c-0.675-0.711-1.014-1.619-1.014-2.723C127.343,31.814,127.503,31.209,127.823,30.675z
		 M130.012,31.796c0,0.748,0.213,1.372,0.64,1.869c0.463,0.499,0.979,0.748,1.549,0.748c0.783,0,1.833-0.534,3.149-1.602v-5.444
		c-1.565,0.64-2.58,1.085-3.043,1.334c-0.818,0.463-1.405,0.943-1.761,1.441C130.19,30.64,130.012,31.191,130.012,31.796z
		 M151.9,16.369l0.96-2.883h3.363l-1.867,2.883H151.9z M155.315,17.757v18.151h-4.429V17.757H155.315z M150.191,16.369h-4.271v6.032
		h3.845v2.722h-3.845v10.784h-4.963V13.486h9.235V16.369z M81.378,23.362c-0.498-0.534-1.121-0.801-1.868-0.801
		c-1.531,0-2.937,1.103-4.217,3.31c-1.282,2.171-1.923,4.342-1.923,6.514c0,0.996,0.25,1.761,0.748,2.295
		c0.499,0.534,1.121,0.801,1.869,0.801c1.458,0,2.847-1.085,4.165-3.257c1.281-2.17,1.921-4.394,1.921-6.672
		C82.073,24.59,81.842,23.861,81.378,23.362z M89.227,22.454c0.784-1.637,1.745-3.025,2.883-4.164
		c1.174-1.138,2.438-2.047,3.79-2.722c1.851-0.891,3.808-1.334,5.873-1.334c1.494,0,2.865,0.249,4.11,0.746
		c0.462,0.178,0.818,0.267,1.067,0.267c0.249,0,0.48-0.053,0.695-0.16c0.178-0.107,0.408-0.392,0.692-0.854h0.588l-1.602,6.673
		h-0.588c0.108-0.783,0.161-1.371,0.161-1.762c0-0.997-0.446-1.886-1.335-2.669c-0.924-0.819-2.17-1.229-3.736-1.229
		c-3.274,0-5.926,1.531-7.954,4.592c-1.638,2.42-2.457,5.107-2.457,8.061c0,1.993,0.499,3.701,1.496,5.125
		c1.032,1.459,2.597,2.188,4.696,2.188c0.498,0,0.997-0.053,1.496-0.159c0.426-0.072,1.122-0.285,2.082-0.642l1.548-5.445
		c0.213-0.748,0.32-1.334,0.32-1.762c0-0.391-0.142-0.694-0.427-0.907c-0.427-0.285-1.121-0.428-2.082-0.428h-0.481l0.213-0.64
		h8.809l-0.16,0.64c-0.819,0-1.407,0.09-1.763,0.267c-0.354,0.178-0.675,0.48-0.961,0.908c-0.177,0.285-0.461,1.104-0.853,2.456
		l-1.549,5.392c-1.423,0.605-2.581,1.015-3.47,1.229c-0.854,0.177-1.778,0.267-2.775,0.267c-2.206,0-4.004-0.41-5.392-1.229
		c-1.387-0.854-2.42-1.957-3.097-3.309c-0.64-1.389-0.96-2.777-0.96-4.165C88.106,25.871,88.479,24.127,89.227,22.454z"/>
</g>
<g>
	<path d="M48.067,7.301c0.751,1.475,1.914,2.222,3.454,2.748c0.982,0.335,1.4-1.215,0.427-1.548
		c-1.167-0.398-1.932-0.905-2.495-2.011C48.983,5.568,47.598,6.38,48.067,7.301L48.067,7.301z"/>
</g>
</svg>
