<?xml version="1.0" encoding="utf-8"?>
<!-- Generator: Adobe Illustrator 16.0.0, SVG Export Plug-In . SVG Version: 6.00 Build 0)  -->
<!DOCTYPE svg PUBLIC "-//W3C//DTD SVG 1.1//EN" "http://www.w3.org/Graphics/SVG/1.1/DTD/svg11.dtd">
<svg version="1.1" id="Capa_1" xmlns="http://www.w3.org/2000/svg" xmlns:xlink="http://www.w3.org/1999/xlink" x="0px" y="0px"
	 width="110px" height="45.334px" viewBox="0 0 110 45.334" enable-background="new 0 0 110 45.334" xml:space="preserve">
<path fill="#FFFFFF" d="M7.286,9.154c-4.494,8.186-4.494,4.333-4.013,12.037c0.482,3.852,2.729,4.814,3.691,7.222
	c1.444,2.889,2.729,7.383,4.173,9.79c5.777,6.741,26.481-0.16,34.185-0.16c7.222,0,11.555,2.407,18.777,1.926
	c5.296-0.481,10.592-0.481,15.407,0c4.815,0.481,11.556,2.407,15.889,0.481c3.37-0.963,9.468-10.111,10.913-13.963
	c1.926-3.37-0.161-11.234-1.124-15.086c-6.259,8.666-11.234,4.333-14.123-1.444c-3.371,3.37-7.543,4.654-12.84,4.654
	c-5.777,0-2.567-2.086-6.901-4.494c-6.259-2.889-18.296,3.691-19.259-5.457c-6.259,4.815-14.444-0.802-22.629-0.802
	c-6.741,0-13.482-1.444-19.741,1.444"/>
<g>
	<path d="M7.024,5.476c1.083,3.063-0.665,3.833-2.619,5.45c-1.57,1.3-1.8,3.478-1.935,5.35c-0.175,2.432-0.82,6.836,0.059,9.102
		c1.125,2.901,3.067,4.766,4.896,7.253c0.606,0.825,2,0.025,1.386-0.81c-2.296-3.123-4.867-5.446-4.826-9.707
		c0.035-3.627-0.595-8.805,2.864-11.007c2.669-1.699,2.805-2.992,1.721-6.058C8.229,4.08,6.679,4.497,7.024,5.476L7.024,5.476z"/>
</g>
<g>
	<path d="M6.996,31.905c0.008,1.828-0.006,3.733,0.855,5.393c0.92,1.772,3,2.976,4.516,4.162c0.805,0.63,1.949-0.498,1.135-1.135
		c-1.333-1.043-2.929-2.031-3.976-3.387c-1.062-1.376-0.918-3.399-0.925-5.033C8.596,30.87,6.991,30.87,6.996,31.905L6.996,31.905z"
		/>
</g>
<g>
	<path d="M14.219,42.017c4.204-0.112,8.778-1.808,12.756,0.211c0.92,0.467,1.733-0.917,0.81-1.386
		c-4.347-2.206-8.968-0.553-13.566-0.431C13.186,40.439,13.183,42.044,14.219,42.017L14.219,42.017z"/>
</g>
<g>
	<path d="M28.342,42.658c3.032,0.346,5.548-0.296,8.418-1.277c4.976-1.701,9.125-1.521,13.968,0.525
		c0.942,0.398,1.761-0.984,0.811-1.386c-3.662-1.547-6.902-2.329-10.889-1.86c-4.358,0.512-7.738,2.913-12.307,2.392
		C27.315,40.936,27.326,42.542,28.342,42.658L28.342,42.658z"/>
</g>
<g>
	<path d="M52.738,41.374c4.787,0.623,9.118,0.692,13.566-1.394c0.937-0.439,0.122-1.822-0.81-1.386
		c-4.163,1.952-8.313,1.753-12.756,1.174C51.714,39.635,51.727,41.242,52.738,41.374L52.738,41.374z"/>
</g>
<g>
	<path d="M66.862,39.448c2.68,0.001,5.359,0.014,8.025,0.32c1.027,0.119,1.016-1.488,0-1.604c-2.666-0.307-5.345-0.32-8.025-0.32
		C65.827,37.843,65.827,39.448,66.862,39.448L66.862,39.448z"/>
</g>
<g>
	<path d="M78.097,41.695c5.601,0.673,11.197,1.45,16.584-0.67c0.952-0.375,0.538-1.927-0.427-1.548
		c-5.26,2.071-10.704,1.269-16.158,0.613C77.071,39.967,77.083,41.573,78.097,41.695L78.097,41.695z"/>
</g>
<g>
	<path d="M96.319,41.139c3.726-3.217,5.599-7.989,9.309-11.234c0.781-0.683-0.359-1.813-1.135-1.135
		c-3.713,3.247-5.587,8.021-9.309,11.234C94.4,40.681,95.54,41.812,96.319,41.139L96.319,41.139z"/>
</g>
<g>
	<path d="M105.571,12.11c-0.804,5.115,0.192,10.345-0.963,15.408c-0.23,1.008,1.318,1.436,1.548,0.427
		c1.16-5.083,0.158-10.286,0.963-15.408C107.278,11.525,105.732,11.09,105.571,12.11L105.571,12.11z"/>
</g>
<g>
	<path d="M96.394,16.016c3.046-0.1,5.391-1.805,8.239-2.597c0.996-0.277,0.572-1.826-0.427-1.548
		c-2.676,0.745-4.958,2.446-7.812,2.54C95.362,14.444,95.358,16.049,96.394,16.016L96.394,16.016z"/>
</g>
<g>
	<path d="M96.445,15.128c-0.938-1.297-1.513-2.741-1.845-4.302c-0.215-1.012-1.762-0.583-1.548,0.427
		c0.357,1.682,0.996,3.288,2.007,4.686C95.66,16.769,97.053,15.969,96.445,15.128L96.445,15.128z"/>
</g>
<g>
	<path d="M79.787,14.943c3.444-2.276,7.723-3.326,11.792-3.742c1.019-0.104,1.029-1.71,0-1.605
		c-4.355,0.446-8.91,1.521-12.603,3.962C78.117,14.125,78.92,15.516,79.787,14.943L79.787,14.943z"/>
</g>
<g>
	<path d="M80.902,12.915c-3.379,1.454-7.712,0.824-8.102-3.48c-0.092-1.022-1.698-1.031-1.604,0
		c0.508,5.616,5.943,6.834,10.517,4.866C82.661,13.892,81.842,12.51,80.902,12.915L80.902,12.915z"/>
</g>
<g>
	<path d="M53.701,9.596c5,0.412,10.04,1.807,14.979,0.292c0.986-0.303,0.565-1.852-0.427-1.548
		c-4.775,1.465-9.718,0.049-14.553-0.35C52.669,7.905,52.677,9.511,53.701,9.596L53.701,9.596z"/>
</g>
<g>
	<path d="M54.427,7.458c-1.288-0.79-2.158-1.512-2.52-3.051c-0.147-0.624-0.909-0.731-1.341-0.354
		C49.192,5.25,47.84,6.27,45.957,6.345c-1.828,0.073-3.635-1.396-5.011-2.418c-0.832-0.618-1.631,0.776-0.811,1.386
		c4.188,3.111,7.559,3.368,11.565-0.125c-0.447-0.118-0.894-0.236-1.341-0.354c0.469,1.991,1.556,2.967,3.258,4.01
		C54.502,9.386,55.308,7.997,54.427,7.458L54.427,7.458z"/>
</g>
<g>
	<path d="M9.725,5.102c4.815,0,9.63,0,14.445,0c4.609,0,9.611-2.27,14.04-0.11c0.926,0.452,1.74-0.932,0.81-1.386
		c-3.121-1.522-6.41-1.126-9.77-0.648C22.803,3.875,16.224,3.496,9.725,3.496C8.689,3.496,8.689,5.102,9.725,5.102L9.725,5.102z"/>
</g>
<g>
	<path fill-rule="evenodd" clip-rule="evenodd" fill="#C51918" d="M27.465,14.466c0.117-1.163,0.524-2.21,1.221-3.141
		c0.659-0.969,1.571-1.706,2.734-2.21c1.202-0.503,2.577-0.755,4.129-0.755c1.473,0,2.792,0.233,3.955,0.697
		c1.202,0.505,2.151,1.241,2.849,2.21c0.698,0.931,1.125,1.978,1.28,3.141c0.116,1.124,0.174,3.101,0.174,5.931v4.711
		c0,2.792-0.058,4.77-0.174,5.933c-0.117,1.123-0.523,2.17-1.221,3.14c-0.698,0.97-1.628,1.706-2.792,2.21
		c-1.163,0.505-2.52,0.757-4.07,0.757c-1.474,0-2.792-0.233-3.955-0.699c-1.202-0.504-2.152-1.24-2.849-2.209
		c-0.737-0.97-1.164-2.016-1.28-3.14c-0.155-1.125-0.233-3.122-0.233-5.991v-4.711C27.232,17.587,27.31,15.629,27.465,14.466z
		 M25.43,9.929v2.617c-1.667-0.582-3.314-0.873-4.943-0.873c-1.705,0-2.888,0.33-3.547,0.989c-0.698,0.659-1.048,1.803-1.048,3.431
		v2.326h8.841v2.559h-8.841v15.529H12.52V20.979H7.459V18.42h5.061v-1.977c0-2.559,0.601-4.421,1.803-5.583
		c1.201-1.124,3.18-1.686,5.931-1.686C22.076,9.174,23.802,9.425,25.43,9.929z M48.053,15.28c0.116,0.116,0.291,0.174,0.523,0.174
		l13.725,0.058c0.115,0,0.252,0.02,0.407,0.059c0.776,0.039,1.261,0.058,1.454,0.058c0.156,0,0.291-0.058,0.408-0.175
		c0.039-0.039,0.233-0.407,0.582-1.105c0.116-0.31,0.291-0.464,0.523-0.464c0.078,0,0.193,0.019,0.349,0.058
		c0.039,0.233,0.058,0.446,0.058,0.64v2.093c0,0.35-0.02,1.473-0.058,3.374c0,0.116-0.02,0.233-0.058,0.349
		c-0.155,0.078-0.272,0.117-0.35,0.117s-0.154-0.04-0.232-0.117c-0.077-0.077-0.156-0.349-0.232-0.814
		c-0.233-1.008-0.524-1.725-0.873-2.151c-0.232-0.271-0.562-0.485-0.989-0.64c-0.426-0.117-1.454-0.175-3.082-0.175
		c-1.28,0-2.229,0-2.85,0C57.32,17.083,57.3,17.49,57.3,17.838l0.174,10.643c0,0.426-0.019,1.221-0.059,2.384v3.489
		c0,0.427,0.059,0.718,0.175,0.873c0.155,0.155,0.523,0.329,1.105,0.523c1.046,0.233,1.745,0.387,2.094,0.466
		c0.232,0,0.406,0.039,0.523,0.116v0.524l-2.385-0.058c-1.356,0-2.364-0.019-3.023-0.059l-4.304,0.175c-0.503,0-0.814,0-0.93,0
		l-0.233-0.116c0-0.271,0.04-0.446,0.117-0.523c0.078-0.077,0.291-0.137,0.64-0.175c0.464-0.039,1.028-0.155,1.687-0.349
		c0.659-0.194,1.086-0.368,1.279-0.523c0.116-0.116,0.193-0.292,0.232-0.524c0.117-0.503,0.174-1.493,0.174-2.966l-0.174-15.121
		c-0.698,0-1.609,0-2.734,0c-1.627,0-2.617,0.098-2.966,0.291c-0.582,0.31-1.414,1.221-2.5,2.734
		c-0.35,0.542-0.66,0.813-0.932,0.813h-0.174c-0.04-0.077-0.058-0.135-0.058-0.174c0-0.156,0.097-0.582,0.291-1.28
		c0.193-0.853,0.33-1.435,0.407-1.745l0.697-2.558c0.039-0.351,0.098-0.563,0.175-0.641c0.078-0.116,0.155-0.173,0.233-0.173
		c0.233,0,0.465,0.252,0.697,0.755C47.724,14.99,47.898,15.202,48.053,15.28z M36.479,13.536c-0.155-0.35-0.464-0.523-0.93-0.523
		c-0.349,0-0.621,0.154-0.815,0.464c-0.232,0.271-0.349,1.125-0.349,2.559v12.853c0,1.59,0.077,2.578,0.233,2.967
		c0.116,0.388,0.406,0.582,0.873,0.582c0.503,0,0.833-0.214,0.988-0.641c0.117-0.464,0.175-1.492,0.175-3.081V16.036
		C36.655,14.718,36.597,13.885,36.479,13.536z M73.293,22.608c-0.622,0.892-1.086,1.938-1.396,3.141
		c-0.349,1.202-0.523,2.442-0.523,3.721c0,1.59,0.387,2.792,1.163,3.606c0.737,0.853,1.803,1.279,3.199,1.279
		c1.125,0,2.113-0.251,2.966-0.755c0.893-0.543,1.648-1.28,2.268-2.21c0.621-0.891,1.105-1.938,1.454-3.141
		c0.31-1.202,0.465-2.461,0.465-3.78c0-1.589-0.387-2.791-1.163-3.605c-0.737-0.814-1.802-1.221-3.198-1.221
		c-1.086,0-2.075,0.25-2.966,0.755C74.669,20.94,73.914,21.677,73.293,22.608z M74.572,18.013c1.358-0.697,2.85-1.047,4.479-1.047
		c2.171,0,3.915,0.622,5.234,1.862c1.279,1.24,1.918,3.023,1.918,5.35c0,1.706-0.251,3.354-0.755,4.943
		c-0.543,1.552-1.28,2.908-2.21,4.071c-1.009,1.202-2.151,2.152-3.432,2.849c-1.318,0.659-2.83,0.989-4.536,0.989
		c-2.288,0-4.053-0.64-5.293-1.918c-1.278-1.28-1.918-3.063-1.918-5.352c0-1.705,0.271-3.333,0.814-4.884
		c0.505-1.552,1.241-2.928,2.209-4.13C72.013,19.583,73.177,18.672,74.572,18.013z M93.771,21.321c-0.543,0-0.969,0.156-1.28,0.466
		c-0.349,0.311-0.522,0.678-0.522,1.105c0,0.388,0.077,0.736,0.232,1.046c0.117,0.31,0.446,0.737,0.989,1.28
		c1.784,1.938,2.868,3.276,3.257,4.012c0.389,0.698,0.582,1.473,0.582,2.326c0,0.892-0.232,1.745-0.697,2.559
		c-0.466,0.776-1.145,1.416-2.035,1.92c-0.893,0.465-1.823,0.697-2.792,0.697c-0.659,0-1.474-0.135-2.442-0.407
		c-0.658-0.156-1.145-0.233-1.454-0.233c-0.272,0-0.485,0.039-0.64,0.116c-0.155,0.078-0.33,0.252-0.523,0.523h-0.641l0.815-5.641
		h0.524c0.427,1.356,0.814,2.327,1.163,2.908c0.349,0.582,0.814,1.046,1.396,1.396c0.542,0.349,1.085,0.523,1.628,0.523
		c0.62,0,1.145-0.193,1.571-0.582c0.387-0.387,0.582-0.853,0.582-1.395c0-0.542-0.117-1.066-0.349-1.571
		c-0.272-0.504-0.893-1.279-1.862-2.326c-1.357-1.435-2.229-2.54-2.617-3.314c-0.311-0.582-0.464-1.24-0.464-1.978
		c0-1.202,0.445-2.21,1.336-3.023c0.892-0.854,2.152-1.28,3.78-1.28c0.699,0,1.55,0.136,2.559,0.408
		c0.504,0.116,0.911,0.173,1.221,0.173c0.466,0,0.834-0.193,1.105-0.581h0.582l-0.756,5.292h-0.582
		c-0.116-1.356-0.543-2.423-1.279-3.199C95.418,21.729,94.624,21.321,93.771,21.321z"/>
</g>
<g>
	<path d="M33.221,42.641c6.866-4.256,16.283-2.347,23.771-1.109c1.012,0.167,1.446-1.379,0.427-1.548
		c-7.982-1.32-17.701-3.259-25.008,1.271C31.533,41.799,32.338,43.188,33.221,42.641L33.221,42.641z"/>
</g>
<g>
	<path d="M63.558,41.451c4.836-2.163,10.066-1.051,14.849,0.676c0.831,0.3,1.24-0.783,0.781-1.341
		c-1.388-1.689-3.091-1.989-5.113-2.586c-0.995-0.294-1.417,1.255-0.427,1.548c1.658,0.49,3.237,0.752,4.405,2.173
		c0.26-0.447,0.521-0.894,0.781-1.341c-5.251-1.896-10.827-2.865-16.085-0.514C61.805,40.487,62.622,41.87,63.558,41.451
		L63.558,41.451z"/>
</g>
<g>
	<path d="M3.455,27.851c3.837,0.729,4.461,3.49,5.29,6.82c0.641,2.579,1.776,4.702,4.037,6.186c0.868,0.57,1.671-0.82,0.81-1.386
		c-3.046-2.001-3.149-5.453-4.203-8.605c-0.876-2.624-2.844-4.057-5.506-4.563C2.87,26.111,2.438,27.657,3.455,27.851L3.455,27.851z
		"/>
</g>
<g>
	<path d="M8.011,10.039c0.205-1.321,1.001-2.022,0.595-3.401C8.418,6.967,8.232,7.296,8.045,7.625
		c3.782-0.582,7.621-0.655,11.303-1.785c0.859-0.264,0.708-1.577-0.213-1.577c-3.569,0-7.138,0-10.708,0
		c-1.035,0-1.035,1.605,0,1.605c3.569,0,7.138,0,10.708,0c-0.071-0.526-0.142-1.051-0.213-1.577
		c-3.675,1.128-7.525,1.204-11.303,1.785C7.191,6.144,6.945,6.682,7.058,7.065c0.19,0.643-0.489,1.865-0.595,2.547
		C6.306,10.625,7.853,11.06,8.011,10.039L8.011,10.039z"/>
</g>
<g>
	<path d="M95.658,16.548c4.404,0.975,7.563-1.123,10.893-3.776c-0.447-0.118-0.894-0.236-1.341-0.354
		c1.221,5.151,1.601,10.685-1.108,15.443c-0.513,0.901,0.874,1.709,1.386,0.811c2.925-5.136,2.592-11.1,1.271-16.68
		c-0.152-0.643-0.898-0.707-1.341-0.354c-2.835,2.258-5.523,4.206-9.332,3.363C95.076,14.777,94.647,16.325,95.658,16.548
		L95.658,16.548z"/>
</g>
<g>
	<path d="M51.284,7.419c5.312,5.356,12.961,2.892,19.221,0.801c-0.26-0.447-0.521-0.894-0.781-1.341
		c-2.726,2.847-7.014,2.067-10.521,1.578c-1.012-0.141-1.448,1.405-0.427,1.548c4.153,0.579,8.896,1.337,12.083-1.991
		c0.531-0.555,0.01-1.605-0.781-1.341c-5.635,1.882-12.813,4.499-17.66-0.388C51.689,5.548,50.555,6.684,51.284,7.419L51.284,7.419z
		"/>
</g>
<g>
	<path d="M70.679,8.042c-1.424,12.678,16.227,4.017,22.217,3.776c1.031-0.042,1.035-1.647,0-1.605
		c-5.278,0.212-21.788,8.299-20.612-2.171C72.4,7.014,70.793,7.025,70.679,8.042L70.679,8.042z"/>
</g>
</svg>
