<?xml version="1.0" encoding="utf-8"?>
<!-- Generator: Adobe Illustrator 16.0.0, SVG Export Plug-In . SVG Version: 6.00 Build 0)  -->
<!DOCTYPE svg PUBLIC "-//W3C//DTD SVG 1.1//EN" "http://www.w3.org/Graphics/SVG/1.1/DTD/svg11.dtd">
<svg version="1.1" id="Capa_1" xmlns="http://www.w3.org/2000/svg" xmlns:xlink="http://www.w3.org/1999/xlink" x="0px" y="0px"
	 width="124.333px" height="48.001px" viewBox="0 0 124.333 48.001" enable-background="new 0 0 124.333 48.001"
	 xml:space="preserve">
<g>
	<path fill="#57575B" d="M23.305,9.427c-3.21,1.284-6.42,1.605-9.951,1.605c-4.173,0.321-5.778-0.963-7.383,2.247
		c-0.321,0.321,0.963,2.568,0.642,3.21c-0.642,1.605-2.889,1.605-3.21,2.568C1.156,24.514,5.008,36.07,8.86,40.563
		c1.926,1.926-1.926,1.926,0.963,2.568c1.605,0.321,6.099-0.642,8.025-0.642c4.815,0,8.346-0.642,12.84-1.284
		c1.605-0.321,3.531-1.284,4.815-0.642c1.926,0.642,1.926,1.605,3.21,2.247c4.173,1.605,11.234,0,15.407-0.963
		c4.173-0.642,8.025-1.926,11.877-0.642c2.568,0.642,3.21,2.889,6.099,2.889c2.889,0,2.889-1.605,4.815-2.247
		c7.383-2.247,14.124,2.889,20.544,0.963c3.852-0.963,5.457-2.889,9.63-3.21c3.852-0.321,6.42,0.963,9.309-2.247
		c3.852-4.173,0.642-6.099,0.321-10.593c-0.321-5.136,3.852-8.346,4.494-13.161c-8.025-2.568-14.766-6.741-22.47-3.21
		c-3.21,1.605-7.704,4.494-11.556,2.568c-4.173-2.247-0.643-8.346-6.42-10.272c0.963,3.853-2.247,5.457-5.778,6.741
		c-4.815,1.284-5.457-0.963-9.63-2.247c-6.741-2.247-13.161,3.852-19.26,1.284c0.963-1.284,2.247-2.568,3.531-4.173
		C44.491,3.328,38.392,3.97,32.935,5.253c-4.494,0.963-7.704,4.173-11.877,5.458"/>
	<g>
		<path d="M23.092,8.653c-3.692,1.298-7.32,1.481-11.187,1.633c-1.862,0.073-3.415-0.269-5.095,0.639
			c-0.991,0.536-1.651,1.819-1.631,2.9c0.021,1.141,1.434,2.103-0.285,3.291c-0.777,0.537-1.45,0.632-2.058,1.374
			c-2.151,2.626-0.632,8.372,0.058,11.242c0.633,2.636,1.7,5.16,2.898,7.583c0.553,1.12,2.965,3.714,2.221,4.959
			c-0.171,0.287-0.148,0.749,0.125,0.973c2.602,2.133,8.379,0.068,11.46,0.017c3.236-0.053,6.462-0.575,9.659-1.044
			c1.448-0.212,2.766-0.53,4.172-0.921c2.105-0.586,3.449,1.222,4.879,2.206c3.84,2.643,12.006,0.037,16.025-0.882
			c4.739-1.084,10.032-2.225,14.188,0.962c1.505,1.154,3.333,1.63,5.213,1.112c0.465-0.128,0.936-0.341,1.317-0.64
			c2.845-2.227,6.016-2.148,9.325-1.675c2.995,0.428,5.884,1.321,8.903,1.64c2.516,0.265,5.184-0.479,7.443-1.518
			c3.92-1.802,7.16-2.012,11.376-2.14c3.878-0.117,7.069-3.932,6.921-7.665c-0.164-4.128-2.326-6.461-0.355-10.997
			c1.178-2.712,2.708-4.953,3.316-7.888c0.093-0.447-0.125-0.841-0.561-0.987c-7.155-2.404-15.568-7.001-23.088-3.129
			c-1.983,1.021-3.891,2.017-6.018,2.737c-4.185,1.417-6.435-1.939-7.056-5.417c-0.451-2.524-1.781-4.012-4.093-5.024
			c-0.479-0.21-1.295,0.017-1.208,0.693c0.736,5.707-7.043,7.156-10.589,5.415c-1.729-0.849-3.49-1.889-5.456-2.083
			C57.904,5.422,52.186,9.588,46.309,7.69c0.118,0.447,0.236,0.894,0.354,1.341c1.142-1.421,2.363-2.773,3.531-4.173
			c0.34-0.408,0.301-1.24-0.354-1.341c-4.636-0.714-9.162-0.457-13.78,0.277c-5.801,0.922-9.84,4.19-15.215,6.143
			c-0.965,0.351-0.548,1.902,0.427,1.548c3.661-1.331,6.793-3.66,10.423-5.059c5.326-2.052,12.135-2.222,17.719-1.361
			c-0.118-0.447-0.236-0.894-0.354-1.341c-1.168,1.4-2.39,2.752-3.531,4.173c-0.38,0.473-0.262,1.143,0.354,1.341
			c3.418,1.104,6.434,0.433,9.816-0.521c2.249-0.635,4.437-1.17,6.788-1.236c2.781-0.077,4.789,1.693,7.23,2.56
			c4.968,1.763,12.621-1.372,11.85-7.354c-0.403,0.231-0.805,0.462-1.208,0.693c4.291,1.879,2.78,6.523,5.424,9.564
			c1.97,2.266,6.146,1.509,8.49,0.506c2.659-1.138,5.115-2.609,7.929-3.354c4.015-1.063,8.431,0.574,12.178,1.902
			c3.265,1.157,6.641,1.138,4.822,5.194c-0.985,2.196-2.234,4.173-2.978,6.478c-0.498,1.543-0.304,3.154-0.083,4.715
			c0.167,1.173,0.7,2.361,1.066,3.483c1.398,4.288-3.066,6.829-6.246,6.926c-1.957,0.059-3.788-0.008-5.735,0.263
			c-2.757,0.383-5.359,2.184-7.985,2.981c-5.483,1.667-11.585-1.605-17.205-1.544c-1.475,0.016-3.469,0.314-4.656,1.268
			c-3.223,2.59-5.051,0.964-7.836-0.811c-3.818-2.433-9.616-0.569-13.638,0.124c-2.774,0.479-5.442,1.175-8.256,1.495
			c-1.852,0.211-3.679,0.134-5.52-0.171c-2.25-0.373-1.673-1.331-3.09-1.996c-3.842-1.802-8.627,0.373-12.653,0.884
			c-2.499,0.317-4.998,0.317-7.507,0.454c-1.524,0.083-6.038-0.041-7.176,1.008c1.641-1.513-1.274-4.085-1.953-5.195
			c-2.743-4.484-4.33-10.264-4.179-15.507c0.08-2.78,1.506-2.647,3.058-4.199c0.612-0.612,1.02-1.42,0.746-2.299
			c-1.412-4.531,5.319-3.703,7.718-3.744c2.911-0.05,5.688-0.642,8.424-1.604C24.488,9.86,24.071,8.309,23.092,8.653L23.092,8.653z"
			/>
	</g>
</g>
<g>
	<path fill-rule="evenodd" clip-rule="evenodd" fill="#FFFFFF" d="M45.341,23.149v-0.537c0.573-0.214,1.162-0.59,1.771-1.127
		c0.608-0.571,1.145-1.234,1.61-1.986c0.25-0.393,0.59-1.126,1.02-2.2h0.482v4.776h3.327v1.073h-3.327v9.336
		c0,0.929,0.126,1.556,0.376,1.878c0.286,0.322,0.625,0.483,1.02,0.483c0.357,0,0.697-0.09,1.018-0.268
		c0.323-0.25,0.572-0.573,0.752-0.966h0.645c-0.394,1.002-0.913,1.771-1.557,2.308c-0.68,0.5-1.378,0.75-2.093,0.75
		c-0.5,0-0.966-0.125-1.394-0.375c-0.466-0.286-0.824-0.661-1.074-1.126c-0.215-0.5-0.322-1.27-0.322-2.308v-9.711H45.341z
		 M39.6,16.121v4.829h4.131v4.829H39.6v5.581h4.828v5.097H33V11.023h11v5.097H39.6z M66.267,16.549
		c-0.428-0.322-0.949-0.537-1.556-0.644c-0.573-0.107-1.287-0.161-2.146-0.161h-3.112v8.799h2.736c0.895,0,1.7-0.071,2.414-0.215
		c0.715-0.178,1.324-0.5,1.825-0.965c0.464-0.465,0.804-1.002,1.019-1.61s0.322-1.306,0.322-2.093c0-0.715-0.125-1.323-0.376-1.824
		C67.143,17.3,66.767,16.872,66.267,16.549z M68.359,14.296c0.823,0.536,1.468,1.216,1.933,2.039
		c0.465,0.823,0.697,1.841,0.697,3.058c0,1.716-0.429,3.147-1.288,4.292c-0.858,1.181-2.039,2.04-3.541,2.577l8.316,10.194h-4.023
		l-7.459-9.283h-3.541v9.283H56.34V13.062h6.063c1.323,0,2.451,0.072,3.379,0.215C66.678,13.42,67.537,13.759,68.359,14.296z
		 M76.461,22.291h-0.16v-3.004c0.537-0.179,1.306-0.358,2.307-0.537c1.037-0.179,2.057-0.268,3.059-0.268
		c1.18,0,2.182,0.089,3.004,0.268c0.859,0.178,1.61,0.519,2.253,1.019c0.645,0.501,1.126,1.127,1.449,1.878
		c0.286,0.751,0.429,1.682,0.429,2.791v12.019h-2.898v-1.878c-0.249,0.178-0.572,0.429-0.965,0.75
		c-0.429,0.323-0.822,0.573-1.181,0.751c-0.536,0.287-1.038,0.501-1.5,0.645c-0.502,0.143-1.198,0.214-2.094,0.214
		c-0.714,0-1.394-0.143-2.039-0.428c-0.644-0.25-1.215-0.627-1.717-1.126c-0.466-0.465-0.84-1.056-1.126-1.771
		c-0.286-0.716-0.429-1.466-0.429-2.253c0-1.217,0.25-2.254,0.751-3.113c0.537-0.858,1.359-1.538,2.468-2.04
		c0.966-0.428,2.128-0.732,3.488-0.911c1.324-0.179,2.772-0.304,4.346-0.376v-0.591c0-0.679-0.107-1.233-0.322-1.663
		c-0.214-0.429-0.518-0.752-0.912-0.965c-0.357-0.25-0.805-0.412-1.341-0.483c-0.573-0.108-1.145-0.162-1.717-0.162
		c-0.679,0-1.484,0.108-2.415,0.322C78.304,21.593,77.391,21.897,76.461,22.291z M13.629,16.764
		c-0.106-0.286-0.339-0.537-0.698-0.751c-0.357-0.178-0.84-0.268-1.448-0.268h-0.697v-0.59h11.375v0.59h-0.912
		c-0.644,0-1.145,0.108-1.502,0.322c-0.286,0.143-0.5,0.394-0.644,0.75c-0.107,0.251-0.161,0.913-0.161,1.986v13.574
		c0,1.073,0.054,1.771,0.161,2.092c0.143,0.287,0.394,0.501,0.751,0.645c0.25,0.107,0.876,0.16,1.878,0.16h1.771
		c1.144,0,2.092-0.197,2.844-0.59c0.751-0.43,1.412-1.073,1.986-1.931c0.536-0.858,1.055-2.111,1.556-3.756h0.643l-0.805,7.458
		h-18.94v-0.591h0.697c0.644,0,1.145-0.106,1.503-0.321c0.286-0.143,0.502-0.393,0.643-0.751c0.108-0.25,0.162-0.912,0.162-1.985
		V18.804C13.791,17.695,13.738,17.015,13.629,16.764z M77.91,31.198c0,1.002,0.286,1.753,0.859,2.253
		c0.537,0.501,1.359,0.751,2.468,0.751c0.931,0,1.771-0.197,2.521-0.59c0.752-0.393,1.468-0.894,2.146-1.503V27.28
		c-0.714,0.037-1.609,0.126-2.683,0.269c-1.073,0.108-1.931,0.25-2.574,0.43c-0.787,0.25-1.45,0.626-1.986,1.126
		C78.16,29.606,77.91,30.304,77.91,31.198z M98.139,16.389c-0.715,0.322-1.27,0.752-1.663,1.288c-0.357,0.5-0.537,1.019-0.537,1.556
		c0,0.5,0.144,0.983,0.429,1.449c0.287,0.465,0.716,0.876,1.288,1.233c0.573,0.323,1.521,0.681,2.843,1.073l4.079,1.235
		c0.501,0.143,1.234,0.43,2.2,0.858c0.966,0.429,1.718,0.876,2.254,1.341c0.537,0.466,0.947,1.02,1.234,1.664
		c0.322,0.68,0.483,1.414,0.483,2.201c0,1.752-0.77,3.272-2.308,4.56c-1.502,1.324-3.469,1.985-5.902,1.985
		c-1.251,0-2.361-0.179-3.327-0.537c-1.001-0.357-2.075-1.001-3.219-1.931l-0.698,2.093h-1.126l-1.449-7.888l1.449-0.268
		c0.536,1.432,1.251,2.665,2.146,3.702c0.894,1.002,1.877,1.771,2.952,2.308c1.073,0.5,2.164,0.75,3.272,0.75
		c1.503,0,2.826-0.446,3.971-1.341c0.93-0.787,1.395-1.699,1.395-2.736c0-0.93-0.339-1.699-1.018-2.306
		c-0.717-0.609-1.951-1.182-3.704-1.718l-3.971-1.126c-2.182-0.644-3.719-1.467-4.614-2.468c-0.894-1.002-1.341-2.146-1.341-3.434
		c0-1.002,0.286-1.914,0.857-2.737c0.572-0.858,1.468-1.591,2.684-2.199c1.215-0.573,2.557-0.859,4.024-0.859
		c1.216,0,2.378,0.215,3.488,0.645c0.787,0.286,1.502,0.697,2.146,1.233l0.698-1.502h1.126l1.664,6.761l-1.448,0.43
		c-0.931-1.896-2.164-3.381-3.703-4.454c-1.253-0.894-2.629-1.341-4.132-1.341C99.73,15.906,98.89,16.067,98.139,16.389z"/>
</g>
<g>
	<path d="M15.596,43.74c7.866-0.209,19.461-5.353,26.364-0.11c0.824,0.626,1.623-0.769,0.81-1.386
		c-7.222-5.486-19.097-0.325-27.174-0.11C14.563,42.162,14.56,43.767,15.596,43.74L15.596,43.74z"/>
</g>
<g>
	<path d="M43.555,44.334c8.826,0.261,20.524-7.355,27.266,1.387c0.623,0.808,2.018,0.01,1.386-0.81
		c-7.441-9.65-18.938-1.895-28.651-2.183C42.519,42.699,42.522,44.304,43.555,44.334L43.555,44.334z"/>
</g>
<g>
	<path d="M98.254,44.099c5.619-5.942,14.221-0.684,19.339-7.635c1.371-1.863,0.053-4.521-0.555-6.354
		c-1.494-4.507,3.662-9.879,4.622-14.323c0.218-1.009-1.329-1.438-1.548-0.427c-0.877,4.059-3.413,7.407-4.759,11.303
		c-0.776,2.248,0.465,4.672,1.094,6.766c2.029,6.751-9.901,5.575-12.967,5.93c-2.644,0.306-4.588,1.73-6.362,3.606
		C96.409,43.716,97.542,44.853,98.254,44.099L98.254,44.099z"/>
</g>
<g>
	<path d="M48.881,10.192c5.7-5.49,13.736-1.99,20.45-0.833c4.232,0.729,7.822-0.052,9.499-4.28c0.382-0.963-1.171-1.377-1.548-0.427
		c-2.483,6.262-11.722,2.159-16.494,1.312C55.98,5.112,51.37,5.567,47.746,9.058C47,9.777,48.136,10.91,48.881,10.192L48.881,10.192
		z"/>
</g>
<g>
	<path d="M16.999,10.994c9.234-2.06,18.045-7.384,27.745-6.515c1.031,0.092,1.022-1.514,0-1.605
		c-9.87-0.884-18.781,4.478-28.172,6.572C15.563,9.671,15.991,11.218,16.999,10.994L16.999,10.994z"/>
</g>
<g>
	<path d="M2.925,18.929c-1.54,7.965,2.792,15.069,6.029,22.033c0.436,0.938,1.819,0.123,1.386-0.81
		c-3.026-6.511-7.311-13.329-5.867-20.797C4.668,18.345,3.122,17.914,2.925,18.929L2.925,18.929z"/>
</g>
<g>
	<path d="M118.328,14.002c1.963,5.04-0.411,9.329-2.893,13.659c-0.518,0.902,0.833,1.68,1.386,0.81
		c2.68-4.21,4.159-9.098,4.273-14.086c0.024-1.036-1.581-1.033-1.604,0c-0.108,4.717-1.522,9.298-4.055,13.277
		c0.462,0.27,0.924,0.54,1.386,0.81c2.702-4.711,5.174-9.454,3.055-14.895C119.504,12.622,117.952,13.036,118.328,14.002
		L118.328,14.002z"/>
</g>
<g>
	<path d="M13.812,43.144c8.643-0.174,20.521-4.466,27.986,1.549c0.798,0.643,1.941-0.485,1.135-1.135
		c-8.05-6.488-19.828-2.207-29.121-2.02C12.778,41.56,12.776,43.165,13.812,43.144L13.812,43.144z"/>
</g>
<g>
	<path d="M71.727,44.9c5.501-1.312,10.868-3.683,16.037-0.081c0.852,0.593,1.653-0.799,0.811-1.386
		c-5.556-3.872-11.304-1.504-17.274-0.081C70.293,43.592,70.72,45.14,71.727,44.9L71.727,44.9z"/>
</g>
<g>
	<path d="M85.194,43.739c2.338,0.004,4.567,0.102,6.733,1.08c0.135-0.499,0.271-0.997,0.405-1.495
		c-1.572-0.004-3.031-0.111-4.545-0.566c-0.071,0.525-0.142,1.051-0.213,1.576c2.578,0,5.155,0,7.733,0c1.035,0,1.035-1.604,0-1.604
		c-2.578,0-5.155,0-7.733,0c-0.919,0-1.076,1.316-0.213,1.576c1.66,0.5,3.245,0.619,4.972,0.623c0.75,0.002,1.16-1.154,0.405-1.495
		c-2.448-1.105-4.887-1.294-7.544-1.299C84.159,42.132,84.159,43.737,85.194,43.739L85.194,43.739z"/>
</g>
</svg>
