<?xml version="1.0" encoding="utf-8"?>
<!-- Generator: Adobe Illustrator 16.0.0, SVG Export Plug-In . SVG Version: 6.00 Build 0)  -->
<!DOCTYPE svg PUBLIC "-//W3C//DTD SVG 1.1//EN" "http://www.w3.org/Graphics/SVG/1.1/DTD/svg11.dtd">
<svg version="1.1" id="Capa_1" xmlns="http://www.w3.org/2000/svg" xmlns:xlink="http://www.w3.org/1999/xlink" x="0px" y="0px"
	 width="720px" height="71px" viewBox="0 0 720 71" enable-background="new 0 0 720 71" xml:space="preserve">
<path fill="#CCCBCB" d="M47.378,19.377c0,5.778,0.481,30.813,6.259,34.666c5.296,3.854,7.222-3.21,10.592-3.691
	c3.371,0,3.049,2.729,5.938,3.211c6.74,1.443,12.839-3.211,21.023-3.211c6.261,0,8.458,7.731,17.494,2.567
	c2.131-1.217,6.901,3.21,8.827,3.21c3.852,0.48,6.42-2.566,9.79-2.566c6.741-0.481,8.667,5.297,15.408,4.813
	c5.777-0.479,10.592-7.862,16.851-8.347c6.741-0.963,10.471,3.564,17.211,3.082c8.667-0.963,15.689-2.438,24.356,0.449
	c4.333,1.444,11.396,1.444,16.21,0.481c1.926-0.481,3.37-0.802,5.776-1.284c2.408-0.48,3.619,3.148,5.298,2.086
	c9.166-5.797,21.826,1.284,16.048-8.826c4.814-3.369,0-16.049-4.333-18.457c-4.815-3.37-11.876,1.766-16.691,0.321
	c-8.667-2.89-10.753-11.396-22.308-8.987c-5.778,0.963-16.172,1.846-22.913,0.401c-8.666-1.926-12.198,4.419-26.322,2.604
	c-12.535-1.612-10.308-0.599-22.345-2.043c-6.259-0.481-12.839-2.247-19.58-1.284c-4.815,0.963-13,5.617-18.778,4.655
	c-4.333-0.482-6.42-1.445-10.271-2.89c-8.666-1.926-16.691-1.604-25.358-3.05c-4.813-0.48-6.419-2.086-7.864,4.174
	c-0.48,2.406-0.32,10.912,1.124,12.838"/>
<g>
	<path d="M50.855,15.877c-7.292,5.925-3.581,14.561-3.114,22.455c0.245,4.174-0.337,7.121,1.705,10.938
		c1.317,2.463,3.62,6.432,6.888,6.469c4.474,0.051,6.237-5.164,10.733-2.58c0.704,0.404,1.172,1.964,2.162,2.107
		c1.811,0.262,3.368,0.245,5.074-0.41c4.126-1.582,7.394-2.244,11.804-2.545c1.077-0.074,12.099-0.666,11.805,1.155
		c-0.064,0.396,0.097,0.908,0.561,0.987c3.708,0.633,7.274-0.778,10.95-0.042c3.455,0.692,5.405,2.638,9.105,2.212
		c2.573-0.297,5.023-1.729,7.437-2.591c5.288-1.892,7.809,1.829,11.329,4.685c3.73,3.026,7.076,0.154,9.971-2.349
		c4.592-3.97,17.711-7.903,22.361-2.765c0.695,0.77,1.827-0.369,1.135-1.135c-4.259-4.707-11.852-2.533-17.075-0.935
		c-2.82,0.862-5.24,1.854-7.556,3.698c-3.254,2.595-5.891,4.168-9.356,0.9c-1.134-1.068-2.169-2.128-3.447-3.021
		c-2.298-1.605-5.269-1.321-7.788-0.627c-2.043,0.563-3.965,1.604-5.98,2.269c-3.228,1.063-5.471-0.414-8.393-1.431
		c-1.636-0.569-11.615-1.074-11.615-0.021c0-1.214-1.212-1.756-2.17-2.109c-4.946-1.826-11.805-0.572-16.879,0.033
		c-3.04,0.361-5.961,2.424-8.854,2.616c-2.606,0.175-4.538-3.049-7.382-3.54c-1.652-0.285-2.922,1.037-3.938,2.109
		c-6.181,6.515-11.12-6.391-11.054-10.316c0.139-8.166-4.688-19.062,2.72-25.082C52.793,16.359,51.65,15.231,50.855,15.877
		L50.855,15.877z"/>
</g>
<g>
	<path d="M170.834,54.482c7.245-0.185,14.241-2.352,21.507-2.246c6.507,0.093,12.828,5.465,19.474,3.822
		c2.937-0.726,5.334-2.24,8.453-2.218c2.608,0.019,4.682,1.688,7.08,1.648c2.348-0.039,5.123-1.741,7.373-2.403
		c4.313-1.268,9.408-0.32,13.795,0.113c0.482,0.047,0.963-0.557,0.774-1.016c-1.024-2.479-5.455-7.832-0.239-9.605
		c0.592-0.202,0.762-0.874,0.354-1.342c-2.766-3.172-3.822-6.277-4.521-10.359c-0.258-1.508-1.036-2.817-2.372-3.623
		c-6.878-4.147-13.846-1.4-21.173-0.027c-1.018,0.19-0.584,1.737,0.427,1.548c5.407-1.014,18.647-5.818,21.4,1.785
		c1.666,4.599,1.734,7.949,5.104,11.813c0.118-0.447,0.236-0.895,0.354-1.341c-6.979,2.375-2.896,6.708-0.882,11.579
		c0.258-0.338,0.516-0.676,0.773-1.016c-6.922-0.684-12.406-0.824-18.937,1.568c-2.764,1.012-4.784-0.314-7.587-0.803
		c-2.444-0.424-4.671-0.039-6.924,0.897c-7.867,3.271-13.619-1.739-21.251-2.481c-7.756-0.754-15.265,1.906-22.982,2.104
		C169.801,52.904,169.798,54.509,170.834,54.482L170.834,54.482z"/>
</g>
<g>
	<path d="M193.388,20.668c3.649-1.841,6.794-2.917,10.917-2.209c2.5,0.428,4.921,1.703,7.298,2.556
		c3.046,1.093,5.356,2.291,7.495,4.704c0.94,1.063,1.877,1.644,3.203,2.092c0.983,0.332,1.402-1.218,0.427-1.548
		c-2.561-0.865-4.073-3.751-6.438-5.064c-2.589-1.438-5.602-2.153-8.328-3.281c-5.491-2.27-10.265-1.218-15.385,1.365
		C191.654,19.749,192.466,21.133,193.388,20.668L193.388,20.668z"/>
</g>
<g>
	<path d="M193.946,19.494c-3.867-0.096-7.484,0.956-11.313-0.075c-2.909-0.784-4.879-2.119-7.979-1.732
		c-3.011,0.375-6.148,2.472-8.948,3.498c-4.237,1.552-8.208,0.888-12.314-0.698c-0.967-0.374-1.382,1.179-0.427,1.548
		c5.712,2.206,10.397,1.981,16.016-0.407c2.239-0.951,4.659-2.209,7.068-2.509c1.915-0.239,4.398,1.214,6.157,1.849
		c3.777,1.364,7.854,0.036,11.738,0.133C194.981,21.125,194.979,19.52,193.946,19.494L193.946,19.494z"/>
</g>
<g>
	<path d="M127.286,19.145c8.201,3.231,15.92,3.227,24.608,2.917c1.032-0.037,1.036-1.642,0-1.605
		c-8.494,0.303-16.141,0.309-24.183-2.86C126.748,17.217,126.334,18.77,127.286,19.145L127.286,19.145z"/>
</g>
<g>
	<path d="M126.537,17.888c-5.793-0.149-11.536-1.623-17.341-0.859c-1.53,0.202-2.946,0.811-4.15,1.775
		c-3.593,2.877-8.262,4.49-12.964,3.607c-5.825-1.094-10.893-4.252-16.931-4.25c-4.303,0.002-8.021,0.842-12.355-0.236
		c-3.829-0.953-7.405-2.106-11.374-2.284c-1.035-0.046-1.031,1.559,0,1.605c7.134,0.317,13.532,4.055,20.757,2.86
		c4.064-0.672,7.564-0.053,11.36,1.34c2.923,1.073,6.419,2.79,9.586,2.776c5.653-0.024,9.204-1.625,13.667-4.692
		c4.89-3.361,14.248-0.18,19.744-0.038C127.572,19.52,127.57,17.915,126.537,17.888L126.537,17.888z"/>
</g>
<g>
	<path fill="#040404" d="M156.373,34.462c1.212-2.314,3.17-3.472,5.877-3.472c0.926,0,2.065,0.143,3.419,0.427v5.289h-2.938v-2.35
		c-0.25-0.072-0.552-0.107-0.909-0.107c-1.068,0-2.028,0.249-2.884,0.748c-0.818,0.498-1.675,1.354-2.564,2.563v11.06h-3.687V31.31
		h3.687V34.462z M145.475,26.931v5.448h-0.694c-0.285-0.214-0.713-0.517-1.282-0.907c-0.571-0.429-1.105-0.767-1.604-1.016
		c-0.605-0.357-1.317-0.659-2.137-0.908c-0.819-0.214-1.675-0.32-2.565-0.32c-1.067,0-2.028,0.16-2.885,0.48
		c-0.89,0.285-1.673,0.748-2.35,1.389c-0.679,0.642-1.193,1.443-1.549,2.404c-0.393,0.961-0.589,2.083-0.589,3.365
		c0,2.563,0.677,4.522,2.03,5.877c1.39,1.389,3.419,2.084,6.091,2.084c0.213,0,0.463,0,0.748,0c0.285-0.036,0.534-0.056,0.748-0.056
		v-4.594h-4.648v-4.381h10.792v11.486c-1.068,0.428-2.458,0.838-4.167,1.229c-1.709,0.393-3.438,0.588-5.183,0.588
		c-3.954,0-7.053-1.067-9.296-3.205c-2.245-2.172-3.366-5.164-3.366-8.976c0-3.598,1.142-6.499,3.42-8.708
		c2.243-2.244,5.396-3.365,9.455-3.365c1.532,0,2.993,0.143,4.383,0.427C142.216,25.558,143.765,26.111,145.475,26.931z
		 M165.723,48.033c0.569-0.071,1.068-0.268,1.496-0.588c0.57-0.428,1.406-1.281,2.511-2.564l15.065-17.949h0.693l-0.693,17.361
		c-0.036,0.891-0.054,1.443-0.054,1.656c0,0.713,0.143,1.229,0.428,1.551c0.285,0.32,0.766,0.498,1.441,0.533l-0.159,0.588h-9.19
		l0.161-0.588c0.925-0.071,1.441-0.143,1.549-0.213c0.32-0.144,0.587-0.445,0.801-0.909c0.25-0.462,0.409-1.265,0.48-2.403
		l0.106-2.725h-6.57l-2.831,3.418c-0.285,0.393-0.499,0.748-0.643,1.068c-0.105,0.25-0.159,0.48-0.159,0.694
		c0,0.248,0.143,0.479,0.428,0.694c0.25,0.214,0.694,0.339,1.336,0.374v0.588h-6.358L165.723,48.033z M199.06,23.136h6.036V48.62
		h-6.197l-2.831-11.272V48.62h-6.037V23.136h5.983l3.046,11.221V23.136z M210.118,32.059c0.927-1.033,1.728-2.173,2.403-3.419h0.534
		v5.342h3.473v1.549h-3.473v9.029c0,0.854,0.036,1.405,0.108,1.655c0.07,0.25,0.213,0.445,0.427,0.589
		c0.178,0.141,0.356,0.213,0.535,0.213c0.677,0,1.316-0.517,1.923-1.55l0.48,0.374c-0.854,1.995-2.226,2.992-4.112,2.992
		c-0.926,0-1.71-0.268-2.352-0.802c-0.641-0.498-1.051-1.068-1.229-1.709c-0.106-0.357-0.16-1.318-0.16-2.886V35.53h-1.923v-0.533
		C208.07,34.071,209.192,33.091,210.118,32.059z M180.788,33.554l-5.931,6.945h5.503L180.788,33.554z M239.876,34.357
		c0.177,0,0.319-0.036,0.427-0.107s0.284-0.303,0.534-0.695h0.534l0.267,5.022h-0.534c-0.641-1.495-1.301-2.511-1.977-3.046
		c-0.677-0.533-1.354-0.801-2.03-0.801c-0.462,0-0.837,0.143-1.122,0.428c-0.321,0.285-0.481,0.623-0.481,1.016
		c0,0.248,0.107,0.516,0.32,0.801c0.357,0.428,1.3,1.157,2.832,2.189c1.531,1.033,2.547,1.924,3.045,2.672
		c0.463,0.713,0.694,1.514,0.694,2.404c0,0.818-0.195,1.621-0.587,2.404c-0.428,0.782-1.015,1.371-1.764,1.762
		c-0.712,0.429-1.531,0.643-2.457,0.643c-0.678,0-1.604-0.214-2.777-0.643c-0.322-0.105-0.535-0.16-0.642-0.16
		c-0.356,0-0.641,0.25-0.855,0.749h-0.534l-0.214-5.235h0.534c0.463,1.389,1.104,2.422,1.923,3.098
		c0.82,0.679,1.585,1.017,2.298,1.017c0.499,0,0.908-0.144,1.229-0.429c0.319-0.319,0.479-0.693,0.479-1.12
		c0-0.499-0.16-0.944-0.479-1.336c-0.285-0.356-0.98-0.908-2.084-1.656c-1.603-1.104-2.636-1.94-3.099-2.511
		c-0.676-0.855-1.016-1.801-1.016-2.832c0-1.141,0.393-2.155,1.177-3.044c0.748-0.927,1.869-1.391,3.365-1.391
		c0.783,0,1.549,0.197,2.297,0.588C239.465,34.285,239.697,34.357,239.876,34.357z M219.308,39.591
		c0.96-1.603,2.154-2.866,3.579-3.793c1.461-0.891,2.956-1.336,4.488-1.336c1.104,0,1.923,0.215,2.458,0.642
		c0.534,0.464,0.801,0.998,0.801,1.603c0,0.891-0.338,1.729-1.015,2.512c-0.927,1.032-2.262,1.869-4.008,2.51
		c-1.175,0.429-2.831,0.768-4.968,1.017c-0.072,0.499-0.107,0.926-0.107,1.282c0,0.927,0.339,1.709,1.016,2.351
		c0.641,0.677,1.442,1.017,2.404,1.017c0.748,0,1.46-0.16,2.137-0.481c0.712-0.32,1.745-0.997,3.099-2.03l0.32,0.428
		c-2.457,2.459-4.808,3.688-7.052,3.688c-1.531,0-2.689-0.48-3.474-1.441c-0.747-0.963-1.122-2.014-1.122-3.152
		C217.864,42.833,218.346,41.23,219.308,39.591z M228.015,35.638c-0.285-0.249-0.694-0.374-1.228-0.374
		c-1.069,0-2.191,0.552-3.367,1.656c-1.21,1.141-2.083,2.813-2.618,5.021c1.532-0.178,2.778-0.481,3.74-0.907
		c1.283-0.57,2.245-1.247,2.885-2.031c0.641-0.817,0.962-1.584,0.962-2.297C228.39,36.279,228.264,35.923,228.015,35.638z
		 M80.725,28.266c0.534,0.498,0.766,1.14,0.694,1.923c-0.071,0.783-0.409,2.084-1.015,3.9L75.436,48.62h-6.305l4.862-14.371
		c0.499-1.425,0.747-2.297,0.747-2.618c0.035-0.321-0.159-0.481-0.588-0.481c-0.462,0-0.818,0.18-1.067,0.535
		c-0.214,0.355-0.588,1.317-1.123,2.885l-4.809,14.051h-6.305l7.053-20.783h6.465l-0.803,1.925c0.711-0.749,1.479-1.318,2.298-1.71
		c0.782-0.393,1.604-0.588,2.457-0.588C79.425,27.464,80.226,27.732,80.725,28.266z M54.28,25.968h5.503V48.62H54.28V25.968z
		 M112.886,31.525c2.422,0,4.363,0.729,5.824,2.189c1.496,1.461,2.243,3.313,2.243,5.558c0,0.463-0.106,1.192-0.32,2.188h-11.967
		c0.07,1.317,0.518,2.353,1.336,3.101c0.854,0.748,1.995,1.121,3.419,1.121c1.781,0,3.134-0.463,4.06-1.39l1.55,2.992
		c-1.389,1.104-3.454,1.655-6.196,1.655c-2.529,0-4.541-0.748-6.038-2.244c-1.495-1.495-2.243-3.596-2.243-6.303
		c0-2.637,0.819-4.772,2.458-6.412C108.648,32.343,110.606,31.525,112.886,31.525z M108.772,38.47H117
		c-0.25-2.422-1.604-3.633-4.062-3.633C110.696,34.837,109.307,36.048,108.772,38.47z M95.363,28.64v16.348
		c0,1.104,0.071,1.779,0.214,2.029c0.106,0.284,0.338,0.534,0.694,0.748c0.356,0.178,0.837,0.268,1.441,0.268h0.695v0.588H87.295
		v-0.588h0.695c0.604,0,1.104-0.107,1.495-0.32c0.249-0.143,0.464-0.393,0.642-0.748c0.105-0.249,0.161-0.908,0.161-1.977V28.64
		h-1.551c-1.424,0-2.458,0.303-3.099,0.908c-0.89,0.818-1.459,2.012-1.709,3.579h-0.588v-5.716h19.072v5.716h-0.587
		c-0.32-1.317-0.695-2.262-1.122-2.831c-0.393-0.57-0.944-1.033-1.657-1.39c-0.391-0.179-1.085-0.267-2.083-0.267L95.363,28.64
		L95.363,28.64z"/>
</g>
<g>
	<path fill="#FFFFFF" d="M7.5,37.531c10,0,20,0,30,0c1.035,0,1.035-1.605,0-1.605c-10,0-20,0-30,0
		C6.465,35.925,6.465,37.531,7.5,37.531L7.5,37.531z"/>
</g>
<g>
	<path fill="#FFFFFF" d="M264.5,37.531c109.694,0.009,219.356,2.255,329.041,3.383c39.651,0.408,79.306,0.613,118.959,0.617
		c1.034,0,1.034-1.605,0-1.605c-109.695-0.009-219.357-2.255-329.043-3.383c-39.65-0.408-79.305-0.613-118.957-0.617
		C263.465,35.925,263.465,37.53,264.5,37.531L264.5,37.531z"/>
</g>
</svg>
