<?xml version="1.0" encoding="utf-8"?>
<!-- Generator: Adobe Illustrator 16.0.0, SVG Export Plug-In . SVG Version: 6.00 Build 0)  -->
<!DOCTYPE svg PUBLIC "-//W3C//DTD SVG 1.1//EN" "http://www.w3.org/Graphics/SVG/1.1/DTD/svg11.dtd">
<svg version="1.1" id="Capa_1" xmlns="http://www.w3.org/2000/svg" xmlns:xlink="http://www.w3.org/1999/xlink" x="0px" y="0px"
	 width="720px" height="71px" viewBox="0 0 720 71" enable-background="new 0 0 720 71" xml:space="preserve">
<g>
	<path d="M7.819,38.934c20.667,0,41.333,0,62,0c1.035,0,1.035-1.605,0-1.605c-20.667,0-41.333,0-62,0
		C6.783,37.328,6.783,38.934,7.819,38.934L7.819,38.934z"/>
</g>
<g>
	<path d="M277.821,38.934c106.031,0.009,212.024,2.255,318.043,3.383c38.983,0.415,77.969,0.613,116.954,0.617
		c1.035,0,1.035-1.605,0-1.605c-106.031-0.009-212.024-2.255-318.044-3.383c-38.983-0.415-77.968-0.613-116.954-0.617
		C276.786,37.328,276.786,38.934,277.821,38.934L277.821,38.934z"/>
</g>
<g>
	<path d="M102.27,21.757c-1.926-2.407-5.297-4.333-8.186-5.778c-0.963,4.334-2.889,5.778-4.333,8.667c0,0.481-2.889,0-3.37,1.444
		c-0.482,1.445,1.926,2.407,1.926,3.852c0,0.481-2.729,6.58-2.729,7.543c0,2.408,1.645,5.336,2.086,8.387
		c0.441,3.049-0.32,6.219-1.283,9.107c8.074-3.042,9.629-0.481,13.963,0.963c5.296,2.407,12.036,0.481,17.332,0
		c10.111-0.482,20.223-1.444,30.333-1.926c5.296,0,10.11-0.963,14.926-0.963c5.778-0.482,11.073,2.406,16.852,1.926
		c5.296-0.481,7.223-4.334,13-2.408c3.37,0.964,3.852,2.889,7.222,3.853c3.371,0.963,8.666-0.481,12.037-0.964
		c8.666-1.443,16.57-4.071,27.443-0.641c12.079,3.811,18.297,1.604,16.852-14.284c-0.635-4.136-2.648-5.978-3.728-8.516
		c-0.552-1.304,1.031-3.499-0.766-4.806c-2.167-1.685-4.673,1.844-7.229,0.317c-2.558-1.525-5.166-8.106-7.535-8.181
		c-20.183-0.639-16.21,0-17.654,7.223c-4.814-4.334-9.309-6.26-15.086-7.223c-2.408-0.482-13-3.852-13.482-3.852
		c-2.888,0.48-2.888,3.852-4.814,4.814c-3.369,2.407-4.332,2.407-8.666,2.889c-5.777,0.481-8.024,0.963-13.803,2.889
		c-6.018,1.926-11.354-0.04-16.57-1.364c-5.216-1.324-10.312-2.006-15.848-3.933c-1.213-0.465-0.254-1.537-2.098-1.893
		c-2.244-0.433-3.771,1.227-6.735,1.16c-7.188-0.158-16.551-1.053-19.575,1.696"/>
	<g>
		<path d="M92.192,16.739c-0.333,4.361-3.016,6.17-6.344,8.295c-0.52,0.333-0.514,1.052,0,1.386
			c4.087,2.652,2.344,7.044-0.214,9.682c-0.428,0.441-0.682,1.508-0.682,2.074c0,1.012,0.956,2.272,1.169,3.172
			c1.036,4.372,1.35,8.662,0.321,13.056c-0.17,0.729,0.545,1.195,1.179,0.906c3.424-1.563,7.24-2.563,10.745-0.642
			c0.908,0.497,1.718-0.889,0.811-1.387c-4.037-2.212-8.368-1.184-12.366,0.642c0.393,0.303,0.786,0.604,1.179,0.906
			c0.823-3.516,0.94-6.961,0.315-10.538c-0.658-3.771-2.236-6.227,0.659-9.204c2.639-2.714,0.372-8.315-2.306-10.053
			c0,0.462,0,0.924,0,1.386c3.92-2.504,6.766-4.813,7.139-9.681C93.876,15.707,92.27,15.714,92.192,16.739L92.192,16.739z"/>
	</g>
	<g>
		<path d="M99.201,55.712c4.425,0.671,8.878-0.007,13.292,0.666c3.372,0.515,6.047,1.53,9.476,1.022
			c4.569-0.678,7.848-3.127,12.707-2.949c4.398,0.162,8.776,1.161,13.162,1.541c3.421,0.297,6.825-0.72,10.118-1.476
			c4.554-1.045,7.923-0.428,12.193,1.144c2.653,0.977,5.114,0.762,7.802,0.052c2.084-0.55,4.099-1.474,6.139-2.166
			c4.313-1.464,7.741-0.226,11.218,2.407c0.826,0.625,1.625-0.771,0.811-1.387c-3.041-2.301-5.285-3.59-9.127-3.319
			c-3.778,0.266-7.396,2.371-11.025,3.329c-3.796,1.001-7.853-1.585-11.497-2.337c-2.975-0.614-6.694,0.661-9.546,1.338
			c-8.845,2.099-17.687-2.452-26.371-0.125c-1.886,0.506-3.7,1.392-5.55,2.021c-2.858,0.972-5.714,0.378-8.528-0.305
			c-4.908-1.191-9.885-0.252-14.846-1.003C98.615,54.012,98.18,55.558,99.201,55.712L99.201,55.712z"/>
	</g>
	<g>
		<path d="M196.142,56.675c6.153,1.296,12.347-0.24,18.435-1.229c2.878-0.467,5.621-0.78,8.458-1.491
			c3.618-0.904,8.438-2.823,12.076-1.212c0.938,0.414,1.755-0.968,0.811-1.387c-4.507-1.994-10.1,0.247-14.566,1.365
			c-3.344,0.837-6.829,1.1-10.226,1.682c-4.835,0.829-9.687,1.752-14.561,0.726C195.559,54.915,195.13,56.462,196.142,56.675
			L196.142,56.675z"/>
	</g>
	<g>
		<path d="M234.341,52.502c4.604,0.688,8.196,3.958,13.027,3.078c3.706-0.674,8.038-2.76,10.866-5.21
			c0.425-0.368,0.224-0.977-0.162-1.261c-4.473-3.283,0.326-8.091-1.603-11.922c-1.162-2.307-5.777-4.556-4.209-7.202
			c0.529-0.893-0.859-1.7-1.386-0.811c-2.356,3.979,1.304,5.356,3.835,8.26c1.75,2.008-0.247,6.235-0.398,8.614
			c-0.129,2.04,1.493,3.377,2.95,4.447c-0.054-0.421-0.108-0.841-0.162-1.261c-2.58,2.234-6.087,3.559-9.291,4.571
			c-4.569,1.443-8.623-2.192-13.041-2.852C233.755,50.804,233.32,52.35,234.341,52.502L234.341,52.502z"/>
	</g>
	<g>
		<path d="M251.888,27.492c-4.787,0.468-9.655-1.183-10.46-6.472c-0.156-1.021-1.702-0.585-1.548,0.427
			c0.906,5.947,6.551,8.184,12.008,7.651C252.908,28.998,252.918,27.392,251.888,27.492L251.888,27.492z"/>
	</g>
	<g>
		<path d="M240.654,20.752c-5.981,0.14-11.72-1.715-17.615-2.447c-3.224-0.4-4.429,0.734-4.654,3.892
			c-0.564,7.906-4.203,2.142-4.887,1.005c-0.382-0.634-0.696-1.009-1.166-1.572c-0.932-1.119-2.08-2.16-3.395-2.792
			c-4.481-2.157-10.881-2.388-15.792-2.9c-1.029-0.107-1.019,1.499,0,1.605c5.94,0.619,13.667,0.799,18.052,5.222
			c1.577,1.59,2.417,5.281,5.403,4.459c3.904-1.074,2.854-7.53,6.439-7.313c5.963,0.36,11.572,2.588,17.615,2.448
			C241.687,22.333,241.689,20.728,240.654,20.752L240.654,20.752z"/>
	</g>
	<g>
		<path d="M93.636,17.542c4.21,0.148,11.717,8.213,13.292,0.375c-0.447,0.118-0.894,0.236-1.341,0.354
			c1.511,1.418,2.828,2.039,4.902,2.155c2.553,0.143,2.502-2.178,4.847-0.059c4.165,3.763,11.208-1.25,15.856-0.898
			c1.033,0.078,1.025-1.527,0-1.605c-5.686-0.43-11.999,4.873-16.766-0.728c-0.284-0.334-0.843-0.29-1.135,0c-2.19,0-4.38,0-6.57,0
			c-0.412-0.387-1.217-0.264-1.341,0.354c-0.985,4.903-8.591-1.442-11.745-1.553C92.6,15.9,92.604,17.505,93.636,17.542
			L93.636,17.542z"/>
	</g>
	<g>
		<path d="M131.268,19.554c3.586,3.908,6.963,4.313,12.036,4.504c5.512,0.209,11.162,5.534,16.698,4.06
			c2.578-0.687,4.604-1.987,6.924-3.238c3.478-1.874,9.054-1.266,12.938-1.206c2.35,0.037,4.475-0.172,6.624-1.106
			c2.711-1.18,3.584-5.144,6.1-6.74c0.871-0.553,0.066-1.942-0.811-1.386c-1.548,0.983-2.576,2.13-3.578,3.658
			c-2.385,3.634-5.575,4.013-9.612,3.95c-4.906-0.076-9.845-0.186-14.147,2.401c-6.776,4.073-10.538,0.325-16.984-1.423
			c-5.79-1.57-10.448,0.41-15.053-4.608C131.701,17.655,130.57,18.793,131.268,19.554L131.268,19.554z"/>
	</g>
	<g>
		<path fill-rule="evenodd" clip-rule="evenodd" fill="#FFFFFF" d="M129.078,23.457c1.281,0.568,2.118,1.298,2.51,2.188
			c0.391,0.89,0.587,2.331,0.587,4.323v1.335h-6.62v-2.188c0-0.783-0.053-1.246-0.159-1.388c-0.106-0.179-0.286-0.267-0.534-0.267
			c-0.25,0-0.445,0.123-0.588,0.373c-0.177,0.213-0.267,0.623-0.267,1.229c0,0.783,0.09,1.316,0.267,1.602
			c0.213,0.426,0.641,0.906,1.281,1.44c3.24,1.78,5.232,3.238,5.98,4.377c0.781,1.14,1.174,2.954,1.174,5.446
			c0,1.814-0.215,3.167-0.641,4.057c-0.427,0.889-1.264,1.637-2.509,2.241c-1.247,0.606-2.688,0.909-4.324,0.909
			c-1.778,0-3.31-0.357-4.591-1.068c-1.281-0.677-2.117-1.549-2.51-2.616c-0.391-1.067-0.588-2.545-0.588-4.431v-1.922h6.621v3.311
			c0,0.889,0.07,1.424,0.213,1.602c0.105,0.178,0.32,0.267,0.641,0.267c0.285,0,0.516-0.125,0.693-0.374
			c0.144-0.285,0.215-0.711,0.215-1.281c0-1.389-0.107-2.242-0.321-2.563c-0.499-0.498-1.548-1.281-3.149-2.349
			s-2.669-1.851-3.203-2.349c-0.568-0.499-1.031-1.193-1.389-2.083c-0.355-0.89-0.533-2.011-0.533-3.362
			c0-1.958,0.25-3.399,0.748-4.324c0.533-0.926,1.371-1.656,2.509-2.189c1.139-0.533,2.491-0.801,4.057-0.801
			C126.393,22.602,127.869,22.887,129.078,23.457z M113.918,27.939c0,0.428-0.161,0.801-0.48,1.123
			c-0.32,0.319-0.695,0.479-1.121,0.479c-0.428,0-0.801-0.159-1.123-0.479c-0.319-0.322-0.479-0.695-0.479-1.123
			c0-0.426,0.159-0.801,0.479-1.12c0.287-0.32,0.66-0.481,1.123-0.481c0.426,0,0.801,0.161,1.121,0.481
			C113.757,27.139,113.918,27.514,113.918,27.939z M113.598,45.344c0,0.926,0.07,1.529,0.213,1.814s0.338,0.498,0.586,0.642
			c0.252,0.142,0.713,0.214,1.391,0.214v0.587h-6.94v-0.587c0.675,0,1.138-0.055,1.388-0.161c0.248-0.143,0.445-0.373,0.587-0.694
			c0.142-0.32,0.214-0.925,0.214-1.814v-5.498c0-1.566-0.053-2.581-0.161-3.043c-0.07-0.321-0.178-0.534-0.319-0.641
			c-0.178-0.143-0.393-0.215-0.641-0.215c-0.321,0-0.676,0.072-1.067,0.215l-0.214-0.535l4.271-1.76h0.694V45.344z M140.717,44.916
			c1.139,1.174,2.703,1.763,4.698,1.763c1.494,0,3.167-0.356,5.017-1.067v2.455c-1.814,0.605-3.629,0.906-5.445,0.906
			c-2.953,0-5.231-0.764-6.833-2.294s-2.401-3.72-2.401-6.567c0-2.775,0.783-4.947,2.348-6.512c1.602-1.566,3.81-2.35,6.621-2.35
			c1.777,0,3.576,0.268,5.392,0.801v2.563c-1.993-0.711-3.7-1.068-5.126-1.068c-1.85,0-3.309,0.588-4.376,1.763
			c-1.067,1.174-1.603,2.775-1.603,4.804C139.008,42.176,139.577,43.777,140.717,44.916z M154.757,39.471
			c0.89-1.564,2.081-2.793,3.576-3.683c1.46-0.891,2.883-1.335,4.271-1.335c1.353,0,2.492,0.444,3.418,1.335
			c0.854,0.925,1.28,2.118,1.28,3.576c0,1.566-0.409,3.114-1.229,4.646c-0.817,1.529-1.975,2.74-3.47,3.629
			c-1.459,0.891-2.9,1.334-4.324,1.334c-1.422,0-2.58-0.443-3.469-1.334c-0.891-0.924-1.336-2.117-1.336-3.576
			C153.475,42.531,153.902,41.001,154.757,39.471z M96.247,27.461c0.784,0,1.513,0.141,2.19,0.426
			c0.639,0.285,1.227,0.713,1.76,1.281v-5.872h6.3v25.305h-6.3v-1.495c-0.604,0.604-1.246,1.067-1.921,1.387
			c-0.676,0.322-1.37,0.48-2.082,0.48c-0.996,0-1.853-0.248-2.562-0.747c-0.713-0.534-1.176-1.138-1.39-1.813
			c-0.178-0.677-0.267-1.779-0.267-3.311v-9.716c0-1.602,0.089-2.74,0.267-3.417c0.214-0.641,0.694-1.211,1.442-1.707
			C94.399,27.728,95.25,27.461,96.247,27.461z M98.49,31.518c-0.144,0.213-0.214,0.729-0.214,1.548v10.196
			c0,0.818,0.054,1.371,0.161,1.654c0.141,0.25,0.391,0.374,0.746,0.374c0.393,0,0.658-0.142,0.8-0.427
			c0.144-0.32,0.214-1.051,0.214-2.188v-9.609c0-0.747-0.07-1.264-0.214-1.548c-0.105-0.25-0.354-0.375-0.747-0.375
			C98.845,31.143,98.596,31.268,98.49,31.518z M250.153,38.777v4.857c0,1.354,0.036,2.189,0.107,2.51
			c0.037,0.32,0.125,0.516,0.267,0.588c0.107,0.105,0.231,0.158,0.374,0.158c0.18,0,0.32-0.035,0.428-0.105
			c0.248-0.106,0.676-0.48,1.281-1.121v0.854c-1.174,1.566-2.296,2.35-3.363,2.35c-0.498,0-0.891-0.178-1.175-0.533
			c-0.319-0.357-0.48-0.962-0.48-1.816c-1.495,1.139-2.42,1.798-2.776,1.975c-0.568,0.285-1.174,0.428-1.814,0.428
			c-0.996,0-1.796-0.338-2.402-1.014c-0.676-0.712-1.016-1.619-1.016-2.723c0-0.677,0.162-1.281,0.481-1.815
			c0.429-0.676,1.175-1.335,2.243-1.976c1.067-0.641,2.829-1.404,5.284-2.295v-0.534c0-1.458-0.23-2.438-0.694-2.937
			c-0.461-0.533-1.119-0.8-1.975-0.8c-0.641,0-1.156,0.179-1.548,0.534c-0.393,0.355-0.588,0.746-0.588,1.174v0.908
			c0,0.498-0.124,0.871-0.374,1.12c-0.248,0.285-0.568,0.428-0.961,0.428c-0.391,0-0.693-0.143-0.906-0.428
			c-0.25-0.284-0.374-0.657-0.374-1.12c0-0.89,0.444-1.709,1.335-2.456c0.924-0.747,2.224-1.12,3.896-1.12
			c1.281,0,2.313,0.212,3.096,0.64c0.641,0.32,1.104,0.818,1.389,1.495C250.066,36.464,250.153,37.39,250.153,38.777z
			 M247.591,40.059c-1.565,0.641-2.579,1.086-3.042,1.334c-0.819,0.464-1.406,0.943-1.763,1.441
			c-0.356,0.499-0.534,1.051-0.534,1.654c0,0.748,0.214,1.372,0.643,1.869c0.462,0.498,0.979,0.748,1.547,0.748
			c0.783,0,1.834-0.535,3.149-1.602V40.059z M201.522,29.541c0-0.783-0.126-1.298-0.375-1.547c-0.32-0.249-0.854-0.375-1.602-0.375
			v5.606c0.748,0,1.264-0.089,1.549-0.267c0.285-0.215,0.428-0.873,0.428-1.976V29.541z M207.66,30.183
			c0,1.993-0.249,3.327-0.748,4.004c-0.498,0.676-1.458,1.067-2.883,1.175c1.316,0.355,2.188,0.801,2.617,1.334
			c0.462,0.533,0.746,1.032,0.854,1.495c0.107,0.427,0.16,1.673,0.16,3.737v6.673h-6.139v-8.436c0-1.353-0.089-2.188-0.268-2.509
			c-0.248-0.32-0.818-0.48-1.709-0.48v11.425h-6.565V23.296h4.644c3.098,0,5.197,0.106,6.301,0.32
			c1.102,0.249,2.01,0.872,2.723,1.868C207.323,26.481,207.66,28.047,207.66,30.183z M210.489,43.368
			c0.429-0.676,1.175-1.335,2.243-1.976c1.067-0.641,2.829-1.404,5.285-2.295v-0.534c0-1.458-0.231-2.438-0.694-2.937
			c-0.463-0.533-1.121-0.8-1.975-0.8c-0.642,0-1.156,0.179-1.549,0.534c-0.392,0.355-0.586,0.746-0.586,1.174v0.908
			c0,0.498-0.125,0.871-0.375,1.12c-0.248,0.285-0.569,0.428-0.96,0.428c-0.393,0-0.694-0.143-0.909-0.428
			c-0.248-0.284-0.373-0.657-0.373-1.12c0-0.89,0.445-1.709,1.336-2.456c0.924-0.747,2.224-1.12,3.896-1.12
			c1.282,0,2.313,0.212,3.097,0.64c0.641,0.32,1.104,0.818,1.389,1.495c0.178,0.462,0.266,1.388,0.266,2.775v4.857
			c0,1.354,0.036,2.189,0.107,2.51c0.037,0.32,0.124,0.516,0.268,0.588c0.106,0.105,0.231,0.158,0.373,0.158
			c0.179,0,0.32-0.035,0.428-0.105c0.248-0.106,0.676-0.48,1.279-1.121v0.854c-1.173,1.566-2.294,2.35-3.361,2.35
			c-0.498,0-0.89-0.178-1.176-0.533c-0.32-0.357-0.479-0.962-0.479-1.816c-1.495,1.139-2.421,1.798-2.777,1.975
			c-0.567,0.285-1.173,0.428-1.813,0.428c-0.996,0-1.797-0.338-2.403-1.014c-0.675-0.712-1.014-1.619-1.014-2.723
			C210.009,44.507,210.169,43.902,210.489,43.368z M212.678,44.488c0,0.748,0.214,1.372,0.641,1.869
			c0.463,0.498,0.979,0.748,1.549,0.748c0.783,0,1.832-0.535,3.149-1.602v-5.445c-1.565,0.641-2.58,1.086-3.044,1.334
			c-0.817,0.464-1.404,0.943-1.76,1.441C212.856,43.333,212.678,43.885,212.678,44.488z M234.567,29.063l0.96-2.883h3.363
			l-1.868,2.883H234.567z M237.982,30.449v18.151h-4.43V30.449H237.982z M232.858,29.063h-4.271v6.031h3.845v2.723h-3.845v10.784
			h-4.963V26.18h9.234V29.063z M164.045,36.055c-0.498-0.533-1.121-0.801-1.868-0.801c-1.53,0-2.937,1.104-4.217,3.31
			c-1.282,2.171-1.923,4.342-1.923,6.514c0,0.995,0.25,1.761,0.748,2.295s1.121,0.801,1.868,0.801c1.458,0,2.847-1.085,4.165-3.257
			c1.28-2.17,1.921-4.395,1.921-6.672C164.74,37.283,164.508,36.554,164.045,36.055z M171.893,35.146
			c0.783-1.637,1.744-3.024,2.883-4.163c1.175-1.138,2.438-2.047,3.79-2.722c1.851-0.891,3.808-1.335,5.873-1.335
			c1.494,0,2.865,0.249,4.11,0.746c0.462,0.179,0.818,0.267,1.067,0.267s0.479-0.053,0.694-0.159
			c0.178-0.107,0.408-0.392,0.693-0.854h0.588L189.99,33.6h-0.588c0.107-0.783,0.16-1.371,0.16-1.762
			c0-0.998-0.445-1.887-1.335-2.67c-0.924-0.818-2.17-1.229-3.735-1.229c-3.274,0-5.927,1.531-7.955,4.592
			c-1.638,2.421-2.456,5.107-2.456,8.062c0,1.993,0.499,3.701,1.496,5.124c1.032,1.459,2.597,2.189,4.696,2.189
			c0.498,0,0.996-0.054,1.496-0.16c0.426-0.072,1.121-0.285,2.082-0.641l1.547-5.445c0.213-0.748,0.32-1.334,0.32-1.762
			c0-0.391-0.143-0.693-0.427-0.907c-0.427-0.284-1.121-0.428-2.081-0.428h-0.481l0.213-0.64h8.81l-0.16,0.64
			c-0.818,0-1.407,0.09-1.763,0.267c-0.354,0.179-0.675,0.48-0.961,0.908c-0.177,0.285-0.462,1.104-0.853,2.455l-1.549,5.393
			c-1.424,0.604-2.581,1.015-3.471,1.229c-0.854,0.177-1.778,0.267-2.775,0.267c-2.206,0-4.004-0.409-5.392-1.229
			c-1.388-0.854-2.42-1.957-3.097-3.31c-0.641-1.389-0.961-2.776-0.961-4.164C170.772,38.563,171.146,36.82,171.893,35.146z"/>
	</g>
</g>
</svg>
