<?xml version="1.0" encoding="utf-8"?>
<!-- Generator: Adobe Illustrator 16.0.0, SVG Export Plug-In . SVG Version: 6.00 Build 0)  -->
<!DOCTYPE svg PUBLIC "-//W3C//DTD SVG 1.1//EN" "http://www.w3.org/Graphics/SVG/1.1/DTD/svg11.dtd">
<svg version="1.1" id="Capa_1" xmlns="http://www.w3.org/2000/svg" xmlns:xlink="http://www.w3.org/1999/xlink" x="0px" y="0px"
	 width="720px" height="71px" viewBox="0 0 720 71" enable-background="new 0 0 720 71" xml:space="preserve">
<g>
	<path fill="#57565B" d="M109.757,23.557c-3.21,1.284-6.42,1.604-9.951,1.604c-4.173,0.321-5.778-0.963-7.383,2.247
		c-0.321,0.321,0.963,2.568,0.642,3.21c-0.642,1.605-2.889,1.605-3.21,2.568c-2.247,5.457,1.605,17.014,5.457,21.507
		c1.926,1.927-1.926,1.927,0.963,2.567c1.605,0.322,6.099-0.641,8.025-0.641c4.815,0,8.346-0.643,12.84-1.285
		c1.605-0.32,3.531-1.283,4.815-0.642c1.926,0.642,1.926,1.604,3.21,2.247c4.173,1.605,11.234,0,15.407-0.963
		c4.173-0.643,8.025-1.926,11.877-0.643c2.568,0.643,3.21,2.89,6.099,2.89c2.889,0,2.889-1.604,4.815-2.247
		c7.383-2.247,14.124,2.889,20.544,0.963c3.852-0.963,5.457-2.889,9.63-3.21c3.852-0.321,6.42,0.963,9.309-2.247
		c3.852-4.173,0.642-6.1,0.321-10.593c-0.321-5.136,3.852-8.346,4.494-13.161c-8.025-2.568-14.766-6.741-22.47-3.21
		c-3.21,1.604-7.704,4.494-11.556,2.568c-4.173-2.247-0.643-8.347-6.42-10.272c0.963,3.853-2.247,5.457-5.778,6.741
		c-4.815,1.284-5.457-0.963-9.63-2.247c-6.741-2.246-13.161,3.852-19.26,1.284c0.963-1.284,2.247-2.568,3.531-4.173
		c-5.136-0.963-11.235-0.321-16.692,0.963c-4.494,0.963-7.704,4.173-11.877,5.457"/>
	<g>
		<path d="M109.544,22.783c-3.692,1.298-7.32,1.48-11.187,1.633c-1.862,0.073-3.415-0.269-5.095,0.639
			c-0.991,0.536-1.651,1.819-1.631,2.9c0.021,1.141,1.434,2.102-0.285,3.291c-0.777,0.537-1.45,0.632-2.058,1.374
			c-2.151,2.626-0.632,8.372,0.058,11.242c0.633,2.636,1.7,5.16,2.898,7.583c0.553,1.119,2.966,3.714,2.221,4.959
			c-0.171,0.286-0.148,0.749,0.125,0.973c2.604,2.133,8.378,0.068,11.46,0.018c3.236-0.053,6.463-0.575,9.659-1.045
			c1.448-0.213,2.766-0.53,4.172-0.921c2.105-0.586,3.449,1.221,4.879,2.206c3.839,2.644,12.007,0.036,16.026-0.883
			c4.739-1.083,10.032-2.225,14.188,0.963c1.505,1.154,3.333,1.63,5.213,1.112c0.465-0.128,0.936-0.342,1.317-0.64
			c2.846-2.227,6.017-2.148,9.326-1.676c2.995,0.428,5.884,1.321,8.903,1.64c2.516,0.266,5.184-0.479,7.443-1.519
			c3.921-1.802,7.161-2.012,11.377-2.14c3.878-0.117,7.069-3.932,6.921-7.664c-0.164-4.128-2.326-6.462-0.355-10.997
			c1.178-2.712,2.708-4.953,3.316-7.888c0.093-0.447-0.125-0.841-0.561-0.987c-7.156-2.405-15.568-7-23.088-3.129
			c-1.983,1.021-3.891,2.017-6.017,2.737c-4.185,1.417-6.435-1.939-7.056-5.417c-0.451-2.524-1.781-4.012-4.093-5.024
			c-0.479-0.209-1.295,0.017-1.208,0.693c0.736,5.707-7.043,7.156-10.589,5.415c-1.729-0.849-3.49-1.889-5.456-2.083
			c-6.012-0.595-11.731,3.57-17.607,1.672c0.118,0.447,0.236,0.894,0.354,1.341c1.142-1.421,2.363-2.773,3.531-4.173
			c0.34-0.408,0.301-1.24-0.354-1.341c-4.636-0.714-9.162-0.457-13.78,0.277c-5.801,0.922-9.84,4.189-15.215,6.143
			c-0.965,0.351-0.548,1.902,0.427,1.548c3.661-1.331,6.792-3.66,10.423-5.059c5.326-2.052,12.135-2.222,17.719-1.361
			c-0.118-0.447-0.236-0.894-0.354-1.341c-1.168,1.4-2.39,2.751-3.531,4.173c-0.38,0.473-0.262,1.143,0.354,1.341
			c3.418,1.104,6.435,0.433,9.816-0.521c2.249-0.635,4.437-1.17,6.788-1.235c2.782-0.078,4.789,1.693,7.23,2.559
			c4.968,1.763,12.621-1.372,11.85-7.354c-0.403,0.231-0.805,0.462-1.208,0.693c4.291,1.879,2.78,6.523,5.424,9.564
			c1.97,2.266,6.146,1.509,8.49,0.505c2.658-1.137,5.115-2.608,7.929-3.353c4.015-1.063,8.431,0.574,12.177,1.901
			c3.265,1.157,6.641,1.139,4.823,5.194c-0.985,2.196-2.234,4.173-2.978,6.479c-0.497,1.543-0.304,3.153-0.082,4.715
			c0.167,1.173,0.7,2.36,1.066,3.482c1.398,4.288-3.066,6.83-6.246,6.926c-1.957,0.06-3.788-0.007-5.735,0.264
			c-2.757,0.382-5.359,2.183-7.985,2.981c-5.483,1.666-11.585-1.605-17.205-1.545c-1.475,0.016-3.469,0.313-4.656,1.269
			c-3.223,2.59-5.051,0.963-7.836-0.812c-3.817-2.433-9.616-0.569-13.638,0.125c-2.774,0.479-5.442,1.174-8.256,1.495
			c-1.852,0.211-3.679,0.134-5.52-0.172c-2.25-0.373-1.672-1.331-3.09-1.995c-3.843-1.802-8.626,0.372-12.653,0.884
			c-2.499,0.317-4.998,0.318-7.507,0.454c-1.525,0.083-6.037-0.041-7.176,1.009c1.641-1.513-1.274-4.087-1.953-5.195
			c-2.743-4.484-4.33-10.265-4.179-15.508c0.08-2.78,1.506-2.647,3.058-4.199c0.612-0.612,1.02-1.42,0.746-2.299
			c-1.412-4.53,5.319-3.703,7.718-3.744c2.911-0.05,5.688-0.642,8.424-1.604C110.94,23.99,110.523,22.438,109.544,22.783
			L109.544,22.783z"/>
	</g>
</g>
<g>
	<path fill-rule="evenodd" clip-rule="evenodd" fill="#FFFFFF" d="M131.793,37.279v-0.536c0.573-0.215,1.162-0.59,1.771-1.127
		c0.608-0.572,1.145-1.234,1.61-1.986c0.25-0.393,0.59-1.126,1.02-2.199h0.482v4.775h3.327v1.073h-3.327v9.337
		c0,0.929,0.126,1.556,0.376,1.877c0.286,0.322,0.625,0.483,1.02,0.483c0.357,0,0.697-0.09,1.018-0.269
		c0.323-0.25,0.572-0.572,0.752-0.966h0.645c-0.394,1.002-0.913,1.771-1.557,2.308c-0.68,0.5-1.378,0.75-2.093,0.75
		c-0.5,0-0.966-0.125-1.394-0.375c-0.466-0.285-0.824-0.66-1.074-1.127c-0.215-0.5-0.322-1.27-0.322-2.307v-9.712H131.793z
		 M126.052,30.251v4.828h4.131v4.83h-4.131v5.58h4.828v5.098h-11.429V25.153h11v5.098H126.052z M152.719,30.679
		c-0.428-0.321-0.949-0.536-1.556-0.643c-0.573-0.107-1.287-0.162-2.146-0.162h-3.112v8.8h2.736c0.895,0,1.7-0.071,2.414-0.215
		c0.715-0.179,1.324-0.499,1.825-0.965c0.464-0.466,0.804-1.002,1.019-1.61c0.215-0.607,0.322-1.305,0.322-2.093
		c0-0.716-0.125-1.323-0.376-1.823C153.595,31.431,153.219,31.002,152.719,30.679z M154.811,28.427
		c0.823,0.535,1.468,1.216,1.933,2.039c0.465,0.822,0.697,1.841,0.697,3.058c0,1.716-0.429,3.147-1.288,4.292
		c-0.858,1.181-2.039,2.039-3.541,2.576l8.316,10.195h-4.023l-7.459-9.283h-3.541v9.283h-3.112V27.191h6.063
		c1.323,0,2.451,0.072,3.379,0.215C153.13,27.55,153.989,27.89,154.811,28.427z M162.913,36.421h-0.16v-3.004
		c0.537-0.18,1.306-0.359,2.307-0.537c1.037-0.18,2.057-0.268,3.059-0.268c1.18,0,2.182,0.088,3.004,0.268
		c0.859,0.178,1.61,0.519,2.253,1.019c0.645,0.501,1.126,1.128,1.449,1.878c0.286,0.752,0.429,1.682,0.429,2.791v12.02h-2.898
		v-1.879c-0.249,0.179-0.572,0.43-0.965,0.75c-0.429,0.324-0.822,0.574-1.181,0.752c-0.536,0.287-1.038,0.501-1.5,0.645
		c-0.502,0.143-1.198,0.214-2.094,0.214c-0.714,0-1.394-0.143-2.039-0.429c-0.644-0.25-1.215-0.627-1.717-1.126
		c-0.466-0.466-0.84-1.056-1.126-1.771c-0.286-0.716-0.429-1.466-0.429-2.253c0-1.217,0.25-2.254,0.751-3.113
		c0.537-0.857,1.359-1.537,2.468-2.039c0.966-0.428,2.128-0.732,3.488-0.911c1.324-0.179,2.772-0.304,4.346-0.376v-0.591
		c0-0.679-0.107-1.233-0.322-1.663c-0.214-0.428-0.518-0.752-0.912-0.965c-0.357-0.25-0.805-0.412-1.341-0.482
		c-0.573-0.109-1.145-0.162-1.717-0.162c-0.679,0-1.484,0.107-2.415,0.322C164.756,35.724,163.843,36.026,162.913,36.421z
		 M100.081,30.894c-0.106-0.285-0.339-0.536-0.698-0.751c-0.357-0.179-0.84-0.269-1.448-0.269h-0.697v-0.59h11.375v0.59h-0.912
		c-0.644,0-1.145,0.108-1.502,0.322c-0.286,0.144-0.5,0.395-0.644,0.751c-0.107,0.251-0.161,0.913-0.161,1.986v13.574
		c0,1.073,0.054,1.771,0.161,2.093c0.143,0.286,0.394,0.5,0.751,0.645c0.25,0.107,0.876,0.16,1.878,0.16h1.771
		c1.144,0,2.092-0.197,2.844-0.59c0.751-0.43,1.412-1.073,1.986-1.932c0.536-0.857,1.055-2.11,1.556-3.756h0.643l-0.805,7.459
		h-18.94v-0.592h0.697c0.644,0,1.145-0.106,1.503-0.321c0.286-0.143,0.502-0.394,0.643-0.751c0.108-0.251,0.162-0.912,0.162-1.985
		V32.934C100.243,31.825,100.19,31.145,100.081,30.894z M164.362,45.327c0,1.003,0.286,1.754,0.859,2.254
		c0.537,0.501,1.359,0.752,2.468,0.752c0.931,0,1.771-0.197,2.521-0.591c0.752-0.393,1.468-0.894,2.146-1.503V41.41
		c-0.714,0.037-1.609,0.126-2.683,0.269c-1.073,0.108-1.931,0.25-2.574,0.43c-0.787,0.25-1.45,0.626-1.986,1.127
		C164.612,43.735,164.362,44.434,164.362,45.327z M184.591,30.519c-0.715,0.322-1.27,0.752-1.663,1.288
		c-0.357,0.5-0.537,1.019-0.537,1.556c0,0.5,0.144,0.983,0.429,1.449c0.287,0.465,0.716,0.876,1.288,1.232
		c0.573,0.324,1.521,0.682,2.843,1.074l4.079,1.234c0.501,0.143,1.234,0.43,2.2,0.858s1.718,0.876,2.254,1.341
		c0.537,0.466,0.947,1.02,1.234,1.664c0.322,0.68,0.483,1.413,0.483,2.201c0,1.752-0.77,3.271-2.308,4.56
		c-1.502,1.324-3.469,1.985-5.902,1.985c-1.251,0-2.361-0.18-3.327-0.537c-1.001-0.357-2.075-1.002-3.219-1.932l-0.698,2.094h-1.126
		l-1.449-7.889l1.449-0.268c0.536,1.432,1.251,2.664,2.146,3.701c0.894,1.003,1.877,1.771,2.952,2.309
		c1.073,0.5,2.164,0.75,3.272,0.75c1.503,0,2.826-0.446,3.971-1.342c0.93-0.786,1.395-1.698,1.395-2.736
		c0-0.93-0.339-1.698-1.018-2.306c-0.717-0.609-1.951-1.182-3.704-1.718l-3.971-1.127c-2.182-0.644-3.719-1.467-4.614-2.468
		c-0.894-1.002-1.341-2.146-1.341-3.435c0-1.002,0.286-1.914,0.857-2.736c0.572-0.857,1.468-1.592,2.684-2.199
		c1.215-0.573,2.557-0.859,4.024-0.859c1.216,0,2.378,0.215,3.488,0.645c0.787,0.286,1.502,0.697,2.146,1.233l0.698-1.502h1.126
		l1.664,6.761l-1.448,0.43c-0.931-1.896-2.164-3.381-3.703-4.454c-1.253-0.894-2.629-1.341-4.132-1.341
		C186.182,30.036,185.342,30.196,184.591,30.519z"/>
</g>
<g>
	<g>
		<path d="M184.706,58.229c5.619-5.942,14.221-0.684,19.339-7.635c1.371-1.863,0.053-4.521-0.555-6.354
			c-1.494-4.507,3.662-9.879,4.622-14.323c0.218-1.009-1.329-1.438-1.548-0.427c-0.877,4.059-3.414,7.407-4.759,11.303
			c-0.776,2.247,0.465,4.672,1.094,6.765c2.03,6.752-9.901,5.576-12.967,5.931c-2.644,0.306-4.588,1.729-6.362,3.605
			C182.861,57.845,183.993,58.982,184.706,58.229L184.706,58.229z"/>
	</g>
</g>
<g>
	<g>
		<path d="M135.333,24.322c5.7-5.49,13.736-1.99,20.45-0.833c4.233,0.729,7.822-0.052,9.499-4.281
			c0.382-0.963-1.171-1.377-1.548-0.427c-2.483,6.263-11.722,2.159-16.494,1.313c-4.808-0.853-9.418-0.397-13.042,3.093
			C133.451,23.907,134.588,25.04,135.333,24.322L135.333,24.322z"/>
	</g>
</g>
<g>
	<g>
		<path d="M103.451,25.124c9.234-2.059,18.045-7.384,27.745-6.515c1.031,0.092,1.022-1.514,0-1.605
			c-9.87-0.883-18.781,4.479-28.172,6.573C102.014,23.801,102.443,25.348,103.451,25.124L103.451,25.124z"/>
	</g>
</g>
<g>
	<g>
		<path d="M89.377,33.059c-1.54,7.965,2.792,15.069,6.029,22.034c0.436,0.938,1.819,0.122,1.386-0.811
			c-3.026-6.511-7.311-13.329-5.867-20.796C91.12,32.475,89.573,32.043,89.377,33.059L89.377,33.059z"/>
	</g>
</g>
<g>
	<g>
		<path d="M204.78,28.132c1.963,5.04-0.411,9.329-2.893,13.658c-0.518,0.902,0.833,1.68,1.386,0.811
			c2.68-4.211,4.159-9.099,4.274-14.087c0.023-1.036-1.582-1.033-1.605,0c-0.108,4.717-1.522,9.298-4.054,13.276
			c0.462,0.271,0.924,0.54,1.386,0.811c2.701-4.712,5.174-9.454,3.055-14.895C205.956,26.752,204.404,27.167,204.78,28.132
			L204.78,28.132z"/>
	</g>
</g>
<g>
	<g>
		<path d="M7.819,40.934c20.667,0,41.333,0,62,0c1.035,0,1.035-1.605,0-1.605c-20.667,0-41.333,0-62,0
			C6.783,39.328,6.783,40.934,7.819,40.934L7.819,40.934z"/>
	</g>
</g>
<g>
	<g>
		<path d="M224.819,40.934c120.97,0.01,241.916,2.256,362.876,3.383c41.707,0.39,83.415,0.613,125.124,0.617
			c1.035,0,1.035-1.605,0-1.605c-120.97-0.01-241.916-2.256-362.876-3.383c-41.707-0.39-83.416-0.613-125.124-0.617
			C223.783,39.328,223.783,40.934,224.819,40.934L224.819,40.934z"/>
	</g>
</g>
</svg>
