<?xml version="1.0" encoding="utf-8"?>
<!-- Generator: Adobe Illustrator 16.0.0, SVG Export Plug-In . SVG Version: 6.00 Build 0)  -->
<!DOCTYPE svg PUBLIC "-//W3C//DTD SVG 1.1//EN" "http://www.w3.org/Graphics/SVG/1.1/DTD/svg11.dtd">
<svg version="1.1" id="Capa_1" xmlns="http://www.w3.org/2000/svg" xmlns:xlink="http://www.w3.org/1999/xlink" x="0px" y="0px"
	 width="720px" height="71px" viewBox="0 0 720 71" enable-background="new 0 0 720 71" xml:space="preserve">
<g>
	<path d="M7.819,38.934c20.667,0,41.333,0,62,0c1.035,0,1.035-1.605,0-1.605c-20.667,0-41.333,0-62,0
		C6.783,37.328,6.783,38.934,7.819,38.934L7.819,38.934z"/>
</g>
<g>
	<path d="M228.821,38.934c106.031,0.009,261.024,2.255,367.043,3.383c38.983,0.415,77.969,0.613,116.954,0.617
		c1.035,0,1.035-1.605,0-1.605c-106.031-0.009-212.024-2.255-318.044-3.383c-38.983-0.415-126.968-0.613-165.954-0.617
		C227.786,37.328,227.786,38.934,228.821,38.934L228.821,38.934z"/>
</g>
<g>
	<path d="M87.914,16.606c-0.641,3.53-0.963,6.741-1.605,10.272c-0.321,1.605-0.642,3.21-0.963,4.494
		c0,1.284-1.284,1.284-0.963,2.889c0.321,0.963,2.568,1.926,2.889,3.209c2.567,7.703-8.667,14.768,3.209,18.297
		c4.494,1.604,1.605,0.32,4.815-0.963c2.247-0.963,3.531-1.926,6.42-1.605c2.247,0.32,3.21,1.605,5.457,2.248
		c2.889,0.963,4.173,0,7.062-0.322c6.42-0.961,14.766,2.568,22.148,2.889c7.383,0,14.124-4.813,22.148-2.566
		c6.42,1.604,15.408,4.814,22.791,2.566c3.854-1.281,5.779-3.852,10.595-3.529c3.852,0.32,7.383,2.891,11.233,3.211
		c5.457,0.318,4.494-0.32,5.778-4.494c0.642-1.926,0.32-2.889,1.604-5.137c1.283-1.928,4.174-3.209,4.813-5.457
		c0.645-2.891-2.244-7.062-2.887-9.951c-1.285-5.136,0.963-7.062,1.924-11.556c1.604-5.458-0.642-4.173-6.099-3.852
		c-4.172,0.321-8.024,0-11.555,1.926c-2.248,0.963-2.248,2.247-5.138,2.889c-1.926,0.321-5.135,0.321-7.063-0.321
		c-4.493-0.963-7.063-2.247-12.197-2.247c-4.174,0-9.309-0.642-13.16,0.321c-3.854,1.284-7.063,4.173-11.235,4.815
		c-8.345,1.605-9.309-1.926-16.05-4.494c-4.173-1.605-9.629,0.963-13.802,1.605c-1.926,0-5.778,0.963-7.383,0.642
		c-2.889-0.642-3.852-3.21-6.42-3.21c-5.778-0.321-12.198,7.383-14.766-3.21"/>
	<g>
		<path d="M87.139,16.392c-0.976,5.724-1.996,11.185-3.515,16.707c-0.254,0.924-0.005,1.837,0.733,2.456
			c3.433,2.878,2.55,6.154,1.242,9.712c-0.988,2.689-2.165,5.258-0.76,7.984c1.044,2.027,6.375,4.615,8.508,4.027
			c0.824-0.229,1.678-1.439,2.355-1.781c4.065-2.049,7.347-0.799,11.259,0.723c1.958,0.76,3.953,0.342,5.922-0.072
			c4.525-0.949,9.065,0.117,13.493,1.064c5.515,1.18,10.459,2.01,16.028,0.773c3.344-0.742,6.527-1.832,9.947-2.254
			c3.926-0.484,7.832,0.982,11.574,1.979c5.315,1.416,10.637,2.334,16.115,1.455c2.194-0.354,4.18-1.539,6.106-2.566
			c4.741-2.529,8.983-0.514,13.553,1.146c2.238,0.811,6.697,1.811,8.625-0.238c0.699-0.742,0.841-2.121,1.078-3.043
			c1.013-3.928,2.313-6.529,5.267-9.307c2.801-2.633,1.114-6.279-0.148-9.252c-1.586-3.733-1.975-6.883-0.57-10.742
			c0.813-2.234,1.709-4.609,1.73-7.014c0.021-2.116-2.445-2.099-3.91-2.006c-5.676,0.359-11.455,0.169-16.563,2.945
			c-2.759,1.5-4.797,2.432-7.91,2.333c-2.771-0.088-5.729-1.257-8.406-1.938c-4.791-1.22-10.057-0.988-14.961-0.998
			c-4.66-0.009-7.98,1.91-12.023,3.982c-5.736,2.941-10.754,1.653-15.945-1.303c-7.929-4.517-15.851-0.124-24.288,0.478
			c-3.683,0.263-5.335-4.042-9.444-3.111c-5.222,1.183-9.775,4.766-11.938-2.784c-0.285-0.993-1.833-0.57-1.548,0.427
			c0.692,2.417,1.869,6.002,4.956,6.163c4.599,0.239,8.915-4.282,13.269-1.109c3.567,2.6,7.085,2.091,11.332,1.285
			c3.211-0.609,6.299-1.673,9.556-2.059c3.738-0.444,7.052,1.986,10.147,3.725c3.721,2.09,7.631,1.782,11.672,0.884
			c2.517-0.559,4.867-2.169,7.109-3.353c4.291-2.266,9.273-1.607,13.943-1.441c6.223,0.222,11.951,2.609,18.104,2.804
			c2.043,0.065,3.822-0.331,5.576-1.337c4.107-2.354,7.316-3.364,12.109-3.582c1.303-0.059,7.941-1.642,7.416,1.501
			c-0.424,2.526-1.541,4.898-2.289,7.332c-0.6,1.947-0.328,3.927,0.043,5.879c0.67,3.535,4.752,7.572,1.846,11.156
			c-1.543,1.902-3.31,2.826-4.395,5.113c-0.809,1.703-1.041,3.955-1.514,5.791c-0.979,3.805-6.707,1.559-9.086,0.695
			c-3.244-1.18-5.98-2.229-9.457-1.773c-1.699,0.223-3.289,1.123-4.775,1.914c-3.479,1.857-6.838,2.328-10.746,2.139
			c-6.756-0.33-12.969-3.654-19.705-3.854c-5.943-0.178-11.54,2.918-17.473,3.164c-6.956,0.287-13.716-3.125-20.744-3.031
			c-0.922,0.014-2.295,0.277-3.184,0.418c-3.531,0.563-5.752-0.186-8.85-1.697c-1.932-0.941-4.187-0.584-6.125,0.055
			c-1.33,0.439-3.466,1.152-4.353,2.359c-0.666,0.906-4.384-1.043-4.937-1.291c-2.472-1.109-2.679-3.352-2.033-5.629
			c1.145-4.041,3.704-8.15,1.264-12.24c-0.452-0.757-2.7-1.786-1.987-3.057c0.562-1,0.725-1.694,1.004-2.895
			c1.028-4.409,1.487-8.926,2.248-13.385C88.861,15.807,87.314,15.375,87.139,16.392L87.139,16.392z"/>
	</g>
</g>
<g>
	<path fill="#FFFFFF" d="M166.823,29.497c-0.321,0-0.946,0.053-1.879,0.161v7.464c0.789,0.107,1.522,0.16,2.203,0.16
		c1.896,0,3.274-0.304,4.135-0.913c0.856-0.608,1.289-1.7,1.289-3.275c0-1.289-0.465-2.219-1.396-2.792
		C170.279,29.764,168.83,29.497,166.823,29.497z M164.301,26.705c1.504-0.108,2.596-0.161,3.274-0.161
		c5.548,0,8.322,2.201,8.322,6.603c0,1.468-0.447,2.774-1.345,3.92c-0.895,1.18-1.948,1.916-3.166,2.201l6.658,10.576h-3.597
		l-6.121-9.879c-0.717,0-1.844-0.053-3.383-0.16v10.039h-3.112V26.812C161.94,26.812,162.762,26.776,164.301,26.705z
		 M181.108,29.067c0-0.43,0.16-0.806,0.482-1.128c0.287-0.322,0.662-0.483,1.127-0.483c0.43,0,0.807,0.161,1.127,0.483
		c0.322,0.322,0.483,0.698,0.483,1.128c0,0.429-0.161,0.805-0.483,1.127c-0.32,0.322-0.697,0.483-1.127,0.483
		s-0.805-0.161-1.127-0.483S181.108,29.497,181.108,29.067z M208.811,24.234l-4.939,25.609h-7.248l1.182-4.457h-1.772l-1.879,4.457
		h-7.354l12.082-25.609H208.811z M199.307,40.287c0.574-2.576,1.449-5.852,2.631-9.825c-1.969,4.617-3.363,7.893-4.188,9.825
		H199.307z M184.006,35.026V46.57c0,0.93,0.071,1.539,0.215,1.824c0.145,0.287,0.342,0.502,0.59,0.645
		c0.25,0.145,0.717,0.215,1.396,0.215v0.59h-6.979v-0.59c0.68,0,1.145-0.055,1.396-0.162c0.25-0.143,0.447-0.375,0.59-0.695
		c0.146-0.322,0.215-0.932,0.215-1.826v-5.529c0-1.574-0.053-2.596-0.161-3.061c-0.072-0.322-0.179-0.537-0.322-0.645
		c-0.18-0.143-0.394-0.215-0.646-0.215c-0.321,0-0.68,0.072-1.071,0.215l-0.216-0.537l4.295-1.772H184.006L184.006,35.026z
		 M160.543,41.309c-0.966,2.791-2.435,4.975-4.402,6.549c-1.969,1.576-4.205,2.361-6.711,2.361c-2.506,0-4.207-0.787-5.1-2.361
		c-0.896-1.574-0.859-3.758,0.107-6.549c0.931-2.758,2.38-4.94,4.349-6.55c1.969-1.576,4.207-2.362,6.711-2.362
		s4.206,0.787,5.102,2.362C161.491,36.368,161.475,38.551,160.543,41.309z M150.611,36.475c-1.216,1.146-2.183,2.758-2.899,4.834
		c-0.681,2.074-0.805,3.686-0.375,4.832c0.429,1.182,1.396,1.771,2.899,1.771c1.502,0,2.862-0.59,4.081-1.771
		c1.254-1.146,2.219-2.756,2.898-4.832c0.715-2.076,0.842-3.688,0.375-4.834c-0.431-1.18-1.377-1.77-2.847-1.77
		C153.241,34.705,151.863,35.294,150.611,36.475z M139.866,35.832h-3.5v9.825c0,0.979,0.131,1.637,0.395,1.975
		c0.302,0.34,0.659,0.51,1.074,0.51c0.375,0,0.734-0.094,1.072-0.283c0.339-0.264,0.602-0.604,0.791-1.018h0.677
		c-0.414,1.055-0.96,1.865-1.638,2.43c-0.715,0.525-1.449,0.789-2.201,0.789c-0.527,0-1.017-0.131-1.469-0.395
		c-0.489-0.301-0.865-0.695-1.129-1.186c-0.225-0.525-0.338-1.336-0.338-2.428v-10.22h-2.37v-0.564
		c0.601-0.225,1.223-0.621,1.862-1.187c0.639-0.601,1.205-1.297,1.694-2.089c0.264-0.414,0.622-1.186,1.073-2.315h0.509V33.7h3.5
		v2.131H139.866z M90.694,31.428v-0.322c0-0.178,0.018-0.376,0.054-0.59l1.342-0.268c0.25-0.072,0.501-0.144,0.751-0.215
		c0.573-0.107,1.305-0.358,2.201-0.751c0.179-0.107,0.322-0.197,0.43-0.269l0.859,0.055v9.396c0.93-0.752,1.79-1.271,2.576-1.56
		c0.788-0.321,1.61-0.483,2.471-0.483c0.786,0,1.484,0.144,2.093,0.43c0.572,0.287,1.021,0.645,1.342,1.074
		c0.323,0.43,0.556,0.947,0.699,1.557c0.107,0.395,0.162,1.184,0.162,2.361l-0.055,6.391c0.035,0.105,0.071,0.18,0.107,0.215
		c0.144,0.035,0.465,0.105,0.966,0.215c0.288,0.035,0.501,0.09,0.645,0.16c0.072,0.145,0.107,0.27,0.107,0.375v0.107
		c-0.036,0.105-0.054,0.285-0.054,0.537h-0.321c-0.179,0-0.501-0.018-0.967-0.055c-0.859-0.107-1.593-0.16-2.201-0.16
		c-0.395,0-0.913,0.035-1.557,0.107c-0.465,0-1.056,0-1.771,0c-0.108,0-0.215-0.018-0.323-0.055v-0.535
		c0-0.107,0.019-0.234,0.055-0.377c0.25-0.107,0.536-0.18,0.859-0.215c0.322-0.037,0.625-0.072,0.912-0.107
		c0.036-0.215,0.053-0.34,0.053-0.375l0.108-6.174c0-1.146-0.072-1.916-0.214-2.311c-0.107-0.395-0.359-0.715-0.752-0.965
		c-0.429-0.287-0.912-0.432-1.449-0.432c-0.68,0-1.324,0.162-1.932,0.482c-0.645,0.287-1.182,0.646-1.611,1.074v2.738
		c0,1.539-0.019,2.684-0.054,3.436c0,0.432,0,0.717,0,0.859c0,0.715,0.036,1.199,0.108,1.449c0.071,0.145,0.196,0.27,0.375,0.377
		c0.394,0.035,0.716,0.053,0.967,0.053s0.465,0.018,0.644,0.053c0,0.287,0,0.467,0,0.537c0,0.146-0.018,0.324-0.054,0.537
		l-1.772-0.053c-0.644-0.072-1.234-0.107-1.771-0.107l-2.201,0.16l-1.557-0.049c-0.108-0.145-0.215-0.395-0.322-0.752v-0.215
		c0.178-0.035,0.644-0.107,1.396-0.215c0.357-0.035,0.572-0.107,0.643-0.215c0.108-0.145,0.162-0.52,0.162-1.127l0.107-11.062
		c0-1.969-0.036-3.186-0.107-3.652c-0.072-0.25-0.233-0.465-0.483-0.643C92.143,31.715,91.589,31.571,90.694,31.428z
		 M108.627,28.529h9.127v0.59h-0.752c-0.894,0-1.539,0.251-1.932,0.752c-0.252,0.322-0.377,1.127-0.377,2.416v13.798
		c0,1.072,0.073,1.789,0.215,2.146c0.106,0.25,0.322,0.465,0.644,0.645c0.465,0.25,0.949,0.375,1.45,0.375h0.752v0.592h-9.127
		v-0.592h0.75c0.896,0,1.54-0.25,1.934-0.75c0.25-0.359,0.375-1.164,0.375-2.416V32.288c0-1.073-0.071-1.79-0.215-2.147
		c-0.106-0.25-0.322-0.465-0.644-0.644c-0.465-0.25-0.949-0.376-1.45-0.376h-0.75V28.529z M129.941,31.053v3.919h-4.456v-4.134
		c0-0.465-0.25-0.698-0.751-0.698c-0.608,0-0.914,0.448-0.914,1.342l0.108,1.45c0,0.824,0.554,1.79,1.664,2.899
		c2.075,2.004,3.382,3.401,3.919,4.188c0.572,0.787,0.859,1.664,0.859,2.633v2.898c0,3.006-1.915,4.508-5.746,4.508
		c-3.686,0-5.529-1.359-5.529-4.078v-5.156h4.509v5.156c0,0.535,0.305,0.805,0.914,0.805c0.608,0,0.912-0.27,0.912-0.805v-2.686
		c0-0.789-0.537-1.736-1.61-2.846c-2.111-2.041-3.437-3.42-3.973-4.136c-0.501-0.716-0.751-1.485-0.751-2.308v-2.524
		c0-2.935,1.915-4.402,5.745-4.402C128.24,27.081,129.941,28.404,129.941,31.053z"/>
</g>
</svg>
