<?xml version="1.0" encoding="utf-8"?>
<!-- Generator: Adobe Illustrator 16.0.0, SVG Export Plug-In . SVG Version: 6.00 Build 0)  -->
<!DOCTYPE svg PUBLIC "-//W3C//DTD SVG 1.1//EN" "http://www.w3.org/Graphics/SVG/1.1/DTD/svg11.dtd">
<svg version="1.1" id="Capa_1" xmlns="http://www.w3.org/2000/svg" xmlns:xlink="http://www.w3.org/1999/xlink" x="0px" y="0px"
	 width="126px" height="47px" viewBox="0 0 126 47" enable-background="new 0 0 126 47" xml:space="preserve">
<g>
	<path fill-rule="evenodd" clip-rule="evenodd" fill="#C73133" d="M111.809,11.583c1.453,0.101,2.705,0.901,3.758,2.404
		c2.605,3.558,3.983,7.017,4.134,10.372c1.804,6.263-0.024,11.925-5.487,16.986c-0.5,0.099-0.976,0.248-1.428,0.451l-2.33,0.45
		c-30.563,0.151-61.104-0.351-91.618-1.505c-1.353-0.05-2.605-0.851-3.758-2.404l-1.352-2.029l-0.677-0.15
		c-2.957-0.601-5.088-2.428-6.389-5.486c-3.357-7.814-1.83-14.53,4.584-20.142c0.502-0.151,0.953-0.352,1.354-0.602
		c1.953-1.454,4.51-2.128,7.666-2.029l1.953-0.3l0.227-0.152l0.074-0.298c18.69-1.153,36.703,0.05,54.039,3.605l2.18-1.127
		l0.076-0.226L111.809,11.583z"/>
</g>
<g>
	<path fill-rule="evenodd" clip-rule="evenodd" fill="#040404" d="M88.358,15.341c0.052,0.801,0.076,2.179,0.076,4.135v3.229
		c0,1.905-0.024,3.258-0.076,4.06c-0.101,0.801-0.399,1.528-0.901,2.18c-0.451,0.651-1.077,1.152-1.879,1.503
		c-0.801,0.352-1.754,0.526-2.856,0.526c-1.001,0-1.903-0.15-2.705-0.451c-0.802-0.353-1.454-0.851-1.954-1.504
		c-0.501-0.701-0.801-1.429-0.901-2.179c-0.101-0.801-0.151-2.18-0.151-4.135v-3.229c0-1.905,0.051-3.258,0.151-4.061
		c0.101-0.801,0.376-1.526,0.827-2.179c0.499-0.652,1.151-1.152,1.953-1.503c0.801-0.351,1.729-0.526,2.78-0.526
		c1.053,0,1.98,0.15,2.782,0.45c0.801,0.351,1.453,0.852,1.953,1.505C87.959,13.862,88.258,14.59,88.358,15.341z M81.971,16.469
		v8.868c0,1.103,0.051,1.778,0.15,2.029c0.1,0.3,0.301,0.45,0.601,0.45c0.351,0,0.577-0.15,0.677-0.45
		c0.1-0.301,0.15-1.027,0.15-2.18v-8.718c0-0.903-0.051-1.454-0.15-1.655c-0.1-0.25-0.301-0.376-0.601-0.376
		c-0.251,0-0.452,0.1-0.603,0.3C82.047,14.94,81.971,15.516,81.971,16.469z M98.73,23.532c1.053,0.4,1.829,0.853,2.33,1.353
		c0.451,0.552,0.676,1.228,0.676,2.029c0,1.203-0.5,2.18-1.502,2.932c-1.003,0.701-2.33,1.053-3.984,1.053
		c-1.451,0-3.03-0.276-4.734-0.826v-2.106c1.805,0.803,3.357,1.203,4.66,1.203c0.953,0,1.729-0.2,2.329-0.601
		c0.602-0.351,0.903-0.826,0.903-1.428c0-0.751-0.727-1.354-2.18-1.804l-2.482-0.827c-1.903-0.602-2.854-1.704-2.854-3.308
		c0-1.15,0.427-2.053,1.277-2.705c0.852-0.603,2.08-0.901,3.684-0.901c1.201,0,2.604,0.175,4.208,0.525v1.878
		c-1.553-0.449-2.957-0.675-4.208-0.675c-0.853,0-1.528,0.151-2.029,0.45c-0.501,0.301-0.751,0.701-0.751,1.203
		c0,0.649,0.574,1.177,1.727,1.577L98.73,23.532z M28.759,17.144c1.403,0,2.454,0.427,3.156,1.278s1.052,2.08,1.052,3.683v8.493
		h-2.254v-7.441c0-0.602-0.025-1.153-0.075-1.652c-0.05-0.55-0.151-0.979-0.301-1.277c-0.202-0.351-0.45-0.602-0.752-0.751
		c-0.351-0.151-0.851-0.228-1.503-0.228c-0.603,0-1.202,0.15-1.804,0.451c-0.651,0.3-1.278,0.677-1.88,1.127
		c0,0.201,0.025,0.426,0.075,0.678c0,0.25,0,0.474,0,0.676v8.418h-2.179v-7.441c0-0.602-0.024-1.153-0.076-1.652
		c-0.049-0.55-0.175-0.979-0.375-1.277c-0.15-0.351-0.401-0.602-0.752-0.751c-0.352-0.151-0.826-0.228-1.427-0.228
		c-0.602,0-1.204,0.15-1.805,0.451c-0.651,0.252-1.278,0.627-1.878,1.127v9.771h-2.18V17.443h2.18v1.505
		c0.701-0.602,1.402-1.054,2.104-1.353c0.651-0.301,1.378-0.452,2.18-0.452c0.902,0,1.654,0.177,2.254,0.527
		c0.652,0.4,1.127,0.927,1.428,1.577c0.853-0.751,1.654-1.302,2.406-1.652C27.104,17.295,27.907,17.144,28.759,17.144z
		 M41.911,23.832c-0.251-2.154-0.501-4.834-0.751-8.041c-0.502,3.658-0.827,6.338-0.979,8.041H41.911z M44.542,11.583l2.855,19.015
		h-5.11l-0.227-3.383h-1.804l-0.3,3.383h-5.111l2.557-19.015H44.542z M57.244,15.941c1.504,0.601,2.254,1.679,2.254,3.233
		c0,1.052-0.275,1.927-0.827,2.629c-0.501,0.701-1.327,1.353-2.479,1.955l5.188,6.839h-2.783l-4.811-6.238h-2.027v6.238h-2.33
		V15.565h4.208C55.391,15.565,56.592,15.691,57.244,15.941z M51.758,17.295v5.26h1.201c1.254,0,2.23-0.25,2.932-0.751
		c0.752-0.552,1.127-1.302,1.127-2.254c0-0.902-0.275-1.503-0.826-1.804c-0.552-0.303-1.578-0.451-3.081-0.451H51.758z
		 M64.835,21.276c1.103-1.102,2.58-1.651,4.435-1.651c0.65,0,1.277,0.051,1.879,0.149c0.551,0.151,1.076,0.351,1.578,0.602
		c0.301-0.301,0.6-0.45,0.901-0.45c0.351,0,0.627,0.126,0.827,0.374c0.25,0.251,0.375,0.678,0.375,1.277v1.504
		c0,0.603-0.125,1.028-0.375,1.278c-0.2,0.251-0.477,0.375-0.827,0.375s-0.651-0.1-0.901-0.299
		c-0.152-0.152-0.275-0.452-0.376-0.903c-0.1-0.4-0.326-0.727-0.677-0.978c-0.602-0.35-1.403-0.527-2.404-0.527
		c-1.152,0-2.055,0.327-2.707,0.979c-0.701,0.703-1.051,1.554-1.051,2.557c0,0.95,0.324,1.702,0.976,2.254
		c0.651,0.501,1.755,0.752,3.308,0.752c1.003,0,1.805-0.101,2.404-0.301c0.4-0.101,0.752-0.302,1.053-0.602
		c0.351-0.3,0.677-0.451,0.978-0.451c0.302,0,0.576,0.128,0.825,0.375c0.252,0.201,0.377,0.477,0.377,0.827
		c0,0.552-0.377,1.054-1.127,1.504c-1.053,0.701-2.631,1.053-4.735,1.053c-1.854,0-3.306-0.376-4.358-1.128
		c-1.403-1.053-2.105-2.479-2.105-4.283C63.105,23.858,63.682,22.43,64.835,21.276z"/>
</g>
</svg>
