<?xml version="1.0" encoding="utf-8"?>
<!-- Generator: Adobe Illustrator 16.0.0, SVG Export Plug-In . SVG Version: 6.00 Build 0)  -->
<!DOCTYPE svg PUBLIC "-//W3C//DTD SVG 1.1//EN" "http://www.w3.org/Graphics/SVG/1.1/DTD/svg11.dtd">
<svg version="1.1" id="Capa_1" xmlns="http://www.w3.org/2000/svg" xmlns:xlink="http://www.w3.org/1999/xlink" x="0px" y="0px"
	 width="113px" height="47px" viewBox="0 0 113 47" enable-background="new 0 0 113 47" xml:space="preserve">
<g>
	<path fill-rule="evenodd" clip-rule="evenodd" fill="#C73133" d="M48.248,37.954l-3.098,0.558
		c-10.738,0.247-21.435-0.041-32.09-0.868c-1.281-0.083-2.396-0.744-3.347-1.983c-6.689-8.837-6.441-17.364,0.745-25.584
		l1.176-0.435l1.859-0.93l0.063-0.184c4.541-1.033,8.321-0.372,11.336,1.98l4.521-1.61l0.188-0.122l0.062-0.248l24.718,1.92
		c1.156,0.122,2.313,0.724,3.47,1.797l1.548,1.549c15.529-0.454,31.1-0.703,46.712-0.744l-1.364,3.035l0.807,0.806
		c1.732,5.451,1.053,10.43-2.045,14.931l-0.434,0.866c-1.157,0.702-2.106,1.611-2.85,2.728l-0.559,0.68
		c-1.982,0.495-3.654,1.446-5.017,2.851l-7.992-0.681l-0.248,0.185l-37.542-1.053L48.248,37.954z"/>
</g>
<g>
	<path fill-rule="evenodd" clip-rule="evenodd" fill="#040404" d="M63.364,19.801c0.743-0.535,1.424-0.908,2.044-1.113
		c0.744-0.208,1.363-0.31,1.857-0.31c1.116,0,2.004,0.081,2.665,0.246s1.218,0.414,1.673,0.743c0.66,0.454,1.197,0.908,1.609,1.362
		c0.414,0.497,0.744,1.055,0.992,1.675c0.247,0.619,0.372,1.383,0.372,2.291l-1.92-0.061c-0.538,0-1.716-0.043-3.532-0.125
		c-0.701-0.084-1.178-0.125-1.425-0.125c-0.083,0-0.723,0.021-1.921,0.063h-1.485c0,0.166,0,0.309,0,0.434
		c0,0.619,0.061,1.281,0.185,1.982c0.166,0.661,0.393,1.261,0.682,1.797c0.33,0.496,0.723,0.931,1.178,1.301
		c0.414,0.414,0.866,0.702,1.362,0.867l0.991,0.31c0.909,0,1.528-0.041,1.858-0.124c0.537-0.082,1.032-0.228,1.487-0.434
		c0.413-0.165,0.93-0.475,1.549-0.93c0.412,0.332,0.764,0.62,1.053,0.868c-1.032,1.114-2.106,1.941-3.221,2.479
		c-1.115,0.495-2.355,0.743-3.718,0.743c-0.908,0-1.652-0.082-2.231-0.248c-0.783-0.206-1.506-0.537-2.168-0.991
		c-0.619-0.413-1.155-0.95-1.61-1.611c-0.453-0.619-0.804-1.278-1.052-1.981c-0.289-0.867-0.436-1.569-0.436-2.106
		c0-1.032,0.084-1.962,0.248-2.788c0.331-0.99,0.6-1.651,0.807-1.982C61.918,21.083,62.62,20.338,63.364,19.801z M78.542,20.173
		l1.239-4.771h13.752l-1.486,4.771h-0.496c0.165-0.702,0.248-1.321,0.248-1.858c0-0.661-0.206-1.157-0.62-1.486
		c-0.289-0.248-1.052-0.372-2.292-0.372h-1.425l-3.593,12.452c-0.455,1.567-0.681,2.52-0.681,2.85c0,0.372,0.144,0.661,0.433,0.868
		c0.289,0.205,0.785,0.31,1.488,0.31h0.618l-0.186,0.494h-7.806l0.123-0.494h0.373c0.66,0,1.176-0.104,1.549-0.31
		c0.289-0.166,0.536-0.435,0.742-0.806c0.207-0.414,0.496-1.261,0.867-2.54l3.719-12.824h-1.055c-1.032,0-1.879,0.145-2.539,0.434
		c-0.62,0.248-1.135,0.62-1.549,1.114c-0.372,0.497-0.682,1.219-0.93,2.169H78.542z M67.576,19.491
		c-0.784,0-1.486,0.354-2.107,1.055c-0.66,0.661-1.011,1.59-1.052,2.788h3.965c0.249,0,0.62,0,1.114,0
		c0.33-0.041,0.559-0.063,0.682-0.063c0.125,0,0.29,0,0.496,0c0-0.66-0.124-1.279-0.371-1.858c-0.248-0.619-0.641-1.094-1.178-1.425
		C68.631,19.657,68.113,19.491,67.576,19.491z M53.823,16.642c1.859,0.743,2.788,2.024,2.788,3.841c0,1.198-0.289,2.209-0.867,3.036
		c-0.619,0.827-1.549,1.527-2.788,2.105l5.762,7.806h-3.532l-5.266-6.938H48v6.938h-3.098V16.146h4.957
		C51.84,16.146,53.163,16.312,53.823,16.642z M52.46,19.122c-0.536-0.332-1.59-0.497-3.159-0.497H48v5.39h1.053
		c1.322,0,2.354-0.289,3.098-0.866c0.785-0.579,1.178-1.344,1.178-2.293C53.328,20.029,53.039,19.452,52.46,19.122z M36.478,21.289
		v-9.541h5.141V33.43h-5.327l-2.354-9.602v9.602h-5.143V11.748h5.018L36.478,21.289z M15.909,21.846
		c0.703,0,2.788-0.124,6.258-0.372c0.577,0,0.929-0.041,1.054-0.123c0.207-0.29,0.309-0.537,0.309-0.743
		c0-0.413-0.123-0.889-0.371-1.426c-0.289-0.535-0.702-0.949-1.239-1.238c-0.577-0.29-1.26-0.434-2.045-0.434
		c-1.569,0-2.829,0.599-3.778,1.797c-0.742,0.866-1.116,1.712-1.116,2.539H15.909z M14.795,18.439
		c0.825-0.661,1.549-1.115,2.168-1.363c0.867-0.372,1.9-0.558,3.098-0.558c1.281,0,2.313,0.229,3.098,0.683
		c1.114,0.619,1.941,1.424,2.479,2.415c0.537,0.949,0.805,1.837,0.805,2.664v0.31l-9.788,0.062c-0.661,0-1.321,0.021-1.983,0.063
		c-0.123,0.412-0.186,0.701-0.186,0.866l0.063,0.187l-0.063,1.238c0,0.825,0.27,1.838,0.805,3.036
		c0.538,1.239,1.303,2.168,2.293,2.787c0.951,0.62,2.168,0.95,3.656,0.992c0.783-0.042,1.403-0.124,1.857-0.249
		c0.455-0.165,1.115-0.517,1.982-1.053l1.487-1.238l0.124,0.866c0,0.084,0,0.188,0,0.31c-0.62,0.743-1.404,1.425-2.354,2.045
		c-0.95,0.578-1.922,1.013-2.913,1.301c-0.453,0.125-1.218,0.187-2.292,0.187c-0.949,0-1.898-0.206-2.849-0.619
		c-1.405-0.62-2.521-1.591-3.347-2.913c-0.784-1.319-1.177-2.952-1.177-4.894c0-0.578,0.124-1.341,0.372-2.293
		c0.207-0.948,0.598-1.961,1.177-3.034C13.721,19.533,14.217,18.934,14.795,18.439z"/>
</g>
</svg>
