<?xml version="1.0" encoding="utf-8"?>
<!-- Generator: Adobe Illustrator 16.0.0, SVG Export Plug-In . SVG Version: 6.00 Build 0)  -->
<!DOCTYPE svg PUBLIC "-//W3C//DTD SVG 1.1//EN" "http://www.w3.org/Graphics/SVG/1.1/DTD/svg11.dtd">
<svg version="1.1" id="Capa_1" xmlns="http://www.w3.org/2000/svg" xmlns:xlink="http://www.w3.org/1999/xlink" x="0px" y="0px"
	 width="187px" height="47px" viewBox="0 0 187 47" enable-background="new 0 0 187 47" xml:space="preserve">
<g>
	<g>
		<path fill-rule="evenodd" clip-rule="evenodd" fill="#C73133" d="M177.151,15.67l0.123,0.248c0.785,1.527,1.053,3.077,0.807,4.647
			l0.185,0.31c2.767,4.708,3.222,9.086,1.363,13.133c0.331,0.66,0.393,1.569,0.186,2.727c-0.124,0.66-0.413,1.217-0.868,1.671
			c-1.361,0.951-2.828,1.529-4.398,1.736l-3.84,0.248c-10.738,1.198-21.168,0.929-31.285-0.807l-63.314,2.169
			c-5.12,0.29-10.221,0.165-15.301-0.372l-10.408-1.858L34.85,38.902c-9.21,2.478-17.43,0.929-24.656-4.646
			c-1.57-1.157-2.457-2.746-2.664-4.771c-0.413-3.717,0.27-6.919,2.044-9.603v-0.682l0.31-1.053
			c-1.527-0.703-2.869-2.086-4.025-4.151l-0.063-1.858l0.371-1.859l0.992-0.433l1.486-0.371V9.352
			c1.322,0.041,2.498,0.393,3.531,1.053l0.124-0.125c2.437-0.328,4.728-0.02,6.876,0.931l0.93-1.239l2.168-0.495V9.352l4.275,0.928
			l0.557,0.497l6.381,1.178c19.576-0.497,38.781-0.021,57.615,1.424c3.84,0.331,7.619,0.021,11.335-0.93
			c2.147-0.537,3.821-1.362,5.019-2.478l33.391,1.858c3.512,0.29,6.939,0.91,10.285,1.858l0.311,0.125
			c0.33-0.95,1.135-1.592,2.414-1.921l3.717-0.619V11.21l17.1,0.557l0.867,0.497C176.489,13.213,177.026,14.348,177.151,15.67z"/>
	</g>
	<g>
		<path fill-rule="evenodd" clip-rule="evenodd" fill="#040404" d="M136.264,15.236l-4.771,14.125c0.785,0,1.343-0.145,1.674-0.433
			c0.289-0.332,0.66-1.22,1.113-2.665l2.85-8.363c0.33-0.99,0.517-1.61,0.559-1.858c0.041-0.288-0.021-0.495-0.186-0.619
			C137.295,15.3,136.882,15.236,136.264,15.236z M143.573,15.052c-0.123,0.661-0.537,2.023-1.239,4.089l-2.54,7.556
			c-0.66,1.9-1.197,3.181-1.61,3.843c-0.413,0.66-0.909,1.178-1.485,1.548c-0.58,0.372-1.22,0.64-1.922,0.805
			c-0.701,0.125-1.734,0.187-3.098,0.187h-7.063l7.311-21.559h4.213c2.685,0,4.461,0.124,5.327,0.372
			c0.908,0.247,1.507,0.661,1.797,1.239C143.552,13.709,143.655,14.348,143.573,15.052z M128.581,13.131l-0.928,2.602h-2.85
			l0.929-2.602H128.581z M152.555,25.645c0.62-1.941,0.744-3.366,0.372-4.275c-0.372-0.949-1.196-1.424-2.479-1.424
			c-1.321,0-2.498,0.475-3.53,1.424c-1.031,0.909-1.859,2.334-2.479,4.275c-0.66,1.857-0.785,3.284-0.371,4.275
			c0.371,0.949,1.197,1.424,2.479,1.424c1.279,0,2.437-0.475,3.469-1.424C151.047,28.969,151.895,27.544,152.555,25.645z
			 M151.131,17.777c2.023,0,3.407,0.701,4.15,2.105c0.742,1.363,0.682,3.283-0.188,5.762c-0.824,2.52-2.084,4.46-3.777,5.824
			c-1.652,1.361-3.49,2.043-5.514,2.043c-2.064,0-3.449-0.702-4.15-2.104c-0.701-1.405-0.641-3.326,0.186-5.763
			c0.826-2.479,2.086-4.398,3.779-5.762C147.31,18.479,149.149,17.777,151.131,17.777z M126.661,18.21l-5.08,14.868h-2.479
			l5.08-14.868H126.661z M15.211,24.964c0.578-0.454,1.797-1.013,3.655-1.675c2.024-0.66,3.138-1.113,3.345-1.362
			c0.207-0.247,0.434-0.743,0.682-1.486c0.289-0.908,0.414-1.507,0.372-1.797c-0.042-0.288-0.206-0.434-0.495-0.434
			c-0.372,0-0.641,0.124-0.807,0.372c-0.164,0.248-0.412,0.848-0.742,1.797l-0.682,1.857h-5.018l0.434-1.178
			c0.454-1.361,0.949-2.415,1.486-3.158c0.578-0.743,1.445-1.403,2.602-1.982c1.115-0.536,2.438-0.805,3.965-0.805
			c1.817,0,3.076,0.31,3.779,0.929c0.701,0.66,0.991,1.467,0.867,2.416c-0.123,0.909-0.682,2.829-1.672,5.761l-3.035,8.859h-5.205
			l0.496-1.549c-0.537,0.621-1.115,1.075-1.735,1.362c-0.62,0.332-1.28,0.497-1.981,0.497c-0.951,0-1.734-0.27-2.355-0.807
			c-0.619-0.495-0.619-1.651,0-3.469l0.496-1.424C14.118,26.367,14.633,25.459,15.211,24.964z M110.057,13.936l-7.247,4.213
			l-1.425-1.116l6.256-4.894L110.057,13.936z M85.774,13.316c4.914,0,7.371,1.879,7.371,5.637c0,2.189-0.764,3.903-2.291,5.143
			c-1.488,1.198-3.408,1.798-5.762,1.798c-0.951,0-1.84-0.104-2.664-0.311l-1.363,7.495H78.34l3.53-19.515
			C83.522,13.399,84.824,13.316,85.774,13.316z M54.055,15.236l-4.771,14.125c0.785,0,1.343-0.145,1.674-0.433
			c0.289-0.332,0.66-1.22,1.115-2.665l2.85-8.363c0.33-0.99,0.516-1.61,0.557-1.858c0.042-0.288-0.02-0.495-0.186-0.619
			C55.087,15.3,54.674,15.236,54.055,15.236z M61.366,15.052c-0.125,0.661-0.538,2.023-1.24,4.089l-2.539,7.556
			c-0.662,1.9-1.198,3.181-1.611,3.843c-0.413,0.66-0.908,1.178-1.486,1.548c-0.578,0.372-1.219,0.64-1.921,0.805
			c-0.702,0.125-1.734,0.187-3.097,0.187h-7.063l7.31-21.559h4.213c2.686,0,4.461,0.124,5.328,0.372
			c0.908,0.247,1.508,0.661,1.797,1.239S61.448,14.348,61.366,15.052z M66.196,29.361l8.427-10.718h2.354L64.153,34.937
			c-1.033,1.281-2.024,2.169-2.975,2.664c-0.949,0.495-2.148,0.743-3.592,0.743h-1.115l0.619-1.98h1.115
			c0.992,0,1.754-0.166,2.292-0.497c0.579-0.289,1.3-0.97,2.168-2.045l1.116-1.362l-1.364-13.815h2.664L66.196,29.361z
			 M45.134,15.918l-5.823,17.16h-2.416l-3.594-12.513h-0.063l-4.274,12.513h-2.106l5.824-17.16h2.477l3.594,12.452h0.063
			l4.213-12.452H45.134z M21.469,24.653c-1.074,0.661-1.756,1.196-2.045,1.61s-0.578,1.033-0.867,1.859
			c-0.289,0.908-0.434,1.487-0.434,1.734c0.041,0.288,0.248,0.434,0.619,0.434c0.33,0,0.578-0.104,0.743-0.31
			c0.165-0.206,0.413-0.765,0.743-1.673L21.469,24.653z M105.102,28.742c0,1.899,0.393,3.076,1.178,3.53
			c-0.29,0.496-0.6,0.806-0.93,0.93c-0.331,0.082-0.725,0.124-1.178,0.124s-0.867-0.166-1.238-0.496
			c-0.413-0.371-0.682-0.764-0.807-1.178c-0.289,0.498-0.805,0.91-1.549,1.239c-0.784,0.291-1.568,0.435-2.354,0.435
			c-1.527,0-2.746-0.371-3.654-1.115c-0.867-0.785-1.301-1.879-1.301-3.282c0-1.653,0.619-2.954,1.857-3.903
			c1.24-0.909,2.994-1.362,5.266-1.362c0.414,0,0.868,0.061,1.363,0.185c0-1.652-1.053-2.479-3.159-2.479
			c-1.239,0-2.292,0.207-3.159,0.62l-0.682-2.602c1.156-0.537,2.52-0.806,4.089-0.806c2.147,0,3.737,0.496,4.77,1.487
			c0.991,0.989,1.487,2.85,1.487,5.575V28.742z M100.517,26.203c-2.602,0-3.901,0.866-3.901,2.601c0,1.281,0.742,1.921,2.229,1.921
			c1.981,0,2.972-1.013,2.972-3.035v-1.303C101.241,26.264,100.807,26.203,100.517,26.203z M108.012,33.078l7.311-21.559h5.638
			l-5.884,17.223h3.406l-1.487,4.336H108.012z M90.295,19.263c0-2.396-1.28-3.593-3.841-3.593c-0.743,0-1.527,0.104-2.354,0.31
			l-1.238,7.187c0.455,0.248,1.156,0.372,2.105,0.372c1.611,0,2.892-0.372,3.841-1.114C89.8,21.68,90.295,20.628,90.295,19.263z"/>
	</g>
</g>
</svg>
