<?xml version="1.0" encoding="utf-8"?>
<!-- Generator: Adobe Illustrator 16.0.0, SVG Export Plug-In . SVG Version: 6.00 Build 0)  -->
<!DOCTYPE svg PUBLIC "-//W3C//DTD SVG 1.1//EN" "http://www.w3.org/Graphics/SVG/1.1/DTD/svg11.dtd">
<svg version="1.1" id="Capa_1" xmlns="http://www.w3.org/2000/svg" xmlns:xlink="http://www.w3.org/1999/xlink" x="0px" y="0px"
	 width="112px" height="47px" viewBox="0 0 112 47" enable-background="new 0 0 112 47" xml:space="preserve">
<g>
	<g>
		<path fill-rule="evenodd" clip-rule="evenodd" fill="#C73133" d="M105.252,19.716l1.921,5.018
			c-3.511,4.707-5.143,9.705-4.895,14.992h-0.309l-0.435,0.434l-16.169-0.806c-1.404-0.207-2.396-0.64-2.975-1.302l-14.558,0.125
			c-11.233,0.124-22.487,0.082-33.763-0.125c-0.95,0-1.879-0.31-2.788-0.929l-1.239,0.619c-0.165-0.124-0.31-0.185-0.434-0.185
			l-7.063-0.435l-3.407,0.558l-1.114,0.062l-0.992,1.239l-0.682,0.248l-7.371-0.248L8.423,37.99
			c-0.371-0.867-0.434-1.755-0.186-2.664l0.434-0.991l0.93-0.495c1.033-0.414,2.065-0.765,3.098-1.054l-0.557-0.991l-0.311-0.868
			l-0.063-0.928L7.741,27.83l-0.434-0.991c-0.494-2.105-0.681-4.254-0.557-6.443l0.063-0.928c1.569-2.521,3.84-4.193,6.814-5.02
			c1.816-0.495,3.469-1.299,4.955-2.416l0.125-0.061l0.186-0.559l0.929-1.858l0.929-0.619c1.239-0.826,2.582-1.301,4.027-1.424
			V7.387c4.213-0.95,8.115-0.66,11.709,0.868l0.93-0.249l0.186,0.063h6.752l1.982,0.682c1.941,0.783,3.902,1.259,5.887,1.424
			l0.371,0.558l0.743,0.497c4.13,0.246,8.26,0.269,12.39,0.061c3.758-0.165,7.228-1.073,10.408-2.725l0.99-0.682l14.249,0.123
			c1.899,1.157,4.171,2.188,6.814,3.098C100.173,14.946,102.526,17.815,105.252,19.716z M23.663,33.716v-0.93l-0.99,0.559
			L23.663,33.716z"/>
	</g>
	<g>
		<path fill-rule="evenodd" clip-rule="evenodd" fill="#040404" d="M86.419,24.362c-0.248,0.742-0.371,2.331-0.371,4.769v4.336
			H82.33V19.344h3.47v1.981c0.578-0.95,1.115-1.568,1.61-1.857c0.454-0.29,0.991-0.434,1.61-0.434c0.868,0,1.693,0.226,2.479,0.682
			l-1.177,3.283c-0.619-0.414-1.198-0.62-1.735-0.62c-0.536,0-0.991,0.145-1.362,0.434C86.853,23.102,86.585,23.619,86.419,24.362z
			 M79.108,31.733c0.125,0.206,0.289,0.371,0.496,0.495c0.207,0.082,0.6,0.124,1.178,0.124l-0.248,1.114h-6.815l0.31-1.114h0.744
			c0.619,0,1.033-0.103,1.239-0.31c0.248-0.206,0.372-0.496,0.372-0.868c0-0.164-0.021-0.453-0.063-0.867l-0.619-3.778h-7.125
			l-2.416,4.214c-0.207,0.371-0.31,0.681-0.31,0.928c0,0.207,0.103,0.372,0.31,0.496c0.166,0.125,0.537,0.186,1.115,0.186h0.619
			l-0.247,1.114h-6.195l0.247-1.114c0.621,0,1.055-0.061,1.302-0.186c0.248-0.083,0.475-0.228,0.682-0.434
			c0.165-0.207,0.475-0.682,0.929-1.426l9.106-15.426h2.293l2.726,15.551C78.862,31.052,78.984,31.485,79.108,31.733z
			 M21.867,17.485v9.85c0,1.239,0.041,1.963,0.123,2.169c0.042,0.205,0.187,0.31,0.435,0.31s0.413-0.146,0.495-0.435
			c0.042-0.248,0.063-0.97,0.063-2.168v-9.726c0-0.95-0.021-1.529-0.063-1.735c-0.082-0.166-0.247-0.249-0.495-0.249
			c-0.166,0-0.311,0.063-0.435,0.188C21.908,15.853,21.867,16.453,21.867,17.485z M19.202,11.972c0.909-0.414,1.982-0.62,3.223-0.62
			c1.156,0,2.209,0.206,3.16,0.62c0.949,0.371,1.713,0.949,2.291,1.734s0.908,1.631,0.99,2.539c0.125,0.868,0.187,2.396,0.187,4.585
			v3.593c0,2.147-0.062,3.677-0.187,4.585c-0.082,0.909-0.393,1.755-0.928,2.539c-0.579,0.745-1.343,1.322-2.293,1.735
			c-0.908,0.413-1.982,0.619-3.221,0.619c-1.156,0-2.209-0.186-3.16-0.557c-0.949-0.414-1.713-0.992-2.292-1.736
			c-0.578-0.783-0.909-1.63-0.991-2.539c-0.123-0.908-0.186-2.457-0.186-4.646V20.83c0-2.147,0.063-3.676,0.186-4.585
			c0.082-0.908,0.413-1.734,0.991-2.477C17.51,12.982,18.253,12.386,19.202,11.972z M58.294,16.369
			c0.99,0.619,1.652,1.363,1.982,2.23c0.33,0.91,0.495,2.209,0.495,3.903h-5.08v-2.046c0-0.741-0.041-1.238-0.124-1.484
			c-0.123-0.248-0.351-0.373-0.681-0.373c-0.29,0-0.495,0.125-0.62,0.373c-0.082,0.205-0.123,0.7-0.123,1.484v8.303
			c0,0.619,0.082,1.095,0.248,1.426c0.123,0.329,0.351,0.495,0.681,0.495c0.372,0,0.619-0.166,0.743-0.495
			c0.124-0.331,0.186-0.95,0.186-1.859V26.22h4.771c0,1.403-0.042,2.457-0.124,3.159c-0.083,0.703-0.371,1.425-0.867,2.168
			c-0.537,0.745-1.197,1.301-1.982,1.674c-0.826,0.371-1.838,0.557-3.035,0.557c-1.487,0-2.684-0.247-3.594-0.742
			c-0.867-0.538-1.486-1.281-1.857-2.231c-0.373-0.907-0.559-2.229-0.559-3.965v-5.018c0-1.487,0.145-2.622,0.434-3.406
			c0.33-0.745,0.971-1.427,1.921-2.046c0.991-0.577,2.188-0.868,3.594-0.868C56.104,15.501,57.302,15.792,58.294,16.369z
			 M35.31,16.741c-0.701,0.577-1.053,1.28-1.053,2.106c0,0.702,0.248,1.28,0.743,1.734c0.496,0.453,1.796,0.908,3.903,1.362
			c2.106,0.497,3.552,0.909,4.337,1.24c1.114,0.536,1.94,1.198,2.478,1.983c0.537,0.823,0.805,1.754,0.805,2.787
			c0,1.031-0.288,2.023-0.867,2.972c-0.578,0.91-1.424,1.611-2.539,2.108c-1.115,0.495-2.375,0.742-3.779,0.742
			c-1.775,0-3.242-0.247-4.398-0.742c-1.238-0.538-2.189-1.302-2.85-2.292c-0.661-1.075-1.012-2.251-1.053-3.532l2.416-0.248
			c0.123,0.992,0.393,1.797,0.805,2.416c0.412,0.62,1.074,1.136,1.982,1.548c0.867,0.372,1.858,0.559,2.975,0.559
			c0.99,0,1.857-0.146,2.6-0.434c0.744-0.289,1.322-0.681,1.736-1.177c0.33-0.537,0.495-1.115,0.495-1.734
			c0-0.578-0.165-1.097-0.495-1.55c-0.372-0.454-0.971-0.846-1.797-1.176c-0.496-0.207-1.652-0.517-3.469-0.931
			c-1.775-0.453-3.036-0.865-3.779-1.238c-0.908-0.495-1.59-1.094-2.045-1.797c-0.454-0.744-0.682-1.569-0.682-2.477
			c0-0.951,0.269-1.859,0.807-2.728c0.578-0.866,1.403-1.527,2.477-1.981c1.075-0.413,2.271-0.62,3.594-0.62
			c1.445,0,2.727,0.228,3.842,0.683c1.073,0.454,1.92,1.134,2.539,2.043c0.578,0.909,0.889,1.942,0.93,3.099l-2.479,0.186
			c-0.124-1.238-0.578-2.168-1.363-2.788c-0.742-0.662-1.879-0.991-3.406-0.991C37.189,15.874,36.054,16.162,35.31,16.741z
			 M75.454,25.29l-1.363-8.302l-4.709,8.302H75.454z"/>
	</g>
</g>
</svg>
